M48
;DRILL file {KiCad 4.0.7} date 03/08/21 23:20:14
;FORMAT={-:-/ absolute / metric / decimal}
FMAT,2
METRIC,TZ
T1C0.400
T2C0.800
T3C1.000
T4C1.100
T5C1.200
T6C1.300
T7C1.500
T8C1.520
T9C3.048
%
G90
G05
M71
T1
X100.2Y-62.4
X101.4Y-68.5
X105.4Y-62.7
X122.7Y-54.6
X126.2Y-54.7
T2
X53.8Y-91.9
X54.7Y-85.9
X55.6Y-66.7
X55.6Y-79.4
X57.3Y-94.9
X57.3Y-99.9
X58.1Y-105.5
X58.8Y-91.9
X59.48Y-76.3
X61.6Y-105.5
X64.Y-79.4
X65.4Y-91.1
X65.4Y-98.72
X66.Y-66.6
X67.1Y-76.3
X67.4Y-85.9
X68.08Y-92.6
X69.Y-79.4
X70.7Y-95.8
X71.78Y-69.72
X71.78Y-72.26
X71.78Y-74.8
X71.78Y-77.34
X71.78Y-79.88
X71.78Y-82.42
X71.78Y-84.96
X71.78Y-87.5
X72.48Y-107.8
X73.62Y-66.6
X73.68Y-98.7
X74.7Y-111.2
X74.7Y-113.7
X75.7Y-92.6
X75.7Y-95.8
X75.8Y-102.1
X75.8Y-104.6
X75.9Y-66.6
X76.6Y-35.1
X76.6Y-40.1
X78.6Y-91.3
X78.6Y-96.3
X79.4Y-69.72
X79.4Y-72.26
X79.4Y-74.8
X79.4Y-77.34
X79.4Y-79.88
X79.4Y-82.42
X79.4Y-84.96
X79.4Y-87.5
X80.1Y-107.8
X80.38Y-102.
X80.38Y-104.7
X81.3Y-98.7
X82.6Y-69.6
X82.6Y-77.22
X82.8Y-79.7
X82.8Y-84.7
X83.52Y-66.6
X83.7Y-107.9
X84.38Y-98.5
X86.Y-69.68
X86.Y-77.3
X87.1Y-55.2
X87.1Y-60.2
X87.6Y-124.5
X88.Y-102.
X88.Y-104.7
X91.1Y-103.4
X91.32Y-107.9
X92.Y-98.5
X93.6Y-103.4
X94.28Y-75.2
X95.22Y-124.5
X95.28Y-84.5
X95.4Y-81.2
X95.48Y-87.9
X95.48Y-95.52
X95.6Y-98.6
X98.02Y-87.9
X98.02Y-95.52
X100.56Y-87.9
X100.56Y-95.52
X100.6Y-98.6
X101.9Y-75.2
X102.9Y-84.5
X102.98Y-57.5
X102.98Y-65.12
X103.02Y-81.2
X103.1Y-87.9
X103.1Y-95.52
X105.52Y-57.5
X105.52Y-65.12
X106.8Y-85.2
X106.8Y-92.82
X108.06Y-57.5
X108.06Y-65.12
X108.6Y-40.9
X108.68Y-37.8
X110.1Y-85.2
X110.1Y-92.82
X110.6Y-57.5
X110.6Y-65.12
X112.2Y-47.3
X112.52Y-51.8
X113.Y-98.1
X113.08Y-92.
X113.08Y-95.
X113.14Y-57.5
X113.14Y-65.12
X115.68Y-57.5
X115.68Y-65.12
X116.1Y-68.3
X116.22Y-40.9
X116.3Y-37.8
X117.2Y-47.3
X117.4Y-51.8
X117.4Y-81.68
X117.4Y-89.3
X118.22Y-57.5
X118.22Y-65.12
X119.5Y-47.3
X120.62Y-98.1
X120.7Y-78.7
X120.7Y-85.3
X120.7Y-92.
X120.7Y-95.
X120.76Y-57.5
X120.76Y-65.12
X120.78Y-82.
X120.78Y-88.5
X120.88Y-75.4
X120.9Y-72.
X121.1Y-68.3
X123.Y-92.
X123.28Y-68.8
X123.3Y-57.5
X123.3Y-65.12
X123.8Y-36.6
X123.8Y-41.6
X123.9Y-100.1
X124.Y-96.8
X124.5Y-47.3
X125.84Y-57.5
X125.84Y-65.12
X128.Y-92.
X128.32Y-78.7
X128.32Y-85.3
X128.38Y-57.5
X128.38Y-65.12
X128.4Y-82.
X128.4Y-88.5
X128.5Y-75.4
X128.52Y-72.
X128.9Y-42.4
X128.9Y-50.02
X129.9Y-34.9
X129.9Y-38.4
X130.9Y-68.8
X130.92Y-57.5
X130.92Y-65.12
X131.52Y-100.1
X131.6Y-86.9
X131.6Y-91.9
X131.62Y-96.8
X131.7Y-72.4
X131.7Y-77.4
X131.7Y-79.7
X131.7Y-84.7
X131.8Y-42.4
X131.8Y-50.02
X132.4Y-54.3
X133.46Y-57.5
X133.46Y-65.12
X136.Y-57.5
X136.Y-65.12
X137.4Y-54.3
T3
X47.6Y-49.2
X47.6Y-54.2
X47.7Y-99.02
X47.7Y-101.56
X47.7Y-104.1
X51.1Y-63.72
X51.1Y-66.26
X51.1Y-68.8
X51.1Y-80.62
X51.1Y-83.16
X51.1Y-85.7
X71.1Y-55.3
X81.1Y-55.3
X88.6Y-119.4
X91.14Y-119.4
X93.68Y-119.4
X96.22Y-119.4
X98.76Y-119.4
X101.3Y-119.4
X103.84Y-119.4
X106.38Y-119.4
X108.92Y-119.4
X109.82Y-74.
X109.82Y-76.54
X110.1Y-33.9
X111.46Y-119.4
X112.36Y-74.
X112.36Y-76.54
X112.64Y-33.9
X114.Y-119.4
X114.9Y-74.
X114.9Y-76.54
X115.18Y-33.9
X116.54Y-119.4
X119.08Y-119.4
X121.62Y-119.4
X124.16Y-119.4
X126.7Y-119.4
X136.9Y-42.18
X136.9Y-44.72
X136.9Y-47.26
X136.9Y-49.8
T4
X52.8Y-122.
X52.8Y-126.5
X53.8Y-96.28
X53.8Y-103.9
X59.1Y-69.7
X59.18Y-73.
X59.3Y-122.
X59.3Y-126.5
X63.4Y-122.
X63.4Y-126.5
X66.72Y-69.7
X66.8Y-73.
X69.9Y-122.
X69.9Y-126.5
X73.8Y-122.
X73.8Y-126.5
X80.3Y-122.
X80.3Y-126.5
T5
X57.6Y-43.38
X57.6Y-63.7
X63.9Y-38.5
X71.4Y-38.5
X82.2Y-42.8
X90.4Y-74.8
X90.4Y-95.12
X102.52Y-42.8
X126.8Y-106.1
X129.3Y-111.14
X131.8Y-106.1
T6
X64.Y-50.6
X64.Y-63.3
T7
X91.59Y-54.58
X91.59Y-69.82
X97.94Y-54.58
X97.94Y-69.82
T8
X81.32Y-35.7
X86.4Y-35.7
X92.02Y-35.5
X97.1Y-35.5
T9
X45.804Y-34.016
X45.804Y-125.456
X137.752Y-34.016
X137.752Y-125.456
T3
X44.2Y-114.4G85X44.2Y-116.4
G05
X46.2Y-120.1G85X48.2Y-120.1
G05
X50.2Y-114.4G85X50.2Y-116.4
G05
T7
X56.1Y-113.25G85X56.1Y-113.75
G05
X59.8Y-113.25G85X59.8Y-113.75
G05
X63.55Y-113.25G85X63.55Y-113.75
G05
X67.5Y-113.25G85X67.5Y-113.75
G05
T0
M30
