G04 #@! TF.FileFunction,Copper,L2,Bot,Signal*
%FSLAX46Y46*%
G04 Gerber Fmt 4.6, Leading zero omitted, Abs format (unit mm)*
G04 Created by KiCad (PCBNEW 4.0.7) date 03/08/21 23:20:13*
%MOMM*%
%LPD*%
G01*
G04 APERTURE LIST*
%ADD10C,0.100000*%
%ADD11C,1.600000*%
%ADD12O,1.600000X1.600000*%
%ADD13R,1.600000X1.600000*%
%ADD14R,1.700000X1.700000*%
%ADD15O,1.700000X1.700000*%
%ADD16R,3.500000X3.500000*%
%ADD17R,1.800000X1.800000*%
%ADD18O,1.800000X1.800000*%
%ADD19C,4.064000*%
%ADD20C,1.500000*%
%ADD21R,2.200000X2.200000*%
%ADD22O,2.200000X2.200000*%
%ADD23R,3.000000X3.000000*%
%ADD24C,3.000000*%
%ADD25C,2.000000*%
%ADD26C,2.400000*%
%ADD27O,2.400000X2.400000*%
%ADD28C,2.500000*%
%ADD29R,2.400000X2.400000*%
%ADD30R,2.600000X2.600000*%
%ADD31O,2.600000X2.600000*%
%ADD32O,2.000000X3.500000*%
%ADD33R,2.000000X2.000000*%
%ADD34C,0.600000*%
%ADD35C,0.350000*%
%ADD36C,0.500000*%
%ADD37C,2.000000*%
%ADD38C,1.000000*%
G04 APERTURE END LIST*
D10*
D11*
X95600000Y-98600000D03*
X100600000Y-98600000D03*
X95400000Y-81200000D03*
D12*
X103020000Y-81200000D03*
D13*
X58100000Y-105500000D03*
D11*
X61600000Y-105500000D03*
D13*
X129900000Y-38400000D03*
D11*
X129900000Y-34900000D03*
D13*
X128900000Y-42400000D03*
D12*
X128900000Y-50020000D03*
D14*
X114900000Y-74000000D03*
D15*
X114900000Y-76540000D03*
X112360000Y-74000000D03*
X112360000Y-76540000D03*
X109820000Y-74000000D03*
X109820000Y-76540000D03*
D11*
X131800000Y-42400000D03*
D12*
X131800000Y-50020000D03*
D13*
X136000000Y-57500000D03*
D12*
X102980000Y-65120000D03*
X133460000Y-57500000D03*
X105520000Y-65120000D03*
X130920000Y-57500000D03*
X108060000Y-65120000D03*
X128380000Y-57500000D03*
X110600000Y-65120000D03*
X125840000Y-57500000D03*
X113140000Y-65120000D03*
X123300000Y-57500000D03*
X115680000Y-65120000D03*
X120760000Y-57500000D03*
X118220000Y-65120000D03*
X118220000Y-57500000D03*
X120760000Y-65120000D03*
X115680000Y-57500000D03*
X123300000Y-65120000D03*
X113140000Y-57500000D03*
X125840000Y-65120000D03*
X110600000Y-57500000D03*
X128380000Y-65120000D03*
X108060000Y-57500000D03*
X130920000Y-65120000D03*
X105520000Y-57500000D03*
X133460000Y-65120000D03*
X102980000Y-57500000D03*
X136000000Y-65120000D03*
D16*
X50200000Y-115400000D03*
X44200000Y-115400000D03*
X47200000Y-120100000D03*
D17*
X47700000Y-104100000D03*
D18*
X47700000Y-101560000D03*
X47700000Y-99020000D03*
D19*
X45804000Y-34016000D03*
X137752000Y-34016000D03*
X137752000Y-125456000D03*
X45804000Y-125456000D03*
D14*
X136900000Y-49800000D03*
D15*
X136900000Y-47260000D03*
X136900000Y-44720000D03*
X136900000Y-42180000D03*
D20*
X117400000Y-51800000D03*
X112520000Y-51800000D03*
D13*
X120700000Y-92000000D03*
D12*
X113080000Y-92000000D03*
D21*
X66800000Y-73000000D03*
D22*
X59180000Y-73000000D03*
D21*
X53800000Y-103900000D03*
D22*
X53800000Y-96280000D03*
D23*
X97100000Y-35500000D03*
D24*
X92020000Y-35500000D03*
D23*
X86400000Y-35700000D03*
D24*
X81320000Y-35700000D03*
D25*
X59300000Y-122000000D03*
X59300000Y-126500000D03*
X52800000Y-122000000D03*
X52800000Y-126500000D03*
X69900000Y-122000000D03*
X69900000Y-126500000D03*
X63400000Y-122000000D03*
X63400000Y-126500000D03*
X80300000Y-122000000D03*
X80300000Y-126500000D03*
X73800000Y-122000000D03*
X73800000Y-126500000D03*
X71100000Y-55300000D03*
X81100000Y-55300000D03*
D11*
X102900000Y-84500000D03*
D12*
X95280000Y-84500000D03*
D11*
X113000000Y-98100000D03*
D12*
X120620000Y-98100000D03*
D11*
X124000000Y-96800000D03*
D12*
X131620000Y-96800000D03*
D11*
X87600000Y-124500000D03*
D12*
X95220000Y-124500000D03*
D26*
X90400000Y-74800000D03*
D27*
X90400000Y-95120000D03*
D11*
X128400000Y-88500000D03*
D12*
X120780000Y-88500000D03*
D11*
X128400000Y-82000000D03*
D12*
X120780000Y-82000000D03*
D11*
X128500000Y-75400000D03*
D12*
X120880000Y-75400000D03*
D11*
X120700000Y-85300000D03*
D12*
X128320000Y-85300000D03*
D11*
X120700000Y-78700000D03*
D12*
X128320000Y-78700000D03*
D11*
X120900000Y-72000000D03*
D12*
X128520000Y-72000000D03*
D28*
X129300000Y-111140000D03*
X126800000Y-106100000D03*
X131800000Y-106100000D03*
D14*
X88600000Y-119400000D03*
D15*
X91140000Y-119400000D03*
X93680000Y-119400000D03*
X96220000Y-119400000D03*
X98760000Y-119400000D03*
X101300000Y-119400000D03*
X103840000Y-119400000D03*
X106380000Y-119400000D03*
X108920000Y-119400000D03*
X111460000Y-119400000D03*
X114000000Y-119400000D03*
X116540000Y-119400000D03*
X119080000Y-119400000D03*
X121620000Y-119400000D03*
X124160000Y-119400000D03*
X126700000Y-119400000D03*
D26*
X82200000Y-42800000D03*
D27*
X102520000Y-42800000D03*
D11*
X108600000Y-40900000D03*
D12*
X116220000Y-40900000D03*
D24*
X91590000Y-54580000D03*
X91590000Y-69820000D03*
X97940000Y-54580000D03*
X97940000Y-69820000D03*
D11*
X75700000Y-95800000D03*
X70700000Y-95800000D03*
X131600000Y-86900000D03*
X131600000Y-91900000D03*
X131700000Y-79700000D03*
X131700000Y-84700000D03*
X131700000Y-72400000D03*
X131700000Y-77400000D03*
X76600000Y-35100000D03*
X76600000Y-40100000D03*
X69000000Y-79400000D03*
X64000000Y-79400000D03*
X124500000Y-47300000D03*
X119500000Y-47300000D03*
X116100000Y-68300000D03*
X121100000Y-68300000D03*
X123800000Y-41600000D03*
X123800000Y-36600000D03*
X117200000Y-47300000D03*
X112200000Y-47300000D03*
X123000000Y-92000000D03*
X128000000Y-92000000D03*
X57300000Y-94900000D03*
X57300000Y-99900000D03*
X137400000Y-54300000D03*
X132400000Y-54300000D03*
D17*
X110100000Y-33900000D03*
D18*
X112640000Y-33900000D03*
X115180000Y-33900000D03*
D11*
X116300000Y-37800000D03*
D12*
X108680000Y-37800000D03*
D11*
X87100000Y-55200000D03*
X87100000Y-60200000D03*
D13*
X93600000Y-103400000D03*
D11*
X91100000Y-103400000D03*
X82800000Y-79700000D03*
X82800000Y-84700000D03*
D13*
X75800000Y-102100000D03*
D11*
X75800000Y-104600000D03*
D13*
X74700000Y-111200000D03*
D11*
X74700000Y-113700000D03*
D29*
X71400000Y-38500000D03*
D26*
X63900000Y-38500000D03*
D11*
X78600000Y-96300000D03*
X78600000Y-91300000D03*
D13*
X120700000Y-95000000D03*
D12*
X113080000Y-95000000D03*
D30*
X64000000Y-50600000D03*
D31*
X64000000Y-63300000D03*
D13*
X117400000Y-89300000D03*
D12*
X117400000Y-81680000D03*
D21*
X59100000Y-69700000D03*
D22*
X66720000Y-69700000D03*
D32*
X63550000Y-113500000D03*
X67500000Y-113500000D03*
X59800000Y-113500000D03*
X56100000Y-113500000D03*
D17*
X51100000Y-85700000D03*
D18*
X51100000Y-83160000D03*
X51100000Y-80620000D03*
D17*
X51100000Y-68800000D03*
D18*
X51100000Y-66260000D03*
X51100000Y-63720000D03*
D11*
X54700000Y-85900000D03*
D12*
X67400000Y-85900000D03*
D26*
X57600000Y-63700000D03*
D27*
X57600000Y-43380000D03*
D11*
X55600000Y-79400000D03*
D12*
X55600000Y-66700000D03*
D13*
X103100000Y-87900000D03*
D12*
X95480000Y-95520000D03*
X100560000Y-87900000D03*
X98020000Y-95520000D03*
X98020000Y-87900000D03*
X100560000Y-95520000D03*
X95480000Y-87900000D03*
X103100000Y-95520000D03*
D13*
X79400000Y-87500000D03*
D12*
X71780000Y-69720000D03*
X79400000Y-84960000D03*
X71780000Y-72260000D03*
X79400000Y-82420000D03*
X71780000Y-74800000D03*
X79400000Y-79880000D03*
X71780000Y-77340000D03*
X79400000Y-77340000D03*
X71780000Y-79880000D03*
X79400000Y-74800000D03*
X71780000Y-82420000D03*
X79400000Y-72260000D03*
X71780000Y-84960000D03*
X79400000Y-69720000D03*
X71780000Y-87500000D03*
D11*
X106800000Y-85200000D03*
D12*
X106800000Y-92820000D03*
D11*
X83700000Y-107900000D03*
D12*
X91320000Y-107900000D03*
D11*
X92000000Y-98500000D03*
D12*
X84380000Y-98500000D03*
D11*
X82600000Y-69600000D03*
D12*
X82600000Y-77220000D03*
D11*
X81300000Y-98700000D03*
D12*
X73680000Y-98700000D03*
D11*
X88000000Y-104700000D03*
D12*
X80380000Y-104700000D03*
D11*
X86000000Y-77300000D03*
D12*
X86000000Y-69680000D03*
D11*
X88000000Y-102000000D03*
D12*
X80380000Y-102000000D03*
D11*
X75700000Y-92600000D03*
D12*
X68080000Y-92600000D03*
D11*
X80100000Y-107800000D03*
D12*
X72480000Y-107800000D03*
D11*
X110100000Y-85200000D03*
D12*
X110100000Y-92820000D03*
D11*
X75900000Y-66600000D03*
D12*
X83520000Y-66600000D03*
D11*
X66000000Y-66600000D03*
D12*
X73620000Y-66600000D03*
D11*
X101900000Y-75200000D03*
D12*
X94280000Y-75200000D03*
D11*
X130900000Y-68800000D03*
D12*
X123280000Y-68800000D03*
D11*
X123900000Y-100100000D03*
D12*
X131520000Y-100100000D03*
D11*
X67100000Y-76300000D03*
D12*
X59480000Y-76300000D03*
D33*
X47600000Y-54200000D03*
D25*
X47600000Y-49200000D03*
D11*
X53800000Y-91900000D03*
X58800000Y-91900000D03*
X65400000Y-91100000D03*
D12*
X65400000Y-98720000D03*
D34*
X126200000Y-54700000D03*
X122700000Y-54600000D03*
X105400000Y-62700000D03*
X100200000Y-62400000D03*
X101400000Y-68500000D03*
D35*
X122100000Y-96500000D02*
X122200000Y-96500000D01*
X113383403Y-88383403D02*
X117700000Y-92500000D01*
X117700000Y-92500000D02*
X117700000Y-95200000D01*
X117700000Y-95200000D02*
X118800000Y-96500000D01*
X118800000Y-96500000D02*
X122100000Y-96500000D01*
X110402858Y-88383403D02*
X113383403Y-88383403D01*
X124600000Y-70520000D02*
X123280000Y-68800000D01*
X124600000Y-93900000D02*
X124600000Y-70520000D01*
X122200000Y-96500000D02*
X124600000Y-93900000D01*
X110597839Y-88388182D02*
X110911818Y-88388182D01*
X115900000Y-83400000D02*
X117400000Y-81680000D01*
X110911818Y-88388182D02*
X115900000Y-83400000D01*
X111080000Y-88400000D02*
X110597839Y-88388182D01*
X110597839Y-88388182D02*
X110402858Y-88383403D01*
X110402858Y-88383403D02*
X107000000Y-88300000D01*
X104600000Y-78600000D02*
X101900000Y-75200000D01*
X104600000Y-86600000D02*
X104600000Y-78600000D01*
X107000000Y-88300000D02*
X104600000Y-86600000D01*
X111180000Y-88300000D02*
X111080000Y-88400000D01*
X123280000Y-68800000D02*
X123280000Y-65140000D01*
X123280000Y-65140000D02*
X123300000Y-65120000D01*
X131620000Y-96800000D02*
X128700000Y-96800000D01*
X126300000Y-66280000D02*
X125840000Y-65120000D01*
X126300000Y-95100000D02*
X126300000Y-66280000D01*
X128700000Y-96800000D02*
X126300000Y-95100000D01*
D36*
X125840000Y-65120000D02*
X125840000Y-65360000D01*
D35*
X125840000Y-65760000D02*
X125840000Y-65120000D01*
X119500000Y-47300000D02*
X119500000Y-49700000D01*
X119500000Y-49700000D02*
X117400000Y-51800000D01*
X115680000Y-57500000D02*
X115680000Y-53520000D01*
X115680000Y-53520000D02*
X117400000Y-51800000D01*
X112200000Y-47300000D02*
X112200000Y-51480000D01*
X112200000Y-51480000D02*
X112520000Y-51800000D01*
X112520000Y-51800000D02*
X112520000Y-52620000D01*
X113140000Y-53240000D02*
X113140000Y-57500000D01*
X112520000Y-52620000D02*
X113140000Y-53240000D01*
X110600000Y-65120000D02*
X110600000Y-63700000D01*
X114400000Y-63900000D02*
X114400000Y-73500000D01*
X113600000Y-63100000D02*
X114400000Y-63900000D01*
X111200000Y-63100000D02*
X113600000Y-63100000D01*
X110600000Y-63700000D02*
X111200000Y-63100000D01*
X114400000Y-73500000D02*
X114900000Y-74000000D01*
X133460000Y-57500000D02*
X133460000Y-56340000D01*
X135200000Y-48960000D02*
X136900000Y-47260000D01*
X135200000Y-52200000D02*
X135200000Y-48960000D01*
X135500000Y-52500000D02*
X135200000Y-52200000D01*
X135500000Y-54300000D02*
X135500000Y-52500000D01*
X133460000Y-56340000D02*
X135500000Y-54300000D01*
X136900000Y-47260000D02*
X136440000Y-47260000D01*
X136900000Y-49800000D02*
X136900000Y-53800000D01*
X136900000Y-53800000D02*
X137400000Y-54300000D01*
X131800000Y-50020000D02*
X131800000Y-53700000D01*
X131800000Y-53700000D02*
X132400000Y-54300000D01*
X131800000Y-50020000D02*
X128900000Y-50020000D01*
X132400000Y-54300000D02*
X126600000Y-54300000D01*
X109820000Y-72420000D02*
X106800000Y-69400000D01*
X106800000Y-69400000D02*
X106800000Y-64200000D01*
X106800000Y-64200000D02*
X111600000Y-59400000D01*
X111600000Y-59400000D02*
X118700000Y-59400000D01*
X118700000Y-59400000D02*
X119400000Y-58700000D01*
X119400000Y-58700000D02*
X119400000Y-55700000D01*
X119400000Y-55700000D02*
X119900000Y-55200000D01*
X109820000Y-74000000D02*
X109820000Y-72420000D01*
X126600000Y-54300000D02*
X126200000Y-54700000D01*
X122700000Y-54600000D02*
X122600000Y-54500000D01*
X122600000Y-54500000D02*
X120600000Y-54500000D01*
X120600000Y-54500000D02*
X119900000Y-55200000D01*
X130920000Y-57500000D02*
X130920000Y-57480000D01*
X130920000Y-57480000D02*
X134100000Y-54300000D01*
X134100000Y-54300000D02*
X134100000Y-46400000D01*
X134100000Y-46400000D02*
X135780000Y-44720000D01*
X135780000Y-44720000D02*
X136900000Y-44720000D01*
X136180000Y-44720000D02*
X136900000Y-44720000D01*
D37*
X51100000Y-66260000D02*
X46140000Y-66260000D01*
X46140000Y-66260000D02*
X46000000Y-66400000D01*
D35*
X103100000Y-95520000D02*
X103080000Y-95520000D01*
X103080000Y-95520000D02*
X101400000Y-97200000D01*
X101400000Y-97200000D02*
X95480000Y-97200000D01*
X95480000Y-95520000D02*
X95480000Y-97200000D01*
X95480000Y-97200000D02*
X95480000Y-98480000D01*
X95480000Y-98480000D02*
X95600000Y-98600000D01*
X95580000Y-98580000D02*
X95600000Y-98600000D01*
X56575106Y-88951624D02*
X57551624Y-88951624D01*
X95700000Y-110200000D02*
X95600000Y-98600000D01*
X94600000Y-111300000D02*
X95700000Y-110200000D01*
X91900000Y-111300000D02*
X94600000Y-111300000D01*
X89400000Y-113800000D02*
X91900000Y-111300000D01*
X84400000Y-113800000D02*
X89400000Y-113800000D01*
X80500000Y-117700000D02*
X84400000Y-113800000D01*
X74000000Y-117700000D02*
X80500000Y-117700000D01*
X72200000Y-115900000D02*
X74000000Y-117700000D01*
X72200000Y-110700000D02*
X72200000Y-115900000D01*
X69200000Y-107700000D02*
X72200000Y-110700000D01*
X69200000Y-104600000D02*
X69200000Y-107700000D01*
X62600000Y-98000000D02*
X69200000Y-104600000D01*
X62600000Y-94000000D02*
X62600000Y-98000000D01*
X57551624Y-88951624D02*
X62600000Y-94000000D01*
D37*
X53800000Y-91900000D02*
X46800000Y-91900000D01*
X46800000Y-91900000D02*
X46000000Y-91100000D01*
X58100000Y-105500000D02*
X58100000Y-104900000D01*
X58100000Y-104900000D02*
X57100000Y-103900000D01*
X57100000Y-103900000D02*
X53800000Y-103900000D01*
X63550000Y-113500000D02*
X63550000Y-111850000D01*
X63550000Y-111850000D02*
X58100000Y-106400000D01*
X58100000Y-106400000D02*
X58100000Y-105500000D01*
X67500000Y-113500000D02*
X63550000Y-113500000D01*
X53800000Y-103900000D02*
X49000000Y-103900000D01*
X49000000Y-103900000D02*
X47700000Y-104100000D01*
X47700000Y-104100000D02*
X44500000Y-104700000D01*
X44300000Y-92800000D02*
X46000000Y-91100000D01*
X44300000Y-104500000D02*
X44300000Y-92800000D01*
X44500000Y-104700000D02*
X44300000Y-104500000D01*
X67500000Y-82200000D02*
X67500000Y-85800000D01*
X67500000Y-85800000D02*
X67400000Y-85900000D01*
X69000000Y-80700000D02*
X69000000Y-79400000D01*
X67500000Y-82200000D02*
X69000000Y-80700000D01*
X62500000Y-82200000D02*
X67500000Y-82200000D01*
X53900000Y-92000000D02*
X56575106Y-88951624D01*
X56575106Y-88951624D02*
X57003082Y-88463930D01*
X57003082Y-88463930D02*
X62500000Y-82200000D01*
D38*
X71780000Y-77340000D02*
X71060000Y-77340000D01*
X71060000Y-77340000D02*
X69000000Y-79400000D01*
D37*
X51100000Y-80620000D02*
X47380000Y-80620000D01*
X47380000Y-80620000D02*
X46000000Y-82000000D01*
X46000000Y-91100000D02*
X46000000Y-82000000D01*
X46000000Y-82000000D02*
X46000000Y-67800000D01*
X46000000Y-67800000D02*
X46000000Y-66400000D01*
X46000000Y-66400000D02*
X46000000Y-58600000D01*
X46000000Y-58600000D02*
X47600000Y-54200000D01*
D35*
X113080000Y-95000000D02*
X108980000Y-95000000D01*
X108980000Y-95000000D02*
X106800000Y-92820000D01*
X106800000Y-92820000D02*
X94780000Y-92820000D01*
X93300000Y-96500000D02*
X92000000Y-97800000D01*
X93300000Y-94300000D02*
X93300000Y-96500000D01*
X94780000Y-92820000D02*
X93300000Y-94300000D01*
X92000000Y-97800000D02*
X92000000Y-98500000D01*
X92000000Y-98500000D02*
X92000000Y-98900000D01*
X92000000Y-98900000D02*
X93200000Y-100100000D01*
X93200000Y-100100000D02*
X93600000Y-103400000D01*
X93600000Y-103400000D02*
X93200000Y-104820000D01*
X93200000Y-104820000D02*
X91320000Y-107900000D01*
X86000000Y-77300000D02*
X85200000Y-77300000D01*
X85200000Y-77300000D02*
X82800000Y-79700000D01*
X79400000Y-77340000D02*
X80440000Y-77340000D01*
X80440000Y-77340000D02*
X82800000Y-79700000D01*
X79440000Y-77300000D02*
X79400000Y-77340000D01*
X75700000Y-92600000D02*
X75700000Y-95800000D01*
X133349998Y-91400000D02*
X133349998Y-88649998D01*
X133349998Y-88649998D02*
X131600000Y-86900000D01*
X128400000Y-88500000D02*
X130000000Y-88500000D01*
X130000000Y-88500000D02*
X131600000Y-86900000D01*
X128320000Y-85300000D02*
X128320000Y-88420000D01*
X128320000Y-88420000D02*
X128400000Y-88500000D01*
X133349998Y-99500000D02*
X133349998Y-101750002D01*
X133349998Y-99500000D02*
X133349998Y-91400000D01*
X71800000Y-119900000D02*
X72700000Y-119000000D01*
X61300000Y-119900000D02*
X71800000Y-119900000D01*
X59300000Y-121900000D02*
X61300000Y-119900000D01*
X133349998Y-101750002D02*
X132900000Y-102200000D01*
X132900000Y-102200000D02*
X124200000Y-102200000D01*
X124200000Y-102200000D02*
X123000000Y-103400000D01*
X123000000Y-103400000D02*
X123000000Y-108600000D01*
X123000000Y-108600000D02*
X122900000Y-108700000D01*
X122900000Y-108700000D02*
X114600000Y-108700000D01*
X114600000Y-108700000D02*
X111800000Y-111500000D01*
X111800000Y-111500000D02*
X100400000Y-111500000D01*
X100400000Y-111500000D02*
X99100000Y-112800000D01*
X99100000Y-112800000D02*
X93000000Y-112800000D01*
X93000000Y-112800000D02*
X90700000Y-115100000D01*
X90700000Y-115100000D02*
X85400000Y-115100000D01*
X85400000Y-115100000D02*
X81500000Y-119000000D01*
X81500000Y-119000000D02*
X72700000Y-119000000D01*
X59300000Y-122000000D02*
X59300000Y-121900000D01*
X59300000Y-122000000D02*
X59300000Y-121400000D01*
X52800000Y-122000000D02*
X59300000Y-122000000D01*
X128520000Y-88380000D02*
X128400000Y-88500000D01*
X128320000Y-88420000D02*
X128400000Y-88500000D01*
X133900000Y-83900000D02*
X133900000Y-81900000D01*
X133900000Y-81900000D02*
X131700000Y-79700000D01*
X131700000Y-79700000D02*
X130700000Y-79700000D01*
X130700000Y-79700000D02*
X128400000Y-82000000D01*
X133900000Y-100949998D02*
X133900000Y-102200000D01*
X82500000Y-119900000D02*
X73300000Y-119900000D01*
X83700000Y-118700000D02*
X82500000Y-119900000D01*
X83700000Y-118000000D02*
X83700000Y-118700000D01*
X85700000Y-116000000D02*
X83700000Y-118000000D01*
X91100000Y-116000000D02*
X85700000Y-116000000D01*
X93200000Y-113900000D02*
X91100000Y-116000000D01*
X99800000Y-113900000D02*
X93200000Y-113900000D01*
X101100000Y-112600000D02*
X99800000Y-113900000D01*
X112300000Y-112600000D02*
X101100000Y-112600000D01*
X114900000Y-110000000D02*
X112300000Y-112600000D01*
X123300000Y-110000000D02*
X114900000Y-110000000D01*
X123800000Y-109500000D02*
X123300000Y-110000000D01*
X123800000Y-104300000D02*
X123800000Y-109500000D01*
X124900000Y-103200000D02*
X123800000Y-104300000D01*
X132900000Y-103200000D02*
X124900000Y-103200000D01*
X133900000Y-102200000D02*
X132900000Y-103200000D01*
X69900000Y-122000000D02*
X71200000Y-122000000D01*
X71200000Y-122000000D02*
X73300000Y-119900000D01*
X133900000Y-100949998D02*
X133900000Y-83900000D01*
X128320000Y-78700000D02*
X128420000Y-81980000D01*
X128420000Y-81980000D02*
X128400000Y-82000000D01*
X69900000Y-122000000D02*
X69900000Y-121800000D01*
X63400000Y-122000000D02*
X69900000Y-122000000D01*
X134500000Y-101900000D02*
X134500000Y-102900000D01*
X84400000Y-122000000D02*
X80300000Y-122000000D01*
X84800000Y-121600000D02*
X84400000Y-122000000D01*
X84800000Y-118800000D02*
X84800000Y-121600000D01*
X86700000Y-116900000D02*
X84800000Y-118800000D01*
X91400000Y-116900000D02*
X86700000Y-116900000D01*
X93300000Y-115000000D02*
X91400000Y-116900000D01*
X100200000Y-115000000D02*
X93300000Y-115000000D01*
X101600000Y-113600000D02*
X100200000Y-115000000D01*
X112500000Y-113600000D02*
X101600000Y-113600000D01*
X115200000Y-110900000D02*
X112500000Y-113600000D01*
X123700000Y-110900000D02*
X115200000Y-110900000D01*
X124600000Y-110000000D02*
X123700000Y-110900000D01*
X124600000Y-104900000D02*
X124600000Y-110000000D01*
X125500000Y-104000000D02*
X124600000Y-104900000D01*
X133400000Y-104000000D02*
X125500000Y-104000000D01*
X134500000Y-102900000D02*
X133400000Y-104000000D01*
X73800000Y-122000000D02*
X73800000Y-121400000D01*
X134500000Y-75200000D02*
X131700000Y-72400000D01*
X134500000Y-101900000D02*
X134500000Y-75200000D01*
X73800000Y-122000000D02*
X73800000Y-121900000D01*
X80300000Y-122000000D02*
X73800000Y-122000000D01*
X131700000Y-72400000D02*
X128920000Y-72400000D01*
X128920000Y-72400000D02*
X128520000Y-72000000D01*
X128520000Y-72000000D02*
X128520000Y-75380000D01*
X128520000Y-75380000D02*
X128500000Y-75400000D01*
X128520000Y-75380000D02*
X128500000Y-75400000D01*
X122500000Y-74000000D02*
X122280000Y-74000000D01*
X122280000Y-74000000D02*
X120880000Y-75400000D01*
X123000000Y-92000000D02*
X120700000Y-92000000D01*
X120700000Y-92000000D02*
X120800000Y-94900000D01*
X120800000Y-94900000D02*
X120700000Y-95000000D01*
X120780000Y-88500000D02*
X118200000Y-88500000D01*
X118200000Y-88500000D02*
X117400000Y-89300000D01*
X120780000Y-88500000D02*
X121000000Y-92300000D01*
X121000000Y-92300000D02*
X120700000Y-92000000D01*
X120760000Y-57500000D02*
X120760000Y-57140000D01*
X120760000Y-57140000D02*
X122200000Y-55700000D01*
X126600000Y-52000000D02*
X126600000Y-42400000D01*
X122900000Y-55700000D02*
X126600000Y-52000000D01*
X122200000Y-55700000D02*
X122900000Y-55700000D01*
X120680000Y-88600000D02*
X120780000Y-88500000D01*
X120600000Y-91900000D02*
X120700000Y-92000000D01*
X128900000Y-42400000D02*
X126600000Y-42400000D01*
X126600000Y-42400000D02*
X124600000Y-42400000D01*
X124600000Y-42400000D02*
X123800000Y-41600000D01*
X131800000Y-42400000D02*
X128900000Y-42400000D01*
X128900000Y-42400000D02*
X128900000Y-39400000D01*
X128900000Y-39400000D02*
X129900000Y-38400000D01*
D38*
X130300000Y-38000000D02*
X138900000Y-38000000D01*
X140300000Y-39400000D02*
X138900000Y-38000000D01*
X140300000Y-113700000D02*
X140300000Y-39400000D01*
X133200000Y-120800000D02*
X140300000Y-113700000D01*
X133200000Y-126400000D02*
X132300000Y-127300000D01*
X132300000Y-127300000D02*
X85200000Y-127300000D01*
X133200000Y-120800000D02*
X133200000Y-126400000D01*
X130300000Y-38000000D02*
X129900000Y-38400000D01*
D35*
X87600000Y-124500000D02*
X87600000Y-124900000D01*
X87600000Y-124900000D02*
X85200000Y-127300000D01*
X91140000Y-119400000D02*
X91140000Y-118560000D01*
X91140000Y-118560000D02*
X93800000Y-115900000D01*
X126800000Y-110800000D02*
X126800000Y-106100000D01*
X125800000Y-111800000D02*
X126800000Y-110800000D01*
X115600000Y-111800000D02*
X125800000Y-111800000D01*
X112700000Y-114700000D02*
X115600000Y-111800000D01*
X101800000Y-114700000D02*
X112700000Y-114700000D01*
X100600000Y-115900000D02*
X101800000Y-114700000D01*
X93800000Y-115900000D02*
X100600000Y-115900000D01*
X91140000Y-119400000D02*
X91140000Y-121260000D01*
X91140000Y-121260000D02*
X87900000Y-124500000D01*
X87900000Y-124500000D02*
X87600000Y-124500000D01*
D38*
X85200000Y-127300000D02*
X82200000Y-124300000D01*
X70600000Y-117500000D02*
X70200000Y-117900000D01*
X70200000Y-117900000D02*
X53200000Y-117900000D01*
X53200000Y-117900000D02*
X50400000Y-120700000D01*
X50400000Y-120700000D02*
X50400000Y-123500000D01*
X50400000Y-123500000D02*
X51100000Y-124200000D01*
X51100000Y-124200000D02*
X82100000Y-124200000D01*
X82200000Y-124300000D02*
X82100000Y-124200000D01*
D35*
X120780000Y-82000000D02*
X120900000Y-82000000D01*
X120900000Y-82000000D02*
X122500000Y-81600000D01*
X120880000Y-75400000D02*
X120900000Y-75400000D01*
X117100000Y-70200000D02*
X121400000Y-70200000D01*
X122500000Y-89780000D02*
X120780000Y-88500000D01*
X122500000Y-71300000D02*
X122500000Y-74000000D01*
X122500000Y-74000000D02*
X122500000Y-81600000D01*
X122500000Y-81600000D02*
X122500000Y-89780000D01*
X121400000Y-70200000D02*
X122500000Y-71300000D01*
X116100000Y-68300000D02*
X116100000Y-68400000D01*
X116100000Y-68400000D02*
X117100000Y-69400000D01*
X116460000Y-76540000D02*
X114900000Y-76540000D01*
X117100000Y-75900000D02*
X116460000Y-76540000D01*
X117100000Y-69400000D02*
X117100000Y-70200000D01*
X117100000Y-70200000D02*
X117100000Y-75900000D01*
X120620000Y-81720000D02*
X120800000Y-81900000D01*
X115680000Y-65120000D02*
X115680000Y-62120000D01*
X120760000Y-60040000D02*
X120760000Y-57500000D01*
X119500000Y-61300000D02*
X120760000Y-60040000D01*
X116500000Y-61300000D02*
X119500000Y-61300000D01*
X115680000Y-62120000D02*
X116500000Y-61300000D01*
D37*
X53800000Y-96280000D02*
X52020000Y-96280000D01*
X49280000Y-99020000D02*
X47700000Y-99020000D01*
X52020000Y-96280000D02*
X49280000Y-99020000D01*
D38*
X57300000Y-94900000D02*
X57300000Y-95000000D01*
X57300000Y-95000000D02*
X63700000Y-101400000D01*
X70600000Y-111000000D02*
X70600000Y-117500000D01*
X69200000Y-109600000D02*
X70600000Y-111000000D01*
X64700000Y-109600000D02*
X69200000Y-109600000D01*
X63700000Y-108600000D02*
X64700000Y-109600000D01*
X63700000Y-101400000D02*
X63700000Y-108600000D01*
X57300000Y-94900000D02*
X57300000Y-95200000D01*
X57300000Y-95200000D02*
X56220000Y-96280000D01*
X56220000Y-96280000D02*
X53800000Y-96280000D01*
X70700000Y-117400000D02*
X70600000Y-117500000D01*
D37*
X53980000Y-96100000D02*
X53800000Y-96280000D01*
D38*
X53980000Y-96100000D02*
X53800000Y-96280000D01*
D35*
X120880000Y-75400000D02*
X121400000Y-75400000D01*
X116100000Y-68300000D02*
X116000000Y-68300000D01*
X115680000Y-65120000D02*
X115680000Y-67880000D01*
X115680000Y-67880000D02*
X116100000Y-68300000D01*
D36*
X120760000Y-57500000D02*
X120760000Y-57840000D01*
D35*
X113080000Y-92000000D02*
X113200000Y-92000000D01*
X113200000Y-92000000D02*
X114500000Y-93300000D01*
X114500000Y-93300000D02*
X114500000Y-96600000D01*
X114500000Y-96600000D02*
X113000000Y-98100000D01*
X113140000Y-65120000D02*
X113140000Y-73220000D01*
X113140000Y-73220000D02*
X112360000Y-74000000D01*
X108060000Y-65120000D02*
X108060000Y-66360000D01*
X108060000Y-66360000D02*
X111100000Y-69400000D01*
X111100000Y-75280000D02*
X112360000Y-76540000D01*
X111100000Y-69400000D02*
X111100000Y-75280000D01*
X108060000Y-65120000D02*
X108060000Y-65460000D01*
X95280000Y-84500000D02*
X95280000Y-81320000D01*
X95280000Y-81320000D02*
X95400000Y-81200000D01*
X95280000Y-84500000D02*
X98300000Y-84500000D01*
X100560000Y-86760000D02*
X100560000Y-87900000D01*
X98300000Y-84500000D02*
X100560000Y-86760000D01*
X100560000Y-87900000D02*
X100560000Y-87660000D01*
X95220000Y-124500000D02*
X95900000Y-124500000D01*
X95900000Y-124500000D02*
X97900000Y-122500000D01*
X97900000Y-122500000D02*
X121060000Y-122500000D01*
X121060000Y-122500000D02*
X124160000Y-119400000D01*
X106800000Y-73400000D02*
X106800000Y-78800000D01*
X101300000Y-59100000D02*
X101300000Y-66400000D01*
X102800000Y-69400000D02*
X106800000Y-73400000D01*
X102800000Y-67900000D02*
X102800000Y-69400000D01*
X101300000Y-66400000D02*
X102800000Y-67900000D01*
X105520000Y-57020000D02*
X104000000Y-55500000D01*
X102300000Y-55500000D02*
X104000000Y-55500000D01*
X101300000Y-57400000D02*
X102300000Y-55500000D01*
X101300000Y-59100000D02*
X101300000Y-57400000D01*
X119300000Y-83900000D02*
X120700000Y-85300000D01*
X119300000Y-80900000D02*
X119300000Y-83900000D01*
X118400000Y-80000000D02*
X119300000Y-80900000D01*
X108000000Y-80000000D02*
X118400000Y-80000000D01*
X106800000Y-78800000D02*
X108000000Y-80000000D01*
X120700000Y-85300000D02*
X120300000Y-85300000D01*
X105520000Y-57020000D02*
X105520000Y-57500000D01*
X105520000Y-56820000D02*
X105520000Y-57500000D01*
X117400000Y-79000000D02*
X120400000Y-79000000D01*
X120400000Y-79000000D02*
X120700000Y-78700000D01*
X104300000Y-66500000D02*
X104300000Y-69700000D01*
X108400000Y-79000000D02*
X117400000Y-79000000D01*
X107400000Y-78000000D02*
X108400000Y-79000000D01*
X107400000Y-72800000D02*
X107400000Y-78000000D01*
X104300000Y-69700000D02*
X107400000Y-72800000D01*
X104300000Y-58820000D02*
X102980000Y-57500000D01*
X104300000Y-66500000D02*
X104300000Y-58820000D01*
X105520000Y-66400000D02*
X105520000Y-69820000D01*
X117650002Y-75249998D02*
X120900000Y-72000000D01*
X117650002Y-77949998D02*
X117650002Y-75249998D01*
X117300000Y-78300000D02*
X117650002Y-77949998D01*
X108900000Y-78300000D02*
X117300000Y-78300000D01*
X108100000Y-77500000D02*
X108900000Y-78300000D01*
X108100000Y-72400000D02*
X108100000Y-77500000D01*
X105520000Y-69820000D02*
X108100000Y-72400000D01*
X105520000Y-66400000D02*
X105520000Y-65120000D01*
X93680000Y-119400000D02*
X93680000Y-118620000D01*
X93680000Y-118620000D02*
X95400000Y-116900000D01*
X95400000Y-116900000D02*
X101200000Y-116900000D01*
X101200000Y-116900000D02*
X102400000Y-115700000D01*
X102400000Y-115700000D02*
X112700000Y-115700000D01*
X112700000Y-115700000D02*
X115500000Y-112900000D01*
X115500000Y-112900000D02*
X127540000Y-112900000D01*
X127540000Y-112900000D02*
X129300000Y-111140000D01*
D37*
X86400000Y-35700000D02*
X86400000Y-31700000D01*
X97940000Y-54580000D02*
X97940000Y-36340000D01*
X97940000Y-36340000D02*
X97100000Y-35500000D01*
X76600000Y-35100000D02*
X76600000Y-33600000D01*
X97200000Y-33800000D02*
X97100000Y-35500000D01*
X95100000Y-31700000D02*
X97200000Y-33800000D01*
X78500000Y-31700000D02*
X86400000Y-31700000D01*
X86400000Y-31700000D02*
X95100000Y-31700000D01*
X76600000Y-33600000D02*
X78500000Y-31700000D01*
D38*
X112640000Y-33900000D02*
X112640000Y-41760000D01*
X110900000Y-43500000D02*
X103220000Y-43500000D01*
X112640000Y-41760000D02*
X110900000Y-43500000D01*
X103220000Y-43500000D02*
X102520000Y-42800000D01*
X108680000Y-37800000D02*
X108680000Y-40820000D01*
X108680000Y-40820000D02*
X108600000Y-40900000D01*
X110100000Y-33900000D02*
X110100000Y-36380000D01*
X110100000Y-36380000D02*
X108680000Y-37800000D01*
D35*
X116220000Y-40900000D02*
X116220000Y-40980000D01*
X116220000Y-40980000D02*
X112800000Y-44400000D01*
X112800000Y-44400000D02*
X107700000Y-44400000D01*
X107700000Y-44400000D02*
X104700000Y-47400000D01*
X104700000Y-47400000D02*
X104700000Y-53500000D01*
X104700000Y-53500000D02*
X106800000Y-55600000D01*
X106800000Y-55600000D02*
X106800000Y-61300000D01*
X106800000Y-61300000D02*
X105400000Y-62700000D01*
X138200000Y-104900000D02*
X138200000Y-111900000D01*
X119080000Y-118120000D02*
X119080000Y-119400000D01*
X120400000Y-116800000D02*
X119080000Y-118120000D01*
X133300000Y-116800000D02*
X120400000Y-116800000D01*
X138200000Y-111900000D02*
X133300000Y-116800000D01*
X138200000Y-104900000D02*
X138200000Y-61100000D01*
X138200000Y-61100000D02*
X137000000Y-59900000D01*
X137000000Y-59900000D02*
X129400000Y-59900000D01*
X129400000Y-59900000D02*
X128380000Y-58880000D01*
X128380000Y-58880000D02*
X128380000Y-57500000D01*
X138800000Y-105600000D02*
X138800000Y-112400000D01*
X129600000Y-58400000D02*
X129600000Y-55900000D01*
X129600000Y-55900000D02*
X129300000Y-55600000D01*
X129300000Y-55600000D02*
X126900000Y-55600000D01*
X126900000Y-55600000D02*
X125840000Y-56660000D01*
X125840000Y-57500000D02*
X125840000Y-56660000D01*
X137100000Y-58800000D02*
X130100000Y-58800000D01*
X138800000Y-60500000D02*
X137100000Y-58800000D01*
X138800000Y-105600000D02*
X138800000Y-60500000D01*
X129700000Y-58400000D02*
X130100000Y-58800000D01*
X129600000Y-58400000D02*
X129700000Y-58400000D01*
X121620000Y-118480000D02*
X121620000Y-119400000D01*
X122500000Y-117600000D02*
X121620000Y-118480000D01*
X133600000Y-117600000D02*
X122500000Y-117600000D01*
X138800000Y-112400000D02*
X133600000Y-117600000D01*
X126300000Y-57040000D02*
X125840000Y-57500000D01*
X125840000Y-57500000D02*
X125840000Y-56860000D01*
X136000000Y-102900000D02*
X136000000Y-111100000D01*
X103300000Y-117400000D02*
X101300000Y-119400000D01*
X113400000Y-117400000D02*
X103300000Y-117400000D01*
X116200000Y-114600000D02*
X113400000Y-117400000D01*
X132500000Y-114600000D02*
X116200000Y-114600000D01*
X136000000Y-111100000D02*
X132500000Y-114600000D01*
X136000000Y-102900000D02*
X136000000Y-69500000D01*
X136000000Y-69500000D02*
X133400000Y-66900000D01*
X133400000Y-66900000D02*
X132100000Y-65600000D01*
X132100000Y-65600000D02*
X132100000Y-64000000D01*
X132100000Y-64000000D02*
X131300000Y-63200000D01*
X131300000Y-63200000D02*
X129000000Y-63200000D01*
X129000000Y-63200000D02*
X128380000Y-63820000D01*
X128380000Y-63820000D02*
X128380000Y-65120000D01*
X128380000Y-65780000D02*
X128380000Y-65120000D01*
X135200000Y-102500000D02*
X135200000Y-110900000D01*
X97920000Y-117700000D02*
X96220000Y-119400000D01*
X101400000Y-117700000D02*
X97920000Y-117700000D01*
X102500000Y-116600000D02*
X101400000Y-117700000D01*
X113100000Y-116600000D02*
X102500000Y-116600000D01*
X115900000Y-113800000D02*
X113100000Y-116600000D01*
X132300000Y-113800000D02*
X115900000Y-113800000D01*
X135200000Y-110900000D02*
X132300000Y-113800000D01*
X130920000Y-66420000D02*
X130920000Y-65120000D01*
X135200000Y-70700000D02*
X130920000Y-66420000D01*
X135200000Y-102500000D02*
X135200000Y-70700000D01*
X130920000Y-65120000D02*
X130780000Y-65120000D01*
X136900000Y-103700000D02*
X136900000Y-111000000D01*
X114000000Y-118100000D02*
X114000000Y-119400000D01*
X117100000Y-115400000D02*
X114000000Y-118100000D01*
X132900000Y-115400000D02*
X117100000Y-115400000D01*
X136900000Y-111000000D02*
X132900000Y-115400000D01*
X136900000Y-68560000D02*
X133460000Y-65120000D01*
X136900000Y-103700000D02*
X136900000Y-68560000D01*
X137500000Y-104600000D02*
X137500000Y-111600000D01*
X116540000Y-117960000D02*
X116540000Y-119400000D01*
X118400000Y-116100000D02*
X116540000Y-117960000D01*
X133000000Y-116100000D02*
X118400000Y-116100000D01*
X137500000Y-111600000D02*
X133000000Y-116100000D01*
X137500000Y-66620000D02*
X136000000Y-65120000D01*
X137500000Y-104600000D02*
X137500000Y-66620000D01*
X70700000Y-95800000D02*
X70780000Y-95800000D01*
X70780000Y-95800000D02*
X73680000Y-98700000D01*
X79400000Y-82420000D02*
X78380000Y-82420000D01*
X72300000Y-95800000D02*
X70700000Y-95800000D01*
X74300000Y-93800000D02*
X72300000Y-95800000D01*
X74300000Y-86500000D02*
X74300000Y-93800000D01*
X78380000Y-82420000D02*
X74300000Y-86500000D01*
X79400000Y-82420000D02*
X79460000Y-82420000D01*
X78980000Y-82420000D02*
X79400000Y-82420000D01*
X79400000Y-82420000D02*
X80120000Y-82420000D01*
X94180000Y-73580000D02*
X94280000Y-75200000D01*
X92900000Y-72300000D02*
X94180000Y-73580000D01*
X89700000Y-72300000D02*
X92900000Y-72300000D01*
X83520000Y-66600000D02*
X86800000Y-66600000D01*
X88300000Y-70900000D02*
X89700000Y-72300000D01*
X88300000Y-68100000D02*
X88300000Y-70900000D01*
X86800000Y-66600000D02*
X88300000Y-68100000D01*
D37*
X82200000Y-42800000D02*
X79300000Y-43800000D01*
X79300000Y-43800000D02*
X74450000Y-48650000D01*
X91590000Y-54580000D02*
X91390000Y-54810000D01*
X91000000Y-55200000D02*
X87100000Y-55200000D01*
X91390000Y-54810000D02*
X91000000Y-55200000D01*
X87100000Y-55200000D02*
X81200000Y-55200000D01*
X81200000Y-55200000D02*
X81100000Y-55300000D01*
X83520000Y-66600000D02*
X83520000Y-64580000D01*
X83520000Y-64580000D02*
X83520000Y-65480000D01*
X83520000Y-57720000D02*
X81100000Y-55300000D01*
X83520000Y-63500000D02*
X83520000Y-57720000D01*
X83520000Y-65480000D02*
X83520000Y-63500000D01*
X71400000Y-38500000D02*
X71400000Y-45600000D01*
X71400000Y-45600000D02*
X74450000Y-48650000D01*
X74450000Y-48650000D02*
X81100000Y-55300000D01*
X81200000Y-55400000D02*
X81100000Y-55300000D01*
D35*
X98020000Y-87900000D02*
X98020000Y-87120000D01*
X98020000Y-87120000D02*
X97300000Y-86400000D01*
X93200000Y-85300000D02*
X93200000Y-78000000D01*
X94300000Y-86400000D02*
X93200000Y-85300000D01*
X97300000Y-86400000D02*
X94300000Y-86400000D01*
D37*
X97940000Y-69820000D02*
X97940000Y-76740000D01*
X90400000Y-77600000D02*
X90400000Y-74800000D01*
X90800000Y-78000000D02*
X90400000Y-77600000D01*
X96680000Y-78000000D02*
X93200000Y-78000000D01*
X93200000Y-78000000D02*
X90800000Y-78000000D01*
X97940000Y-76740000D02*
X96680000Y-78000000D01*
D35*
X98020000Y-87900000D02*
X98020000Y-87820000D01*
D38*
X94700000Y-60000000D02*
X96400000Y-60000000D01*
X115180000Y-32980000D02*
X115180000Y-33900000D01*
X113600000Y-31400000D02*
X115180000Y-32980000D01*
X104600000Y-31400000D02*
X113600000Y-31400000D01*
X100000000Y-36000000D02*
X104600000Y-31400000D01*
X100000000Y-44300000D02*
X100000000Y-36000000D01*
X100600000Y-44900000D02*
X100000000Y-44300000D01*
X100600000Y-55800000D02*
X100600000Y-44900000D01*
X96400000Y-60000000D02*
X100600000Y-55800000D01*
X115180000Y-33900000D02*
X115180000Y-36680000D01*
X115180000Y-36680000D02*
X116300000Y-37800000D01*
D37*
X97940000Y-69820000D02*
X97940000Y-68840000D01*
X97940000Y-68840000D02*
X94700000Y-65600000D01*
X94700000Y-65600000D02*
X94700000Y-60000000D01*
X94700000Y-60000000D02*
X94700000Y-58000000D01*
X94700000Y-58000000D02*
X94700000Y-44600000D01*
X94700000Y-44600000D02*
X89600000Y-39500000D01*
X92020000Y-35500000D02*
X92020000Y-38280000D01*
X81320000Y-38820000D02*
X81320000Y-35700000D01*
X82000000Y-39500000D02*
X81320000Y-38820000D01*
X90800000Y-39500000D02*
X89600000Y-39500000D01*
X89600000Y-39500000D02*
X82000000Y-39500000D01*
X92020000Y-38280000D02*
X90800000Y-39500000D01*
X81320000Y-35700000D02*
X81000000Y-35700000D01*
X81000000Y-35700000D02*
X76600000Y-40100000D01*
D35*
X90400000Y-75000000D02*
X90400000Y-74800000D01*
X90400000Y-75000000D02*
X90400000Y-74800000D01*
X90400000Y-75100000D02*
X90400000Y-74800000D01*
X75800000Y-102100000D02*
X79280000Y-102100000D01*
X79280000Y-102100000D02*
X80380000Y-102000000D01*
X75800000Y-102100000D02*
X72800000Y-102100000D01*
X72800000Y-102100000D02*
X65200000Y-94500000D01*
X65200000Y-94500000D02*
X65100000Y-94500000D01*
X69200000Y-85000000D02*
X71780000Y-82420000D01*
X69200000Y-87400000D02*
X69200000Y-85000000D01*
X67400000Y-89200000D02*
X69200000Y-87400000D01*
X64600000Y-89200000D02*
X67400000Y-89200000D01*
X63600000Y-90200000D02*
X64600000Y-89200000D01*
X63600000Y-93000000D02*
X63600000Y-90200000D01*
X65100000Y-94500000D02*
X63600000Y-93000000D01*
X80380000Y-104700000D02*
X80380000Y-104520000D01*
X80380000Y-104520000D02*
X82700000Y-102200000D01*
X82700000Y-102200000D02*
X82700000Y-97300000D01*
X81300000Y-81780000D02*
X79400000Y-79880000D01*
X81300000Y-83100000D02*
X81300000Y-81780000D01*
X80800000Y-83600000D02*
X81300000Y-83100000D01*
X78400000Y-83600000D02*
X80800000Y-83600000D01*
X76100000Y-85900000D02*
X78400000Y-83600000D01*
X76100000Y-90800000D02*
X76100000Y-85900000D01*
X78700000Y-93400000D02*
X76100000Y-90800000D01*
X78800000Y-93400000D02*
X78700000Y-93400000D01*
X82700000Y-97300000D02*
X78800000Y-93400000D01*
X88000000Y-102000000D02*
X87500000Y-102000000D01*
X87500000Y-102000000D02*
X85455375Y-103476674D01*
X85455375Y-103476674D02*
X83900000Y-104600000D01*
X83900000Y-104600000D02*
X80380000Y-104700000D01*
X80380000Y-104700000D02*
X75800000Y-104600000D01*
X110100000Y-92820000D02*
X110100000Y-92200000D01*
X110100000Y-92200000D02*
X109400000Y-91500000D01*
X109400000Y-91500000D02*
X90900000Y-91500000D01*
X90900000Y-91500000D02*
X87600000Y-94800000D01*
X87600000Y-94800000D02*
X87600000Y-98400000D01*
X87600000Y-98400000D02*
X89700000Y-100400000D01*
X89700000Y-100400000D02*
X89700000Y-106700000D01*
X89700000Y-106700000D02*
X84700000Y-111200000D01*
X84700000Y-111200000D02*
X74700000Y-111200000D01*
X72480000Y-107800000D02*
X72480000Y-108980000D01*
X72480000Y-108980000D02*
X74700000Y-111200000D01*
X65400000Y-98720000D02*
X66120000Y-98720000D01*
X66120000Y-98720000D02*
X72480000Y-105080000D01*
X72480000Y-105080000D02*
X72480000Y-107800000D01*
X65400000Y-98720000D02*
X65400000Y-99120000D01*
X81300000Y-98700000D02*
X81000000Y-98700000D01*
X81000000Y-98700000D02*
X78600000Y-96300000D01*
X78600000Y-91300000D02*
X79800000Y-91300000D01*
X84380000Y-95880000D02*
X84380000Y-98500000D01*
X79800000Y-91300000D02*
X84380000Y-95880000D01*
X78600000Y-91300000D02*
X78000000Y-91300000D01*
X78000000Y-91300000D02*
X77200000Y-90500000D01*
X77200000Y-90500000D02*
X77200000Y-86800000D01*
X77200000Y-86800000D02*
X79040000Y-84960000D01*
X79040000Y-84960000D02*
X79400000Y-84960000D01*
D37*
X55600000Y-66700000D02*
X56100000Y-66700000D01*
X56100000Y-66700000D02*
X59100000Y-69700000D01*
X59100000Y-69700000D02*
X59100000Y-66100000D01*
X60700000Y-53900000D02*
X64000000Y-50600000D01*
X60700000Y-64500000D02*
X60700000Y-53900000D01*
X59100000Y-66100000D02*
X60700000Y-64500000D01*
X64000000Y-50600000D02*
X64800000Y-50400000D01*
X64800000Y-50400000D02*
X71100000Y-55300000D01*
X57600000Y-43380000D02*
X59100000Y-45500000D01*
X59100000Y-45500000D02*
X64000000Y-50600000D01*
X57600000Y-43380000D02*
X57600000Y-43400000D01*
X66720000Y-69700000D02*
X66720000Y-72920000D01*
X66720000Y-72920000D02*
X66800000Y-73000000D01*
X59180000Y-73000000D02*
X58800000Y-73000000D01*
X58800000Y-73000000D02*
X55600000Y-76200000D01*
X55600000Y-79400000D02*
X55600000Y-80200000D01*
X55600000Y-80200000D02*
X52640000Y-83160000D01*
X52640000Y-83160000D02*
X51100000Y-83160000D01*
X55600000Y-79400000D02*
X55600000Y-76200000D01*
X55600000Y-76200000D02*
X55600000Y-73000000D01*
X52900000Y-70300000D02*
X51100000Y-68800000D01*
X55600000Y-73000000D02*
X52900000Y-70300000D01*
X56100000Y-113500000D02*
X51000000Y-114600000D01*
X51000000Y-114600000D02*
X50200000Y-115400000D01*
X59800000Y-113500000D02*
X56100000Y-113500000D01*
X54700000Y-85900000D02*
X51300000Y-85900000D01*
X51300000Y-85900000D02*
X51100000Y-85700000D01*
X59480000Y-76300000D02*
X59480000Y-81120000D01*
X59480000Y-81120000D02*
X54700000Y-85900000D01*
X57600000Y-63700000D02*
X52620000Y-63800000D01*
X52620000Y-63800000D02*
X51100000Y-63720000D01*
D35*
X105500000Y-76100000D02*
X105400000Y-76100000D01*
X100200000Y-70900000D02*
X100200000Y-62400000D01*
X105400000Y-76100000D02*
X100200000Y-70900000D01*
X106800000Y-85200000D02*
X106000000Y-83700000D01*
X105500000Y-82700000D02*
X105500000Y-76100000D01*
X106000000Y-83700000D02*
X105500000Y-82700000D01*
X124000000Y-96800000D02*
X124000000Y-97200000D01*
X124000000Y-97200000D02*
X123100000Y-98100000D01*
X123100000Y-98100000D02*
X120620000Y-98100000D01*
X103100000Y-87900000D02*
X103700000Y-87900000D01*
X103700000Y-87900000D02*
X105300000Y-89500000D01*
X118400000Y-98100000D02*
X120620000Y-98100000D01*
X117000000Y-96100000D02*
X118400000Y-98100000D01*
X117000000Y-93300000D02*
X117000000Y-96100000D01*
X112600000Y-89500000D02*
X117000000Y-93300000D01*
X105300000Y-89500000D02*
X112600000Y-89500000D01*
X103100000Y-87900000D02*
X103500000Y-87900000D01*
X124000000Y-96800000D02*
X124000000Y-100000000D01*
X124000000Y-100000000D02*
X123900000Y-100100000D01*
X103100000Y-87900000D02*
X103100000Y-88000000D01*
X103100000Y-87900000D02*
X103100000Y-88500000D01*
X103100000Y-88500000D02*
X102100000Y-90200000D01*
X81600000Y-90200000D02*
X79400000Y-87500000D01*
X102100000Y-90200000D02*
X81600000Y-90200000D01*
X103100000Y-87900000D02*
X103100000Y-84700000D01*
X103100000Y-84700000D02*
X102900000Y-84500000D01*
X124000000Y-100000000D02*
X123900000Y-100100000D01*
X103100000Y-87900000D02*
X103100000Y-88300000D01*
X103100000Y-87900000D02*
X103100000Y-88700000D01*
X103100000Y-88700000D02*
X102400000Y-87500000D01*
X103200000Y-87800000D02*
X103100000Y-87900000D01*
X79400000Y-74800000D02*
X80180000Y-74800000D01*
X80180000Y-74800000D02*
X82600000Y-77220000D01*
D38*
X79400000Y-69720000D02*
X79400000Y-66600000D01*
X69600000Y-72620000D02*
X71780000Y-74800000D01*
X69600000Y-65300000D02*
X69600000Y-72620000D01*
X70600000Y-64300000D02*
X69600000Y-65300000D01*
X77100000Y-64300000D02*
X70600000Y-64300000D01*
X79400000Y-66600000D02*
X77100000Y-64300000D01*
D37*
X71780000Y-74800000D02*
X71100000Y-74800000D01*
X71100000Y-74800000D02*
X69600000Y-76300000D01*
X69600000Y-76300000D02*
X67100000Y-76300000D01*
D35*
X110100000Y-85200000D02*
X109800000Y-85200000D01*
X109800000Y-85200000D02*
X106200000Y-81600000D01*
X106200000Y-81600000D02*
X106200000Y-75500000D01*
X106200000Y-75500000D02*
X101400000Y-70700000D01*
X101400000Y-70700000D02*
X101400000Y-68500000D01*
D36*
X75900000Y-66600000D02*
X76100000Y-66600000D01*
X76100000Y-66600000D02*
X73700000Y-67700000D01*
X73700000Y-85580000D02*
X71780000Y-87500000D01*
X73700000Y-67700000D02*
X73700000Y-85580000D01*
D37*
X75900000Y-66600000D02*
X73720000Y-66500000D01*
X73720000Y-66500000D02*
X73620000Y-66600000D01*
D35*
X65400000Y-91100000D02*
X66580000Y-91100000D01*
X66580000Y-91100000D02*
X68080000Y-92600000D01*
X65600000Y-91300000D02*
X65400000Y-91100000D01*
X68080000Y-92600000D02*
X69500000Y-92600000D01*
X69500000Y-92600000D02*
X69900000Y-92200000D01*
X69900000Y-92200000D02*
X69900000Y-86400000D01*
X69900000Y-86400000D02*
X71340000Y-84960000D01*
X71340000Y-84960000D02*
X71780000Y-84960000D01*
M02*
