G04 #@! TF.FileFunction,Legend,Top*
%FSLAX46Y46*%
G04 Gerber Fmt 4.6, Leading zero omitted, Abs format (unit mm)*
G04 Created by KiCad (PCBNEW 4.0.7) date 03/09/21 00:41:04*
%MOMM*%
%LPD*%
G01*
G04 APERTURE LIST*
%ADD10C,0.100000*%
%ADD11C,0.300000*%
%ADD12C,0.150000*%
%ADD13C,0.200000*%
%ADD14C,0.120000*%
G04 APERTURE END LIST*
D10*
D11*
X89228572Y-117178571D02*
X88371429Y-117178571D01*
X88800001Y-117178571D02*
X88800001Y-115678571D01*
X88657144Y-115892857D01*
X88514286Y-116035714D01*
X88371429Y-116107143D01*
D12*
X93652381Y-30447619D02*
X93652381Y-31447619D01*
X93271428Y-31447619D01*
X93176190Y-31400000D01*
X93128571Y-31352381D01*
X93080952Y-31257143D01*
X93080952Y-31114286D01*
X93128571Y-31019048D01*
X93176190Y-30971429D01*
X93271428Y-30923810D01*
X93652381Y-30923810D01*
X92747619Y-31447619D02*
X92509524Y-30447619D01*
X92319047Y-31161905D01*
X92128571Y-30447619D01*
X91890476Y-31447619D01*
X90938095Y-30447619D02*
X91271429Y-30923810D01*
X91509524Y-30447619D02*
X91509524Y-31447619D01*
X91128571Y-31447619D01*
X91033333Y-31400000D01*
X90985714Y-31352381D01*
X90938095Y-31257143D01*
X90938095Y-31114286D01*
X90985714Y-31019048D01*
X91033333Y-30971429D01*
X91128571Y-30923810D01*
X91509524Y-30923810D01*
X90509524Y-30828571D02*
X89747619Y-30828571D01*
X82552381Y-30547619D02*
X82552381Y-31547619D01*
X82171428Y-31547619D01*
X82076190Y-31500000D01*
X82028571Y-31452381D01*
X81980952Y-31357143D01*
X81980952Y-31214286D01*
X82028571Y-31119048D01*
X82076190Y-31071429D01*
X82171428Y-31023810D01*
X82552381Y-31023810D01*
X81647619Y-31547619D02*
X81409524Y-30547619D01*
X81219047Y-31261905D01*
X81028571Y-30547619D01*
X80790476Y-31547619D01*
X79838095Y-30547619D02*
X80171429Y-31023810D01*
X80409524Y-30547619D02*
X80409524Y-31547619D01*
X80028571Y-31547619D01*
X79933333Y-31500000D01*
X79885714Y-31452381D01*
X79838095Y-31357143D01*
X79838095Y-31214286D01*
X79885714Y-31119048D01*
X79933333Y-31071429D01*
X80028571Y-31023810D01*
X80409524Y-31023810D01*
X79409524Y-30928571D02*
X78647619Y-30928571D01*
X88552381Y-30547619D02*
X88552381Y-31547619D01*
X88171428Y-31547619D01*
X88076190Y-31500000D01*
X88028571Y-31452381D01*
X87980952Y-31357143D01*
X87980952Y-31214286D01*
X88028571Y-31119048D01*
X88076190Y-31071429D01*
X88171428Y-31023810D01*
X88552381Y-31023810D01*
X87647619Y-31547619D02*
X87409524Y-30547619D01*
X87219047Y-31261905D01*
X87028571Y-30547619D01*
X86790476Y-31547619D01*
X85838095Y-30547619D02*
X86171429Y-31023810D01*
X86409524Y-30547619D02*
X86409524Y-31547619D01*
X86028571Y-31547619D01*
X85933333Y-31500000D01*
X85885714Y-31452381D01*
X85838095Y-31357143D01*
X85838095Y-31214286D01*
X85885714Y-31119048D01*
X85933333Y-31071429D01*
X86028571Y-31023810D01*
X86409524Y-31023810D01*
X85409524Y-30928571D02*
X84647619Y-30928571D01*
X85028571Y-30547619D02*
X85028571Y-31309524D01*
X99452381Y-30447619D02*
X99452381Y-31447619D01*
X99071428Y-31447619D01*
X98976190Y-31400000D01*
X98928571Y-31352381D01*
X98880952Y-31257143D01*
X98880952Y-31114286D01*
X98928571Y-31019048D01*
X98976190Y-30971429D01*
X99071428Y-30923810D01*
X99452381Y-30923810D01*
X98547619Y-31447619D02*
X98309524Y-30447619D01*
X98119047Y-31161905D01*
X97928571Y-30447619D01*
X97690476Y-31447619D01*
X96738095Y-30447619D02*
X97071429Y-30923810D01*
X97309524Y-30447619D02*
X97309524Y-31447619D01*
X96928571Y-31447619D01*
X96833333Y-31400000D01*
X96785714Y-31352381D01*
X96738095Y-31257143D01*
X96738095Y-31114286D01*
X96785714Y-31019048D01*
X96833333Y-30971429D01*
X96928571Y-30923810D01*
X97309524Y-30923810D01*
X96309524Y-30828571D02*
X95547619Y-30828571D01*
X95928571Y-30447619D02*
X95928571Y-31209524D01*
X119647619Y-31823810D02*
X119647619Y-32395239D01*
X118647619Y-32109524D02*
X119647619Y-32109524D01*
X118647619Y-32728572D02*
X119647619Y-32728572D01*
X118647619Y-33204762D02*
X119647619Y-33204762D01*
X119647619Y-33585715D01*
X119600000Y-33680953D01*
X119552381Y-33728572D01*
X119457143Y-33776191D01*
X119314286Y-33776191D01*
X119219048Y-33728572D01*
X119171429Y-33680953D01*
X119123810Y-33585715D01*
X119123810Y-33204762D01*
X119314286Y-34633334D02*
X118647619Y-34633334D01*
X119695238Y-34395238D02*
X118980952Y-34157143D01*
X118980952Y-34776191D01*
X118647619Y-35680953D02*
X118647619Y-35109524D01*
X118647619Y-35395238D02*
X119647619Y-35395238D01*
X119504762Y-35300000D01*
X119409524Y-35204762D01*
X119361905Y-35109524D01*
X45252381Y-68276190D02*
X45252381Y-67704761D01*
X46252381Y-67990476D02*
X45252381Y-67990476D01*
X46252381Y-67371428D02*
X45252381Y-67371428D01*
X46252381Y-66895238D02*
X45252381Y-66895238D01*
X45252381Y-66514285D01*
X45300000Y-66419047D01*
X45347619Y-66371428D01*
X45442857Y-66323809D01*
X45585714Y-66323809D01*
X45680952Y-66371428D01*
X45728571Y-66419047D01*
X45776190Y-66514285D01*
X45776190Y-66895238D01*
X45585714Y-65466666D02*
X46252381Y-65466666D01*
X45204762Y-65704762D02*
X45919048Y-65942857D01*
X45919048Y-65323809D01*
X46252381Y-64419047D02*
X46252381Y-64990476D01*
X46252381Y-64704762D02*
X45252381Y-64704762D01*
X45395238Y-64800000D01*
X45490476Y-64895238D01*
X45538095Y-64990476D01*
X45552381Y-85676190D02*
X45552381Y-85104761D01*
X46552381Y-85390476D02*
X45552381Y-85390476D01*
X46552381Y-84771428D02*
X45552381Y-84771428D01*
X46552381Y-84295238D02*
X45552381Y-84295238D01*
X45552381Y-83914285D01*
X45600000Y-83819047D01*
X45647619Y-83771428D01*
X45742857Y-83723809D01*
X45885714Y-83723809D01*
X45980952Y-83771428D01*
X46028571Y-83819047D01*
X46076190Y-83914285D01*
X46076190Y-84295238D01*
X45885714Y-82866666D02*
X46552381Y-82866666D01*
X45504762Y-83104762D02*
X46219048Y-83342857D01*
X46219048Y-82723809D01*
X45647619Y-82390476D02*
X45600000Y-82342857D01*
X45552381Y-82247619D01*
X45552381Y-82009523D01*
X45600000Y-81914285D01*
X45647619Y-81866666D01*
X45742857Y-81819047D01*
X45838095Y-81819047D01*
X45980952Y-81866666D01*
X46552381Y-82438095D01*
X46552381Y-81819047D01*
D11*
X52707143Y-118550000D02*
X53421429Y-118550000D01*
X52564286Y-118978571D02*
X53064286Y-117478571D01*
X53564286Y-118978571D01*
X54064286Y-117478571D02*
X54064286Y-118692857D01*
X54135714Y-118835714D01*
X54207143Y-118907143D01*
X54350000Y-118978571D01*
X54635714Y-118978571D01*
X54778572Y-118907143D01*
X54850000Y-118835714D01*
X54921429Y-118692857D01*
X54921429Y-117478571D01*
X55421429Y-117478571D02*
X56278572Y-117478571D01*
X55850001Y-118978571D02*
X55850001Y-117478571D01*
X57064286Y-117478571D02*
X57350000Y-117478571D01*
X57492858Y-117550000D01*
X57635715Y-117692857D01*
X57707143Y-117978571D01*
X57707143Y-118478571D01*
X57635715Y-118764286D01*
X57492858Y-118907143D01*
X57350000Y-118978571D01*
X57064286Y-118978571D01*
X56921429Y-118907143D01*
X56778572Y-118764286D01*
X56707143Y-118478571D01*
X56707143Y-117978571D01*
X56778572Y-117692857D01*
X56921429Y-117550000D01*
X57064286Y-117478571D01*
X59992858Y-118192857D02*
X59492858Y-118192857D01*
X59492858Y-118978571D02*
X59492858Y-117478571D01*
X60207144Y-117478571D01*
X60778572Y-117478571D02*
X60778572Y-118692857D01*
X60850000Y-118835714D01*
X60921429Y-118907143D01*
X61064286Y-118978571D01*
X61350000Y-118978571D01*
X61492858Y-118907143D01*
X61564286Y-118835714D01*
X61635715Y-118692857D01*
X61635715Y-117478571D01*
X62278572Y-118907143D02*
X62492858Y-118978571D01*
X62850001Y-118978571D01*
X62992858Y-118907143D01*
X63064287Y-118835714D01*
X63135715Y-118692857D01*
X63135715Y-118550000D01*
X63064287Y-118407143D01*
X62992858Y-118335714D01*
X62850001Y-118264286D01*
X62564287Y-118192857D01*
X62421429Y-118121429D01*
X62350001Y-118050000D01*
X62278572Y-117907143D01*
X62278572Y-117764286D01*
X62350001Y-117621429D01*
X62421429Y-117550000D01*
X62564287Y-117478571D01*
X62921429Y-117478571D01*
X63135715Y-117550000D01*
X63778572Y-118192857D02*
X64278572Y-118192857D01*
X64492858Y-118978571D02*
X63778572Y-118978571D01*
X63778572Y-117478571D01*
X64492858Y-117478571D01*
X66921429Y-117978571D02*
X66921429Y-118978571D01*
X66564286Y-117407143D02*
X66207143Y-118478571D01*
X67135715Y-118478571D01*
X68778571Y-118550000D02*
X69492857Y-118550000D01*
X68635714Y-118978571D02*
X69135714Y-117478571D01*
X69635714Y-118978571D01*
X96264287Y-92378571D02*
X95550001Y-92378571D01*
X95550001Y-90878571D01*
X96764287Y-92378571D02*
X96764287Y-90878571D01*
X97264287Y-91950000D01*
X97764287Y-90878571D01*
X97764287Y-92378571D01*
X98335716Y-90878571D02*
X99264287Y-90878571D01*
X98764287Y-91450000D01*
X98978573Y-91450000D01*
X99121430Y-91521429D01*
X99192859Y-91592857D01*
X99264287Y-91735714D01*
X99264287Y-92092857D01*
X99192859Y-92235714D01*
X99121430Y-92307143D01*
X98978573Y-92378571D01*
X98550001Y-92378571D01*
X98407144Y-92307143D01*
X98335716Y-92235714D01*
X100621430Y-90878571D02*
X99907144Y-90878571D01*
X99835715Y-91592857D01*
X99907144Y-91521429D01*
X100050001Y-91450000D01*
X100407144Y-91450000D01*
X100550001Y-91521429D01*
X100621430Y-91592857D01*
X100692858Y-91735714D01*
X100692858Y-92092857D01*
X100621430Y-92235714D01*
X100550001Y-92307143D01*
X100407144Y-92378571D01*
X100050001Y-92378571D01*
X99907144Y-92307143D01*
X99835715Y-92235714D01*
X101550001Y-91521429D02*
X101407143Y-91450000D01*
X101335715Y-91378571D01*
X101264286Y-91235714D01*
X101264286Y-91164286D01*
X101335715Y-91021429D01*
X101407143Y-90950000D01*
X101550001Y-90878571D01*
X101835715Y-90878571D01*
X101978572Y-90950000D01*
X102050001Y-91021429D01*
X102121429Y-91164286D01*
X102121429Y-91235714D01*
X102050001Y-91378571D01*
X101978572Y-91450000D01*
X101835715Y-91521429D01*
X101550001Y-91521429D01*
X101407143Y-91592857D01*
X101335715Y-91664286D01*
X101264286Y-91807143D01*
X101264286Y-92092857D01*
X101335715Y-92235714D01*
X101407143Y-92307143D01*
X101550001Y-92378571D01*
X101835715Y-92378571D01*
X101978572Y-92307143D01*
X102050001Y-92235714D01*
X102121429Y-92092857D01*
X102121429Y-91807143D01*
X102050001Y-91664286D01*
X101978572Y-91592857D01*
X101835715Y-91521429D01*
X105128572Y-85578571D02*
X104271429Y-85578571D01*
X104700001Y-85578571D02*
X104700001Y-84078571D01*
X104557144Y-84292857D01*
X104414286Y-84435714D01*
X104271429Y-84507143D01*
X82228572Y-88278571D02*
X81371429Y-88278571D01*
X81800001Y-88278571D02*
X81800001Y-86778571D01*
X81657144Y-86992857D01*
X81514286Y-87135714D01*
X81371429Y-87207143D01*
X75278571Y-81378571D02*
X75278571Y-80521428D01*
X76778571Y-80949999D02*
X75278571Y-80949999D01*
X76778571Y-79307142D02*
X76778571Y-80021428D01*
X75278571Y-80021428D01*
X75778571Y-78164285D02*
X76778571Y-78164285D01*
X75207143Y-78521428D02*
X76278571Y-78878571D01*
X76278571Y-77949999D01*
X76778571Y-77307143D02*
X76778571Y-77021428D01*
X76707143Y-76878571D01*
X76635714Y-76807143D01*
X76421429Y-76664285D01*
X76135714Y-76592857D01*
X75564286Y-76592857D01*
X75421429Y-76664285D01*
X75350000Y-76735714D01*
X75278571Y-76878571D01*
X75278571Y-77164285D01*
X75350000Y-77307143D01*
X75421429Y-77378571D01*
X75564286Y-77450000D01*
X75921429Y-77450000D01*
X76064286Y-77378571D01*
X76135714Y-77307143D01*
X76207143Y-77164285D01*
X76207143Y-76878571D01*
X76135714Y-76735714D01*
X76064286Y-76664285D01*
X75921429Y-76592857D01*
X75778571Y-75307143D02*
X76778571Y-75307143D01*
X75207143Y-75664286D02*
X76278571Y-76021429D01*
X76278571Y-75092857D01*
X139328572Y-58378571D02*
X138471429Y-58378571D01*
X138900001Y-58378571D02*
X138900001Y-56878571D01*
X138757144Y-57092857D01*
X138614286Y-57235714D01*
X138471429Y-57307143D01*
X112450001Y-61850000D02*
X113164287Y-61850000D01*
X112307144Y-62278571D02*
X112807144Y-60778571D01*
X113307144Y-62278571D01*
X113592858Y-60778571D02*
X114450001Y-60778571D01*
X114021430Y-62278571D02*
X114021430Y-60778571D01*
X114950001Y-62278571D02*
X114950001Y-60778571D01*
X115450001Y-61850000D01*
X115950001Y-60778571D01*
X115950001Y-62278571D01*
X116664287Y-61492857D02*
X117164287Y-61492857D01*
X117378573Y-62278571D02*
X116664287Y-62278571D01*
X116664287Y-60778571D01*
X117378573Y-60778571D01*
X118807144Y-60850000D02*
X118664287Y-60778571D01*
X118450001Y-60778571D01*
X118235716Y-60850000D01*
X118092858Y-60992857D01*
X118021430Y-61135714D01*
X117950001Y-61421429D01*
X117950001Y-61635714D01*
X118021430Y-61921429D01*
X118092858Y-62064286D01*
X118235716Y-62207143D01*
X118450001Y-62278571D01*
X118592858Y-62278571D01*
X118807144Y-62207143D01*
X118878573Y-62135714D01*
X118878573Y-61635714D01*
X118592858Y-61635714D01*
X119450001Y-61850000D02*
X120164287Y-61850000D01*
X119307144Y-62278571D02*
X119807144Y-60778571D01*
X120307144Y-62278571D01*
X120664287Y-60778571D02*
X121592858Y-60778571D01*
X121092858Y-61350000D01*
X121307144Y-61350000D01*
X121450001Y-61421429D01*
X121521430Y-61492857D01*
X121592858Y-61635714D01*
X121592858Y-61992857D01*
X121521430Y-62135714D01*
X121450001Y-62207143D01*
X121307144Y-62278571D01*
X120878572Y-62278571D01*
X120735715Y-62207143D01*
X120664287Y-62135714D01*
X122164286Y-60921429D02*
X122235715Y-60850000D01*
X122378572Y-60778571D01*
X122735715Y-60778571D01*
X122878572Y-60850000D01*
X122950001Y-60921429D01*
X123021429Y-61064286D01*
X123021429Y-61207143D01*
X122950001Y-61421429D01*
X122092858Y-62278571D01*
X123021429Y-62278571D01*
X123878572Y-61421429D02*
X123735714Y-61350000D01*
X123664286Y-61278571D01*
X123592857Y-61135714D01*
X123592857Y-61064286D01*
X123664286Y-60921429D01*
X123735714Y-60850000D01*
X123878572Y-60778571D01*
X124164286Y-60778571D01*
X124307143Y-60850000D01*
X124378572Y-60921429D01*
X124450000Y-61064286D01*
X124450000Y-61135714D01*
X124378572Y-61278571D01*
X124307143Y-61350000D01*
X124164286Y-61421429D01*
X123878572Y-61421429D01*
X123735714Y-61492857D01*
X123664286Y-61564286D01*
X123592857Y-61707143D01*
X123592857Y-61992857D01*
X123664286Y-62135714D01*
X123735714Y-62207143D01*
X123878572Y-62278571D01*
X124164286Y-62278571D01*
X124307143Y-62207143D01*
X124378572Y-62135714D01*
X124450000Y-61992857D01*
X124450000Y-61707143D01*
X124378572Y-61564286D01*
X124307143Y-61492857D01*
X124164286Y-61421429D01*
X125092857Y-62278571D02*
X125092857Y-60778571D01*
X125664285Y-60778571D01*
X125807143Y-60850000D01*
X125878571Y-60921429D01*
X125950000Y-61064286D01*
X125950000Y-61278571D01*
X125878571Y-61421429D01*
X125807143Y-61492857D01*
X125664285Y-61564286D01*
X125092857Y-61564286D01*
D12*
X44166667Y-109552381D02*
X43595238Y-109552381D01*
X43880952Y-109552381D02*
X43880952Y-108552381D01*
X43785714Y-108695238D01*
X43690476Y-108790476D01*
X43595238Y-108838095D01*
X44738095Y-108980952D02*
X44642857Y-108933333D01*
X44595238Y-108885714D01*
X44547619Y-108790476D01*
X44547619Y-108742857D01*
X44595238Y-108647619D01*
X44642857Y-108600000D01*
X44738095Y-108552381D01*
X44928572Y-108552381D01*
X45023810Y-108600000D01*
X45071429Y-108647619D01*
X45119048Y-108742857D01*
X45119048Y-108790476D01*
X45071429Y-108885714D01*
X45023810Y-108933333D01*
X44928572Y-108980952D01*
X44738095Y-108980952D01*
X44642857Y-109028571D01*
X44595238Y-109076190D01*
X44547619Y-109171429D01*
X44547619Y-109361905D01*
X44595238Y-109457143D01*
X44642857Y-109504762D01*
X44738095Y-109552381D01*
X44928572Y-109552381D01*
X45023810Y-109504762D01*
X45071429Y-109457143D01*
X45119048Y-109361905D01*
X45119048Y-109171429D01*
X45071429Y-109076190D01*
X45023810Y-109028571D01*
X44928572Y-108980952D01*
X45547619Y-109171429D02*
X46309524Y-109171429D01*
X46738095Y-108647619D02*
X46785714Y-108600000D01*
X46880952Y-108552381D01*
X47119048Y-108552381D01*
X47214286Y-108600000D01*
X47261905Y-108647619D01*
X47309524Y-108742857D01*
X47309524Y-108838095D01*
X47261905Y-108980952D01*
X46690476Y-109552381D01*
X47309524Y-109552381D01*
X48166667Y-108552381D02*
X47976190Y-108552381D01*
X47880952Y-108600000D01*
X47833333Y-108647619D01*
X47738095Y-108790476D01*
X47690476Y-108980952D01*
X47690476Y-109361905D01*
X47738095Y-109457143D01*
X47785714Y-109504762D01*
X47880952Y-109552381D01*
X48071429Y-109552381D01*
X48166667Y-109504762D01*
X48214286Y-109457143D01*
X48261905Y-109361905D01*
X48261905Y-109123810D01*
X48214286Y-109028571D01*
X48166667Y-108980952D01*
X48071429Y-108933333D01*
X47880952Y-108933333D01*
X47785714Y-108980952D01*
X47738095Y-109028571D01*
X47690476Y-109123810D01*
X48547619Y-108552381D02*
X48880952Y-109552381D01*
X49214286Y-108552381D01*
X50309524Y-109552381D02*
X50309524Y-108552381D01*
X50690477Y-108552381D01*
X50785715Y-108600000D01*
X50833334Y-108647619D01*
X50880953Y-108742857D01*
X50880953Y-108885714D01*
X50833334Y-108980952D01*
X50785715Y-109028571D01*
X50690477Y-109076190D01*
X50309524Y-109076190D01*
X51309524Y-109552381D02*
X51309524Y-108552381D01*
X51785714Y-109552381D02*
X51785714Y-108552381D01*
X52357143Y-109552381D01*
X52357143Y-108552381D01*
X53595238Y-109171429D02*
X54357143Y-109171429D01*
X53976191Y-109552381D02*
X53976191Y-108790476D01*
D13*
X99771428Y-107354762D02*
X99914285Y-107402381D01*
X100152381Y-107402381D01*
X100247619Y-107354762D01*
X100295238Y-107307143D01*
X100342857Y-107211905D01*
X100342857Y-107116667D01*
X100295238Y-107021429D01*
X100247619Y-106973810D01*
X100152381Y-106926190D01*
X99961904Y-106878571D01*
X99866666Y-106830952D01*
X99819047Y-106783333D01*
X99771428Y-106688095D01*
X99771428Y-106592857D01*
X99819047Y-106497619D01*
X99866666Y-106450000D01*
X99961904Y-106402381D01*
X100200000Y-106402381D01*
X100342857Y-106450000D01*
X100771428Y-107402381D02*
X100771428Y-106402381D01*
X101104762Y-107116667D01*
X101438095Y-106402381D01*
X101438095Y-107402381D01*
X101866666Y-107116667D02*
X102342857Y-107116667D01*
X101771428Y-107402381D02*
X102104761Y-106402381D01*
X102438095Y-107402381D01*
X103342857Y-107402381D02*
X103009523Y-106926190D01*
X102771428Y-107402381D02*
X102771428Y-106402381D01*
X103152381Y-106402381D01*
X103247619Y-106450000D01*
X103295238Y-106497619D01*
X103342857Y-106592857D01*
X103342857Y-106735714D01*
X103295238Y-106830952D01*
X103247619Y-106878571D01*
X103152381Y-106926190D01*
X102771428Y-106926190D01*
X103628571Y-106402381D02*
X104200000Y-106402381D01*
X103914285Y-107402381D02*
X103914285Y-106402381D01*
X105628572Y-106878571D02*
X105771429Y-106926190D01*
X105819048Y-106973810D01*
X105866667Y-107069048D01*
X105866667Y-107211905D01*
X105819048Y-107307143D01*
X105771429Y-107354762D01*
X105676191Y-107402381D01*
X105295238Y-107402381D01*
X105295238Y-106402381D01*
X105628572Y-106402381D01*
X105723810Y-106450000D01*
X105771429Y-106497619D01*
X105819048Y-106592857D01*
X105819048Y-106688095D01*
X105771429Y-106783333D01*
X105723810Y-106830952D01*
X105628572Y-106878571D01*
X105295238Y-106878571D01*
X106247619Y-107116667D02*
X106723810Y-107116667D01*
X106152381Y-107402381D02*
X106485714Y-106402381D01*
X106819048Y-107402381D01*
X107009524Y-106402381D02*
X107580953Y-106402381D01*
X107295238Y-107402381D02*
X107295238Y-106402381D01*
X107771429Y-106402381D02*
X108342858Y-106402381D01*
X108057143Y-107402381D02*
X108057143Y-106402381D01*
X108676191Y-106878571D02*
X109009525Y-106878571D01*
X109152382Y-107402381D02*
X108676191Y-107402381D01*
X108676191Y-106402381D01*
X109152382Y-106402381D01*
X110152382Y-107402381D02*
X109819048Y-106926190D01*
X109580953Y-107402381D02*
X109580953Y-106402381D01*
X109961906Y-106402381D01*
X110057144Y-106450000D01*
X110104763Y-106497619D01*
X110152382Y-106592857D01*
X110152382Y-106735714D01*
X110104763Y-106830952D01*
X110057144Y-106878571D01*
X109961906Y-106926190D01*
X109580953Y-106926190D01*
X110771429Y-106926190D02*
X110771429Y-107402381D01*
X110438096Y-106402381D02*
X110771429Y-106926190D01*
X111104763Y-106402381D01*
X112771430Y-107307143D02*
X112723811Y-107354762D01*
X112580954Y-107402381D01*
X112485716Y-107402381D01*
X112342858Y-107354762D01*
X112247620Y-107259524D01*
X112200001Y-107164286D01*
X112152382Y-106973810D01*
X112152382Y-106830952D01*
X112200001Y-106640476D01*
X112247620Y-106545238D01*
X112342858Y-106450000D01*
X112485716Y-106402381D01*
X112580954Y-106402381D01*
X112723811Y-106450000D01*
X112771430Y-106497619D01*
X113200001Y-107402381D02*
X113200001Y-106402381D01*
X113200001Y-106878571D02*
X113771430Y-106878571D01*
X113771430Y-107402381D02*
X113771430Y-106402381D01*
X114200001Y-107116667D02*
X114676192Y-107116667D01*
X114104763Y-107402381D02*
X114438096Y-106402381D01*
X114771430Y-107402381D01*
X115676192Y-107402381D02*
X115342858Y-106926190D01*
X115104763Y-107402381D02*
X115104763Y-106402381D01*
X115485716Y-106402381D01*
X115580954Y-106450000D01*
X115628573Y-106497619D01*
X115676192Y-106592857D01*
X115676192Y-106735714D01*
X115628573Y-106830952D01*
X115580954Y-106878571D01*
X115485716Y-106926190D01*
X115104763Y-106926190D01*
X116628573Y-106450000D02*
X116533335Y-106402381D01*
X116390478Y-106402381D01*
X116247620Y-106450000D01*
X116152382Y-106545238D01*
X116104763Y-106640476D01*
X116057144Y-106830952D01*
X116057144Y-106973810D01*
X116104763Y-107164286D01*
X116152382Y-107259524D01*
X116247620Y-107354762D01*
X116390478Y-107402381D01*
X116485716Y-107402381D01*
X116628573Y-107354762D01*
X116676192Y-107307143D01*
X116676192Y-106973810D01*
X116485716Y-106973810D01*
X117104763Y-106878571D02*
X117438097Y-106878571D01*
X117580954Y-107402381D02*
X117104763Y-107402381D01*
X117104763Y-106402381D01*
X117580954Y-106402381D01*
X118580954Y-107402381D02*
X118247620Y-106926190D01*
X118009525Y-107402381D02*
X118009525Y-106402381D01*
X118390478Y-106402381D01*
X118485716Y-106450000D01*
X118533335Y-106497619D01*
X118580954Y-106592857D01*
X118580954Y-106735714D01*
X118533335Y-106830952D01*
X118485716Y-106878571D01*
X118390478Y-106926190D01*
X118009525Y-106926190D01*
X119723811Y-106354762D02*
X118866668Y-107640476D01*
X104176190Y-109102381D02*
X104176190Y-108102381D01*
X104557143Y-108102381D01*
X104652381Y-108150000D01*
X104700000Y-108197619D01*
X104747619Y-108292857D01*
X104747619Y-108435714D01*
X104700000Y-108530952D01*
X104652381Y-108578571D01*
X104557143Y-108626190D01*
X104176190Y-108626190D01*
X105366666Y-108102381D02*
X105557143Y-108102381D01*
X105652381Y-108150000D01*
X105747619Y-108245238D01*
X105795238Y-108435714D01*
X105795238Y-108769048D01*
X105747619Y-108959524D01*
X105652381Y-109054762D01*
X105557143Y-109102381D01*
X105366666Y-109102381D01*
X105271428Y-109054762D01*
X105176190Y-108959524D01*
X105128571Y-108769048D01*
X105128571Y-108435714D01*
X105176190Y-108245238D01*
X105271428Y-108150000D01*
X105366666Y-108102381D01*
X106128571Y-108102381D02*
X106366666Y-109102381D01*
X106557143Y-108388095D01*
X106747619Y-109102381D01*
X106985714Y-108102381D01*
X107366666Y-108578571D02*
X107700000Y-108578571D01*
X107842857Y-109102381D02*
X107366666Y-109102381D01*
X107366666Y-108102381D01*
X107842857Y-108102381D01*
X108842857Y-109102381D02*
X108509523Y-108626190D01*
X108271428Y-109102381D02*
X108271428Y-108102381D01*
X108652381Y-108102381D01*
X108747619Y-108150000D01*
X108795238Y-108197619D01*
X108842857Y-108292857D01*
X108842857Y-108435714D01*
X108795238Y-108530952D01*
X108747619Y-108578571D01*
X108652381Y-108626190D01*
X108271428Y-108626190D01*
X109985714Y-109054762D02*
X110128571Y-109102381D01*
X110366667Y-109102381D01*
X110461905Y-109054762D01*
X110509524Y-109007143D01*
X110557143Y-108911905D01*
X110557143Y-108816667D01*
X110509524Y-108721429D01*
X110461905Y-108673810D01*
X110366667Y-108626190D01*
X110176190Y-108578571D01*
X110080952Y-108530952D01*
X110033333Y-108483333D01*
X109985714Y-108388095D01*
X109985714Y-108292857D01*
X110033333Y-108197619D01*
X110080952Y-108150000D01*
X110176190Y-108102381D01*
X110414286Y-108102381D01*
X110557143Y-108150000D01*
X110985714Y-108102381D02*
X110985714Y-108911905D01*
X111033333Y-109007143D01*
X111080952Y-109054762D01*
X111176190Y-109102381D01*
X111366667Y-109102381D01*
X111461905Y-109054762D01*
X111509524Y-109007143D01*
X111557143Y-108911905D01*
X111557143Y-108102381D01*
X112033333Y-109102381D02*
X112033333Y-108102381D01*
X112414286Y-108102381D01*
X112509524Y-108150000D01*
X112557143Y-108197619D01*
X112604762Y-108292857D01*
X112604762Y-108435714D01*
X112557143Y-108530952D01*
X112509524Y-108578571D01*
X112414286Y-108626190D01*
X112033333Y-108626190D01*
X113033333Y-109102381D02*
X113033333Y-108102381D01*
X113414286Y-108102381D01*
X113509524Y-108150000D01*
X113557143Y-108197619D01*
X113604762Y-108292857D01*
X113604762Y-108435714D01*
X113557143Y-108530952D01*
X113509524Y-108578571D01*
X113414286Y-108626190D01*
X113033333Y-108626190D01*
X114509524Y-109102381D02*
X114033333Y-109102381D01*
X114033333Y-108102381D01*
X115033333Y-108626190D02*
X115033333Y-109102381D01*
X114700000Y-108102381D02*
X115033333Y-108626190D01*
X115366667Y-108102381D01*
X105604762Y-110278571D02*
X105747619Y-110326190D01*
X105795238Y-110373810D01*
X105842857Y-110469048D01*
X105842857Y-110611905D01*
X105795238Y-110707143D01*
X105747619Y-110754762D01*
X105652381Y-110802381D01*
X105271428Y-110802381D01*
X105271428Y-109802381D01*
X105604762Y-109802381D01*
X105700000Y-109850000D01*
X105747619Y-109897619D01*
X105795238Y-109992857D01*
X105795238Y-110088095D01*
X105747619Y-110183333D01*
X105700000Y-110230952D01*
X105604762Y-110278571D01*
X105271428Y-110278571D01*
X106461904Y-110326190D02*
X106461904Y-110802381D01*
X106128571Y-109802381D02*
X106461904Y-110326190D01*
X106795238Y-109802381D01*
X107890476Y-110802381D02*
X107890476Y-109802381D01*
X108128571Y-109802381D01*
X108271429Y-109850000D01*
X108366667Y-109945238D01*
X108414286Y-110040476D01*
X108461905Y-110230952D01*
X108461905Y-110373810D01*
X108414286Y-110564286D01*
X108366667Y-110659524D01*
X108271429Y-110754762D01*
X108128571Y-110802381D01*
X107890476Y-110802381D01*
X109652381Y-110802381D02*
X109652381Y-109802381D01*
X109985715Y-110516667D01*
X110319048Y-109802381D01*
X110319048Y-110802381D01*
X110747619Y-110516667D02*
X111223810Y-110516667D01*
X110652381Y-110802381D02*
X110985714Y-109802381D01*
X111319048Y-110802381D01*
X112223810Y-110802381D02*
X111890476Y-110326190D01*
X111652381Y-110802381D02*
X111652381Y-109802381D01*
X112033334Y-109802381D01*
X112128572Y-109850000D01*
X112176191Y-109897619D01*
X112223810Y-109992857D01*
X112223810Y-110135714D01*
X112176191Y-110230952D01*
X112128572Y-110278571D01*
X112033334Y-110326190D01*
X111652381Y-110326190D01*
X112652381Y-110802381D02*
X112652381Y-109802381D01*
X113223810Y-110802381D02*
X112795238Y-110230952D01*
X113223810Y-109802381D02*
X112652381Y-110373810D01*
X113604762Y-110754762D02*
X113747619Y-110802381D01*
X113985715Y-110802381D01*
X114080953Y-110754762D01*
X114128572Y-110707143D01*
X114176191Y-110611905D01*
X114176191Y-110516667D01*
X114128572Y-110421429D01*
X114080953Y-110373810D01*
X113985715Y-110326190D01*
X113795238Y-110278571D01*
X113700000Y-110230952D01*
X113652381Y-110183333D01*
X113604762Y-110088095D01*
X113604762Y-109992857D01*
X113652381Y-109897619D01*
X113700000Y-109850000D01*
X113795238Y-109802381D01*
X114033334Y-109802381D01*
X114176191Y-109850000D01*
X104866667Y-112407143D02*
X104819048Y-112454762D01*
X104676191Y-112502381D01*
X104580953Y-112502381D01*
X104438095Y-112454762D01*
X104342857Y-112359524D01*
X104295238Y-112264286D01*
X104247619Y-112073810D01*
X104247619Y-111930952D01*
X104295238Y-111740476D01*
X104342857Y-111645238D01*
X104438095Y-111550000D01*
X104580953Y-111502381D01*
X104676191Y-111502381D01*
X104819048Y-111550000D01*
X104866667Y-111597619D01*
X105866667Y-112407143D02*
X105819048Y-112454762D01*
X105676191Y-112502381D01*
X105580953Y-112502381D01*
X105438095Y-112454762D01*
X105342857Y-112359524D01*
X105295238Y-112264286D01*
X105247619Y-112073810D01*
X105247619Y-111930952D01*
X105295238Y-111740476D01*
X105342857Y-111645238D01*
X105438095Y-111550000D01*
X105580953Y-111502381D01*
X105676191Y-111502381D01*
X105819048Y-111550000D01*
X105866667Y-111597619D01*
X106295238Y-112121429D02*
X107057143Y-112121429D01*
X107866667Y-111978571D02*
X108009524Y-112026190D01*
X108057143Y-112073810D01*
X108104762Y-112169048D01*
X108104762Y-112311905D01*
X108057143Y-112407143D01*
X108009524Y-112454762D01*
X107914286Y-112502381D01*
X107533333Y-112502381D01*
X107533333Y-111502381D01*
X107866667Y-111502381D01*
X107961905Y-111550000D01*
X108009524Y-111597619D01*
X108057143Y-111692857D01*
X108057143Y-111788095D01*
X108009524Y-111883333D01*
X107961905Y-111930952D01*
X107866667Y-111978571D01*
X107533333Y-111978571D01*
X108723809Y-112026190D02*
X108723809Y-112502381D01*
X108390476Y-111502381D02*
X108723809Y-112026190D01*
X109057143Y-111502381D01*
X109390476Y-112121429D02*
X110152381Y-112121429D01*
X110580952Y-112454762D02*
X110723809Y-112502381D01*
X110961905Y-112502381D01*
X111057143Y-112454762D01*
X111104762Y-112407143D01*
X111152381Y-112311905D01*
X111152381Y-112216667D01*
X111104762Y-112121429D01*
X111057143Y-112073810D01*
X110961905Y-112026190D01*
X110771428Y-111978571D01*
X110676190Y-111930952D01*
X110628571Y-111883333D01*
X110580952Y-111788095D01*
X110580952Y-111692857D01*
X110628571Y-111597619D01*
X110676190Y-111550000D01*
X110771428Y-111502381D01*
X111009524Y-111502381D01*
X111152381Y-111550000D01*
X111533333Y-112216667D02*
X112009524Y-112216667D01*
X111438095Y-112502381D02*
X111771428Y-111502381D01*
X112104762Y-112502381D01*
X113628572Y-111835714D02*
X113628572Y-112502381D01*
X113390476Y-111454762D02*
X113152381Y-112169048D01*
X113771429Y-112169048D01*
X114152381Y-112407143D02*
X114200000Y-112454762D01*
X114152381Y-112502381D01*
X114104762Y-112454762D01*
X114152381Y-112407143D01*
X114152381Y-112502381D01*
X114819047Y-111502381D02*
X114914286Y-111502381D01*
X115009524Y-111550000D01*
X115057143Y-111597619D01*
X115104762Y-111692857D01*
X115152381Y-111883333D01*
X115152381Y-112121429D01*
X115104762Y-112311905D01*
X115057143Y-112407143D01*
X115009524Y-112454762D01*
X114914286Y-112502381D01*
X114819047Y-112502381D01*
X114723809Y-112454762D01*
X114676190Y-112407143D01*
X114628571Y-112311905D01*
X114580952Y-112121429D01*
X114580952Y-111883333D01*
X114628571Y-111692857D01*
X114676190Y-111597619D01*
X114723809Y-111550000D01*
X114819047Y-111502381D01*
X101104761Y-125752381D02*
X101104761Y-124752381D01*
X101104761Y-125228571D02*
X101676190Y-125228571D01*
X101676190Y-125752381D02*
X101676190Y-124752381D01*
X102152380Y-125752381D02*
X102152380Y-124752381D01*
X102390475Y-124752381D01*
X102533333Y-124800000D01*
X102628571Y-124895238D01*
X102676190Y-124990476D01*
X102723809Y-125180952D01*
X102723809Y-125323810D01*
X102676190Y-125514286D01*
X102628571Y-125609524D01*
X102533333Y-125704762D01*
X102390475Y-125752381D01*
X102152380Y-125752381D01*
X103580952Y-125085714D02*
X103580952Y-125752381D01*
X103342856Y-124704762D02*
X103104761Y-125419048D01*
X103723809Y-125419048D01*
X104533333Y-125085714D02*
X104533333Y-125752381D01*
X104295237Y-124704762D02*
X104057142Y-125419048D01*
X104676190Y-125419048D01*
X104961904Y-124752381D02*
X105628571Y-124752381D01*
X105199999Y-125752381D01*
X106152380Y-125180952D02*
X106057142Y-125133333D01*
X106009523Y-125085714D01*
X105961904Y-124990476D01*
X105961904Y-124942857D01*
X106009523Y-124847619D01*
X106057142Y-124800000D01*
X106152380Y-124752381D01*
X106342857Y-124752381D01*
X106438095Y-124800000D01*
X106485714Y-124847619D01*
X106533333Y-124942857D01*
X106533333Y-124990476D01*
X106485714Y-125085714D01*
X106438095Y-125133333D01*
X106342857Y-125180952D01*
X106152380Y-125180952D01*
X106057142Y-125228571D01*
X106009523Y-125276190D01*
X105961904Y-125371429D01*
X105961904Y-125561905D01*
X106009523Y-125657143D01*
X106057142Y-125704762D01*
X106152380Y-125752381D01*
X106342857Y-125752381D01*
X106438095Y-125704762D01*
X106485714Y-125657143D01*
X106533333Y-125561905D01*
X106533333Y-125371429D01*
X106485714Y-125276190D01*
X106438095Y-125228571D01*
X106342857Y-125180952D01*
X107152380Y-124752381D02*
X107247619Y-124752381D01*
X107342857Y-124800000D01*
X107390476Y-124847619D01*
X107438095Y-124942857D01*
X107485714Y-125133333D01*
X107485714Y-125371429D01*
X107438095Y-125561905D01*
X107390476Y-125657143D01*
X107342857Y-125704762D01*
X107247619Y-125752381D01*
X107152380Y-125752381D01*
X107057142Y-125704762D01*
X107009523Y-125657143D01*
X106961904Y-125561905D01*
X106914285Y-125371429D01*
X106914285Y-125133333D01*
X106961904Y-124942857D01*
X107009523Y-124847619D01*
X107057142Y-124800000D01*
X107152380Y-124752381D01*
X108676190Y-125752381D02*
X108676190Y-124752381D01*
X108914285Y-124752381D01*
X109057143Y-124800000D01*
X109152381Y-124895238D01*
X109200000Y-124990476D01*
X109247619Y-125180952D01*
X109247619Y-125323810D01*
X109200000Y-125514286D01*
X109152381Y-125609524D01*
X109057143Y-125704762D01*
X108914285Y-125752381D01*
X108676190Y-125752381D01*
X109676190Y-125752381D02*
X109676190Y-124752381D01*
X110104761Y-125704762D02*
X110247618Y-125752381D01*
X110485714Y-125752381D01*
X110580952Y-125704762D01*
X110628571Y-125657143D01*
X110676190Y-125561905D01*
X110676190Y-125466667D01*
X110628571Y-125371429D01*
X110580952Y-125323810D01*
X110485714Y-125276190D01*
X110295237Y-125228571D01*
X110199999Y-125180952D01*
X110152380Y-125133333D01*
X110104761Y-125038095D01*
X110104761Y-124942857D01*
X110152380Y-124847619D01*
X110199999Y-124800000D01*
X110295237Y-124752381D01*
X110533333Y-124752381D01*
X110676190Y-124800000D01*
X111104761Y-125752381D02*
X111104761Y-124752381D01*
X111485714Y-124752381D01*
X111580952Y-124800000D01*
X111628571Y-124847619D01*
X111676190Y-124942857D01*
X111676190Y-125085714D01*
X111628571Y-125180952D01*
X111580952Y-125228571D01*
X111485714Y-125276190D01*
X111104761Y-125276190D01*
X112580952Y-125752381D02*
X112104761Y-125752381D01*
X112104761Y-124752381D01*
X112866666Y-125466667D02*
X113342857Y-125466667D01*
X112771428Y-125752381D02*
X113104761Y-124752381D01*
X113438095Y-125752381D01*
X113961904Y-125276190D02*
X113961904Y-125752381D01*
X113628571Y-124752381D02*
X113961904Y-125276190D01*
X114295238Y-124752381D01*
X115342857Y-124847619D02*
X115390476Y-124800000D01*
X115485714Y-124752381D01*
X115723810Y-124752381D01*
X115819048Y-124800000D01*
X115866667Y-124847619D01*
X115914286Y-124942857D01*
X115914286Y-125038095D01*
X115866667Y-125180952D01*
X115295238Y-125752381D01*
X115914286Y-125752381D01*
X116247619Y-124752381D02*
X116914286Y-125752381D01*
X116914286Y-124752381D02*
X116247619Y-125752381D01*
X117819048Y-125752381D02*
X117247619Y-125752381D01*
X117533333Y-125752381D02*
X117533333Y-124752381D01*
X117438095Y-124895238D01*
X117342857Y-124990476D01*
X117247619Y-125038095D01*
X118676191Y-124752381D02*
X118485714Y-124752381D01*
X118390476Y-124800000D01*
X118342857Y-124847619D01*
X118247619Y-124990476D01*
X118200000Y-125180952D01*
X118200000Y-125561905D01*
X118247619Y-125657143D01*
X118295238Y-125704762D01*
X118390476Y-125752381D01*
X118580953Y-125752381D01*
X118676191Y-125704762D01*
X118723810Y-125657143D01*
X118771429Y-125561905D01*
X118771429Y-125323810D01*
X118723810Y-125228571D01*
X118676191Y-125180952D01*
X118580953Y-125133333D01*
X118390476Y-125133333D01*
X118295238Y-125180952D01*
X118247619Y-125228571D01*
X118200000Y-125323810D01*
X120438096Y-125752381D02*
X119961905Y-125752381D01*
X119961905Y-124752381D01*
X121342858Y-125657143D02*
X121295239Y-125704762D01*
X121152382Y-125752381D01*
X121057144Y-125752381D01*
X120914286Y-125704762D01*
X120819048Y-125609524D01*
X120771429Y-125514286D01*
X120723810Y-125323810D01*
X120723810Y-125180952D01*
X120771429Y-124990476D01*
X120819048Y-124895238D01*
X120914286Y-124800000D01*
X121057144Y-124752381D01*
X121152382Y-124752381D01*
X121295239Y-124800000D01*
X121342858Y-124847619D01*
X121771429Y-125752381D02*
X121771429Y-124752381D01*
X122009524Y-124752381D01*
X122152382Y-124800000D01*
X122247620Y-124895238D01*
X122295239Y-124990476D01*
X122342858Y-125180952D01*
X122342858Y-125323810D01*
X122295239Y-125514286D01*
X122247620Y-125609524D01*
X122152382Y-125704762D01*
X122009524Y-125752381D01*
X121771429Y-125752381D01*
X44552381Y-102066666D02*
X44552381Y-102542857D01*
X43552381Y-102542857D01*
X44552381Y-101733333D02*
X43552381Y-101733333D01*
X44266667Y-101399999D01*
X43552381Y-101066666D01*
X44552381Y-101066666D01*
X43552381Y-100685714D02*
X43552381Y-100019047D01*
X44552381Y-100447619D01*
X43980952Y-99495238D02*
X43933333Y-99590476D01*
X43885714Y-99638095D01*
X43790476Y-99685714D01*
X43742857Y-99685714D01*
X43647619Y-99638095D01*
X43600000Y-99590476D01*
X43552381Y-99495238D01*
X43552381Y-99304761D01*
X43600000Y-99209523D01*
X43647619Y-99161904D01*
X43742857Y-99114285D01*
X43790476Y-99114285D01*
X43885714Y-99161904D01*
X43933333Y-99209523D01*
X43980952Y-99304761D01*
X43980952Y-99495238D01*
X44028571Y-99590476D01*
X44076190Y-99638095D01*
X44171429Y-99685714D01*
X44361905Y-99685714D01*
X44457143Y-99638095D01*
X44504762Y-99590476D01*
X44552381Y-99495238D01*
X44552381Y-99304761D01*
X44504762Y-99209523D01*
X44457143Y-99161904D01*
X44361905Y-99114285D01*
X44171429Y-99114285D01*
X44076190Y-99161904D01*
X44028571Y-99209523D01*
X43980952Y-99304761D01*
X43552381Y-98495238D02*
X43552381Y-98399999D01*
X43600000Y-98304761D01*
X43647619Y-98257142D01*
X43742857Y-98209523D01*
X43933333Y-98161904D01*
X44171429Y-98161904D01*
X44361905Y-98209523D01*
X44457143Y-98257142D01*
X44504762Y-98304761D01*
X44552381Y-98399999D01*
X44552381Y-98495238D01*
X44504762Y-98590476D01*
X44457143Y-98638095D01*
X44361905Y-98685714D01*
X44171429Y-98733333D01*
X43933333Y-98733333D01*
X43742857Y-98685714D01*
X43647619Y-98638095D01*
X43600000Y-98590476D01*
X43552381Y-98495238D01*
X43552381Y-97257142D02*
X43552381Y-97733333D01*
X44028571Y-97780952D01*
X43980952Y-97733333D01*
X43933333Y-97638095D01*
X43933333Y-97399999D01*
X43980952Y-97304761D01*
X44028571Y-97257142D01*
X44123810Y-97209523D01*
X44361905Y-97209523D01*
X44457143Y-97257142D01*
X44504762Y-97304761D01*
X44552381Y-97399999D01*
X44552381Y-97638095D01*
X44504762Y-97733333D01*
X44457143Y-97780952D01*
D12*
X139100000Y-42561904D02*
X139052381Y-42657142D01*
X139052381Y-42799999D01*
X139100000Y-42942857D01*
X139195238Y-43038095D01*
X139290476Y-43085714D01*
X139480952Y-43133333D01*
X139623810Y-43133333D01*
X139814286Y-43085714D01*
X139909524Y-43038095D01*
X140004762Y-42942857D01*
X140052381Y-42799999D01*
X140052381Y-42704761D01*
X140004762Y-42561904D01*
X139957143Y-42514285D01*
X139623810Y-42514285D01*
X139623810Y-42704761D01*
X140052381Y-42085714D02*
X139052381Y-42085714D01*
X140052381Y-41514285D01*
X139052381Y-41514285D01*
X140052381Y-41038095D02*
X139052381Y-41038095D01*
X139052381Y-40800000D01*
X139100000Y-40657142D01*
X139195238Y-40561904D01*
X139290476Y-40514285D01*
X139480952Y-40466666D01*
X139623810Y-40466666D01*
X139814286Y-40514285D01*
X139909524Y-40561904D01*
X140004762Y-40657142D01*
X140052381Y-40800000D01*
X140052381Y-41038095D01*
X139052381Y-45661905D02*
X139052381Y-45090476D01*
X140052381Y-45376191D02*
X139052381Y-45376191D01*
X139052381Y-44852381D02*
X140052381Y-44185714D01*
X139052381Y-44185714D02*
X140052381Y-44852381D01*
X140052381Y-47566666D02*
X139576190Y-47900000D01*
X140052381Y-48138095D02*
X139052381Y-48138095D01*
X139052381Y-47757142D01*
X139100000Y-47661904D01*
X139147619Y-47614285D01*
X139242857Y-47566666D01*
X139385714Y-47566666D01*
X139480952Y-47614285D01*
X139528571Y-47661904D01*
X139576190Y-47757142D01*
X139576190Y-48138095D01*
X139052381Y-47233333D02*
X140052381Y-46566666D01*
X139052381Y-46566666D02*
X140052381Y-47233333D01*
X140052381Y-51342857D02*
X139052381Y-51342857D01*
X139052381Y-51104762D01*
X139100000Y-50961904D01*
X139195238Y-50866666D01*
X139290476Y-50819047D01*
X139480952Y-50771428D01*
X139623810Y-50771428D01*
X139814286Y-50819047D01*
X139909524Y-50866666D01*
X140004762Y-50961904D01*
X140052381Y-51104762D01*
X140052381Y-51342857D01*
X139052381Y-50485714D02*
X139052381Y-49914285D01*
X140052381Y-50200000D02*
X139052381Y-50200000D01*
X140052381Y-49009523D02*
X139576190Y-49342857D01*
X140052381Y-49580952D02*
X139052381Y-49580952D01*
X139052381Y-49199999D01*
X139100000Y-49104761D01*
X139147619Y-49057142D01*
X139242857Y-49009523D01*
X139385714Y-49009523D01*
X139480952Y-49057142D01*
X139528571Y-49104761D01*
X139576190Y-49199999D01*
X139576190Y-49580952D01*
D13*
X111223810Y-79852381D02*
X111223810Y-78852381D01*
X112271429Y-79757143D02*
X112223810Y-79804762D01*
X112080953Y-79852381D01*
X111985715Y-79852381D01*
X111842857Y-79804762D01*
X111747619Y-79709524D01*
X111700000Y-79614286D01*
X111652381Y-79423810D01*
X111652381Y-79280952D01*
X111700000Y-79090476D01*
X111747619Y-78995238D01*
X111842857Y-78900000D01*
X111985715Y-78852381D01*
X112080953Y-78852381D01*
X112223810Y-78900000D01*
X112271429Y-78947619D01*
X112652381Y-79804762D02*
X112795238Y-79852381D01*
X113033334Y-79852381D01*
X113128572Y-79804762D01*
X113176191Y-79757143D01*
X113223810Y-79661905D01*
X113223810Y-79566667D01*
X113176191Y-79471429D01*
X113128572Y-79423810D01*
X113033334Y-79376190D01*
X112842857Y-79328571D01*
X112747619Y-79280952D01*
X112700000Y-79233333D01*
X112652381Y-79138095D01*
X112652381Y-79042857D01*
X112700000Y-78947619D01*
X112747619Y-78900000D01*
X112842857Y-78852381D01*
X113080953Y-78852381D01*
X113223810Y-78900000D01*
X113652381Y-79852381D02*
X113652381Y-78852381D01*
X114033334Y-78852381D01*
X114128572Y-78900000D01*
X114176191Y-78947619D01*
X114223810Y-79042857D01*
X114223810Y-79185714D01*
X114176191Y-79280952D01*
X114128572Y-79328571D01*
X114033334Y-79376190D01*
X113652381Y-79376190D01*
D14*
X95540000Y-97290000D02*
X100660000Y-97290000D01*
X95540000Y-99910000D02*
X100660000Y-99910000D01*
X95540000Y-97290000D02*
X95540000Y-97604000D01*
X95540000Y-99596000D02*
X95540000Y-99910000D01*
X100660000Y-97290000D02*
X100660000Y-97604000D01*
X100660000Y-99596000D02*
X100660000Y-99910000D01*
X96000000Y-80220000D02*
X96000000Y-79890000D01*
X96000000Y-79890000D02*
X102420000Y-79890000D01*
X102420000Y-79890000D02*
X102420000Y-80220000D01*
X96000000Y-82180000D02*
X96000000Y-82510000D01*
X96000000Y-82510000D02*
X102420000Y-82510000D01*
X102420000Y-82510000D02*
X102420000Y-82180000D01*
X63940000Y-105500000D02*
G75*
G03X63940000Y-105500000I-4090000J0D01*
G01*
X59850000Y-101450000D02*
X59850000Y-109550000D01*
X59890000Y-101450000D02*
X59890000Y-109550000D01*
X59930000Y-101450000D02*
X59930000Y-109550000D01*
X59970000Y-101451000D02*
X59970000Y-109549000D01*
X60010000Y-101453000D02*
X60010000Y-109547000D01*
X60050000Y-101454000D02*
X60050000Y-109546000D01*
X60090000Y-101457000D02*
X60090000Y-109543000D01*
X60130000Y-101459000D02*
X60130000Y-109541000D01*
X60170000Y-101462000D02*
X60170000Y-109538000D01*
X60210000Y-101465000D02*
X60210000Y-109535000D01*
X60250000Y-101469000D02*
X60250000Y-109531000D01*
X60290000Y-101473000D02*
X60290000Y-109527000D01*
X60330000Y-101478000D02*
X60330000Y-109522000D01*
X60370000Y-101483000D02*
X60370000Y-109517000D01*
X60410000Y-101488000D02*
X60410000Y-109512000D01*
X60450000Y-101494000D02*
X60450000Y-109506000D01*
X60490000Y-101500000D02*
X60490000Y-109500000D01*
X60530000Y-101506000D02*
X60530000Y-109494000D01*
X60571000Y-101513000D02*
X60571000Y-109487000D01*
X60611000Y-101521000D02*
X60611000Y-109479000D01*
X60651000Y-101529000D02*
X60651000Y-104520000D01*
X60651000Y-106480000D02*
X60651000Y-109471000D01*
X60691000Y-101537000D02*
X60691000Y-104520000D01*
X60691000Y-106480000D02*
X60691000Y-109463000D01*
X60731000Y-101545000D02*
X60731000Y-104520000D01*
X60731000Y-106480000D02*
X60731000Y-109455000D01*
X60771000Y-101554000D02*
X60771000Y-104520000D01*
X60771000Y-106480000D02*
X60771000Y-109446000D01*
X60811000Y-101564000D02*
X60811000Y-104520000D01*
X60811000Y-106480000D02*
X60811000Y-109436000D01*
X60851000Y-101574000D02*
X60851000Y-104520000D01*
X60851000Y-106480000D02*
X60851000Y-109426000D01*
X60891000Y-101584000D02*
X60891000Y-104520000D01*
X60891000Y-106480000D02*
X60891000Y-109416000D01*
X60931000Y-101595000D02*
X60931000Y-104520000D01*
X60931000Y-106480000D02*
X60931000Y-109405000D01*
X60971000Y-101606000D02*
X60971000Y-104520000D01*
X60971000Y-106480000D02*
X60971000Y-109394000D01*
X61011000Y-101617000D02*
X61011000Y-104520000D01*
X61011000Y-106480000D02*
X61011000Y-109383000D01*
X61051000Y-101630000D02*
X61051000Y-104520000D01*
X61051000Y-106480000D02*
X61051000Y-109370000D01*
X61091000Y-101642000D02*
X61091000Y-104520000D01*
X61091000Y-106480000D02*
X61091000Y-109358000D01*
X61131000Y-101655000D02*
X61131000Y-104520000D01*
X61131000Y-106480000D02*
X61131000Y-109345000D01*
X61171000Y-101668000D02*
X61171000Y-104520000D01*
X61171000Y-106480000D02*
X61171000Y-109332000D01*
X61211000Y-101682000D02*
X61211000Y-104520000D01*
X61211000Y-106480000D02*
X61211000Y-109318000D01*
X61251000Y-101697000D02*
X61251000Y-104520000D01*
X61251000Y-106480000D02*
X61251000Y-109303000D01*
X61291000Y-101711000D02*
X61291000Y-104520000D01*
X61291000Y-106480000D02*
X61291000Y-109289000D01*
X61331000Y-101727000D02*
X61331000Y-104520000D01*
X61331000Y-106480000D02*
X61331000Y-109273000D01*
X61371000Y-101742000D02*
X61371000Y-104520000D01*
X61371000Y-106480000D02*
X61371000Y-109258000D01*
X61411000Y-101759000D02*
X61411000Y-104520000D01*
X61411000Y-106480000D02*
X61411000Y-109241000D01*
X61451000Y-101775000D02*
X61451000Y-104520000D01*
X61451000Y-106480000D02*
X61451000Y-109225000D01*
X61491000Y-101793000D02*
X61491000Y-104520000D01*
X61491000Y-106480000D02*
X61491000Y-109207000D01*
X61531000Y-101810000D02*
X61531000Y-104520000D01*
X61531000Y-106480000D02*
X61531000Y-109190000D01*
X61571000Y-101829000D02*
X61571000Y-104520000D01*
X61571000Y-106480000D02*
X61571000Y-109171000D01*
X61611000Y-101848000D02*
X61611000Y-104520000D01*
X61611000Y-106480000D02*
X61611000Y-109152000D01*
X61651000Y-101867000D02*
X61651000Y-104520000D01*
X61651000Y-106480000D02*
X61651000Y-109133000D01*
X61691000Y-101887000D02*
X61691000Y-104520000D01*
X61691000Y-106480000D02*
X61691000Y-109113000D01*
X61731000Y-101907000D02*
X61731000Y-104520000D01*
X61731000Y-106480000D02*
X61731000Y-109093000D01*
X61771000Y-101928000D02*
X61771000Y-104520000D01*
X61771000Y-106480000D02*
X61771000Y-109072000D01*
X61811000Y-101950000D02*
X61811000Y-104520000D01*
X61811000Y-106480000D02*
X61811000Y-109050000D01*
X61851000Y-101972000D02*
X61851000Y-104520000D01*
X61851000Y-106480000D02*
X61851000Y-109028000D01*
X61891000Y-101995000D02*
X61891000Y-104520000D01*
X61891000Y-106480000D02*
X61891000Y-109005000D01*
X61931000Y-102018000D02*
X61931000Y-104520000D01*
X61931000Y-106480000D02*
X61931000Y-108982000D01*
X61971000Y-102042000D02*
X61971000Y-104520000D01*
X61971000Y-106480000D02*
X61971000Y-108958000D01*
X62011000Y-102066000D02*
X62011000Y-104520000D01*
X62011000Y-106480000D02*
X62011000Y-108934000D01*
X62051000Y-102092000D02*
X62051000Y-104520000D01*
X62051000Y-106480000D02*
X62051000Y-108908000D01*
X62091000Y-102117000D02*
X62091000Y-104520000D01*
X62091000Y-106480000D02*
X62091000Y-108883000D01*
X62131000Y-102144000D02*
X62131000Y-104520000D01*
X62131000Y-106480000D02*
X62131000Y-108856000D01*
X62171000Y-102171000D02*
X62171000Y-104520000D01*
X62171000Y-106480000D02*
X62171000Y-108829000D01*
X62211000Y-102199000D02*
X62211000Y-104520000D01*
X62211000Y-106480000D02*
X62211000Y-108801000D01*
X62251000Y-102228000D02*
X62251000Y-104520000D01*
X62251000Y-106480000D02*
X62251000Y-108772000D01*
X62291000Y-102257000D02*
X62291000Y-104520000D01*
X62291000Y-106480000D02*
X62291000Y-108743000D01*
X62331000Y-102287000D02*
X62331000Y-104520000D01*
X62331000Y-106480000D02*
X62331000Y-108713000D01*
X62371000Y-102318000D02*
X62371000Y-104520000D01*
X62371000Y-106480000D02*
X62371000Y-108682000D01*
X62411000Y-102350000D02*
X62411000Y-104520000D01*
X62411000Y-106480000D02*
X62411000Y-108650000D01*
X62451000Y-102382000D02*
X62451000Y-104520000D01*
X62451000Y-106480000D02*
X62451000Y-108618000D01*
X62491000Y-102416000D02*
X62491000Y-104520000D01*
X62491000Y-106480000D02*
X62491000Y-108584000D01*
X62531000Y-102450000D02*
X62531000Y-104520000D01*
X62531000Y-106480000D02*
X62531000Y-108550000D01*
X62571000Y-102485000D02*
X62571000Y-104520000D01*
X62571000Y-106480000D02*
X62571000Y-108515000D01*
X62611000Y-102521000D02*
X62611000Y-108479000D01*
X62651000Y-102558000D02*
X62651000Y-108442000D01*
X62691000Y-102596000D02*
X62691000Y-108404000D01*
X62731000Y-102635000D02*
X62731000Y-108365000D01*
X62771000Y-102676000D02*
X62771000Y-108324000D01*
X62811000Y-102717000D02*
X62811000Y-108283000D01*
X62851000Y-102760000D02*
X62851000Y-108240000D01*
X62891000Y-102803000D02*
X62891000Y-108197000D01*
X62931000Y-102848000D02*
X62931000Y-108152000D01*
X62971000Y-102895000D02*
X62971000Y-108105000D01*
X63011000Y-102943000D02*
X63011000Y-108057000D01*
X63051000Y-102992000D02*
X63051000Y-108008000D01*
X63091000Y-103043000D02*
X63091000Y-107957000D01*
X63131000Y-103096000D02*
X63131000Y-107904000D01*
X63171000Y-103151000D02*
X63171000Y-107849000D01*
X63211000Y-103207000D02*
X63211000Y-107793000D01*
X63251000Y-103266000D02*
X63251000Y-107734000D01*
X63291000Y-103327000D02*
X63291000Y-107673000D01*
X63331000Y-103391000D02*
X63331000Y-107609000D01*
X63371000Y-103457000D02*
X63371000Y-107543000D01*
X63411000Y-103526000D02*
X63411000Y-107474000D01*
X63451000Y-103598000D02*
X63451000Y-107402000D01*
X63491000Y-103674000D02*
X63491000Y-107326000D01*
X63531000Y-103755000D02*
X63531000Y-107245000D01*
X63571000Y-103840000D02*
X63571000Y-107160000D01*
X63611000Y-103930000D02*
X63611000Y-107070000D01*
X63651000Y-104027000D02*
X63651000Y-106973000D01*
X63691000Y-104131000D02*
X63691000Y-106869000D01*
X63731000Y-104246000D02*
X63731000Y-106754000D01*
X63771000Y-104373000D02*
X63771000Y-106627000D01*
X63811000Y-104517000D02*
X63811000Y-106483000D01*
X63851000Y-104686000D02*
X63851000Y-106314000D01*
X63891000Y-104902000D02*
X63891000Y-106098000D01*
X63931000Y-105254000D02*
X63931000Y-105746000D01*
X55900000Y-105500000D02*
X57100000Y-105500000D01*
X56500000Y-104850000D02*
X56500000Y-106150000D01*
X133990000Y-36650000D02*
G75*
G03X133990000Y-36650000I-4090000J0D01*
G01*
X125850000Y-36650000D02*
X133950000Y-36650000D01*
X125850000Y-36610000D02*
X133950000Y-36610000D01*
X125850000Y-36570000D02*
X133950000Y-36570000D01*
X125851000Y-36530000D02*
X133949000Y-36530000D01*
X125853000Y-36490000D02*
X133947000Y-36490000D01*
X125854000Y-36450000D02*
X133946000Y-36450000D01*
X125857000Y-36410000D02*
X133943000Y-36410000D01*
X125859000Y-36370000D02*
X133941000Y-36370000D01*
X125862000Y-36330000D02*
X133938000Y-36330000D01*
X125865000Y-36290000D02*
X133935000Y-36290000D01*
X125869000Y-36250000D02*
X133931000Y-36250000D01*
X125873000Y-36210000D02*
X133927000Y-36210000D01*
X125878000Y-36170000D02*
X133922000Y-36170000D01*
X125883000Y-36130000D02*
X133917000Y-36130000D01*
X125888000Y-36090000D02*
X133912000Y-36090000D01*
X125894000Y-36050000D02*
X133906000Y-36050000D01*
X125900000Y-36010000D02*
X133900000Y-36010000D01*
X125906000Y-35970000D02*
X133894000Y-35970000D01*
X125913000Y-35929000D02*
X133887000Y-35929000D01*
X125921000Y-35889000D02*
X133879000Y-35889000D01*
X125929000Y-35849000D02*
X128920000Y-35849000D01*
X130880000Y-35849000D02*
X133871000Y-35849000D01*
X125937000Y-35809000D02*
X128920000Y-35809000D01*
X130880000Y-35809000D02*
X133863000Y-35809000D01*
X125945000Y-35769000D02*
X128920000Y-35769000D01*
X130880000Y-35769000D02*
X133855000Y-35769000D01*
X125954000Y-35729000D02*
X128920000Y-35729000D01*
X130880000Y-35729000D02*
X133846000Y-35729000D01*
X125964000Y-35689000D02*
X128920000Y-35689000D01*
X130880000Y-35689000D02*
X133836000Y-35689000D01*
X125974000Y-35649000D02*
X128920000Y-35649000D01*
X130880000Y-35649000D02*
X133826000Y-35649000D01*
X125984000Y-35609000D02*
X128920000Y-35609000D01*
X130880000Y-35609000D02*
X133816000Y-35609000D01*
X125995000Y-35569000D02*
X128920000Y-35569000D01*
X130880000Y-35569000D02*
X133805000Y-35569000D01*
X126006000Y-35529000D02*
X128920000Y-35529000D01*
X130880000Y-35529000D02*
X133794000Y-35529000D01*
X126017000Y-35489000D02*
X128920000Y-35489000D01*
X130880000Y-35489000D02*
X133783000Y-35489000D01*
X126030000Y-35449000D02*
X128920000Y-35449000D01*
X130880000Y-35449000D02*
X133770000Y-35449000D01*
X126042000Y-35409000D02*
X128920000Y-35409000D01*
X130880000Y-35409000D02*
X133758000Y-35409000D01*
X126055000Y-35369000D02*
X128920000Y-35369000D01*
X130880000Y-35369000D02*
X133745000Y-35369000D01*
X126068000Y-35329000D02*
X128920000Y-35329000D01*
X130880000Y-35329000D02*
X133732000Y-35329000D01*
X126082000Y-35289000D02*
X128920000Y-35289000D01*
X130880000Y-35289000D02*
X133718000Y-35289000D01*
X126097000Y-35249000D02*
X128920000Y-35249000D01*
X130880000Y-35249000D02*
X133703000Y-35249000D01*
X126111000Y-35209000D02*
X128920000Y-35209000D01*
X130880000Y-35209000D02*
X133689000Y-35209000D01*
X126127000Y-35169000D02*
X128920000Y-35169000D01*
X130880000Y-35169000D02*
X133673000Y-35169000D01*
X126142000Y-35129000D02*
X128920000Y-35129000D01*
X130880000Y-35129000D02*
X133658000Y-35129000D01*
X126159000Y-35089000D02*
X128920000Y-35089000D01*
X130880000Y-35089000D02*
X133641000Y-35089000D01*
X126175000Y-35049000D02*
X128920000Y-35049000D01*
X130880000Y-35049000D02*
X133625000Y-35049000D01*
X126193000Y-35009000D02*
X128920000Y-35009000D01*
X130880000Y-35009000D02*
X133607000Y-35009000D01*
X126210000Y-34969000D02*
X128920000Y-34969000D01*
X130880000Y-34969000D02*
X133590000Y-34969000D01*
X126229000Y-34929000D02*
X128920000Y-34929000D01*
X130880000Y-34929000D02*
X133571000Y-34929000D01*
X126248000Y-34889000D02*
X128920000Y-34889000D01*
X130880000Y-34889000D02*
X133552000Y-34889000D01*
X126267000Y-34849000D02*
X128920000Y-34849000D01*
X130880000Y-34849000D02*
X133533000Y-34849000D01*
X126287000Y-34809000D02*
X128920000Y-34809000D01*
X130880000Y-34809000D02*
X133513000Y-34809000D01*
X126307000Y-34769000D02*
X128920000Y-34769000D01*
X130880000Y-34769000D02*
X133493000Y-34769000D01*
X126328000Y-34729000D02*
X128920000Y-34729000D01*
X130880000Y-34729000D02*
X133472000Y-34729000D01*
X126350000Y-34689000D02*
X128920000Y-34689000D01*
X130880000Y-34689000D02*
X133450000Y-34689000D01*
X126372000Y-34649000D02*
X128920000Y-34649000D01*
X130880000Y-34649000D02*
X133428000Y-34649000D01*
X126395000Y-34609000D02*
X128920000Y-34609000D01*
X130880000Y-34609000D02*
X133405000Y-34609000D01*
X126418000Y-34569000D02*
X128920000Y-34569000D01*
X130880000Y-34569000D02*
X133382000Y-34569000D01*
X126442000Y-34529000D02*
X128920000Y-34529000D01*
X130880000Y-34529000D02*
X133358000Y-34529000D01*
X126466000Y-34489000D02*
X128920000Y-34489000D01*
X130880000Y-34489000D02*
X133334000Y-34489000D01*
X126492000Y-34449000D02*
X128920000Y-34449000D01*
X130880000Y-34449000D02*
X133308000Y-34449000D01*
X126517000Y-34409000D02*
X128920000Y-34409000D01*
X130880000Y-34409000D02*
X133283000Y-34409000D01*
X126544000Y-34369000D02*
X128920000Y-34369000D01*
X130880000Y-34369000D02*
X133256000Y-34369000D01*
X126571000Y-34329000D02*
X128920000Y-34329000D01*
X130880000Y-34329000D02*
X133229000Y-34329000D01*
X126599000Y-34289000D02*
X128920000Y-34289000D01*
X130880000Y-34289000D02*
X133201000Y-34289000D01*
X126628000Y-34249000D02*
X128920000Y-34249000D01*
X130880000Y-34249000D02*
X133172000Y-34249000D01*
X126657000Y-34209000D02*
X128920000Y-34209000D01*
X130880000Y-34209000D02*
X133143000Y-34209000D01*
X126687000Y-34169000D02*
X128920000Y-34169000D01*
X130880000Y-34169000D02*
X133113000Y-34169000D01*
X126718000Y-34129000D02*
X128920000Y-34129000D01*
X130880000Y-34129000D02*
X133082000Y-34129000D01*
X126750000Y-34089000D02*
X128920000Y-34089000D01*
X130880000Y-34089000D02*
X133050000Y-34089000D01*
X126782000Y-34049000D02*
X128920000Y-34049000D01*
X130880000Y-34049000D02*
X133018000Y-34049000D01*
X126816000Y-34009000D02*
X128920000Y-34009000D01*
X130880000Y-34009000D02*
X132984000Y-34009000D01*
X126850000Y-33969000D02*
X128920000Y-33969000D01*
X130880000Y-33969000D02*
X132950000Y-33969000D01*
X126885000Y-33929000D02*
X128920000Y-33929000D01*
X130880000Y-33929000D02*
X132915000Y-33929000D01*
X126921000Y-33889000D02*
X132879000Y-33889000D01*
X126958000Y-33849000D02*
X132842000Y-33849000D01*
X126996000Y-33809000D02*
X132804000Y-33809000D01*
X127035000Y-33769000D02*
X132765000Y-33769000D01*
X127076000Y-33729000D02*
X132724000Y-33729000D01*
X127117000Y-33689000D02*
X132683000Y-33689000D01*
X127160000Y-33649000D02*
X132640000Y-33649000D01*
X127203000Y-33609000D02*
X132597000Y-33609000D01*
X127248000Y-33569000D02*
X132552000Y-33569000D01*
X127295000Y-33529000D02*
X132505000Y-33529000D01*
X127343000Y-33489000D02*
X132457000Y-33489000D01*
X127392000Y-33449000D02*
X132408000Y-33449000D01*
X127443000Y-33409000D02*
X132357000Y-33409000D01*
X127496000Y-33369000D02*
X132304000Y-33369000D01*
X127551000Y-33329000D02*
X132249000Y-33329000D01*
X127607000Y-33289000D02*
X132193000Y-33289000D01*
X127666000Y-33249000D02*
X132134000Y-33249000D01*
X127727000Y-33209000D02*
X132073000Y-33209000D01*
X127791000Y-33169000D02*
X132009000Y-33169000D01*
X127857000Y-33129000D02*
X131943000Y-33129000D01*
X127926000Y-33089000D02*
X131874000Y-33089000D01*
X127998000Y-33049000D02*
X131802000Y-33049000D01*
X128074000Y-33009000D02*
X131726000Y-33009000D01*
X128155000Y-32969000D02*
X131645000Y-32969000D01*
X128240000Y-32929000D02*
X131560000Y-32929000D01*
X128330000Y-32889000D02*
X131470000Y-32889000D01*
X128427000Y-32849000D02*
X131373000Y-32849000D01*
X128531000Y-32809000D02*
X131269000Y-32809000D01*
X128646000Y-32769000D02*
X131154000Y-32769000D01*
X128773000Y-32729000D02*
X131027000Y-32729000D01*
X128917000Y-32689000D02*
X130883000Y-32689000D01*
X129086000Y-32649000D02*
X130714000Y-32649000D01*
X129302000Y-32609000D02*
X130498000Y-32609000D01*
X129654000Y-32569000D02*
X130146000Y-32569000D01*
X129900000Y-40600000D02*
X129900000Y-39400000D01*
X129250000Y-40000000D02*
X130550000Y-40000000D01*
X129960000Y-44150000D02*
X127840000Y-44150000D01*
X127840000Y-44150000D02*
X127840000Y-48270000D01*
X127840000Y-48270000D02*
X129960000Y-48270000D01*
X129960000Y-48270000D02*
X129960000Y-44150000D01*
X128900000Y-43380000D02*
X128900000Y-44150000D01*
X128900000Y-49040000D02*
X128900000Y-48270000D01*
X129960000Y-44810000D02*
X127840000Y-44810000D01*
X108490000Y-72670000D02*
X108490000Y-77870000D01*
X113630000Y-72670000D02*
X108490000Y-72670000D01*
X116230000Y-77870000D02*
X108490000Y-77870000D01*
X113630000Y-72670000D02*
X113630000Y-75270000D01*
X113630000Y-75270000D02*
X116230000Y-75270000D01*
X116230000Y-75270000D02*
X116230000Y-77870000D01*
X114900000Y-72670000D02*
X116230000Y-72670000D01*
X116230000Y-72670000D02*
X116230000Y-74000000D01*
X132780000Y-43000000D02*
X133110000Y-43000000D01*
X133110000Y-43000000D02*
X133110000Y-49420000D01*
X133110000Y-49420000D02*
X132780000Y-49420000D01*
X130820000Y-43000000D02*
X130490000Y-43000000D01*
X130490000Y-43000000D02*
X130490000Y-49420000D01*
X130490000Y-49420000D02*
X130820000Y-49420000D01*
X137330000Y-62310000D02*
G75*
G02X137330000Y-60310000I0J1000000D01*
G01*
X137330000Y-60310000D02*
X137330000Y-58660000D01*
X137330000Y-58660000D02*
X101650000Y-58660000D01*
X101650000Y-58660000D02*
X101650000Y-63960000D01*
X101650000Y-63960000D02*
X137330000Y-63960000D01*
X137330000Y-63960000D02*
X137330000Y-62310000D01*
X137390000Y-56170000D02*
X101590000Y-56170000D01*
X101590000Y-56170000D02*
X101590000Y-66450000D01*
X101590000Y-66450000D02*
X137390000Y-66450000D01*
X137390000Y-66450000D02*
X137390000Y-56170000D01*
X45200000Y-120000000D02*
X36400000Y-120000000D01*
X36400000Y-120000000D02*
X36400000Y-110800000D01*
X51100000Y-117300000D02*
X51100000Y-120000000D01*
X51100000Y-120000000D02*
X49200000Y-120000000D01*
X36400000Y-110800000D02*
X51100000Y-110800000D01*
X51100000Y-110800000D02*
X51100000Y-113400000D01*
X45080000Y-106680000D02*
X45080000Y-96440000D01*
X49721000Y-106680000D02*
X49721000Y-96440000D01*
X45080000Y-106680000D02*
X49721000Y-106680000D01*
X45080000Y-96440000D02*
X49721000Y-96440000D01*
X46590000Y-106680000D02*
X46590000Y-96440000D01*
X45080000Y-103410000D02*
X46590000Y-103410000D01*
X45080000Y-99709000D02*
X46590000Y-99709000D01*
X48090000Y-34016000D02*
G75*
G03X48090000Y-34016000I-2286000J0D01*
G01*
X140038000Y-34016000D02*
G75*
G03X140038000Y-34016000I-2286000J0D01*
G01*
X140038000Y-125456000D02*
G75*
G03X140038000Y-125456000I-2286000J0D01*
G01*
X48090000Y-125456000D02*
G75*
G03X48090000Y-125456000I-2286000J0D01*
G01*
X138230000Y-40850000D02*
X135570000Y-40850000D01*
X138230000Y-48530000D02*
X138230000Y-40850000D01*
X135570000Y-48530000D02*
X135570000Y-40850000D01*
X138230000Y-48530000D02*
X135570000Y-48530000D01*
X138230000Y-49800000D02*
X138230000Y-51130000D01*
X138230000Y-51130000D02*
X136900000Y-51130000D01*
X118085000Y-54325000D02*
X111835000Y-54325000D01*
X118085000Y-49275000D02*
X111835000Y-49275000D01*
X118085000Y-49275000D02*
G75*
G02X118085000Y-54325000I0J-2525000D01*
G01*
X111835000Y-49275000D02*
G75*
G03X111835000Y-54325000I0J-2525000D01*
G01*
X118950000Y-93060000D02*
X118950000Y-90940000D01*
X118950000Y-90940000D02*
X114830000Y-90940000D01*
X114830000Y-90940000D02*
X114830000Y-93060000D01*
X114830000Y-93060000D02*
X118950000Y-93060000D01*
X119720000Y-92000000D02*
X118950000Y-92000000D01*
X114060000Y-92000000D02*
X114830000Y-92000000D01*
X118290000Y-93060000D02*
X118290000Y-90940000D01*
X65650000Y-74280000D02*
X65650000Y-74410000D01*
X65650000Y-74410000D02*
X60330000Y-74410000D01*
X60330000Y-74410000D02*
X60330000Y-74280000D01*
X65650000Y-71720000D02*
X65650000Y-71590000D01*
X65650000Y-71590000D02*
X60330000Y-71590000D01*
X60330000Y-71590000D02*
X60330000Y-71720000D01*
X64810000Y-74410000D02*
X64810000Y-71590000D01*
X52520000Y-102750000D02*
X52390000Y-102750000D01*
X52390000Y-102750000D02*
X52390000Y-97430000D01*
X52390000Y-97430000D02*
X52520000Y-97430000D01*
X55080000Y-102750000D02*
X55210000Y-102750000D01*
X55210000Y-102750000D02*
X55210000Y-97430000D01*
X55210000Y-97430000D02*
X55080000Y-97430000D01*
X52390000Y-101910000D02*
X55210000Y-101910000D01*
X89480000Y-32960000D02*
X99640000Y-32960000D01*
X89480000Y-31690000D02*
X89480000Y-39310000D01*
X89480000Y-39310000D02*
X99640000Y-39310000D01*
X99640000Y-39310000D02*
X99640000Y-31690000D01*
X99640000Y-31690000D02*
X89480000Y-31690000D01*
X78780000Y-33160000D02*
X88940000Y-33160000D01*
X78780000Y-31890000D02*
X78780000Y-39510000D01*
X78780000Y-39510000D02*
X88940000Y-39510000D01*
X88940000Y-39510000D02*
X88940000Y-31890000D01*
X88940000Y-31890000D02*
X78780000Y-31890000D01*
X58300000Y-121000000D02*
X53800000Y-121000000D01*
X59550000Y-125000000D02*
X59550000Y-123500000D01*
X53800000Y-127500000D02*
X58300000Y-127500000D01*
X52550000Y-123500000D02*
X52550000Y-125000000D01*
X68900000Y-121000000D02*
X64400000Y-121000000D01*
X70150000Y-125000000D02*
X70150000Y-123500000D01*
X64400000Y-127500000D02*
X68900000Y-127500000D01*
X63150000Y-123500000D02*
X63150000Y-125000000D01*
X79300000Y-121000000D02*
X74800000Y-121000000D01*
X80550000Y-125000000D02*
X80550000Y-123500000D01*
X74800000Y-127500000D02*
X79300000Y-127500000D01*
X73550000Y-123500000D02*
X73550000Y-125000000D01*
X85190000Y-55300000D02*
G75*
G03X85190000Y-55300000I-9090000J0D01*
G01*
X102300000Y-85480000D02*
X102300000Y-85810000D01*
X102300000Y-85810000D02*
X95880000Y-85810000D01*
X95880000Y-85810000D02*
X95880000Y-85480000D01*
X102300000Y-83520000D02*
X102300000Y-83190000D01*
X102300000Y-83190000D02*
X95880000Y-83190000D01*
X95880000Y-83190000D02*
X95880000Y-83520000D01*
X113600000Y-97120000D02*
X113600000Y-96790000D01*
X113600000Y-96790000D02*
X120020000Y-96790000D01*
X120020000Y-96790000D02*
X120020000Y-97120000D01*
X113600000Y-99080000D02*
X113600000Y-99410000D01*
X113600000Y-99410000D02*
X120020000Y-99410000D01*
X120020000Y-99410000D02*
X120020000Y-99080000D01*
X124600000Y-95820000D02*
X124600000Y-95490000D01*
X124600000Y-95490000D02*
X131020000Y-95490000D01*
X131020000Y-95490000D02*
X131020000Y-95820000D01*
X124600000Y-97780000D02*
X124600000Y-98110000D01*
X124600000Y-98110000D02*
X131020000Y-98110000D01*
X131020000Y-98110000D02*
X131020000Y-97780000D01*
X88200000Y-123520000D02*
X88200000Y-123190000D01*
X88200000Y-123190000D02*
X94620000Y-123190000D01*
X94620000Y-123190000D02*
X94620000Y-123520000D01*
X88200000Y-125480000D02*
X88200000Y-125810000D01*
X88200000Y-125810000D02*
X94620000Y-125810000D01*
X94620000Y-125810000D02*
X94620000Y-125480000D01*
X92710000Y-78950000D02*
X88090000Y-78950000D01*
X88090000Y-78950000D02*
X88090000Y-90970000D01*
X88090000Y-90970000D02*
X92710000Y-90970000D01*
X92710000Y-90970000D02*
X92710000Y-78950000D01*
X90400000Y-76180000D02*
X90400000Y-78950000D01*
X90400000Y-93740000D02*
X90400000Y-90970000D01*
X127800000Y-89480000D02*
X127800000Y-89810000D01*
X127800000Y-89810000D02*
X121380000Y-89810000D01*
X121380000Y-89810000D02*
X121380000Y-89480000D01*
X127800000Y-87520000D02*
X127800000Y-87190000D01*
X127800000Y-87190000D02*
X121380000Y-87190000D01*
X121380000Y-87190000D02*
X121380000Y-87520000D01*
X127800000Y-82980000D02*
X127800000Y-83310000D01*
X127800000Y-83310000D02*
X121380000Y-83310000D01*
X121380000Y-83310000D02*
X121380000Y-82980000D01*
X127800000Y-81020000D02*
X127800000Y-80690000D01*
X127800000Y-80690000D02*
X121380000Y-80690000D01*
X121380000Y-80690000D02*
X121380000Y-81020000D01*
X127900000Y-76380000D02*
X127900000Y-76710000D01*
X127900000Y-76710000D02*
X121480000Y-76710000D01*
X121480000Y-76710000D02*
X121480000Y-76380000D01*
X127900000Y-74420000D02*
X127900000Y-74090000D01*
X127900000Y-74090000D02*
X121480000Y-74090000D01*
X121480000Y-74090000D02*
X121480000Y-74420000D01*
X121300000Y-84320000D02*
X121300000Y-83990000D01*
X121300000Y-83990000D02*
X127720000Y-83990000D01*
X127720000Y-83990000D02*
X127720000Y-84320000D01*
X121300000Y-86280000D02*
X121300000Y-86610000D01*
X121300000Y-86610000D02*
X127720000Y-86610000D01*
X127720000Y-86610000D02*
X127720000Y-86280000D01*
X121300000Y-77720000D02*
X121300000Y-77390000D01*
X121300000Y-77390000D02*
X127720000Y-77390000D01*
X127720000Y-77390000D02*
X127720000Y-77720000D01*
X121300000Y-79680000D02*
X121300000Y-80010000D01*
X121300000Y-80010000D02*
X127720000Y-80010000D01*
X127720000Y-80010000D02*
X127720000Y-79680000D01*
X121500000Y-71020000D02*
X121500000Y-70690000D01*
X121500000Y-70690000D02*
X127920000Y-70690000D01*
X127920000Y-70690000D02*
X127920000Y-71020000D01*
X121500000Y-72980000D02*
X121500000Y-73310000D01*
X121500000Y-73310000D02*
X127920000Y-73310000D01*
X127920000Y-73310000D02*
X127920000Y-72980000D01*
X125950000Y-104950000D02*
X125950000Y-104700000D01*
X125950000Y-104700000D02*
X126200000Y-104700000D01*
X126200000Y-104700000D02*
X126200000Y-104450000D01*
X126200000Y-104450000D02*
X127450000Y-104450000D01*
X127450000Y-104450000D02*
X127450000Y-104700000D01*
X127450000Y-104700000D02*
X131100000Y-104700000D01*
X131100000Y-104700000D02*
X131100000Y-104450000D01*
X131100000Y-104450000D02*
X132400000Y-104450000D01*
X132400000Y-104450000D02*
X132400000Y-104700000D01*
X132400000Y-104700000D02*
X132700000Y-104700000D01*
X132700000Y-104700000D02*
X132700000Y-104950000D01*
X128150000Y-112000000D02*
X127250000Y-112000000D01*
X127250000Y-112000000D02*
X125900000Y-110500000D01*
X125900000Y-110500000D02*
X125900000Y-107200000D01*
X132700000Y-107200000D02*
X132700000Y-110550000D01*
X132700000Y-110550000D02*
X131350000Y-112000000D01*
X131350000Y-112000000D02*
X130450000Y-112000000D01*
X128030000Y-120730000D02*
X128030000Y-118070000D01*
X89870000Y-120730000D02*
X128030000Y-120730000D01*
X89870000Y-118070000D02*
X128030000Y-118070000D01*
X89870000Y-120730000D02*
X89870000Y-118070000D01*
X88600000Y-120730000D02*
X87270000Y-120730000D01*
X87270000Y-120730000D02*
X87270000Y-119400000D01*
X86350000Y-40490000D02*
X86350000Y-45110000D01*
X86350000Y-45110000D02*
X98370000Y-45110000D01*
X98370000Y-45110000D02*
X98370000Y-40490000D01*
X98370000Y-40490000D02*
X86350000Y-40490000D01*
X83580000Y-42800000D02*
X86350000Y-42800000D01*
X101140000Y-42800000D02*
X98370000Y-42800000D01*
X109200000Y-39920000D02*
X109200000Y-39590000D01*
X109200000Y-39590000D02*
X115620000Y-39590000D01*
X115620000Y-39590000D02*
X115620000Y-39920000D01*
X109200000Y-41880000D02*
X109200000Y-42210000D01*
X109200000Y-42210000D02*
X115620000Y-42210000D01*
X115620000Y-42210000D02*
X115620000Y-41880000D01*
D13*
X95400000Y-59152000D02*
X95400000Y-64613000D01*
X97940000Y-66137000D02*
X97940000Y-68423000D01*
X97940000Y-58136000D02*
X97940000Y-55850000D01*
X91590000Y-66010000D02*
X91590000Y-68550000D01*
X91590000Y-58390000D02*
X91590000Y-55850000D01*
X97870000Y-64259000D02*
X97870000Y-66073000D01*
X92352000Y-60676000D02*
G75*
G03X91590000Y-59914000I-762000J0D01*
G01*
X91590000Y-61438000D02*
G75*
G03X92352000Y-60676000I0J762000D01*
G01*
X92352000Y-62200000D02*
G75*
G03X91590000Y-61438000I-762000J0D01*
G01*
X91590000Y-62962000D02*
G75*
G03X92352000Y-62200000I0J762000D01*
G01*
X92352000Y-63724000D02*
G75*
G03X91590000Y-62962000I-762000J0D01*
G01*
X91590000Y-64486000D02*
G75*
G03X92352000Y-63724000I0J762000D01*
G01*
X91590000Y-58200000D02*
X91590000Y-59914000D01*
X97108000Y-60449000D02*
G75*
G03X97870000Y-61211000I762000J0D01*
G01*
X97870000Y-59687000D02*
G75*
G03X97108000Y-60449000I0J-762000D01*
G01*
X97108000Y-61973000D02*
G75*
G03X97870000Y-62735000I762000J0D01*
G01*
X97870000Y-61211000D02*
G75*
G03X97108000Y-61973000I0J-762000D01*
G01*
X97870000Y-62735000D02*
G75*
G03X97108000Y-63497000I0J-762000D01*
G01*
X97108000Y-63497000D02*
G75*
G03X97870000Y-64259000I762000J0D01*
G01*
X97108000Y-63497000D02*
G75*
G03X97870000Y-64259000I762000J0D01*
G01*
X97870000Y-62735000D02*
G75*
G03X97108000Y-63497000I0J-762000D01*
G01*
X97870000Y-62735000D02*
G75*
G03X97108000Y-63497000I0J-762000D01*
G01*
X97108000Y-63497000D02*
G75*
G03X97870000Y-64259000I762000J0D01*
G01*
X97108000Y-63497000D02*
G75*
G03X97870000Y-64259000I762000J0D01*
G01*
X97870000Y-62735000D02*
G75*
G03X97108000Y-63497000I0J-762000D01*
G01*
X97870000Y-62735000D02*
G75*
G03X97108000Y-63497000I0J-762000D01*
G01*
X97108000Y-63497000D02*
G75*
G03X97870000Y-64259000I762000J0D01*
G01*
X97108000Y-63497000D02*
G75*
G03X97870000Y-64259000I762000J0D01*
G01*
X97870000Y-62735000D02*
G75*
G03X97108000Y-63497000I0J-762000D01*
G01*
X97870000Y-62735000D02*
G75*
G03X97108000Y-63497000I0J-762000D01*
G01*
X97108000Y-63497000D02*
G75*
G03X97870000Y-64259000I762000J0D01*
G01*
X97108000Y-63497000D02*
G75*
G03X97870000Y-64259000I762000J0D01*
G01*
X97870000Y-62735000D02*
G75*
G03X97108000Y-63497000I0J-762000D01*
G01*
X97870000Y-58073000D02*
X97870000Y-59687000D01*
X91590000Y-66200000D02*
X91590000Y-64486000D01*
X94657000Y-64640000D02*
X94657000Y-59306000D01*
D14*
X75760000Y-97110000D02*
X70640000Y-97110000D01*
X75760000Y-94490000D02*
X70640000Y-94490000D01*
X75760000Y-97110000D02*
X75760000Y-96796000D01*
X75760000Y-94804000D02*
X75760000Y-94490000D01*
X70640000Y-97110000D02*
X70640000Y-96796000D01*
X70640000Y-94804000D02*
X70640000Y-94490000D01*
X132910000Y-86840000D02*
X132910000Y-91960000D01*
X130290000Y-86840000D02*
X130290000Y-91960000D01*
X132910000Y-86840000D02*
X132596000Y-86840000D01*
X130604000Y-86840000D02*
X130290000Y-86840000D01*
X132910000Y-91960000D02*
X132596000Y-91960000D01*
X130604000Y-91960000D02*
X130290000Y-91960000D01*
X133010000Y-79640000D02*
X133010000Y-84760000D01*
X130390000Y-79640000D02*
X130390000Y-84760000D01*
X133010000Y-79640000D02*
X132696000Y-79640000D01*
X130704000Y-79640000D02*
X130390000Y-79640000D01*
X133010000Y-84760000D02*
X132696000Y-84760000D01*
X130704000Y-84760000D02*
X130390000Y-84760000D01*
X133010000Y-72340000D02*
X133010000Y-77460000D01*
X130390000Y-72340000D02*
X130390000Y-77460000D01*
X133010000Y-72340000D02*
X132696000Y-72340000D01*
X130704000Y-72340000D02*
X130390000Y-72340000D01*
X133010000Y-77460000D02*
X132696000Y-77460000D01*
X130704000Y-77460000D02*
X130390000Y-77460000D01*
X77910000Y-35040000D02*
X77910000Y-40160000D01*
X75290000Y-35040000D02*
X75290000Y-40160000D01*
X77910000Y-35040000D02*
X77596000Y-35040000D01*
X75604000Y-35040000D02*
X75290000Y-35040000D01*
X77910000Y-40160000D02*
X77596000Y-40160000D01*
X75604000Y-40160000D02*
X75290000Y-40160000D01*
X69060000Y-80710000D02*
X63940000Y-80710000D01*
X69060000Y-78090000D02*
X63940000Y-78090000D01*
X69060000Y-80710000D02*
X69060000Y-80396000D01*
X69060000Y-78404000D02*
X69060000Y-78090000D01*
X63940000Y-80710000D02*
X63940000Y-80396000D01*
X63940000Y-78404000D02*
X63940000Y-78090000D01*
X124560000Y-48610000D02*
X119440000Y-48610000D01*
X124560000Y-45990000D02*
X119440000Y-45990000D01*
X124560000Y-48610000D02*
X124560000Y-48296000D01*
X124560000Y-46304000D02*
X124560000Y-45990000D01*
X119440000Y-48610000D02*
X119440000Y-48296000D01*
X119440000Y-46304000D02*
X119440000Y-45990000D01*
X116040000Y-66990000D02*
X121160000Y-66990000D01*
X116040000Y-69610000D02*
X121160000Y-69610000D01*
X116040000Y-66990000D02*
X116040000Y-67304000D01*
X116040000Y-69296000D02*
X116040000Y-69610000D01*
X121160000Y-66990000D02*
X121160000Y-67304000D01*
X121160000Y-69296000D02*
X121160000Y-69610000D01*
X122490000Y-41660000D02*
X122490000Y-36540000D01*
X125110000Y-41660000D02*
X125110000Y-36540000D01*
X122490000Y-41660000D02*
X122804000Y-41660000D01*
X124796000Y-41660000D02*
X125110000Y-41660000D01*
X122490000Y-36540000D02*
X122804000Y-36540000D01*
X124796000Y-36540000D02*
X125110000Y-36540000D01*
X117260000Y-48610000D02*
X112140000Y-48610000D01*
X117260000Y-45990000D02*
X112140000Y-45990000D01*
X117260000Y-48610000D02*
X117260000Y-48296000D01*
X117260000Y-46304000D02*
X117260000Y-45990000D01*
X112140000Y-48610000D02*
X112140000Y-48296000D01*
X112140000Y-46304000D02*
X112140000Y-45990000D01*
X122940000Y-90690000D02*
X128060000Y-90690000D01*
X122940000Y-93310000D02*
X128060000Y-93310000D01*
X122940000Y-90690000D02*
X122940000Y-91004000D01*
X122940000Y-92996000D02*
X122940000Y-93310000D01*
X128060000Y-90690000D02*
X128060000Y-91004000D01*
X128060000Y-92996000D02*
X128060000Y-93310000D01*
X58610000Y-94840000D02*
X58610000Y-99960000D01*
X55990000Y-94840000D02*
X55990000Y-99960000D01*
X58610000Y-94840000D02*
X58296000Y-94840000D01*
X56304000Y-94840000D02*
X55990000Y-94840000D01*
X58610000Y-99960000D02*
X58296000Y-99960000D01*
X56304000Y-99960000D02*
X55990000Y-99960000D01*
X137460000Y-55610000D02*
X132340000Y-55610000D01*
X137460000Y-52990000D02*
X132340000Y-52990000D01*
X137460000Y-55610000D02*
X137460000Y-55296000D01*
X137460000Y-53304000D02*
X137460000Y-52990000D01*
X132340000Y-55610000D02*
X132340000Y-55296000D01*
X132340000Y-53304000D02*
X132340000Y-52990000D01*
X107520000Y-31280000D02*
X117760000Y-31280000D01*
X107520000Y-35921000D02*
X117760000Y-35921000D01*
X107520000Y-31280000D02*
X107520000Y-35921000D01*
X117760000Y-31280000D02*
X117760000Y-35921000D01*
X107520000Y-32790000D02*
X117760000Y-32790000D01*
X110790000Y-31280000D02*
X110790000Y-32790000D01*
X114491000Y-31280000D02*
X114491000Y-32790000D01*
X115700000Y-38780000D02*
X115700000Y-39110000D01*
X115700000Y-39110000D02*
X109280000Y-39110000D01*
X109280000Y-39110000D02*
X109280000Y-38780000D01*
X115700000Y-36820000D02*
X115700000Y-36490000D01*
X115700000Y-36490000D02*
X109280000Y-36490000D01*
X109280000Y-36490000D02*
X109280000Y-36820000D01*
X88410000Y-55140000D02*
X88410000Y-60260000D01*
X85790000Y-55140000D02*
X85790000Y-60260000D01*
X88410000Y-55140000D02*
X88096000Y-55140000D01*
X86104000Y-55140000D02*
X85790000Y-55140000D01*
X88410000Y-60260000D02*
X88096000Y-60260000D01*
X86104000Y-60260000D02*
X85790000Y-60260000D01*
X81879723Y-114855722D02*
G75*
G03X81880000Y-110244420I-1179723J2305722D01*
G01*
X79520277Y-114855722D02*
G75*
G02X79520000Y-110244420I1179723J2305722D01*
G01*
X79520277Y-114855722D02*
G75*
G03X81880000Y-114855580I1179723J2305722D01*
G01*
X83250000Y-112550000D02*
X78150000Y-112550000D01*
X83250000Y-112590000D02*
X78150000Y-112590000D01*
X83249000Y-112630000D02*
X78151000Y-112630000D01*
X83248000Y-112670000D02*
X78152000Y-112670000D01*
X83246000Y-112710000D02*
X78154000Y-112710000D01*
X83243000Y-112750000D02*
X78157000Y-112750000D01*
X83239000Y-112790000D02*
X78161000Y-112790000D01*
X83235000Y-112830000D02*
X81680000Y-112830000D01*
X79720000Y-112830000D02*
X78165000Y-112830000D01*
X83231000Y-112870000D02*
X81680000Y-112870000D01*
X79720000Y-112870000D02*
X78169000Y-112870000D01*
X83225000Y-112910000D02*
X81680000Y-112910000D01*
X79720000Y-112910000D02*
X78175000Y-112910000D01*
X83219000Y-112950000D02*
X81680000Y-112950000D01*
X79720000Y-112950000D02*
X78181000Y-112950000D01*
X83213000Y-112990000D02*
X81680000Y-112990000D01*
X79720000Y-112990000D02*
X78187000Y-112990000D01*
X83206000Y-113030000D02*
X81680000Y-113030000D01*
X79720000Y-113030000D02*
X78194000Y-113030000D01*
X83198000Y-113070000D02*
X81680000Y-113070000D01*
X79720000Y-113070000D02*
X78202000Y-113070000D01*
X83189000Y-113110000D02*
X81680000Y-113110000D01*
X79720000Y-113110000D02*
X78211000Y-113110000D01*
X83180000Y-113150000D02*
X81680000Y-113150000D01*
X79720000Y-113150000D02*
X78220000Y-113150000D01*
X83170000Y-113190000D02*
X81680000Y-113190000D01*
X79720000Y-113190000D02*
X78230000Y-113190000D01*
X83160000Y-113230000D02*
X81680000Y-113230000D01*
X79720000Y-113230000D02*
X78240000Y-113230000D01*
X83148000Y-113271000D02*
X81680000Y-113271000D01*
X79720000Y-113271000D02*
X78252000Y-113271000D01*
X83136000Y-113311000D02*
X81680000Y-113311000D01*
X79720000Y-113311000D02*
X78264000Y-113311000D01*
X83124000Y-113351000D02*
X81680000Y-113351000D01*
X79720000Y-113351000D02*
X78276000Y-113351000D01*
X83110000Y-113391000D02*
X81680000Y-113391000D01*
X79720000Y-113391000D02*
X78290000Y-113391000D01*
X83096000Y-113431000D02*
X81680000Y-113431000D01*
X79720000Y-113431000D02*
X78304000Y-113431000D01*
X83082000Y-113471000D02*
X81680000Y-113471000D01*
X79720000Y-113471000D02*
X78318000Y-113471000D01*
X83066000Y-113511000D02*
X81680000Y-113511000D01*
X79720000Y-113511000D02*
X78334000Y-113511000D01*
X83050000Y-113551000D02*
X81680000Y-113551000D01*
X79720000Y-113551000D02*
X78350000Y-113551000D01*
X83033000Y-113591000D02*
X81680000Y-113591000D01*
X79720000Y-113591000D02*
X78367000Y-113591000D01*
X83015000Y-113631000D02*
X81680000Y-113631000D01*
X79720000Y-113631000D02*
X78385000Y-113631000D01*
X82996000Y-113671000D02*
X81680000Y-113671000D01*
X79720000Y-113671000D02*
X78404000Y-113671000D01*
X82976000Y-113711000D02*
X81680000Y-113711000D01*
X79720000Y-113711000D02*
X78424000Y-113711000D01*
X82956000Y-113751000D02*
X81680000Y-113751000D01*
X79720000Y-113751000D02*
X78444000Y-113751000D01*
X82934000Y-113791000D02*
X81680000Y-113791000D01*
X79720000Y-113791000D02*
X78466000Y-113791000D01*
X82912000Y-113831000D02*
X81680000Y-113831000D01*
X79720000Y-113831000D02*
X78488000Y-113831000D01*
X82889000Y-113871000D02*
X81680000Y-113871000D01*
X79720000Y-113871000D02*
X78511000Y-113871000D01*
X82865000Y-113911000D02*
X81680000Y-113911000D01*
X79720000Y-113911000D02*
X78535000Y-113911000D01*
X82840000Y-113951000D02*
X81680000Y-113951000D01*
X79720000Y-113951000D02*
X78560000Y-113951000D01*
X82813000Y-113991000D02*
X81680000Y-113991000D01*
X79720000Y-113991000D02*
X78587000Y-113991000D01*
X82786000Y-114031000D02*
X81680000Y-114031000D01*
X79720000Y-114031000D02*
X78614000Y-114031000D01*
X82758000Y-114071000D02*
X81680000Y-114071000D01*
X79720000Y-114071000D02*
X78642000Y-114071000D01*
X82728000Y-114111000D02*
X81680000Y-114111000D01*
X79720000Y-114111000D02*
X78672000Y-114111000D01*
X82697000Y-114151000D02*
X81680000Y-114151000D01*
X79720000Y-114151000D02*
X78703000Y-114151000D01*
X82665000Y-114191000D02*
X81680000Y-114191000D01*
X79720000Y-114191000D02*
X78735000Y-114191000D01*
X82632000Y-114231000D02*
X81680000Y-114231000D01*
X79720000Y-114231000D02*
X78768000Y-114231000D01*
X82597000Y-114271000D02*
X81680000Y-114271000D01*
X79720000Y-114271000D02*
X78803000Y-114271000D01*
X82561000Y-114311000D02*
X81680000Y-114311000D01*
X79720000Y-114311000D02*
X78839000Y-114311000D01*
X82523000Y-114351000D02*
X81680000Y-114351000D01*
X79720000Y-114351000D02*
X78877000Y-114351000D01*
X82483000Y-114391000D02*
X81680000Y-114391000D01*
X79720000Y-114391000D02*
X78917000Y-114391000D01*
X82442000Y-114431000D02*
X81680000Y-114431000D01*
X79720000Y-114431000D02*
X78958000Y-114431000D01*
X82399000Y-114471000D02*
X81680000Y-114471000D01*
X79720000Y-114471000D02*
X79001000Y-114471000D01*
X82354000Y-114511000D02*
X81680000Y-114511000D01*
X79720000Y-114511000D02*
X79046000Y-114511000D01*
X82306000Y-114551000D02*
X81680000Y-114551000D01*
X79720000Y-114551000D02*
X79094000Y-114551000D01*
X82256000Y-114591000D02*
X81680000Y-114591000D01*
X79720000Y-114591000D02*
X79144000Y-114591000D01*
X82204000Y-114631000D02*
X81680000Y-114631000D01*
X79720000Y-114631000D02*
X79196000Y-114631000D01*
X82148000Y-114671000D02*
X81680000Y-114671000D01*
X79720000Y-114671000D02*
X79252000Y-114671000D01*
X82090000Y-114711000D02*
X81680000Y-114711000D01*
X79720000Y-114711000D02*
X79310000Y-114711000D01*
X82027000Y-114751000D02*
X81680000Y-114751000D01*
X79720000Y-114751000D02*
X79373000Y-114751000D01*
X81961000Y-114791000D02*
X79439000Y-114791000D01*
X81889000Y-114831000D02*
X79511000Y-114831000D01*
X81812000Y-114871000D02*
X79588000Y-114871000D01*
X81728000Y-114911000D02*
X79672000Y-114911000D01*
X81634000Y-114951000D02*
X79766000Y-114951000D01*
X81529000Y-114991000D02*
X79871000Y-114991000D01*
X81407000Y-115031000D02*
X79993000Y-115031000D01*
X81259000Y-115071000D02*
X80141000Y-115071000D01*
X81054000Y-115111000D02*
X80346000Y-115111000D01*
X80700000Y-109100000D02*
X80700000Y-110300000D01*
X81350000Y-109700000D02*
X80050000Y-109700000D01*
X84110000Y-79640000D02*
X84110000Y-84760000D01*
X81490000Y-79640000D02*
X81490000Y-84760000D01*
X84110000Y-79640000D02*
X83796000Y-79640000D01*
X81804000Y-79640000D02*
X81490000Y-79640000D01*
X84110000Y-84760000D02*
X83796000Y-84760000D01*
X81804000Y-84760000D02*
X81490000Y-84760000D01*
X76979723Y-105655722D02*
G75*
G03X76980000Y-101044420I-1179723J2305722D01*
G01*
X74620277Y-105655722D02*
G75*
G02X74620000Y-101044420I1179723J2305722D01*
G01*
X74620277Y-105655722D02*
G75*
G03X76980000Y-105655580I1179723J2305722D01*
G01*
X78350000Y-103350000D02*
X73250000Y-103350000D01*
X78350000Y-103390000D02*
X73250000Y-103390000D01*
X78349000Y-103430000D02*
X73251000Y-103430000D01*
X78348000Y-103470000D02*
X73252000Y-103470000D01*
X78346000Y-103510000D02*
X73254000Y-103510000D01*
X78343000Y-103550000D02*
X73257000Y-103550000D01*
X78339000Y-103590000D02*
X73261000Y-103590000D01*
X78335000Y-103630000D02*
X76780000Y-103630000D01*
X74820000Y-103630000D02*
X73265000Y-103630000D01*
X78331000Y-103670000D02*
X76780000Y-103670000D01*
X74820000Y-103670000D02*
X73269000Y-103670000D01*
X78325000Y-103710000D02*
X76780000Y-103710000D01*
X74820000Y-103710000D02*
X73275000Y-103710000D01*
X78319000Y-103750000D02*
X76780000Y-103750000D01*
X74820000Y-103750000D02*
X73281000Y-103750000D01*
X78313000Y-103790000D02*
X76780000Y-103790000D01*
X74820000Y-103790000D02*
X73287000Y-103790000D01*
X78306000Y-103830000D02*
X76780000Y-103830000D01*
X74820000Y-103830000D02*
X73294000Y-103830000D01*
X78298000Y-103870000D02*
X76780000Y-103870000D01*
X74820000Y-103870000D02*
X73302000Y-103870000D01*
X78289000Y-103910000D02*
X76780000Y-103910000D01*
X74820000Y-103910000D02*
X73311000Y-103910000D01*
X78280000Y-103950000D02*
X76780000Y-103950000D01*
X74820000Y-103950000D02*
X73320000Y-103950000D01*
X78270000Y-103990000D02*
X76780000Y-103990000D01*
X74820000Y-103990000D02*
X73330000Y-103990000D01*
X78260000Y-104030000D02*
X76780000Y-104030000D01*
X74820000Y-104030000D02*
X73340000Y-104030000D01*
X78248000Y-104071000D02*
X76780000Y-104071000D01*
X74820000Y-104071000D02*
X73352000Y-104071000D01*
X78236000Y-104111000D02*
X76780000Y-104111000D01*
X74820000Y-104111000D02*
X73364000Y-104111000D01*
X78224000Y-104151000D02*
X76780000Y-104151000D01*
X74820000Y-104151000D02*
X73376000Y-104151000D01*
X78210000Y-104191000D02*
X76780000Y-104191000D01*
X74820000Y-104191000D02*
X73390000Y-104191000D01*
X78196000Y-104231000D02*
X76780000Y-104231000D01*
X74820000Y-104231000D02*
X73404000Y-104231000D01*
X78182000Y-104271000D02*
X76780000Y-104271000D01*
X74820000Y-104271000D02*
X73418000Y-104271000D01*
X78166000Y-104311000D02*
X76780000Y-104311000D01*
X74820000Y-104311000D02*
X73434000Y-104311000D01*
X78150000Y-104351000D02*
X76780000Y-104351000D01*
X74820000Y-104351000D02*
X73450000Y-104351000D01*
X78133000Y-104391000D02*
X76780000Y-104391000D01*
X74820000Y-104391000D02*
X73467000Y-104391000D01*
X78115000Y-104431000D02*
X76780000Y-104431000D01*
X74820000Y-104431000D02*
X73485000Y-104431000D01*
X78096000Y-104471000D02*
X76780000Y-104471000D01*
X74820000Y-104471000D02*
X73504000Y-104471000D01*
X78076000Y-104511000D02*
X76780000Y-104511000D01*
X74820000Y-104511000D02*
X73524000Y-104511000D01*
X78056000Y-104551000D02*
X76780000Y-104551000D01*
X74820000Y-104551000D02*
X73544000Y-104551000D01*
X78034000Y-104591000D02*
X76780000Y-104591000D01*
X74820000Y-104591000D02*
X73566000Y-104591000D01*
X78012000Y-104631000D02*
X76780000Y-104631000D01*
X74820000Y-104631000D02*
X73588000Y-104631000D01*
X77989000Y-104671000D02*
X76780000Y-104671000D01*
X74820000Y-104671000D02*
X73611000Y-104671000D01*
X77965000Y-104711000D02*
X76780000Y-104711000D01*
X74820000Y-104711000D02*
X73635000Y-104711000D01*
X77940000Y-104751000D02*
X76780000Y-104751000D01*
X74820000Y-104751000D02*
X73660000Y-104751000D01*
X77913000Y-104791000D02*
X76780000Y-104791000D01*
X74820000Y-104791000D02*
X73687000Y-104791000D01*
X77886000Y-104831000D02*
X76780000Y-104831000D01*
X74820000Y-104831000D02*
X73714000Y-104831000D01*
X77858000Y-104871000D02*
X76780000Y-104871000D01*
X74820000Y-104871000D02*
X73742000Y-104871000D01*
X77828000Y-104911000D02*
X76780000Y-104911000D01*
X74820000Y-104911000D02*
X73772000Y-104911000D01*
X77797000Y-104951000D02*
X76780000Y-104951000D01*
X74820000Y-104951000D02*
X73803000Y-104951000D01*
X77765000Y-104991000D02*
X76780000Y-104991000D01*
X74820000Y-104991000D02*
X73835000Y-104991000D01*
X77732000Y-105031000D02*
X76780000Y-105031000D01*
X74820000Y-105031000D02*
X73868000Y-105031000D01*
X77697000Y-105071000D02*
X76780000Y-105071000D01*
X74820000Y-105071000D02*
X73903000Y-105071000D01*
X77661000Y-105111000D02*
X76780000Y-105111000D01*
X74820000Y-105111000D02*
X73939000Y-105111000D01*
X77623000Y-105151000D02*
X76780000Y-105151000D01*
X74820000Y-105151000D02*
X73977000Y-105151000D01*
X77583000Y-105191000D02*
X76780000Y-105191000D01*
X74820000Y-105191000D02*
X74017000Y-105191000D01*
X77542000Y-105231000D02*
X76780000Y-105231000D01*
X74820000Y-105231000D02*
X74058000Y-105231000D01*
X77499000Y-105271000D02*
X76780000Y-105271000D01*
X74820000Y-105271000D02*
X74101000Y-105271000D01*
X77454000Y-105311000D02*
X76780000Y-105311000D01*
X74820000Y-105311000D02*
X74146000Y-105311000D01*
X77406000Y-105351000D02*
X76780000Y-105351000D01*
X74820000Y-105351000D02*
X74194000Y-105351000D01*
X77356000Y-105391000D02*
X76780000Y-105391000D01*
X74820000Y-105391000D02*
X74244000Y-105391000D01*
X77304000Y-105431000D02*
X76780000Y-105431000D01*
X74820000Y-105431000D02*
X74296000Y-105431000D01*
X77248000Y-105471000D02*
X76780000Y-105471000D01*
X74820000Y-105471000D02*
X74352000Y-105471000D01*
X77190000Y-105511000D02*
X76780000Y-105511000D01*
X74820000Y-105511000D02*
X74410000Y-105511000D01*
X77127000Y-105551000D02*
X76780000Y-105551000D01*
X74820000Y-105551000D02*
X74473000Y-105551000D01*
X77061000Y-105591000D02*
X74539000Y-105591000D01*
X76989000Y-105631000D02*
X74611000Y-105631000D01*
X76912000Y-105671000D02*
X74688000Y-105671000D01*
X76828000Y-105711000D02*
X74772000Y-105711000D01*
X76734000Y-105751000D02*
X74866000Y-105751000D01*
X76629000Y-105791000D02*
X74971000Y-105791000D01*
X76507000Y-105831000D02*
X75093000Y-105831000D01*
X76359000Y-105871000D02*
X75241000Y-105871000D01*
X76154000Y-105911000D02*
X75446000Y-105911000D01*
X75800000Y-99900000D02*
X75800000Y-101100000D01*
X76450000Y-100500000D02*
X75150000Y-100500000D01*
X75879723Y-114755722D02*
G75*
G03X75880000Y-110144420I-1179723J2305722D01*
G01*
X73520277Y-114755722D02*
G75*
G02X73520000Y-110144420I1179723J2305722D01*
G01*
X73520277Y-114755722D02*
G75*
G03X75880000Y-114755580I1179723J2305722D01*
G01*
X77250000Y-112450000D02*
X72150000Y-112450000D01*
X77250000Y-112490000D02*
X72150000Y-112490000D01*
X77249000Y-112530000D02*
X72151000Y-112530000D01*
X77248000Y-112570000D02*
X72152000Y-112570000D01*
X77246000Y-112610000D02*
X72154000Y-112610000D01*
X77243000Y-112650000D02*
X72157000Y-112650000D01*
X77239000Y-112690000D02*
X72161000Y-112690000D01*
X77235000Y-112730000D02*
X75680000Y-112730000D01*
X73720000Y-112730000D02*
X72165000Y-112730000D01*
X77231000Y-112770000D02*
X75680000Y-112770000D01*
X73720000Y-112770000D02*
X72169000Y-112770000D01*
X77225000Y-112810000D02*
X75680000Y-112810000D01*
X73720000Y-112810000D02*
X72175000Y-112810000D01*
X77219000Y-112850000D02*
X75680000Y-112850000D01*
X73720000Y-112850000D02*
X72181000Y-112850000D01*
X77213000Y-112890000D02*
X75680000Y-112890000D01*
X73720000Y-112890000D02*
X72187000Y-112890000D01*
X77206000Y-112930000D02*
X75680000Y-112930000D01*
X73720000Y-112930000D02*
X72194000Y-112930000D01*
X77198000Y-112970000D02*
X75680000Y-112970000D01*
X73720000Y-112970000D02*
X72202000Y-112970000D01*
X77189000Y-113010000D02*
X75680000Y-113010000D01*
X73720000Y-113010000D02*
X72211000Y-113010000D01*
X77180000Y-113050000D02*
X75680000Y-113050000D01*
X73720000Y-113050000D02*
X72220000Y-113050000D01*
X77170000Y-113090000D02*
X75680000Y-113090000D01*
X73720000Y-113090000D02*
X72230000Y-113090000D01*
X77160000Y-113130000D02*
X75680000Y-113130000D01*
X73720000Y-113130000D02*
X72240000Y-113130000D01*
X77148000Y-113171000D02*
X75680000Y-113171000D01*
X73720000Y-113171000D02*
X72252000Y-113171000D01*
X77136000Y-113211000D02*
X75680000Y-113211000D01*
X73720000Y-113211000D02*
X72264000Y-113211000D01*
X77124000Y-113251000D02*
X75680000Y-113251000D01*
X73720000Y-113251000D02*
X72276000Y-113251000D01*
X77110000Y-113291000D02*
X75680000Y-113291000D01*
X73720000Y-113291000D02*
X72290000Y-113291000D01*
X77096000Y-113331000D02*
X75680000Y-113331000D01*
X73720000Y-113331000D02*
X72304000Y-113331000D01*
X77082000Y-113371000D02*
X75680000Y-113371000D01*
X73720000Y-113371000D02*
X72318000Y-113371000D01*
X77066000Y-113411000D02*
X75680000Y-113411000D01*
X73720000Y-113411000D02*
X72334000Y-113411000D01*
X77050000Y-113451000D02*
X75680000Y-113451000D01*
X73720000Y-113451000D02*
X72350000Y-113451000D01*
X77033000Y-113491000D02*
X75680000Y-113491000D01*
X73720000Y-113491000D02*
X72367000Y-113491000D01*
X77015000Y-113531000D02*
X75680000Y-113531000D01*
X73720000Y-113531000D02*
X72385000Y-113531000D01*
X76996000Y-113571000D02*
X75680000Y-113571000D01*
X73720000Y-113571000D02*
X72404000Y-113571000D01*
X76976000Y-113611000D02*
X75680000Y-113611000D01*
X73720000Y-113611000D02*
X72424000Y-113611000D01*
X76956000Y-113651000D02*
X75680000Y-113651000D01*
X73720000Y-113651000D02*
X72444000Y-113651000D01*
X76934000Y-113691000D02*
X75680000Y-113691000D01*
X73720000Y-113691000D02*
X72466000Y-113691000D01*
X76912000Y-113731000D02*
X75680000Y-113731000D01*
X73720000Y-113731000D02*
X72488000Y-113731000D01*
X76889000Y-113771000D02*
X75680000Y-113771000D01*
X73720000Y-113771000D02*
X72511000Y-113771000D01*
X76865000Y-113811000D02*
X75680000Y-113811000D01*
X73720000Y-113811000D02*
X72535000Y-113811000D01*
X76840000Y-113851000D02*
X75680000Y-113851000D01*
X73720000Y-113851000D02*
X72560000Y-113851000D01*
X76813000Y-113891000D02*
X75680000Y-113891000D01*
X73720000Y-113891000D02*
X72587000Y-113891000D01*
X76786000Y-113931000D02*
X75680000Y-113931000D01*
X73720000Y-113931000D02*
X72614000Y-113931000D01*
X76758000Y-113971000D02*
X75680000Y-113971000D01*
X73720000Y-113971000D02*
X72642000Y-113971000D01*
X76728000Y-114011000D02*
X75680000Y-114011000D01*
X73720000Y-114011000D02*
X72672000Y-114011000D01*
X76697000Y-114051000D02*
X75680000Y-114051000D01*
X73720000Y-114051000D02*
X72703000Y-114051000D01*
X76665000Y-114091000D02*
X75680000Y-114091000D01*
X73720000Y-114091000D02*
X72735000Y-114091000D01*
X76632000Y-114131000D02*
X75680000Y-114131000D01*
X73720000Y-114131000D02*
X72768000Y-114131000D01*
X76597000Y-114171000D02*
X75680000Y-114171000D01*
X73720000Y-114171000D02*
X72803000Y-114171000D01*
X76561000Y-114211000D02*
X75680000Y-114211000D01*
X73720000Y-114211000D02*
X72839000Y-114211000D01*
X76523000Y-114251000D02*
X75680000Y-114251000D01*
X73720000Y-114251000D02*
X72877000Y-114251000D01*
X76483000Y-114291000D02*
X75680000Y-114291000D01*
X73720000Y-114291000D02*
X72917000Y-114291000D01*
X76442000Y-114331000D02*
X75680000Y-114331000D01*
X73720000Y-114331000D02*
X72958000Y-114331000D01*
X76399000Y-114371000D02*
X75680000Y-114371000D01*
X73720000Y-114371000D02*
X73001000Y-114371000D01*
X76354000Y-114411000D02*
X75680000Y-114411000D01*
X73720000Y-114411000D02*
X73046000Y-114411000D01*
X76306000Y-114451000D02*
X75680000Y-114451000D01*
X73720000Y-114451000D02*
X73094000Y-114451000D01*
X76256000Y-114491000D02*
X75680000Y-114491000D01*
X73720000Y-114491000D02*
X73144000Y-114491000D01*
X76204000Y-114531000D02*
X75680000Y-114531000D01*
X73720000Y-114531000D02*
X73196000Y-114531000D01*
X76148000Y-114571000D02*
X75680000Y-114571000D01*
X73720000Y-114571000D02*
X73252000Y-114571000D01*
X76090000Y-114611000D02*
X75680000Y-114611000D01*
X73720000Y-114611000D02*
X73310000Y-114611000D01*
X76027000Y-114651000D02*
X75680000Y-114651000D01*
X73720000Y-114651000D02*
X73373000Y-114651000D01*
X75961000Y-114691000D02*
X73439000Y-114691000D01*
X75889000Y-114731000D02*
X73511000Y-114731000D01*
X75812000Y-114771000D02*
X73588000Y-114771000D01*
X75728000Y-114811000D02*
X73672000Y-114811000D01*
X75634000Y-114851000D02*
X73766000Y-114851000D01*
X75529000Y-114891000D02*
X73871000Y-114891000D01*
X75407000Y-114931000D02*
X73993000Y-114931000D01*
X75259000Y-114971000D02*
X74141000Y-114971000D01*
X75054000Y-115011000D02*
X74346000Y-115011000D01*
X74700000Y-109000000D02*
X74700000Y-110200000D01*
X75350000Y-109600000D02*
X74050000Y-109600000D01*
X74740000Y-38500000D02*
G75*
G03X74740000Y-38500000I-7090000J0D01*
G01*
X67650000Y-45550000D02*
X67650000Y-31450000D01*
X67610000Y-45550000D02*
X67610000Y-31450000D01*
X67570000Y-45550000D02*
X67570000Y-31450000D01*
X67530000Y-45549000D02*
X67530000Y-31451000D01*
X67490000Y-45549000D02*
X67490000Y-31451000D01*
X67450000Y-45548000D02*
X67450000Y-31452000D01*
X67410000Y-45546000D02*
X67410000Y-31454000D01*
X67370000Y-45545000D02*
X67370000Y-31455000D01*
X67330000Y-45543000D02*
X67330000Y-31457000D01*
X67290000Y-45541000D02*
X67290000Y-31459000D01*
X67250000Y-45539000D02*
X67250000Y-31461000D01*
X67210000Y-45537000D02*
X67210000Y-31463000D01*
X67170000Y-45534000D02*
X67170000Y-31466000D01*
X67130000Y-45531000D02*
X67130000Y-31469000D01*
X67090000Y-45528000D02*
X67090000Y-31472000D01*
X67050000Y-45525000D02*
X67050000Y-31475000D01*
X67010000Y-45522000D02*
X67010000Y-31478000D01*
X66970000Y-45518000D02*
X66970000Y-31482000D01*
X66929000Y-45514000D02*
X66929000Y-31486000D01*
X66889000Y-45510000D02*
X66889000Y-31490000D01*
X66849000Y-45505000D02*
X66849000Y-31495000D01*
X66809000Y-45501000D02*
X66809000Y-31499000D01*
X66769000Y-45496000D02*
X66769000Y-31504000D01*
X66729000Y-45491000D02*
X66729000Y-31509000D01*
X66689000Y-45485000D02*
X66689000Y-31515000D01*
X66649000Y-45480000D02*
X66649000Y-31520000D01*
X66609000Y-45474000D02*
X66609000Y-31526000D01*
X66569000Y-45468000D02*
X66569000Y-31532000D01*
X66529000Y-45461000D02*
X66529000Y-31539000D01*
X66489000Y-45455000D02*
X66489000Y-31545000D01*
X66449000Y-45448000D02*
X66449000Y-31552000D01*
X66409000Y-45441000D02*
X66409000Y-31559000D01*
X66369000Y-45434000D02*
X66369000Y-31566000D01*
X66329000Y-45427000D02*
X66329000Y-31573000D01*
X66289000Y-45419000D02*
X66289000Y-31581000D01*
X66249000Y-45411000D02*
X66249000Y-31589000D01*
X66209000Y-45403000D02*
X66209000Y-31597000D01*
X66169000Y-45394000D02*
X66169000Y-31606000D01*
X66129000Y-45386000D02*
X66129000Y-31614000D01*
X66089000Y-45377000D02*
X66089000Y-31623000D01*
X66049000Y-45368000D02*
X66049000Y-31632000D01*
X66009000Y-45358000D02*
X66009000Y-31642000D01*
X65969000Y-45349000D02*
X65969000Y-31651000D01*
X65929000Y-45339000D02*
X65929000Y-31661000D01*
X65889000Y-45329000D02*
X65889000Y-31671000D01*
X65849000Y-45318000D02*
X65849000Y-31682000D01*
X65809000Y-45308000D02*
X65809000Y-31692000D01*
X65769000Y-45297000D02*
X65769000Y-31703000D01*
X65729000Y-45286000D02*
X65729000Y-31714000D01*
X65689000Y-45274000D02*
X65689000Y-31726000D01*
X65649000Y-45263000D02*
X65649000Y-31737000D01*
X65609000Y-45251000D02*
X65609000Y-31749000D01*
X65569000Y-45239000D02*
X65569000Y-31761000D01*
X65529000Y-45226000D02*
X65529000Y-31774000D01*
X65489000Y-45213000D02*
X65489000Y-31787000D01*
X65449000Y-45201000D02*
X65449000Y-31799000D01*
X65409000Y-45187000D02*
X65409000Y-31813000D01*
X65369000Y-45174000D02*
X65369000Y-31826000D01*
X65329000Y-45160000D02*
X65329000Y-31840000D01*
X65289000Y-45146000D02*
X65289000Y-31854000D01*
X65249000Y-45132000D02*
X65249000Y-39880000D01*
X65249000Y-37120000D02*
X65249000Y-31868000D01*
X65209000Y-45117000D02*
X65209000Y-39880000D01*
X65209000Y-37120000D02*
X65209000Y-31883000D01*
X65169000Y-45103000D02*
X65169000Y-39880000D01*
X65169000Y-37120000D02*
X65169000Y-31897000D01*
X65129000Y-45088000D02*
X65129000Y-39880000D01*
X65129000Y-37120000D02*
X65129000Y-31912000D01*
X65089000Y-45072000D02*
X65089000Y-39880000D01*
X65089000Y-37120000D02*
X65089000Y-31928000D01*
X65049000Y-45057000D02*
X65049000Y-39880000D01*
X65049000Y-37120000D02*
X65049000Y-31943000D01*
X65009000Y-45041000D02*
X65009000Y-39880000D01*
X65009000Y-37120000D02*
X65009000Y-31959000D01*
X64969000Y-45024000D02*
X64969000Y-39880000D01*
X64969000Y-37120000D02*
X64969000Y-31976000D01*
X64929000Y-45008000D02*
X64929000Y-39880000D01*
X64929000Y-37120000D02*
X64929000Y-31992000D01*
X64889000Y-44991000D02*
X64889000Y-39880000D01*
X64889000Y-37120000D02*
X64889000Y-32009000D01*
X64849000Y-44974000D02*
X64849000Y-39880000D01*
X64849000Y-37120000D02*
X64849000Y-32026000D01*
X64809000Y-44957000D02*
X64809000Y-39880000D01*
X64809000Y-37120000D02*
X64809000Y-32043000D01*
X64769000Y-44939000D02*
X64769000Y-39880000D01*
X64769000Y-37120000D02*
X64769000Y-32061000D01*
X64729000Y-44921000D02*
X64729000Y-39880000D01*
X64729000Y-37120000D02*
X64729000Y-32079000D01*
X64689000Y-44903000D02*
X64689000Y-39880000D01*
X64689000Y-37120000D02*
X64689000Y-32097000D01*
X64649000Y-44885000D02*
X64649000Y-39880000D01*
X64649000Y-37120000D02*
X64649000Y-32115000D01*
X64609000Y-44866000D02*
X64609000Y-39880000D01*
X64609000Y-37120000D02*
X64609000Y-32134000D01*
X64569000Y-44847000D02*
X64569000Y-39880000D01*
X64569000Y-37120000D02*
X64569000Y-32153000D01*
X64529000Y-44827000D02*
X64529000Y-39880000D01*
X64529000Y-37120000D02*
X64529000Y-32173000D01*
X64489000Y-44807000D02*
X64489000Y-39880000D01*
X64489000Y-37120000D02*
X64489000Y-32193000D01*
X64449000Y-44787000D02*
X64449000Y-39880000D01*
X64449000Y-37120000D02*
X64449000Y-32213000D01*
X64409000Y-44767000D02*
X64409000Y-39880000D01*
X64409000Y-37120000D02*
X64409000Y-32233000D01*
X64369000Y-44746000D02*
X64369000Y-39880000D01*
X64369000Y-37120000D02*
X64369000Y-32254000D01*
X64329000Y-44725000D02*
X64329000Y-39880000D01*
X64329000Y-37120000D02*
X64329000Y-32275000D01*
X64289000Y-44704000D02*
X64289000Y-39880000D01*
X64289000Y-37120000D02*
X64289000Y-32296000D01*
X64249000Y-44682000D02*
X64249000Y-39880000D01*
X64249000Y-37120000D02*
X64249000Y-32318000D01*
X64209000Y-44660000D02*
X64209000Y-39880000D01*
X64209000Y-37120000D02*
X64209000Y-32340000D01*
X64169000Y-44638000D02*
X64169000Y-39880000D01*
X64169000Y-37120000D02*
X64169000Y-32362000D01*
X64129000Y-44615000D02*
X64129000Y-39880000D01*
X64129000Y-37120000D02*
X64129000Y-32385000D01*
X64089000Y-44592000D02*
X64089000Y-39880000D01*
X64089000Y-37120000D02*
X64089000Y-32408000D01*
X64049000Y-44569000D02*
X64049000Y-39880000D01*
X64049000Y-37120000D02*
X64049000Y-32431000D01*
X64009000Y-44545000D02*
X64009000Y-39880000D01*
X64009000Y-37120000D02*
X64009000Y-32455000D01*
X63969000Y-44521000D02*
X63969000Y-39880000D01*
X63969000Y-37120000D02*
X63969000Y-32479000D01*
X63929000Y-44496000D02*
X63929000Y-39880000D01*
X63929000Y-37120000D02*
X63929000Y-32504000D01*
X63889000Y-44471000D02*
X63889000Y-39880000D01*
X63889000Y-37120000D02*
X63889000Y-32529000D01*
X63849000Y-44446000D02*
X63849000Y-39880000D01*
X63849000Y-37120000D02*
X63849000Y-32554000D01*
X63809000Y-44421000D02*
X63809000Y-39880000D01*
X63809000Y-37120000D02*
X63809000Y-32579000D01*
X63769000Y-44395000D02*
X63769000Y-39880000D01*
X63769000Y-37120000D02*
X63769000Y-32605000D01*
X63729000Y-44368000D02*
X63729000Y-39880000D01*
X63729000Y-37120000D02*
X63729000Y-32632000D01*
X63689000Y-44342000D02*
X63689000Y-39880000D01*
X63689000Y-37120000D02*
X63689000Y-32658000D01*
X63649000Y-44314000D02*
X63649000Y-39880000D01*
X63649000Y-37120000D02*
X63649000Y-32686000D01*
X63609000Y-44287000D02*
X63609000Y-39880000D01*
X63609000Y-37120000D02*
X63609000Y-32713000D01*
X63569000Y-44259000D02*
X63569000Y-39880000D01*
X63569000Y-37120000D02*
X63569000Y-32741000D01*
X63529000Y-44231000D02*
X63529000Y-39880000D01*
X63529000Y-37120000D02*
X63529000Y-32769000D01*
X63489000Y-44202000D02*
X63489000Y-39880000D01*
X63489000Y-37120000D02*
X63489000Y-32798000D01*
X63449000Y-44173000D02*
X63449000Y-39880000D01*
X63449000Y-37120000D02*
X63449000Y-32827000D01*
X63409000Y-44143000D02*
X63409000Y-39880000D01*
X63409000Y-37120000D02*
X63409000Y-32857000D01*
X63369000Y-44113000D02*
X63369000Y-39880000D01*
X63369000Y-37120000D02*
X63369000Y-32887000D01*
X63329000Y-44082000D02*
X63329000Y-39880000D01*
X63329000Y-37120000D02*
X63329000Y-32918000D01*
X63289000Y-44051000D02*
X63289000Y-39880000D01*
X63289000Y-37120000D02*
X63289000Y-32949000D01*
X63249000Y-44020000D02*
X63249000Y-39880000D01*
X63249000Y-37120000D02*
X63249000Y-32980000D01*
X63209000Y-43988000D02*
X63209000Y-39880000D01*
X63209000Y-37120000D02*
X63209000Y-33012000D01*
X63169000Y-43956000D02*
X63169000Y-39880000D01*
X63169000Y-37120000D02*
X63169000Y-33044000D01*
X63129000Y-43923000D02*
X63129000Y-39880000D01*
X63129000Y-37120000D02*
X63129000Y-33077000D01*
X63089000Y-43890000D02*
X63089000Y-39880000D01*
X63089000Y-37120000D02*
X63089000Y-33110000D01*
X63049000Y-43856000D02*
X63049000Y-39880000D01*
X63049000Y-37120000D02*
X63049000Y-33144000D01*
X63009000Y-43821000D02*
X63009000Y-39880000D01*
X63009000Y-37120000D02*
X63009000Y-33179000D01*
X62969000Y-43786000D02*
X62969000Y-39880000D01*
X62969000Y-37120000D02*
X62969000Y-33214000D01*
X62929000Y-43751000D02*
X62929000Y-39880000D01*
X62929000Y-37120000D02*
X62929000Y-33249000D01*
X62889000Y-43715000D02*
X62889000Y-39880000D01*
X62889000Y-37120000D02*
X62889000Y-33285000D01*
X62849000Y-43679000D02*
X62849000Y-39880000D01*
X62849000Y-37120000D02*
X62849000Y-33321000D01*
X62809000Y-43641000D02*
X62809000Y-39880000D01*
X62809000Y-37120000D02*
X62809000Y-33359000D01*
X62769000Y-43604000D02*
X62769000Y-39880000D01*
X62769000Y-37120000D02*
X62769000Y-33396000D01*
X62729000Y-43566000D02*
X62729000Y-39880000D01*
X62729000Y-37120000D02*
X62729000Y-33434000D01*
X62689000Y-43527000D02*
X62689000Y-39880000D01*
X62689000Y-37120000D02*
X62689000Y-33473000D01*
X62649000Y-43487000D02*
X62649000Y-39880000D01*
X62649000Y-37120000D02*
X62649000Y-33513000D01*
X62609000Y-43447000D02*
X62609000Y-39880000D01*
X62609000Y-37120000D02*
X62609000Y-33553000D01*
X62569000Y-43406000D02*
X62569000Y-39880000D01*
X62569000Y-37120000D02*
X62569000Y-33594000D01*
X62529000Y-43365000D02*
X62529000Y-39880000D01*
X62529000Y-37120000D02*
X62529000Y-33635000D01*
X62489000Y-43323000D02*
X62489000Y-33677000D01*
X62449000Y-43280000D02*
X62449000Y-33720000D01*
X62409000Y-43237000D02*
X62409000Y-33763000D01*
X62369000Y-43192000D02*
X62369000Y-33808000D01*
X62329000Y-43147000D02*
X62329000Y-33853000D01*
X62289000Y-43101000D02*
X62289000Y-33899000D01*
X62249000Y-43055000D02*
X62249000Y-33945000D01*
X62209000Y-43007000D02*
X62209000Y-33993000D01*
X62169000Y-42959000D02*
X62169000Y-34041000D01*
X62129000Y-42910000D02*
X62129000Y-34090000D01*
X62089000Y-42860000D02*
X62089000Y-34140000D01*
X62049000Y-42809000D02*
X62049000Y-34191000D01*
X62009000Y-42757000D02*
X62009000Y-34243000D01*
X61969000Y-42704000D02*
X61969000Y-34296000D01*
X61929000Y-42650000D02*
X61929000Y-34350000D01*
X61889000Y-42595000D02*
X61889000Y-34405000D01*
X61849000Y-42538000D02*
X61849000Y-34462000D01*
X61809000Y-42481000D02*
X61809000Y-34519000D01*
X61769000Y-42422000D02*
X61769000Y-34578000D01*
X61729000Y-42362000D02*
X61729000Y-34638000D01*
X61689000Y-42301000D02*
X61689000Y-34699000D01*
X61649000Y-42238000D02*
X61649000Y-34762000D01*
X61609000Y-42174000D02*
X61609000Y-34826000D01*
X61569000Y-42108000D02*
X61569000Y-34892000D01*
X61529000Y-42040000D02*
X61529000Y-34960000D01*
X61489000Y-41971000D02*
X61489000Y-35029000D01*
X61449000Y-41900000D02*
X61449000Y-35100000D01*
X61409000Y-41827000D02*
X61409000Y-35173000D01*
X61369000Y-41751000D02*
X61369000Y-35249000D01*
X61329000Y-41674000D02*
X61329000Y-35326000D01*
X61289000Y-41594000D02*
X61289000Y-35406000D01*
X61249000Y-41511000D02*
X61249000Y-35489000D01*
X61209000Y-41426000D02*
X61209000Y-35574000D01*
X61169000Y-41338000D02*
X61169000Y-35662000D01*
X61129000Y-41246000D02*
X61129000Y-35754000D01*
X61089000Y-41150000D02*
X61089000Y-35850000D01*
X61049000Y-41050000D02*
X61049000Y-35950000D01*
X61009000Y-40946000D02*
X61009000Y-36054000D01*
X60969000Y-40837000D02*
X60969000Y-36163000D01*
X60929000Y-40721000D02*
X60929000Y-36279000D01*
X60889000Y-40598000D02*
X60889000Y-36402000D01*
X60849000Y-40468000D02*
X60849000Y-36532000D01*
X60809000Y-40327000D02*
X60809000Y-36673000D01*
X60769000Y-40173000D02*
X60769000Y-36827000D01*
X60729000Y-40004000D02*
X60729000Y-36996000D01*
X60689000Y-39812000D02*
X60689000Y-37188000D01*
X60649000Y-39587000D02*
X60649000Y-37413000D01*
X60609000Y-39301000D02*
X60609000Y-37699000D01*
X60569000Y-38837000D02*
X60569000Y-38163000D01*
X74600000Y-38500000D02*
X72800000Y-38500000D01*
X73700000Y-39400000D02*
X73700000Y-37600000D01*
X77290000Y-96360000D02*
X77290000Y-91240000D01*
X79910000Y-96360000D02*
X79910000Y-91240000D01*
X77290000Y-96360000D02*
X77604000Y-96360000D01*
X79596000Y-96360000D02*
X79910000Y-96360000D01*
X77290000Y-91240000D02*
X77604000Y-91240000D01*
X79596000Y-91240000D02*
X79910000Y-91240000D01*
X118950000Y-96060000D02*
X118950000Y-93940000D01*
X118950000Y-93940000D02*
X114830000Y-93940000D01*
X114830000Y-93940000D02*
X114830000Y-96060000D01*
X114830000Y-96060000D02*
X118950000Y-96060000D01*
X119720000Y-95000000D02*
X118950000Y-95000000D01*
X114060000Y-95000000D02*
X114830000Y-95000000D01*
X118290000Y-96060000D02*
X118290000Y-93940000D01*
X66665000Y-52125000D02*
X61335000Y-52125000D01*
X61335000Y-52125000D02*
X61335000Y-61775000D01*
X61335000Y-61775000D02*
X66665000Y-61775000D01*
X66665000Y-61775000D02*
X66665000Y-52125000D01*
X64000000Y-52080000D02*
X64000000Y-52125000D01*
X64000000Y-61820000D02*
X64000000Y-61775000D01*
X66665000Y-53614500D02*
X61335000Y-53614500D01*
X116340000Y-87550000D02*
X118460000Y-87550000D01*
X118460000Y-87550000D02*
X118460000Y-83430000D01*
X118460000Y-83430000D02*
X116340000Y-83430000D01*
X116340000Y-83430000D02*
X116340000Y-87550000D01*
X117400000Y-88320000D02*
X117400000Y-87550000D01*
X117400000Y-82660000D02*
X117400000Y-83430000D01*
X116340000Y-86890000D02*
X118460000Y-86890000D01*
X60250000Y-68420000D02*
X60250000Y-68290000D01*
X60250000Y-68290000D02*
X65570000Y-68290000D01*
X65570000Y-68290000D02*
X65570000Y-68420000D01*
X60250000Y-70980000D02*
X60250000Y-71110000D01*
X60250000Y-71110000D02*
X65570000Y-71110000D01*
X65570000Y-71110000D02*
X65570000Y-70980000D01*
X61090000Y-68290000D02*
X61090000Y-71110000D01*
D13*
X68800000Y-111500000D02*
X68800000Y-116500000D01*
X68800000Y-116500000D02*
X54800000Y-116500000D01*
X54800000Y-116500000D02*
X54800000Y-110500000D01*
X54800000Y-110500000D02*
X68800000Y-110500000D01*
X68800000Y-110500000D02*
X68800000Y-111500000D01*
D14*
X48480000Y-88280000D02*
X48480000Y-78040000D01*
X53121000Y-88280000D02*
X53121000Y-78040000D01*
X48480000Y-88280000D02*
X53121000Y-88280000D01*
X48480000Y-78040000D02*
X53121000Y-78040000D01*
X49990000Y-88280000D02*
X49990000Y-78040000D01*
X48480000Y-85010000D02*
X49990000Y-85010000D01*
X48480000Y-81309000D02*
X49990000Y-81309000D01*
X48480000Y-71380000D02*
X48480000Y-61140000D01*
X53121000Y-71380000D02*
X53121000Y-61140000D01*
X48480000Y-71380000D02*
X53121000Y-71380000D01*
X48480000Y-61140000D02*
X53121000Y-61140000D01*
X49990000Y-71380000D02*
X49990000Y-61140000D01*
X48480000Y-68110000D02*
X49990000Y-68110000D01*
X48480000Y-64409000D02*
X49990000Y-64409000D01*
X56490000Y-84240000D02*
X56490000Y-87560000D01*
X56490000Y-87560000D02*
X65610000Y-87560000D01*
X65610000Y-87560000D02*
X65610000Y-84240000D01*
X65610000Y-84240000D02*
X56490000Y-84240000D01*
X55680000Y-85900000D02*
X56490000Y-85900000D01*
X66420000Y-85900000D02*
X65610000Y-85900000D01*
X55290000Y-59550000D02*
X59910000Y-59550000D01*
X59910000Y-59550000D02*
X59910000Y-47530000D01*
X59910000Y-47530000D02*
X55290000Y-47530000D01*
X55290000Y-47530000D02*
X55290000Y-59550000D01*
X57600000Y-62320000D02*
X57600000Y-59550000D01*
X57600000Y-44760000D02*
X57600000Y-47530000D01*
X53940000Y-77610000D02*
X57260000Y-77610000D01*
X57260000Y-77610000D02*
X57260000Y-68490000D01*
X57260000Y-68490000D02*
X53940000Y-68490000D01*
X53940000Y-68490000D02*
X53940000Y-77610000D01*
X55600000Y-78420000D02*
X55600000Y-77610000D01*
X55600000Y-67680000D02*
X55600000Y-68490000D01*
X104430000Y-92710000D02*
G75*
G02X104430000Y-90710000I0J1000000D01*
G01*
X104430000Y-90710000D02*
X104430000Y-89060000D01*
X104430000Y-89060000D02*
X94150000Y-89060000D01*
X94150000Y-89060000D02*
X94150000Y-94360000D01*
X94150000Y-94360000D02*
X104430000Y-94360000D01*
X104430000Y-94360000D02*
X104430000Y-92710000D01*
X104490000Y-86570000D02*
X94090000Y-86570000D01*
X94090000Y-86570000D02*
X94090000Y-96850000D01*
X94090000Y-96850000D02*
X104490000Y-96850000D01*
X104490000Y-96850000D02*
X104490000Y-86570000D01*
X74590000Y-88830000D02*
G75*
G02X76590000Y-88830000I1000000J0D01*
G01*
X76590000Y-88830000D02*
X78240000Y-88830000D01*
X78240000Y-88830000D02*
X78240000Y-68390000D01*
X78240000Y-68390000D02*
X72940000Y-68390000D01*
X72940000Y-68390000D02*
X72940000Y-88830000D01*
X72940000Y-88830000D02*
X74590000Y-88830000D01*
X80730000Y-88890000D02*
X80730000Y-68330000D01*
X80730000Y-68330000D02*
X70450000Y-68330000D01*
X70450000Y-68330000D02*
X70450000Y-88890000D01*
X70450000Y-88890000D02*
X80730000Y-88890000D01*
X107780000Y-85800000D02*
X108110000Y-85800000D01*
X108110000Y-85800000D02*
X108110000Y-92220000D01*
X108110000Y-92220000D02*
X107780000Y-92220000D01*
X105820000Y-85800000D02*
X105490000Y-85800000D01*
X105490000Y-85800000D02*
X105490000Y-92220000D01*
X105490000Y-92220000D02*
X105820000Y-92220000D01*
X83000000Y-107220000D02*
X83000000Y-106890000D01*
X83000000Y-106890000D02*
X89420000Y-106890000D01*
X89420000Y-106890000D02*
X89420000Y-107220000D01*
X83000000Y-109180000D02*
X83000000Y-109510000D01*
X83000000Y-109510000D02*
X89420000Y-109510000D01*
X89420000Y-109510000D02*
X89420000Y-109180000D01*
X91400000Y-99480000D02*
X91400000Y-99810000D01*
X91400000Y-99810000D02*
X84980000Y-99810000D01*
X84980000Y-99810000D02*
X84980000Y-99480000D01*
X91400000Y-97520000D02*
X91400000Y-97190000D01*
X91400000Y-97190000D02*
X84980000Y-97190000D01*
X84980000Y-97190000D02*
X84980000Y-97520000D01*
X83580000Y-70200000D02*
X83910000Y-70200000D01*
X83910000Y-70200000D02*
X83910000Y-76620000D01*
X83910000Y-76620000D02*
X83580000Y-76620000D01*
X81620000Y-70200000D02*
X81290000Y-70200000D01*
X81290000Y-70200000D02*
X81290000Y-76620000D01*
X81290000Y-76620000D02*
X81620000Y-76620000D01*
X80700000Y-99680000D02*
X80700000Y-100010000D01*
X80700000Y-100010000D02*
X74280000Y-100010000D01*
X74280000Y-100010000D02*
X74280000Y-99680000D01*
X80700000Y-97720000D02*
X80700000Y-97390000D01*
X80700000Y-97390000D02*
X74280000Y-97390000D01*
X74280000Y-97390000D02*
X74280000Y-97720000D01*
X87400000Y-105680000D02*
X87400000Y-106010000D01*
X87400000Y-106010000D02*
X80980000Y-106010000D01*
X80980000Y-106010000D02*
X80980000Y-105680000D01*
X87400000Y-103720000D02*
X87400000Y-103390000D01*
X87400000Y-103390000D02*
X80980000Y-103390000D01*
X80980000Y-103390000D02*
X80980000Y-103720000D01*
X85020000Y-76700000D02*
X84690000Y-76700000D01*
X84690000Y-76700000D02*
X84690000Y-70280000D01*
X84690000Y-70280000D02*
X85020000Y-70280000D01*
X86980000Y-76700000D02*
X87310000Y-76700000D01*
X87310000Y-76700000D02*
X87310000Y-70280000D01*
X87310000Y-70280000D02*
X86980000Y-70280000D01*
X87400000Y-102980000D02*
X87400000Y-103310000D01*
X87400000Y-103310000D02*
X80980000Y-103310000D01*
X80980000Y-103310000D02*
X80980000Y-102980000D01*
X87400000Y-101020000D02*
X87400000Y-100690000D01*
X87400000Y-100690000D02*
X80980000Y-100690000D01*
X80980000Y-100690000D02*
X80980000Y-101020000D01*
X75100000Y-93580000D02*
X75100000Y-93910000D01*
X75100000Y-93910000D02*
X68680000Y-93910000D01*
X68680000Y-93910000D02*
X68680000Y-93580000D01*
X75100000Y-91620000D02*
X75100000Y-91290000D01*
X75100000Y-91290000D02*
X68680000Y-91290000D01*
X68680000Y-91290000D02*
X68680000Y-91620000D01*
X79500000Y-108780000D02*
X79500000Y-109110000D01*
X79500000Y-109110000D02*
X73080000Y-109110000D01*
X73080000Y-109110000D02*
X73080000Y-108780000D01*
X79500000Y-106820000D02*
X79500000Y-106490000D01*
X79500000Y-106490000D02*
X73080000Y-106490000D01*
X73080000Y-106490000D02*
X73080000Y-106820000D01*
X111080000Y-85800000D02*
X111410000Y-85800000D01*
X111410000Y-85800000D02*
X111410000Y-92220000D01*
X111410000Y-92220000D02*
X111080000Y-92220000D01*
X109120000Y-85800000D02*
X108790000Y-85800000D01*
X108790000Y-85800000D02*
X108790000Y-92220000D01*
X108790000Y-92220000D02*
X109120000Y-92220000D01*
X76500000Y-65620000D02*
X76500000Y-65290000D01*
X76500000Y-65290000D02*
X82920000Y-65290000D01*
X82920000Y-65290000D02*
X82920000Y-65620000D01*
X76500000Y-67580000D02*
X76500000Y-67910000D01*
X76500000Y-67910000D02*
X82920000Y-67910000D01*
X82920000Y-67910000D02*
X82920000Y-67580000D01*
X66600000Y-65620000D02*
X66600000Y-65290000D01*
X66600000Y-65290000D02*
X73020000Y-65290000D01*
X73020000Y-65290000D02*
X73020000Y-65620000D01*
X66600000Y-67580000D02*
X66600000Y-67910000D01*
X66600000Y-67910000D02*
X73020000Y-67910000D01*
X73020000Y-67910000D02*
X73020000Y-67580000D01*
X101300000Y-76180000D02*
X101300000Y-76510000D01*
X101300000Y-76510000D02*
X94880000Y-76510000D01*
X94880000Y-76510000D02*
X94880000Y-76180000D01*
X101300000Y-74220000D02*
X101300000Y-73890000D01*
X101300000Y-73890000D02*
X94880000Y-73890000D01*
X94880000Y-73890000D02*
X94880000Y-74220000D01*
X130300000Y-69780000D02*
X130300000Y-70110000D01*
X130300000Y-70110000D02*
X123880000Y-70110000D01*
X123880000Y-70110000D02*
X123880000Y-69780000D01*
X130300000Y-67820000D02*
X130300000Y-67490000D01*
X130300000Y-67490000D02*
X123880000Y-67490000D01*
X123880000Y-67490000D02*
X123880000Y-67820000D01*
X124500000Y-99120000D02*
X124500000Y-98790000D01*
X124500000Y-98790000D02*
X130920000Y-98790000D01*
X130920000Y-98790000D02*
X130920000Y-99120000D01*
X124500000Y-101080000D02*
X124500000Y-101410000D01*
X124500000Y-101410000D02*
X130920000Y-101410000D01*
X130920000Y-101410000D02*
X130920000Y-101080000D01*
X66500000Y-77280000D02*
X66500000Y-77610000D01*
X66500000Y-77610000D02*
X60080000Y-77610000D01*
X60080000Y-77610000D02*
X60080000Y-77280000D01*
X66500000Y-75320000D02*
X66500000Y-74990000D01*
X66500000Y-74990000D02*
X60080000Y-74990000D01*
X60080000Y-74990000D02*
X60080000Y-75320000D01*
X46216736Y-46801563D02*
G75*
G03X46220000Y-56599357I1383264J-4898437D01*
G01*
X48983264Y-46801563D02*
G75*
G02X48980000Y-56599357I-1383264J-4898437D01*
G01*
X48983264Y-46801563D02*
G75*
G03X46220000Y-46800643I-1383264J-4898437D01*
G01*
X42550000Y-51700000D02*
X52650000Y-51700000D01*
X42550000Y-51660000D02*
X52650000Y-51660000D01*
X42550000Y-51620000D02*
X52650000Y-51620000D01*
X42551000Y-51580000D02*
X52649000Y-51580000D01*
X42552000Y-51540000D02*
X52648000Y-51540000D01*
X42553000Y-51500000D02*
X52647000Y-51500000D01*
X42555000Y-51460000D02*
X52645000Y-51460000D01*
X42557000Y-51420000D02*
X52643000Y-51420000D01*
X42560000Y-51380000D02*
X52640000Y-51380000D01*
X42562000Y-51340000D02*
X52638000Y-51340000D01*
X42565000Y-51300000D02*
X52635000Y-51300000D01*
X42569000Y-51260000D02*
X52631000Y-51260000D01*
X42572000Y-51220000D02*
X52628000Y-51220000D01*
X42576000Y-51180000D02*
X52624000Y-51180000D01*
X42580000Y-51140000D02*
X52620000Y-51140000D01*
X42585000Y-51100000D02*
X52615000Y-51100000D01*
X42590000Y-51060000D02*
X52610000Y-51060000D01*
X42595000Y-51020000D02*
X52605000Y-51020000D01*
X42601000Y-50979000D02*
X52599000Y-50979000D01*
X42607000Y-50939000D02*
X52593000Y-50939000D01*
X42613000Y-50899000D02*
X52587000Y-50899000D01*
X42619000Y-50859000D02*
X52581000Y-50859000D01*
X42626000Y-50819000D02*
X52574000Y-50819000D01*
X42633000Y-50779000D02*
X52567000Y-50779000D01*
X42641000Y-50739000D02*
X52559000Y-50739000D01*
X42649000Y-50699000D02*
X52551000Y-50699000D01*
X42657000Y-50659000D02*
X52543000Y-50659000D01*
X42665000Y-50619000D02*
X52535000Y-50619000D01*
X42674000Y-50579000D02*
X52526000Y-50579000D01*
X42683000Y-50539000D02*
X52517000Y-50539000D01*
X42693000Y-50499000D02*
X52507000Y-50499000D01*
X42703000Y-50459000D02*
X52497000Y-50459000D01*
X42713000Y-50419000D02*
X52487000Y-50419000D01*
X42724000Y-50379000D02*
X46419000Y-50379000D01*
X48781000Y-50379000D02*
X52476000Y-50379000D01*
X42735000Y-50339000D02*
X46419000Y-50339000D01*
X48781000Y-50339000D02*
X52465000Y-50339000D01*
X42746000Y-50299000D02*
X46419000Y-50299000D01*
X48781000Y-50299000D02*
X52454000Y-50299000D01*
X42757000Y-50259000D02*
X46419000Y-50259000D01*
X48781000Y-50259000D02*
X52443000Y-50259000D01*
X42769000Y-50219000D02*
X46419000Y-50219000D01*
X48781000Y-50219000D02*
X52431000Y-50219000D01*
X42782000Y-50179000D02*
X46419000Y-50179000D01*
X48781000Y-50179000D02*
X52418000Y-50179000D01*
X42794000Y-50139000D02*
X46419000Y-50139000D01*
X48781000Y-50139000D02*
X52406000Y-50139000D01*
X42808000Y-50099000D02*
X46419000Y-50099000D01*
X48781000Y-50099000D02*
X52392000Y-50099000D01*
X42821000Y-50059000D02*
X46419000Y-50059000D01*
X48781000Y-50059000D02*
X52379000Y-50059000D01*
X42835000Y-50019000D02*
X46419000Y-50019000D01*
X48781000Y-50019000D02*
X52365000Y-50019000D01*
X42849000Y-49979000D02*
X46419000Y-49979000D01*
X48781000Y-49979000D02*
X52351000Y-49979000D01*
X42863000Y-49939000D02*
X46419000Y-49939000D01*
X48781000Y-49939000D02*
X52337000Y-49939000D01*
X42878000Y-49899000D02*
X46419000Y-49899000D01*
X48781000Y-49899000D02*
X52322000Y-49899000D01*
X42894000Y-49859000D02*
X46419000Y-49859000D01*
X48781000Y-49859000D02*
X52306000Y-49859000D01*
X42909000Y-49819000D02*
X46419000Y-49819000D01*
X48781000Y-49819000D02*
X52291000Y-49819000D01*
X42926000Y-49779000D02*
X46419000Y-49779000D01*
X48781000Y-49779000D02*
X52274000Y-49779000D01*
X42942000Y-49739000D02*
X46419000Y-49739000D01*
X48781000Y-49739000D02*
X52258000Y-49739000D01*
X42959000Y-49699000D02*
X46419000Y-49699000D01*
X48781000Y-49699000D02*
X52241000Y-49699000D01*
X42976000Y-49659000D02*
X46419000Y-49659000D01*
X48781000Y-49659000D02*
X52224000Y-49659000D01*
X42994000Y-49619000D02*
X46419000Y-49619000D01*
X48781000Y-49619000D02*
X52206000Y-49619000D01*
X43012000Y-49579000D02*
X46419000Y-49579000D01*
X48781000Y-49579000D02*
X52188000Y-49579000D01*
X43031000Y-49539000D02*
X46419000Y-49539000D01*
X48781000Y-49539000D02*
X52169000Y-49539000D01*
X43050000Y-49499000D02*
X46419000Y-49499000D01*
X48781000Y-49499000D02*
X52150000Y-49499000D01*
X43069000Y-49459000D02*
X46419000Y-49459000D01*
X48781000Y-49459000D02*
X52131000Y-49459000D01*
X43089000Y-49419000D02*
X46419000Y-49419000D01*
X48781000Y-49419000D02*
X52111000Y-49419000D01*
X43109000Y-49379000D02*
X46419000Y-49379000D01*
X48781000Y-49379000D02*
X52091000Y-49379000D01*
X43130000Y-49339000D02*
X46419000Y-49339000D01*
X48781000Y-49339000D02*
X52070000Y-49339000D01*
X43151000Y-49299000D02*
X46419000Y-49299000D01*
X48781000Y-49299000D02*
X52049000Y-49299000D01*
X43172000Y-49259000D02*
X46419000Y-49259000D01*
X48781000Y-49259000D02*
X52028000Y-49259000D01*
X43195000Y-49219000D02*
X46419000Y-49219000D01*
X48781000Y-49219000D02*
X52005000Y-49219000D01*
X43217000Y-49179000D02*
X46419000Y-49179000D01*
X48781000Y-49179000D02*
X51983000Y-49179000D01*
X43240000Y-49139000D02*
X46419000Y-49139000D01*
X48781000Y-49139000D02*
X51960000Y-49139000D01*
X43264000Y-49099000D02*
X46419000Y-49099000D01*
X48781000Y-49099000D02*
X51936000Y-49099000D01*
X43288000Y-49059000D02*
X46419000Y-49059000D01*
X48781000Y-49059000D02*
X51912000Y-49059000D01*
X43312000Y-49019000D02*
X46419000Y-49019000D01*
X48781000Y-49019000D02*
X51888000Y-49019000D01*
X43337000Y-48979000D02*
X46419000Y-48979000D01*
X48781000Y-48979000D02*
X51863000Y-48979000D01*
X43363000Y-48939000D02*
X46419000Y-48939000D01*
X48781000Y-48939000D02*
X51837000Y-48939000D01*
X43389000Y-48899000D02*
X46419000Y-48899000D01*
X48781000Y-48899000D02*
X51811000Y-48899000D01*
X43415000Y-48859000D02*
X46419000Y-48859000D01*
X48781000Y-48859000D02*
X51785000Y-48859000D01*
X43443000Y-48819000D02*
X46419000Y-48819000D01*
X48781000Y-48819000D02*
X51757000Y-48819000D01*
X43470000Y-48779000D02*
X46419000Y-48779000D01*
X48781000Y-48779000D02*
X51730000Y-48779000D01*
X43499000Y-48739000D02*
X46419000Y-48739000D01*
X48781000Y-48739000D02*
X51701000Y-48739000D01*
X43528000Y-48699000D02*
X46419000Y-48699000D01*
X48781000Y-48699000D02*
X51672000Y-48699000D01*
X43557000Y-48659000D02*
X46419000Y-48659000D01*
X48781000Y-48659000D02*
X51643000Y-48659000D01*
X43587000Y-48619000D02*
X46419000Y-48619000D01*
X48781000Y-48619000D02*
X51613000Y-48619000D01*
X43618000Y-48579000D02*
X46419000Y-48579000D01*
X48781000Y-48579000D02*
X51582000Y-48579000D01*
X43649000Y-48539000D02*
X46419000Y-48539000D01*
X48781000Y-48539000D02*
X51551000Y-48539000D01*
X43681000Y-48499000D02*
X46419000Y-48499000D01*
X48781000Y-48499000D02*
X51519000Y-48499000D01*
X43714000Y-48459000D02*
X46419000Y-48459000D01*
X48781000Y-48459000D02*
X51486000Y-48459000D01*
X43747000Y-48419000D02*
X46419000Y-48419000D01*
X48781000Y-48419000D02*
X51453000Y-48419000D01*
X43781000Y-48379000D02*
X46419000Y-48379000D01*
X48781000Y-48379000D02*
X51419000Y-48379000D01*
X43816000Y-48339000D02*
X46419000Y-48339000D01*
X48781000Y-48339000D02*
X51384000Y-48339000D01*
X43852000Y-48299000D02*
X46419000Y-48299000D01*
X48781000Y-48299000D02*
X51348000Y-48299000D01*
X43888000Y-48259000D02*
X46419000Y-48259000D01*
X48781000Y-48259000D02*
X51312000Y-48259000D01*
X43925000Y-48219000D02*
X46419000Y-48219000D01*
X48781000Y-48219000D02*
X51275000Y-48219000D01*
X43963000Y-48179000D02*
X46419000Y-48179000D01*
X48781000Y-48179000D02*
X51237000Y-48179000D01*
X44002000Y-48139000D02*
X46419000Y-48139000D01*
X48781000Y-48139000D02*
X51198000Y-48139000D01*
X44041000Y-48099000D02*
X46419000Y-48099000D01*
X48781000Y-48099000D02*
X51159000Y-48099000D01*
X44082000Y-48059000D02*
X46419000Y-48059000D01*
X48781000Y-48059000D02*
X51118000Y-48059000D01*
X44123000Y-48019000D02*
X51077000Y-48019000D01*
X44165000Y-47979000D02*
X51035000Y-47979000D01*
X44209000Y-47939000D02*
X50991000Y-47939000D01*
X44253000Y-47899000D02*
X50947000Y-47899000D01*
X44298000Y-47859000D02*
X50902000Y-47859000D01*
X44345000Y-47819000D02*
X50855000Y-47819000D01*
X44393000Y-47779000D02*
X50807000Y-47779000D01*
X44442000Y-47739000D02*
X50758000Y-47739000D01*
X44492000Y-47699000D02*
X50708000Y-47699000D01*
X44543000Y-47659000D02*
X50657000Y-47659000D01*
X44596000Y-47619000D02*
X50604000Y-47619000D01*
X44651000Y-47579000D02*
X50549000Y-47579000D01*
X44706000Y-47539000D02*
X50494000Y-47539000D01*
X44764000Y-47499000D02*
X50436000Y-47499000D01*
X44823000Y-47459000D02*
X50377000Y-47459000D01*
X44885000Y-47419000D02*
X50315000Y-47419000D01*
X44948000Y-47379000D02*
X50252000Y-47379000D01*
X45013000Y-47339000D02*
X50187000Y-47339000D01*
X45081000Y-47299000D02*
X50119000Y-47299000D01*
X45151000Y-47259000D02*
X50049000Y-47259000D01*
X45223000Y-47219000D02*
X49977000Y-47219000D01*
X45299000Y-47179000D02*
X49901000Y-47179000D01*
X45378000Y-47139000D02*
X49822000Y-47139000D01*
X45460000Y-47099000D02*
X49740000Y-47099000D01*
X45547000Y-47059000D02*
X49653000Y-47059000D01*
X45638000Y-47019000D02*
X49562000Y-47019000D01*
X45734000Y-46979000D02*
X49466000Y-46979000D01*
X45837000Y-46939000D02*
X49363000Y-46939000D01*
X45946000Y-46899000D02*
X49254000Y-46899000D01*
X46064000Y-46859000D02*
X49136000Y-46859000D01*
X46193000Y-46819000D02*
X49007000Y-46819000D01*
X46335000Y-46779000D02*
X48865000Y-46779000D01*
X46496000Y-46739000D02*
X48704000Y-46739000D01*
X46687000Y-46699000D02*
X48513000Y-46699000D01*
X46928000Y-46659000D02*
X48272000Y-46659000D01*
X47321000Y-46619000D02*
X47879000Y-46619000D01*
X47600000Y-56900000D02*
X47600000Y-55400000D01*
X46850000Y-56150000D02*
X48350000Y-56150000D01*
X53740000Y-90590000D02*
X58860000Y-90590000D01*
X53740000Y-93210000D02*
X58860000Y-93210000D01*
X53740000Y-90590000D02*
X53740000Y-90904000D01*
X53740000Y-92896000D02*
X53740000Y-93210000D01*
X58860000Y-90590000D02*
X58860000Y-90904000D01*
X58860000Y-92896000D02*
X58860000Y-93210000D01*
X66380000Y-91700000D02*
X66710000Y-91700000D01*
X66710000Y-91700000D02*
X66710000Y-98120000D01*
X66710000Y-98120000D02*
X66380000Y-98120000D01*
X64420000Y-91700000D02*
X64090000Y-91700000D01*
X64090000Y-91700000D02*
X64090000Y-98120000D01*
X64090000Y-98120000D02*
X64420000Y-98120000D01*
X58550000Y-34380000D02*
X58550000Y-34510000D01*
X58550000Y-34510000D02*
X53230000Y-34510000D01*
X53230000Y-34510000D02*
X53230000Y-34380000D01*
X58550000Y-31820000D02*
X58550000Y-31690000D01*
X58550000Y-31690000D02*
X53230000Y-31690000D01*
X53230000Y-31690000D02*
X53230000Y-31820000D01*
X57710000Y-34510000D02*
X57710000Y-31690000D01*
X92050000Y-100940000D02*
X92050000Y-103060000D01*
X92050000Y-103060000D02*
X96170000Y-103060000D01*
X96170000Y-103060000D02*
X96170000Y-100940000D01*
X96170000Y-100940000D02*
X92050000Y-100940000D01*
X91280000Y-102000000D02*
X92050000Y-102000000D01*
X96940000Y-102000000D02*
X96170000Y-102000000D01*
X92710000Y-100940000D02*
X92710000Y-103060000D01*
D12*
X98033334Y-98857143D02*
X97985715Y-98904762D01*
X97842858Y-98952381D01*
X97747620Y-98952381D01*
X97604762Y-98904762D01*
X97509524Y-98809524D01*
X97461905Y-98714286D01*
X97414286Y-98523810D01*
X97414286Y-98380952D01*
X97461905Y-98190476D01*
X97509524Y-98095238D01*
X97604762Y-98000000D01*
X97747620Y-97952381D01*
X97842858Y-97952381D01*
X97985715Y-98000000D01*
X98033334Y-98047619D01*
X98985715Y-98952381D02*
X98414286Y-98952381D01*
X98700000Y-98952381D02*
X98700000Y-97952381D01*
X98604762Y-98095238D01*
X98509524Y-98190476D01*
X98414286Y-98238095D01*
X98633334Y-81552381D02*
X98300000Y-81076190D01*
X98061905Y-81552381D02*
X98061905Y-80552381D01*
X98442858Y-80552381D01*
X98538096Y-80600000D01*
X98585715Y-80647619D01*
X98633334Y-80742857D01*
X98633334Y-80885714D01*
X98585715Y-80980952D01*
X98538096Y-81028571D01*
X98442858Y-81076190D01*
X98061905Y-81076190D01*
X99585715Y-81552381D02*
X99014286Y-81552381D01*
X99300000Y-81552381D02*
X99300000Y-80552381D01*
X99204762Y-80695238D01*
X99109524Y-80790476D01*
X99014286Y-80838095D01*
X56441143Y-103317143D02*
X56393524Y-103364762D01*
X56250667Y-103412381D01*
X56155429Y-103412381D01*
X56012571Y-103364762D01*
X55917333Y-103269524D01*
X55869714Y-103174286D01*
X55822095Y-102983810D01*
X55822095Y-102840952D01*
X55869714Y-102650476D01*
X55917333Y-102555238D01*
X56012571Y-102460000D01*
X56155429Y-102412381D01*
X56250667Y-102412381D01*
X56393524Y-102460000D01*
X56441143Y-102507619D01*
X56774476Y-102412381D02*
X57393524Y-102412381D01*
X57060190Y-102793333D01*
X57203048Y-102793333D01*
X57298286Y-102840952D01*
X57345905Y-102888571D01*
X57393524Y-102983810D01*
X57393524Y-103221905D01*
X57345905Y-103317143D01*
X57298286Y-103364762D01*
X57203048Y-103412381D01*
X56917333Y-103412381D01*
X56822095Y-103364762D01*
X56774476Y-103317143D01*
X58345905Y-103412381D02*
X57774476Y-103412381D01*
X58060190Y-103412381D02*
X58060190Y-102412381D01*
X57964952Y-102555238D01*
X57869714Y-102650476D01*
X57774476Y-102698095D01*
X126955143Y-40058857D02*
X127002762Y-40106476D01*
X127050381Y-40249333D01*
X127050381Y-40344571D01*
X127002762Y-40487429D01*
X126907524Y-40582667D01*
X126812286Y-40630286D01*
X126621810Y-40677905D01*
X126478952Y-40677905D01*
X126288476Y-40630286D01*
X126193238Y-40582667D01*
X126098000Y-40487429D01*
X126050381Y-40344571D01*
X126050381Y-40249333D01*
X126098000Y-40106476D01*
X126145619Y-40058857D01*
X126050381Y-39725524D02*
X126050381Y-39106476D01*
X126431333Y-39439810D01*
X126431333Y-39296952D01*
X126478952Y-39201714D01*
X126526571Y-39154095D01*
X126621810Y-39106476D01*
X126859905Y-39106476D01*
X126955143Y-39154095D01*
X127002762Y-39201714D01*
X127050381Y-39296952D01*
X127050381Y-39582667D01*
X127002762Y-39677905D01*
X126955143Y-39725524D01*
X126145619Y-38725524D02*
X126098000Y-38677905D01*
X126050381Y-38582667D01*
X126050381Y-38344571D01*
X126098000Y-38249333D01*
X126145619Y-38201714D01*
X126240857Y-38154095D01*
X126336095Y-38154095D01*
X126478952Y-38201714D01*
X127050381Y-38773143D01*
X127050381Y-38154095D01*
X129352381Y-47424286D02*
X128352381Y-47424286D01*
X128352381Y-47186191D01*
X128400000Y-47043333D01*
X128495238Y-46948095D01*
X128590476Y-46900476D01*
X128780952Y-46852857D01*
X128923810Y-46852857D01*
X129114286Y-46900476D01*
X129209524Y-46948095D01*
X129304762Y-47043333D01*
X129352381Y-47186191D01*
X129352381Y-47424286D01*
X129352381Y-45900476D02*
X129352381Y-46471905D01*
X129352381Y-46186191D02*
X128352381Y-46186191D01*
X128495238Y-46281429D01*
X128590476Y-46376667D01*
X128638095Y-46471905D01*
X129352381Y-45424286D02*
X129352381Y-45233810D01*
X129304762Y-45138571D01*
X129257143Y-45090952D01*
X129114286Y-44995714D01*
X128923810Y-44948095D01*
X128542857Y-44948095D01*
X128447619Y-44995714D01*
X128400000Y-45043333D01*
X128352381Y-45138571D01*
X128352381Y-45329048D01*
X128400000Y-45424286D01*
X128447619Y-45471905D01*
X128542857Y-45519524D01*
X128780952Y-45519524D01*
X128876190Y-45471905D01*
X128923810Y-45424286D01*
X128971429Y-45329048D01*
X128971429Y-45138571D01*
X128923810Y-45043333D01*
X128876190Y-44995714D01*
X128780952Y-44948095D01*
X116682381Y-75603333D02*
X117396667Y-75603333D01*
X117539524Y-75650953D01*
X117634762Y-75746191D01*
X117682381Y-75889048D01*
X117682381Y-75984286D01*
X116777619Y-75174762D02*
X116730000Y-75127143D01*
X116682381Y-75031905D01*
X116682381Y-74793809D01*
X116730000Y-74698571D01*
X116777619Y-74650952D01*
X116872857Y-74603333D01*
X116968095Y-74603333D01*
X117110952Y-74650952D01*
X117682381Y-75222381D01*
X117682381Y-74603333D01*
X132252381Y-46376666D02*
X131776190Y-46710000D01*
X132252381Y-46948095D02*
X131252381Y-46948095D01*
X131252381Y-46567142D01*
X131300000Y-46471904D01*
X131347619Y-46424285D01*
X131442857Y-46376666D01*
X131585714Y-46376666D01*
X131680952Y-46424285D01*
X131728571Y-46471904D01*
X131776190Y-46567142D01*
X131776190Y-46948095D01*
X132252381Y-45900476D02*
X132252381Y-45710000D01*
X132204762Y-45614761D01*
X132157143Y-45567142D01*
X132014286Y-45471904D01*
X131823810Y-45424285D01*
X131442857Y-45424285D01*
X131347619Y-45471904D01*
X131300000Y-45519523D01*
X131252381Y-45614761D01*
X131252381Y-45805238D01*
X131300000Y-45900476D01*
X131347619Y-45948095D01*
X131442857Y-45995714D01*
X131680952Y-45995714D01*
X131776190Y-45948095D01*
X131823810Y-45900476D01*
X131871429Y-45805238D01*
X131871429Y-45614761D01*
X131823810Y-45519523D01*
X131776190Y-45471904D01*
X131680952Y-45424285D01*
X134690381Y-62071905D02*
X135499905Y-62071905D01*
X135595143Y-62024286D01*
X135642762Y-61976667D01*
X135690381Y-61881429D01*
X135690381Y-61690952D01*
X135642762Y-61595714D01*
X135595143Y-61548095D01*
X135499905Y-61500476D01*
X134690381Y-61500476D01*
X135690381Y-60500476D02*
X135690381Y-61071905D01*
X135690381Y-60786191D02*
X134690381Y-60786191D01*
X134833238Y-60881429D01*
X134928476Y-60976667D01*
X134976095Y-61071905D01*
X40762381Y-115479333D02*
X41476667Y-115479333D01*
X41619524Y-115526953D01*
X41714762Y-115622191D01*
X41762381Y-115765048D01*
X41762381Y-115860286D01*
X40762381Y-114526952D02*
X40762381Y-115003143D01*
X41238571Y-115050762D01*
X41190952Y-115003143D01*
X41143333Y-114907905D01*
X41143333Y-114669809D01*
X41190952Y-114574571D01*
X41238571Y-114526952D01*
X41333810Y-114479333D01*
X41571905Y-114479333D01*
X41667143Y-114526952D01*
X41714762Y-114574571D01*
X41762381Y-114669809D01*
X41762381Y-114907905D01*
X41714762Y-115003143D01*
X41667143Y-115050762D01*
X50200381Y-102321905D02*
X51009905Y-102321905D01*
X51105143Y-102274286D01*
X51152762Y-102226667D01*
X51200381Y-102131429D01*
X51200381Y-101940952D01*
X51152762Y-101845714D01*
X51105143Y-101798095D01*
X51009905Y-101750476D01*
X50200381Y-101750476D01*
X51200381Y-101226667D02*
X51200381Y-101036191D01*
X51152762Y-100940952D01*
X51105143Y-100893333D01*
X50962286Y-100798095D01*
X50771810Y-100750476D01*
X50390857Y-100750476D01*
X50295619Y-100798095D01*
X50248000Y-100845714D01*
X50200381Y-100940952D01*
X50200381Y-101131429D01*
X50248000Y-101226667D01*
X50295619Y-101274286D01*
X50390857Y-101321905D01*
X50628952Y-101321905D01*
X50724190Y-101274286D01*
X50771810Y-101226667D01*
X50819429Y-101131429D01*
X50819429Y-100940952D01*
X50771810Y-100845714D01*
X50724190Y-100798095D01*
X50628952Y-100750476D01*
X45470667Y-30420381D02*
X45470667Y-31134667D01*
X45423047Y-31277524D01*
X45327809Y-31372762D01*
X45184952Y-31420381D01*
X45089714Y-31420381D01*
X46375429Y-30420381D02*
X46184952Y-30420381D01*
X46089714Y-30468000D01*
X46042095Y-30515619D01*
X45946857Y-30658476D01*
X45899238Y-30848952D01*
X45899238Y-31229905D01*
X45946857Y-31325143D01*
X45994476Y-31372762D01*
X46089714Y-31420381D01*
X46280191Y-31420381D01*
X46375429Y-31372762D01*
X46423048Y-31325143D01*
X46470667Y-31229905D01*
X46470667Y-30991810D01*
X46423048Y-30896571D01*
X46375429Y-30848952D01*
X46280191Y-30801333D01*
X46089714Y-30801333D01*
X45994476Y-30848952D01*
X45946857Y-30896571D01*
X45899238Y-30991810D01*
X137418667Y-30420381D02*
X137418667Y-31134667D01*
X137371047Y-31277524D01*
X137275809Y-31372762D01*
X137132952Y-31420381D01*
X137037714Y-31420381D01*
X137799619Y-30420381D02*
X138466286Y-30420381D01*
X138037714Y-31420381D01*
X136942477Y-121860381D02*
X136942477Y-122574667D01*
X136894857Y-122717524D01*
X136799619Y-122812762D01*
X136656762Y-122860381D01*
X136561524Y-122860381D01*
X137942477Y-122860381D02*
X137371048Y-122860381D01*
X137656762Y-122860381D02*
X137656762Y-121860381D01*
X137561524Y-122003238D01*
X137466286Y-122098476D01*
X137371048Y-122146095D01*
X138561524Y-121860381D02*
X138656763Y-121860381D01*
X138752001Y-121908000D01*
X138799620Y-121955619D01*
X138847239Y-122050857D01*
X138894858Y-122241333D01*
X138894858Y-122479429D01*
X138847239Y-122669905D01*
X138799620Y-122765143D01*
X138752001Y-122812762D01*
X138656763Y-122860381D01*
X138561524Y-122860381D01*
X138466286Y-122812762D01*
X138418667Y-122765143D01*
X138371048Y-122669905D01*
X138323429Y-122479429D01*
X138323429Y-122241333D01*
X138371048Y-122050857D01*
X138418667Y-121955619D01*
X138466286Y-121908000D01*
X138561524Y-121860381D01*
X48804477Y-126940381D02*
X48804477Y-127654667D01*
X48756857Y-127797524D01*
X48661619Y-127892762D01*
X48518762Y-127940381D01*
X48423524Y-127940381D01*
X49804477Y-127940381D02*
X49233048Y-127940381D01*
X49518762Y-127940381D02*
X49518762Y-126940381D01*
X49423524Y-127083238D01*
X49328286Y-127178476D01*
X49233048Y-127226095D01*
X50756858Y-127940381D02*
X50185429Y-127940381D01*
X50471143Y-127940381D02*
X50471143Y-126940381D01*
X50375905Y-127083238D01*
X50280667Y-127178476D01*
X50185429Y-127226095D01*
X136090477Y-38584381D02*
X136090477Y-39298667D01*
X136042857Y-39441524D01*
X135947619Y-39536762D01*
X135804762Y-39584381D01*
X135709524Y-39584381D01*
X137090477Y-39584381D02*
X136519048Y-39584381D01*
X136804762Y-39584381D02*
X136804762Y-38584381D01*
X136709524Y-38727238D01*
X136614286Y-38822476D01*
X136519048Y-38870095D01*
X137471429Y-38679619D02*
X137519048Y-38632000D01*
X137614286Y-38584381D01*
X137852382Y-38584381D01*
X137947620Y-38632000D01*
X137995239Y-38679619D01*
X138042858Y-38774857D01*
X138042858Y-38870095D01*
X137995239Y-39012952D01*
X137423810Y-39584381D01*
X138042858Y-39584381D01*
X114050476Y-51252381D02*
X114717143Y-52252381D01*
X114717143Y-51252381D02*
X114050476Y-52252381D01*
X115002857Y-51252381D02*
X115621905Y-51252381D01*
X115288571Y-51633333D01*
X115431429Y-51633333D01*
X115526667Y-51680952D01*
X115574286Y-51728571D01*
X115621905Y-51823810D01*
X115621905Y-52061905D01*
X115574286Y-52157143D01*
X115526667Y-52204762D01*
X115431429Y-52252381D01*
X115145714Y-52252381D01*
X115050476Y-52204762D01*
X115002857Y-52157143D01*
X116161905Y-92452381D02*
X116161905Y-91452381D01*
X116400000Y-91452381D01*
X116542858Y-91500000D01*
X116638096Y-91595238D01*
X116685715Y-91690476D01*
X116733334Y-91880952D01*
X116733334Y-92023810D01*
X116685715Y-92214286D01*
X116638096Y-92309524D01*
X116542858Y-92404762D01*
X116400000Y-92452381D01*
X116161905Y-92452381D01*
X117638096Y-91452381D02*
X117161905Y-91452381D01*
X117114286Y-91928571D01*
X117161905Y-91880952D01*
X117257143Y-91833333D01*
X117495239Y-91833333D01*
X117590477Y-91880952D01*
X117638096Y-91928571D01*
X117685715Y-92023810D01*
X117685715Y-92261905D01*
X117638096Y-92357143D01*
X117590477Y-92404762D01*
X117495239Y-92452381D01*
X117257143Y-92452381D01*
X117161905Y-92404762D01*
X117114286Y-92357143D01*
X62261905Y-73452381D02*
X62261905Y-72452381D01*
X62500000Y-72452381D01*
X62642858Y-72500000D01*
X62738096Y-72595238D01*
X62785715Y-72690476D01*
X62833334Y-72880952D01*
X62833334Y-73023810D01*
X62785715Y-73214286D01*
X62738096Y-73309524D01*
X62642858Y-73404762D01*
X62500000Y-73452381D01*
X62261905Y-73452381D01*
X63690477Y-72452381D02*
X63500000Y-72452381D01*
X63404762Y-72500000D01*
X63357143Y-72547619D01*
X63261905Y-72690476D01*
X63214286Y-72880952D01*
X63214286Y-73261905D01*
X63261905Y-73357143D01*
X63309524Y-73404762D01*
X63404762Y-73452381D01*
X63595239Y-73452381D01*
X63690477Y-73404762D01*
X63738096Y-73357143D01*
X63785715Y-73261905D01*
X63785715Y-73023810D01*
X63738096Y-72928571D01*
X63690477Y-72880952D01*
X63595239Y-72833333D01*
X63404762Y-72833333D01*
X63309524Y-72880952D01*
X63261905Y-72928571D01*
X63214286Y-73023810D01*
X54252381Y-101414286D02*
X53252381Y-101414286D01*
X53252381Y-101176191D01*
X53300000Y-101033333D01*
X53395238Y-100938095D01*
X53490476Y-100890476D01*
X53680952Y-100842857D01*
X53823810Y-100842857D01*
X54014286Y-100890476D01*
X54109524Y-100938095D01*
X54204762Y-101033333D01*
X54252381Y-101176191D01*
X54252381Y-101414286D01*
X54252381Y-99890476D02*
X54252381Y-100461905D01*
X54252381Y-100176191D02*
X53252381Y-100176191D01*
X53395238Y-100271429D01*
X53490476Y-100366667D01*
X53538095Y-100461905D01*
X54252381Y-98938095D02*
X54252381Y-99509524D01*
X54252381Y-99223810D02*
X53252381Y-99223810D01*
X53395238Y-99319048D01*
X53490476Y-99414286D01*
X53538095Y-99509524D01*
X94066667Y-37552381D02*
X94066667Y-38266667D01*
X94019047Y-38409524D01*
X93923809Y-38504762D01*
X93780952Y-38552381D01*
X93685714Y-38552381D01*
X95066667Y-38552381D02*
X94495238Y-38552381D01*
X94780952Y-38552381D02*
X94780952Y-37552381D01*
X94685714Y-37695238D01*
X94590476Y-37790476D01*
X94495238Y-37838095D01*
X83266667Y-37652381D02*
X83266667Y-38366667D01*
X83219047Y-38509524D01*
X83123809Y-38604762D01*
X82980952Y-38652381D01*
X82885714Y-38652381D01*
X83647619Y-37652381D02*
X84266667Y-37652381D01*
X83933333Y-38033333D01*
X84076191Y-38033333D01*
X84171429Y-38080952D01*
X84219048Y-38128571D01*
X84266667Y-38223810D01*
X84266667Y-38461905D01*
X84219048Y-38557143D01*
X84171429Y-38604762D01*
X84076191Y-38652381D01*
X83790476Y-38652381D01*
X83695238Y-38604762D01*
X83647619Y-38557143D01*
X55766667Y-123652381D02*
X55766667Y-124366667D01*
X55719047Y-124509524D01*
X55623809Y-124604762D01*
X55480952Y-124652381D01*
X55385714Y-124652381D01*
X56671429Y-123985714D02*
X56671429Y-124652381D01*
X56433333Y-123604762D02*
X56195238Y-124319048D01*
X56814286Y-124319048D01*
X66266667Y-123652381D02*
X66266667Y-124366667D01*
X66219047Y-124509524D01*
X66123809Y-124604762D01*
X65980952Y-124652381D01*
X65885714Y-124652381D01*
X66885714Y-124080952D02*
X66790476Y-124033333D01*
X66742857Y-123985714D01*
X66695238Y-123890476D01*
X66695238Y-123842857D01*
X66742857Y-123747619D01*
X66790476Y-123700000D01*
X66885714Y-123652381D01*
X67076191Y-123652381D01*
X67171429Y-123700000D01*
X67219048Y-123747619D01*
X67266667Y-123842857D01*
X67266667Y-123890476D01*
X67219048Y-123985714D01*
X67171429Y-124033333D01*
X67076191Y-124080952D01*
X66885714Y-124080952D01*
X66790476Y-124128571D01*
X66742857Y-124176190D01*
X66695238Y-124271429D01*
X66695238Y-124461905D01*
X66742857Y-124557143D01*
X66790476Y-124604762D01*
X66885714Y-124652381D01*
X67076191Y-124652381D01*
X67171429Y-124604762D01*
X67219048Y-124557143D01*
X67266667Y-124461905D01*
X67266667Y-124271429D01*
X67219048Y-124176190D01*
X67171429Y-124128571D01*
X67076191Y-124080952D01*
X76766667Y-123752381D02*
X76766667Y-124466667D01*
X76719047Y-124609524D01*
X76623809Y-124704762D01*
X76480952Y-124752381D01*
X76385714Y-124752381D01*
X77290476Y-124752381D02*
X77480952Y-124752381D01*
X77576191Y-124704762D01*
X77623810Y-124657143D01*
X77719048Y-124514286D01*
X77766667Y-124323810D01*
X77766667Y-123942857D01*
X77719048Y-123847619D01*
X77671429Y-123800000D01*
X77576191Y-123752381D01*
X77385714Y-123752381D01*
X77290476Y-123800000D01*
X77242857Y-123847619D01*
X77195238Y-123942857D01*
X77195238Y-124180952D01*
X77242857Y-124276190D01*
X77290476Y-124323810D01*
X77385714Y-124371429D01*
X77576191Y-124371429D01*
X77671429Y-124323810D01*
X77719048Y-124276190D01*
X77766667Y-124180952D01*
X76133334Y-48352381D02*
X75657143Y-48352381D01*
X75657143Y-47352381D01*
X76990477Y-48352381D02*
X76419048Y-48352381D01*
X76704762Y-48352381D02*
X76704762Y-47352381D01*
X76609524Y-47495238D01*
X76514286Y-47590476D01*
X76419048Y-47638095D01*
X98833334Y-84952381D02*
X98500000Y-84476190D01*
X98261905Y-84952381D02*
X98261905Y-83952381D01*
X98642858Y-83952381D01*
X98738096Y-84000000D01*
X98785715Y-84047619D01*
X98833334Y-84142857D01*
X98833334Y-84285714D01*
X98785715Y-84380952D01*
X98738096Y-84428571D01*
X98642858Y-84476190D01*
X98261905Y-84476190D01*
X99690477Y-84285714D02*
X99690477Y-84952381D01*
X99452381Y-83904762D02*
X99214286Y-84619048D01*
X99833334Y-84619048D01*
X116533334Y-98552381D02*
X116200000Y-98076190D01*
X115961905Y-98552381D02*
X115961905Y-97552381D01*
X116342858Y-97552381D01*
X116438096Y-97600000D01*
X116485715Y-97647619D01*
X116533334Y-97742857D01*
X116533334Y-97885714D01*
X116485715Y-97980952D01*
X116438096Y-98028571D01*
X116342858Y-98076190D01*
X115961905Y-98076190D01*
X116866667Y-97552381D02*
X117533334Y-97552381D01*
X117104762Y-98552381D01*
X127733334Y-97252381D02*
X127400000Y-96776190D01*
X127161905Y-97252381D02*
X127161905Y-96252381D01*
X127542858Y-96252381D01*
X127638096Y-96300000D01*
X127685715Y-96347619D01*
X127733334Y-96442857D01*
X127733334Y-96585714D01*
X127685715Y-96680952D01*
X127638096Y-96728571D01*
X127542858Y-96776190D01*
X127161905Y-96776190D01*
X128304762Y-96680952D02*
X128209524Y-96633333D01*
X128161905Y-96585714D01*
X128114286Y-96490476D01*
X128114286Y-96442857D01*
X128161905Y-96347619D01*
X128209524Y-96300000D01*
X128304762Y-96252381D01*
X128495239Y-96252381D01*
X128590477Y-96300000D01*
X128638096Y-96347619D01*
X128685715Y-96442857D01*
X128685715Y-96490476D01*
X128638096Y-96585714D01*
X128590477Y-96633333D01*
X128495239Y-96680952D01*
X128304762Y-96680952D01*
X128209524Y-96728571D01*
X128161905Y-96776190D01*
X128114286Y-96871429D01*
X128114286Y-97061905D01*
X128161905Y-97157143D01*
X128209524Y-97204762D01*
X128304762Y-97252381D01*
X128495239Y-97252381D01*
X128590477Y-97204762D01*
X128638096Y-97157143D01*
X128685715Y-97061905D01*
X128685715Y-96871429D01*
X128638096Y-96776190D01*
X128590477Y-96728571D01*
X128495239Y-96680952D01*
X90757143Y-124952381D02*
X90423809Y-124476190D01*
X90185714Y-124952381D02*
X90185714Y-123952381D01*
X90566667Y-123952381D01*
X90661905Y-124000000D01*
X90709524Y-124047619D01*
X90757143Y-124142857D01*
X90757143Y-124285714D01*
X90709524Y-124380952D01*
X90661905Y-124428571D01*
X90566667Y-124476190D01*
X90185714Y-124476190D01*
X91709524Y-124952381D02*
X91138095Y-124952381D01*
X91423809Y-124952381D02*
X91423809Y-123952381D01*
X91328571Y-124095238D01*
X91233333Y-124190476D01*
X91138095Y-124238095D01*
X92090476Y-124047619D02*
X92138095Y-124000000D01*
X92233333Y-123952381D01*
X92471429Y-123952381D01*
X92566667Y-124000000D01*
X92614286Y-124047619D01*
X92661905Y-124142857D01*
X92661905Y-124238095D01*
X92614286Y-124380952D01*
X92042857Y-124952381D01*
X92661905Y-124952381D01*
X91152381Y-85542857D02*
X90676190Y-85876191D01*
X91152381Y-86114286D02*
X90152381Y-86114286D01*
X90152381Y-85733333D01*
X90200000Y-85638095D01*
X90247619Y-85590476D01*
X90342857Y-85542857D01*
X90485714Y-85542857D01*
X90580952Y-85590476D01*
X90628571Y-85638095D01*
X90676190Y-85733333D01*
X90676190Y-86114286D01*
X91152381Y-84590476D02*
X91152381Y-85161905D01*
X91152381Y-84876191D02*
X90152381Y-84876191D01*
X90295238Y-84971429D01*
X90390476Y-85066667D01*
X90438095Y-85161905D01*
X90485714Y-83733333D02*
X91152381Y-83733333D01*
X90104762Y-83971429D02*
X90819048Y-84209524D01*
X90819048Y-83590476D01*
X123857143Y-89052381D02*
X123523809Y-88576190D01*
X123285714Y-89052381D02*
X123285714Y-88052381D01*
X123666667Y-88052381D01*
X123761905Y-88100000D01*
X123809524Y-88147619D01*
X123857143Y-88242857D01*
X123857143Y-88385714D01*
X123809524Y-88480952D01*
X123761905Y-88528571D01*
X123666667Y-88576190D01*
X123285714Y-88576190D01*
X124238095Y-88147619D02*
X124285714Y-88100000D01*
X124380952Y-88052381D01*
X124619048Y-88052381D01*
X124714286Y-88100000D01*
X124761905Y-88147619D01*
X124809524Y-88242857D01*
X124809524Y-88338095D01*
X124761905Y-88480952D01*
X124190476Y-89052381D01*
X124809524Y-89052381D01*
X125714286Y-88052381D02*
X125238095Y-88052381D01*
X125190476Y-88528571D01*
X125238095Y-88480952D01*
X125333333Y-88433333D01*
X125571429Y-88433333D01*
X125666667Y-88480952D01*
X125714286Y-88528571D01*
X125761905Y-88623810D01*
X125761905Y-88861905D01*
X125714286Y-88957143D01*
X125666667Y-89004762D01*
X125571429Y-89052381D01*
X125333333Y-89052381D01*
X125238095Y-89004762D01*
X125190476Y-88957143D01*
X124057143Y-82452381D02*
X123723809Y-81976190D01*
X123485714Y-82452381D02*
X123485714Y-81452381D01*
X123866667Y-81452381D01*
X123961905Y-81500000D01*
X124009524Y-81547619D01*
X124057143Y-81642857D01*
X124057143Y-81785714D01*
X124009524Y-81880952D01*
X123961905Y-81928571D01*
X123866667Y-81976190D01*
X123485714Y-81976190D01*
X124438095Y-81547619D02*
X124485714Y-81500000D01*
X124580952Y-81452381D01*
X124819048Y-81452381D01*
X124914286Y-81500000D01*
X124961905Y-81547619D01*
X125009524Y-81642857D01*
X125009524Y-81738095D01*
X124961905Y-81880952D01*
X124390476Y-82452381D01*
X125009524Y-82452381D01*
X125866667Y-81452381D02*
X125676190Y-81452381D01*
X125580952Y-81500000D01*
X125533333Y-81547619D01*
X125438095Y-81690476D01*
X125390476Y-81880952D01*
X125390476Y-82261905D01*
X125438095Y-82357143D01*
X125485714Y-82404762D01*
X125580952Y-82452381D01*
X125771429Y-82452381D01*
X125866667Y-82404762D01*
X125914286Y-82357143D01*
X125961905Y-82261905D01*
X125961905Y-82023810D01*
X125914286Y-81928571D01*
X125866667Y-81880952D01*
X125771429Y-81833333D01*
X125580952Y-81833333D01*
X125485714Y-81880952D01*
X125438095Y-81928571D01*
X125390476Y-82023810D01*
X124157143Y-75852381D02*
X123823809Y-75376190D01*
X123585714Y-75852381D02*
X123585714Y-74852381D01*
X123966667Y-74852381D01*
X124061905Y-74900000D01*
X124109524Y-74947619D01*
X124157143Y-75042857D01*
X124157143Y-75185714D01*
X124109524Y-75280952D01*
X124061905Y-75328571D01*
X123966667Y-75376190D01*
X123585714Y-75376190D01*
X124538095Y-74947619D02*
X124585714Y-74900000D01*
X124680952Y-74852381D01*
X124919048Y-74852381D01*
X125014286Y-74900000D01*
X125061905Y-74947619D01*
X125109524Y-75042857D01*
X125109524Y-75138095D01*
X125061905Y-75280952D01*
X124490476Y-75852381D01*
X125109524Y-75852381D01*
X125442857Y-74852381D02*
X126109524Y-74852381D01*
X125680952Y-75852381D01*
X123757143Y-85652381D02*
X123423809Y-85176190D01*
X123185714Y-85652381D02*
X123185714Y-84652381D01*
X123566667Y-84652381D01*
X123661905Y-84700000D01*
X123709524Y-84747619D01*
X123757143Y-84842857D01*
X123757143Y-84985714D01*
X123709524Y-85080952D01*
X123661905Y-85128571D01*
X123566667Y-85176190D01*
X123185714Y-85176190D01*
X124138095Y-84747619D02*
X124185714Y-84700000D01*
X124280952Y-84652381D01*
X124519048Y-84652381D01*
X124614286Y-84700000D01*
X124661905Y-84747619D01*
X124709524Y-84842857D01*
X124709524Y-84938095D01*
X124661905Y-85080952D01*
X124090476Y-85652381D01*
X124709524Y-85652381D01*
X125280952Y-85080952D02*
X125185714Y-85033333D01*
X125138095Y-84985714D01*
X125090476Y-84890476D01*
X125090476Y-84842857D01*
X125138095Y-84747619D01*
X125185714Y-84700000D01*
X125280952Y-84652381D01*
X125471429Y-84652381D01*
X125566667Y-84700000D01*
X125614286Y-84747619D01*
X125661905Y-84842857D01*
X125661905Y-84890476D01*
X125614286Y-84985714D01*
X125566667Y-85033333D01*
X125471429Y-85080952D01*
X125280952Y-85080952D01*
X125185714Y-85128571D01*
X125138095Y-85176190D01*
X125090476Y-85271429D01*
X125090476Y-85461905D01*
X125138095Y-85557143D01*
X125185714Y-85604762D01*
X125280952Y-85652381D01*
X125471429Y-85652381D01*
X125566667Y-85604762D01*
X125614286Y-85557143D01*
X125661905Y-85461905D01*
X125661905Y-85271429D01*
X125614286Y-85176190D01*
X125566667Y-85128571D01*
X125471429Y-85080952D01*
X123657143Y-79052381D02*
X123323809Y-78576190D01*
X123085714Y-79052381D02*
X123085714Y-78052381D01*
X123466667Y-78052381D01*
X123561905Y-78100000D01*
X123609524Y-78147619D01*
X123657143Y-78242857D01*
X123657143Y-78385714D01*
X123609524Y-78480952D01*
X123561905Y-78528571D01*
X123466667Y-78576190D01*
X123085714Y-78576190D01*
X124038095Y-78147619D02*
X124085714Y-78100000D01*
X124180952Y-78052381D01*
X124419048Y-78052381D01*
X124514286Y-78100000D01*
X124561905Y-78147619D01*
X124609524Y-78242857D01*
X124609524Y-78338095D01*
X124561905Y-78480952D01*
X123990476Y-79052381D01*
X124609524Y-79052381D01*
X125085714Y-79052381D02*
X125276190Y-79052381D01*
X125371429Y-79004762D01*
X125419048Y-78957143D01*
X125514286Y-78814286D01*
X125561905Y-78623810D01*
X125561905Y-78242857D01*
X125514286Y-78147619D01*
X125466667Y-78100000D01*
X125371429Y-78052381D01*
X125180952Y-78052381D01*
X125085714Y-78100000D01*
X125038095Y-78147619D01*
X124990476Y-78242857D01*
X124990476Y-78480952D01*
X125038095Y-78576190D01*
X125085714Y-78623810D01*
X125180952Y-78671429D01*
X125371429Y-78671429D01*
X125466667Y-78623810D01*
X125514286Y-78576190D01*
X125561905Y-78480952D01*
X124057143Y-72552381D02*
X123723809Y-72076190D01*
X123485714Y-72552381D02*
X123485714Y-71552381D01*
X123866667Y-71552381D01*
X123961905Y-71600000D01*
X124009524Y-71647619D01*
X124057143Y-71742857D01*
X124057143Y-71885714D01*
X124009524Y-71980952D01*
X123961905Y-72028571D01*
X123866667Y-72076190D01*
X123485714Y-72076190D01*
X124390476Y-71552381D02*
X125009524Y-71552381D01*
X124676190Y-71933333D01*
X124819048Y-71933333D01*
X124914286Y-71980952D01*
X124961905Y-72028571D01*
X125009524Y-72123810D01*
X125009524Y-72361905D01*
X124961905Y-72457143D01*
X124914286Y-72504762D01*
X124819048Y-72552381D01*
X124533333Y-72552381D01*
X124438095Y-72504762D01*
X124390476Y-72457143D01*
X125628571Y-71552381D02*
X125723810Y-71552381D01*
X125819048Y-71600000D01*
X125866667Y-71647619D01*
X125914286Y-71742857D01*
X125961905Y-71933333D01*
X125961905Y-72171429D01*
X125914286Y-72361905D01*
X125866667Y-72457143D01*
X125819048Y-72504762D01*
X125723810Y-72552381D01*
X125628571Y-72552381D01*
X125533333Y-72504762D01*
X125485714Y-72457143D01*
X125438095Y-72361905D01*
X125390476Y-72171429D01*
X125390476Y-71933333D01*
X125438095Y-71742857D01*
X125485714Y-71647619D01*
X125533333Y-71600000D01*
X125628571Y-71552381D01*
X134352381Y-109195238D02*
X133876190Y-109528572D01*
X134352381Y-109766667D02*
X133352381Y-109766667D01*
X133352381Y-109385714D01*
X133400000Y-109290476D01*
X133447619Y-109242857D01*
X133542857Y-109195238D01*
X133685714Y-109195238D01*
X133780952Y-109242857D01*
X133828571Y-109290476D01*
X133876190Y-109385714D01*
X133876190Y-109766667D01*
X133352381Y-108909524D02*
X134352381Y-108576191D01*
X133352381Y-108242857D01*
X134352381Y-107385714D02*
X134352381Y-107957143D01*
X134352381Y-107671429D02*
X133352381Y-107671429D01*
X133495238Y-107766667D01*
X133590476Y-107861905D01*
X133638095Y-107957143D01*
X85722381Y-120161905D02*
X86531905Y-120161905D01*
X86627143Y-120114286D01*
X86674762Y-120066667D01*
X86722381Y-119971429D01*
X86722381Y-119780952D01*
X86674762Y-119685714D01*
X86627143Y-119638095D01*
X86531905Y-119590476D01*
X85722381Y-119590476D01*
X85722381Y-119209524D02*
X85722381Y-118590476D01*
X86103333Y-118923810D01*
X86103333Y-118780952D01*
X86150952Y-118685714D01*
X86198571Y-118638095D01*
X86293810Y-118590476D01*
X86531905Y-118590476D01*
X86627143Y-118638095D01*
X86674762Y-118685714D01*
X86722381Y-118780952D01*
X86722381Y-119066667D01*
X86674762Y-119161905D01*
X86627143Y-119209524D01*
X91357143Y-43352381D02*
X91023809Y-42876190D01*
X90785714Y-43352381D02*
X90785714Y-42352381D01*
X91166667Y-42352381D01*
X91261905Y-42400000D01*
X91309524Y-42447619D01*
X91357143Y-42542857D01*
X91357143Y-42685714D01*
X91309524Y-42780952D01*
X91261905Y-42828571D01*
X91166667Y-42876190D01*
X90785714Y-42876190D01*
X91690476Y-42352381D02*
X92309524Y-42352381D01*
X91976190Y-42733333D01*
X92119048Y-42733333D01*
X92214286Y-42780952D01*
X92261905Y-42828571D01*
X92309524Y-42923810D01*
X92309524Y-43161905D01*
X92261905Y-43257143D01*
X92214286Y-43304762D01*
X92119048Y-43352381D01*
X91833333Y-43352381D01*
X91738095Y-43304762D01*
X91690476Y-43257143D01*
X93261905Y-43352381D02*
X92690476Y-43352381D01*
X92976190Y-43352381D02*
X92976190Y-42352381D01*
X92880952Y-42495238D01*
X92785714Y-42590476D01*
X92690476Y-42638095D01*
X111557143Y-41352381D02*
X111223809Y-40876190D01*
X110985714Y-41352381D02*
X110985714Y-40352381D01*
X111366667Y-40352381D01*
X111461905Y-40400000D01*
X111509524Y-40447619D01*
X111557143Y-40542857D01*
X111557143Y-40685714D01*
X111509524Y-40780952D01*
X111461905Y-40828571D01*
X111366667Y-40876190D01*
X110985714Y-40876190D01*
X111890476Y-40352381D02*
X112509524Y-40352381D01*
X112176190Y-40733333D01*
X112319048Y-40733333D01*
X112414286Y-40780952D01*
X112461905Y-40828571D01*
X112509524Y-40923810D01*
X112509524Y-41161905D01*
X112461905Y-41257143D01*
X112414286Y-41304762D01*
X112319048Y-41352381D01*
X112033333Y-41352381D01*
X111938095Y-41304762D01*
X111890476Y-41257143D01*
X112890476Y-40447619D02*
X112938095Y-40400000D01*
X113033333Y-40352381D01*
X113271429Y-40352381D01*
X113366667Y-40400000D01*
X113414286Y-40447619D01*
X113461905Y-40542857D01*
X113461905Y-40638095D01*
X113414286Y-40780952D01*
X112842857Y-41352381D01*
X113461905Y-41352381D01*
X90280381Y-62961905D02*
X90280381Y-62390476D01*
X91280381Y-62676191D02*
X90280381Y-62676191D01*
X91280381Y-61533333D02*
X91280381Y-62104762D01*
X91280381Y-61819048D02*
X90280381Y-61819048D01*
X90423238Y-61914286D01*
X90518476Y-62009524D01*
X90566095Y-62104762D01*
X73133334Y-96157143D02*
X73085715Y-96204762D01*
X72942858Y-96252381D01*
X72847620Y-96252381D01*
X72704762Y-96204762D01*
X72609524Y-96109524D01*
X72561905Y-96014286D01*
X72514286Y-95823810D01*
X72514286Y-95680952D01*
X72561905Y-95490476D01*
X72609524Y-95395238D01*
X72704762Y-95300000D01*
X72847620Y-95252381D01*
X72942858Y-95252381D01*
X73085715Y-95300000D01*
X73133334Y-95347619D01*
X73990477Y-95585714D02*
X73990477Y-96252381D01*
X73752381Y-95204762D02*
X73514286Y-95919048D01*
X74133334Y-95919048D01*
X132057143Y-89566666D02*
X132104762Y-89614285D01*
X132152381Y-89757142D01*
X132152381Y-89852380D01*
X132104762Y-89995238D01*
X132009524Y-90090476D01*
X131914286Y-90138095D01*
X131723810Y-90185714D01*
X131580952Y-90185714D01*
X131390476Y-90138095D01*
X131295238Y-90090476D01*
X131200000Y-89995238D01*
X131152381Y-89852380D01*
X131152381Y-89757142D01*
X131200000Y-89614285D01*
X131247619Y-89566666D01*
X131152381Y-88661904D02*
X131152381Y-89138095D01*
X131628571Y-89185714D01*
X131580952Y-89138095D01*
X131533333Y-89042857D01*
X131533333Y-88804761D01*
X131580952Y-88709523D01*
X131628571Y-88661904D01*
X131723810Y-88614285D01*
X131961905Y-88614285D01*
X132057143Y-88661904D01*
X132104762Y-88709523D01*
X132152381Y-88804761D01*
X132152381Y-89042857D01*
X132104762Y-89138095D01*
X132057143Y-89185714D01*
X132157143Y-82466666D02*
X132204762Y-82514285D01*
X132252381Y-82657142D01*
X132252381Y-82752380D01*
X132204762Y-82895238D01*
X132109524Y-82990476D01*
X132014286Y-83038095D01*
X131823810Y-83085714D01*
X131680952Y-83085714D01*
X131490476Y-83038095D01*
X131395238Y-82990476D01*
X131300000Y-82895238D01*
X131252381Y-82752380D01*
X131252381Y-82657142D01*
X131300000Y-82514285D01*
X131347619Y-82466666D01*
X131252381Y-81609523D02*
X131252381Y-81800000D01*
X131300000Y-81895238D01*
X131347619Y-81942857D01*
X131490476Y-82038095D01*
X131680952Y-82085714D01*
X132061905Y-82085714D01*
X132157143Y-82038095D01*
X132204762Y-81990476D01*
X132252381Y-81895238D01*
X132252381Y-81704761D01*
X132204762Y-81609523D01*
X132157143Y-81561904D01*
X132061905Y-81514285D01*
X131823810Y-81514285D01*
X131728571Y-81561904D01*
X131680952Y-81609523D01*
X131633333Y-81704761D01*
X131633333Y-81895238D01*
X131680952Y-81990476D01*
X131728571Y-82038095D01*
X131823810Y-82085714D01*
X132057143Y-75166666D02*
X132104762Y-75214285D01*
X132152381Y-75357142D01*
X132152381Y-75452380D01*
X132104762Y-75595238D01*
X132009524Y-75690476D01*
X131914286Y-75738095D01*
X131723810Y-75785714D01*
X131580952Y-75785714D01*
X131390476Y-75738095D01*
X131295238Y-75690476D01*
X131200000Y-75595238D01*
X131152381Y-75452380D01*
X131152381Y-75357142D01*
X131200000Y-75214285D01*
X131247619Y-75166666D01*
X131152381Y-74833333D02*
X131152381Y-74166666D01*
X132152381Y-74595238D01*
X76957143Y-37666666D02*
X77004762Y-37714285D01*
X77052381Y-37857142D01*
X77052381Y-37952380D01*
X77004762Y-38095238D01*
X76909524Y-38190476D01*
X76814286Y-38238095D01*
X76623810Y-38285714D01*
X76480952Y-38285714D01*
X76290476Y-38238095D01*
X76195238Y-38190476D01*
X76100000Y-38095238D01*
X76052381Y-37952380D01*
X76052381Y-37857142D01*
X76100000Y-37714285D01*
X76147619Y-37666666D01*
X77052381Y-37190476D02*
X77052381Y-37000000D01*
X77004762Y-36904761D01*
X76957143Y-36857142D01*
X76814286Y-36761904D01*
X76623810Y-36714285D01*
X76242857Y-36714285D01*
X76147619Y-36761904D01*
X76100000Y-36809523D01*
X76052381Y-36904761D01*
X76052381Y-37095238D01*
X76100000Y-37190476D01*
X76147619Y-37238095D01*
X76242857Y-37285714D01*
X76480952Y-37285714D01*
X76576190Y-37238095D01*
X76623810Y-37190476D01*
X76671429Y-37095238D01*
X76671429Y-36904761D01*
X76623810Y-36809523D01*
X76576190Y-36761904D01*
X76480952Y-36714285D01*
X65857143Y-79757143D02*
X65809524Y-79804762D01*
X65666667Y-79852381D01*
X65571429Y-79852381D01*
X65428571Y-79804762D01*
X65333333Y-79709524D01*
X65285714Y-79614286D01*
X65238095Y-79423810D01*
X65238095Y-79280952D01*
X65285714Y-79090476D01*
X65333333Y-78995238D01*
X65428571Y-78900000D01*
X65571429Y-78852381D01*
X65666667Y-78852381D01*
X65809524Y-78900000D01*
X65857143Y-78947619D01*
X66809524Y-79852381D02*
X66238095Y-79852381D01*
X66523809Y-79852381D02*
X66523809Y-78852381D01*
X66428571Y-78995238D01*
X66333333Y-79090476D01*
X66238095Y-79138095D01*
X67761905Y-79852381D02*
X67190476Y-79852381D01*
X67476190Y-79852381D02*
X67476190Y-78852381D01*
X67380952Y-78995238D01*
X67285714Y-79090476D01*
X67190476Y-79138095D01*
X121357143Y-47857143D02*
X121309524Y-47904762D01*
X121166667Y-47952381D01*
X121071429Y-47952381D01*
X120928571Y-47904762D01*
X120833333Y-47809524D01*
X120785714Y-47714286D01*
X120738095Y-47523810D01*
X120738095Y-47380952D01*
X120785714Y-47190476D01*
X120833333Y-47095238D01*
X120928571Y-47000000D01*
X121071429Y-46952381D01*
X121166667Y-46952381D01*
X121309524Y-47000000D01*
X121357143Y-47047619D01*
X122309524Y-47952381D02*
X121738095Y-47952381D01*
X122023809Y-47952381D02*
X122023809Y-46952381D01*
X121928571Y-47095238D01*
X121833333Y-47190476D01*
X121738095Y-47238095D01*
X122785714Y-47952381D02*
X122976190Y-47952381D01*
X123071429Y-47904762D01*
X123119048Y-47857143D01*
X123214286Y-47714286D01*
X123261905Y-47523810D01*
X123261905Y-47142857D01*
X123214286Y-47047619D01*
X123166667Y-47000000D01*
X123071429Y-46952381D01*
X122880952Y-46952381D01*
X122785714Y-47000000D01*
X122738095Y-47047619D01*
X122690476Y-47142857D01*
X122690476Y-47380952D01*
X122738095Y-47476190D01*
X122785714Y-47523810D01*
X122880952Y-47571429D01*
X123071429Y-47571429D01*
X123166667Y-47523810D01*
X123214286Y-47476190D01*
X123261905Y-47380952D01*
X117957143Y-68657143D02*
X117909524Y-68704762D01*
X117766667Y-68752381D01*
X117671429Y-68752381D01*
X117528571Y-68704762D01*
X117433333Y-68609524D01*
X117385714Y-68514286D01*
X117338095Y-68323810D01*
X117338095Y-68180952D01*
X117385714Y-67990476D01*
X117433333Y-67895238D01*
X117528571Y-67800000D01*
X117671429Y-67752381D01*
X117766667Y-67752381D01*
X117909524Y-67800000D01*
X117957143Y-67847619D01*
X118338095Y-67847619D02*
X118385714Y-67800000D01*
X118480952Y-67752381D01*
X118719048Y-67752381D01*
X118814286Y-67800000D01*
X118861905Y-67847619D01*
X118909524Y-67942857D01*
X118909524Y-68038095D01*
X118861905Y-68180952D01*
X118290476Y-68752381D01*
X118909524Y-68752381D01*
X119242857Y-67752381D02*
X119861905Y-67752381D01*
X119528571Y-68133333D01*
X119671429Y-68133333D01*
X119766667Y-68180952D01*
X119814286Y-68228571D01*
X119861905Y-68323810D01*
X119861905Y-68561905D01*
X119814286Y-68657143D01*
X119766667Y-68704762D01*
X119671429Y-68752381D01*
X119385714Y-68752381D01*
X119290476Y-68704762D01*
X119242857Y-68657143D01*
X124157143Y-39742857D02*
X124204762Y-39790476D01*
X124252381Y-39933333D01*
X124252381Y-40028571D01*
X124204762Y-40171429D01*
X124109524Y-40266667D01*
X124014286Y-40314286D01*
X123823810Y-40361905D01*
X123680952Y-40361905D01*
X123490476Y-40314286D01*
X123395238Y-40266667D01*
X123300000Y-40171429D01*
X123252381Y-40028571D01*
X123252381Y-39933333D01*
X123300000Y-39790476D01*
X123347619Y-39742857D01*
X123347619Y-39361905D02*
X123300000Y-39314286D01*
X123252381Y-39219048D01*
X123252381Y-38980952D01*
X123300000Y-38885714D01*
X123347619Y-38838095D01*
X123442857Y-38790476D01*
X123538095Y-38790476D01*
X123680952Y-38838095D01*
X124252381Y-39409524D01*
X124252381Y-38790476D01*
X123585714Y-37933333D02*
X124252381Y-37933333D01*
X123204762Y-38171429D02*
X123919048Y-38409524D01*
X123919048Y-37790476D01*
X113957143Y-47757143D02*
X113909524Y-47804762D01*
X113766667Y-47852381D01*
X113671429Y-47852381D01*
X113528571Y-47804762D01*
X113433333Y-47709524D01*
X113385714Y-47614286D01*
X113338095Y-47423810D01*
X113338095Y-47280952D01*
X113385714Y-47090476D01*
X113433333Y-46995238D01*
X113528571Y-46900000D01*
X113671429Y-46852381D01*
X113766667Y-46852381D01*
X113909524Y-46900000D01*
X113957143Y-46947619D01*
X114290476Y-46852381D02*
X114909524Y-46852381D01*
X114576190Y-47233333D01*
X114719048Y-47233333D01*
X114814286Y-47280952D01*
X114861905Y-47328571D01*
X114909524Y-47423810D01*
X114909524Y-47661905D01*
X114861905Y-47757143D01*
X114814286Y-47804762D01*
X114719048Y-47852381D01*
X114433333Y-47852381D01*
X114338095Y-47804762D01*
X114290476Y-47757143D01*
X115528571Y-46852381D02*
X115623810Y-46852381D01*
X115719048Y-46900000D01*
X115766667Y-46947619D01*
X115814286Y-47042857D01*
X115861905Y-47233333D01*
X115861905Y-47471429D01*
X115814286Y-47661905D01*
X115766667Y-47757143D01*
X115719048Y-47804762D01*
X115623810Y-47852381D01*
X115528571Y-47852381D01*
X115433333Y-47804762D01*
X115385714Y-47757143D01*
X115338095Y-47661905D01*
X115290476Y-47471429D01*
X115290476Y-47233333D01*
X115338095Y-47042857D01*
X115385714Y-46947619D01*
X115433333Y-46900000D01*
X115528571Y-46852381D01*
X124957143Y-92357143D02*
X124909524Y-92404762D01*
X124766667Y-92452381D01*
X124671429Y-92452381D01*
X124528571Y-92404762D01*
X124433333Y-92309524D01*
X124385714Y-92214286D01*
X124338095Y-92023810D01*
X124338095Y-91880952D01*
X124385714Y-91690476D01*
X124433333Y-91595238D01*
X124528571Y-91500000D01*
X124671429Y-91452381D01*
X124766667Y-91452381D01*
X124909524Y-91500000D01*
X124957143Y-91547619D01*
X125290476Y-91452381D02*
X125909524Y-91452381D01*
X125576190Y-91833333D01*
X125719048Y-91833333D01*
X125814286Y-91880952D01*
X125861905Y-91928571D01*
X125909524Y-92023810D01*
X125909524Y-92261905D01*
X125861905Y-92357143D01*
X125814286Y-92404762D01*
X125719048Y-92452381D01*
X125433333Y-92452381D01*
X125338095Y-92404762D01*
X125290476Y-92357143D01*
X126766667Y-91785714D02*
X126766667Y-92452381D01*
X126528571Y-91404762D02*
X126290476Y-92119048D01*
X126909524Y-92119048D01*
X57757143Y-98142857D02*
X57804762Y-98190476D01*
X57852381Y-98333333D01*
X57852381Y-98428571D01*
X57804762Y-98571429D01*
X57709524Y-98666667D01*
X57614286Y-98714286D01*
X57423810Y-98761905D01*
X57280952Y-98761905D01*
X57090476Y-98714286D01*
X56995238Y-98666667D01*
X56900000Y-98571429D01*
X56852381Y-98428571D01*
X56852381Y-98333333D01*
X56900000Y-98190476D01*
X56947619Y-98142857D01*
X56852381Y-97809524D02*
X56852381Y-97190476D01*
X57233333Y-97523810D01*
X57233333Y-97380952D01*
X57280952Y-97285714D01*
X57328571Y-97238095D01*
X57423810Y-97190476D01*
X57661905Y-97190476D01*
X57757143Y-97238095D01*
X57804762Y-97285714D01*
X57852381Y-97380952D01*
X57852381Y-97666667D01*
X57804762Y-97761905D01*
X57757143Y-97809524D01*
X56852381Y-96285714D02*
X56852381Y-96761905D01*
X57328571Y-96809524D01*
X57280952Y-96761905D01*
X57233333Y-96666667D01*
X57233333Y-96428571D01*
X57280952Y-96333333D01*
X57328571Y-96285714D01*
X57423810Y-96238095D01*
X57661905Y-96238095D01*
X57757143Y-96285714D01*
X57804762Y-96333333D01*
X57852381Y-96428571D01*
X57852381Y-96666667D01*
X57804762Y-96761905D01*
X57757143Y-96809524D01*
X134457143Y-54757143D02*
X134409524Y-54804762D01*
X134266667Y-54852381D01*
X134171429Y-54852381D01*
X134028571Y-54804762D01*
X133933333Y-54709524D01*
X133885714Y-54614286D01*
X133838095Y-54423810D01*
X133838095Y-54280952D01*
X133885714Y-54090476D01*
X133933333Y-53995238D01*
X134028571Y-53900000D01*
X134171429Y-53852381D01*
X134266667Y-53852381D01*
X134409524Y-53900000D01*
X134457143Y-53947619D01*
X134790476Y-53852381D02*
X135409524Y-53852381D01*
X135076190Y-54233333D01*
X135219048Y-54233333D01*
X135314286Y-54280952D01*
X135361905Y-54328571D01*
X135409524Y-54423810D01*
X135409524Y-54661905D01*
X135361905Y-54757143D01*
X135314286Y-54804762D01*
X135219048Y-54852381D01*
X134933333Y-54852381D01*
X134838095Y-54804762D01*
X134790476Y-54757143D01*
X135742857Y-53852381D02*
X136409524Y-53852381D01*
X135980952Y-54852381D01*
X112544762Y-30827619D02*
X112449524Y-30780000D01*
X112354286Y-30684762D01*
X112211429Y-30541905D01*
X112116190Y-30494286D01*
X112020952Y-30494286D01*
X112068571Y-30732381D02*
X111973333Y-30684762D01*
X111878095Y-30589524D01*
X111830476Y-30399048D01*
X111830476Y-30065714D01*
X111878095Y-29875238D01*
X111973333Y-29780000D01*
X112068571Y-29732381D01*
X112259048Y-29732381D01*
X112354286Y-29780000D01*
X112449524Y-29875238D01*
X112497143Y-30065714D01*
X112497143Y-30399048D01*
X112449524Y-30589524D01*
X112354286Y-30684762D01*
X112259048Y-30732381D01*
X112068571Y-30732381D01*
X113354286Y-30065714D02*
X113354286Y-30732381D01*
X113116190Y-29684762D02*
X112878095Y-30399048D01*
X113497143Y-30399048D01*
X111762143Y-38185382D02*
X111428809Y-37709191D01*
X111190714Y-38185382D02*
X111190714Y-37185382D01*
X111571667Y-37185382D01*
X111666905Y-37233001D01*
X111714524Y-37280620D01*
X111762143Y-37375858D01*
X111762143Y-37518715D01*
X111714524Y-37613953D01*
X111666905Y-37661572D01*
X111571667Y-37709191D01*
X111190714Y-37709191D01*
X112714524Y-38185382D02*
X112143095Y-38185382D01*
X112428809Y-38185382D02*
X112428809Y-37185382D01*
X112333571Y-37328239D01*
X112238333Y-37423477D01*
X112143095Y-37471096D01*
X113285952Y-37613953D02*
X113190714Y-37566334D01*
X113143095Y-37518715D01*
X113095476Y-37423477D01*
X113095476Y-37375858D01*
X113143095Y-37280620D01*
X113190714Y-37233001D01*
X113285952Y-37185382D01*
X113476429Y-37185382D01*
X113571667Y-37233001D01*
X113619286Y-37280620D01*
X113666905Y-37375858D01*
X113666905Y-37423477D01*
X113619286Y-37518715D01*
X113571667Y-37566334D01*
X113476429Y-37613953D01*
X113285952Y-37613953D01*
X113190714Y-37661572D01*
X113143095Y-37709191D01*
X113095476Y-37804430D01*
X113095476Y-37994906D01*
X113143095Y-38090144D01*
X113190714Y-38137763D01*
X113285952Y-38185382D01*
X113476429Y-38185382D01*
X113571667Y-38137763D01*
X113619286Y-38090144D01*
X113666905Y-37994906D01*
X113666905Y-37804430D01*
X113619286Y-37709191D01*
X113571667Y-37661572D01*
X113476429Y-37613953D01*
X87490144Y-57861666D02*
X87537763Y-57909285D01*
X87585382Y-58052142D01*
X87585382Y-58147380D01*
X87537763Y-58290238D01*
X87442525Y-58385476D01*
X87347287Y-58433095D01*
X87156811Y-58480714D01*
X87013953Y-58480714D01*
X86823477Y-58433095D01*
X86728239Y-58385476D01*
X86633001Y-58290238D01*
X86585382Y-58147380D01*
X86585382Y-58052142D01*
X86633001Y-57909285D01*
X86680620Y-57861666D01*
X87013953Y-57290238D02*
X86966334Y-57385476D01*
X86918715Y-57433095D01*
X86823477Y-57480714D01*
X86775858Y-57480714D01*
X86680620Y-57433095D01*
X86633001Y-57385476D01*
X86585382Y-57290238D01*
X86585382Y-57099761D01*
X86633001Y-57004523D01*
X86680620Y-56956904D01*
X86775858Y-56909285D01*
X86823477Y-56909285D01*
X86918715Y-56956904D01*
X86966334Y-57004523D01*
X87013953Y-57099761D01*
X87013953Y-57290238D01*
X87061572Y-57385476D01*
X87109191Y-57433095D01*
X87204430Y-57480714D01*
X87394906Y-57480714D01*
X87490144Y-57433095D01*
X87537763Y-57385476D01*
X87585382Y-57290238D01*
X87585382Y-57099761D01*
X87537763Y-57004523D01*
X87490144Y-56956904D01*
X87394906Y-56909285D01*
X87204430Y-56909285D01*
X87109191Y-56956904D01*
X87061572Y-57004523D01*
X87013953Y-57099761D01*
X80333334Y-116457143D02*
X80285715Y-116504762D01*
X80142858Y-116552381D01*
X80047620Y-116552381D01*
X79904762Y-116504762D01*
X79809524Y-116409524D01*
X79761905Y-116314286D01*
X79714286Y-116123810D01*
X79714286Y-115980952D01*
X79761905Y-115790476D01*
X79809524Y-115695238D01*
X79904762Y-115600000D01*
X80047620Y-115552381D01*
X80142858Y-115552381D01*
X80285715Y-115600000D01*
X80333334Y-115647619D01*
X80714286Y-115647619D02*
X80761905Y-115600000D01*
X80857143Y-115552381D01*
X81095239Y-115552381D01*
X81190477Y-115600000D01*
X81238096Y-115647619D01*
X81285715Y-115742857D01*
X81285715Y-115838095D01*
X81238096Y-115980952D01*
X80666667Y-116552381D01*
X81285715Y-116552381D01*
X83257143Y-82366666D02*
X83304762Y-82414285D01*
X83352381Y-82557142D01*
X83352381Y-82652380D01*
X83304762Y-82795238D01*
X83209524Y-82890476D01*
X83114286Y-82938095D01*
X82923810Y-82985714D01*
X82780952Y-82985714D01*
X82590476Y-82938095D01*
X82495238Y-82890476D01*
X82400000Y-82795238D01*
X82352381Y-82652380D01*
X82352381Y-82557142D01*
X82400000Y-82414285D01*
X82447619Y-82366666D01*
X82352381Y-82033333D02*
X82352381Y-81414285D01*
X82733333Y-81747619D01*
X82733333Y-81604761D01*
X82780952Y-81509523D01*
X82828571Y-81461904D01*
X82923810Y-81414285D01*
X83161905Y-81414285D01*
X83257143Y-81461904D01*
X83304762Y-81509523D01*
X83352381Y-81604761D01*
X83352381Y-81890476D01*
X83304762Y-81985714D01*
X83257143Y-82033333D01*
X72657143Y-103842857D02*
X72704762Y-103890476D01*
X72752381Y-104033333D01*
X72752381Y-104128571D01*
X72704762Y-104271429D01*
X72609524Y-104366667D01*
X72514286Y-104414286D01*
X72323810Y-104461905D01*
X72180952Y-104461905D01*
X71990476Y-104414286D01*
X71895238Y-104366667D01*
X71800000Y-104271429D01*
X71752381Y-104128571D01*
X71752381Y-104033333D01*
X71800000Y-103890476D01*
X71847619Y-103842857D01*
X72752381Y-102890476D02*
X72752381Y-103461905D01*
X72752381Y-103176191D02*
X71752381Y-103176191D01*
X71895238Y-103271429D01*
X71990476Y-103366667D01*
X72038095Y-103461905D01*
X71752381Y-102271429D02*
X71752381Y-102176190D01*
X71800000Y-102080952D01*
X71847619Y-102033333D01*
X71942857Y-101985714D01*
X72133333Y-101938095D01*
X72371429Y-101938095D01*
X72561905Y-101985714D01*
X72657143Y-102033333D01*
X72704762Y-102080952D01*
X72752381Y-102176190D01*
X72752381Y-102271429D01*
X72704762Y-102366667D01*
X72657143Y-102414286D01*
X72561905Y-102461905D01*
X72371429Y-102509524D01*
X72133333Y-102509524D01*
X71942857Y-102461905D01*
X71847619Y-102414286D01*
X71800000Y-102366667D01*
X71752381Y-102271429D01*
X74157143Y-116557143D02*
X74109524Y-116604762D01*
X73966667Y-116652381D01*
X73871429Y-116652381D01*
X73728571Y-116604762D01*
X73633333Y-116509524D01*
X73585714Y-116414286D01*
X73538095Y-116223810D01*
X73538095Y-116080952D01*
X73585714Y-115890476D01*
X73633333Y-115795238D01*
X73728571Y-115700000D01*
X73871429Y-115652381D01*
X73966667Y-115652381D01*
X74109524Y-115700000D01*
X74157143Y-115747619D01*
X75109524Y-116652381D02*
X74538095Y-116652381D01*
X74823809Y-116652381D02*
X74823809Y-115652381D01*
X74728571Y-115795238D01*
X74633333Y-115890476D01*
X74538095Y-115938095D01*
X75490476Y-115747619D02*
X75538095Y-115700000D01*
X75633333Y-115652381D01*
X75871429Y-115652381D01*
X75966667Y-115700000D01*
X76014286Y-115747619D01*
X76061905Y-115842857D01*
X76061905Y-115938095D01*
X76014286Y-116080952D01*
X75442857Y-116652381D01*
X76061905Y-116652381D01*
X69957143Y-42957143D02*
X69909524Y-43004762D01*
X69766667Y-43052381D01*
X69671429Y-43052381D01*
X69528571Y-43004762D01*
X69433333Y-42909524D01*
X69385714Y-42814286D01*
X69338095Y-42623810D01*
X69338095Y-42480952D01*
X69385714Y-42290476D01*
X69433333Y-42195238D01*
X69528571Y-42100000D01*
X69671429Y-42052381D01*
X69766667Y-42052381D01*
X69909524Y-42100000D01*
X69957143Y-42147619D01*
X70909524Y-43052381D02*
X70338095Y-43052381D01*
X70623809Y-43052381D02*
X70623809Y-42052381D01*
X70528571Y-42195238D01*
X70433333Y-42290476D01*
X70338095Y-42338095D01*
X71242857Y-42052381D02*
X71861905Y-42052381D01*
X71528571Y-42433333D01*
X71671429Y-42433333D01*
X71766667Y-42480952D01*
X71814286Y-42528571D01*
X71861905Y-42623810D01*
X71861905Y-42861905D01*
X71814286Y-42957143D01*
X71766667Y-43004762D01*
X71671429Y-43052381D01*
X71385714Y-43052381D01*
X71290476Y-43004762D01*
X71242857Y-42957143D01*
X78957143Y-94542857D02*
X79004762Y-94590476D01*
X79052381Y-94733333D01*
X79052381Y-94828571D01*
X79004762Y-94971429D01*
X78909524Y-95066667D01*
X78814286Y-95114286D01*
X78623810Y-95161905D01*
X78480952Y-95161905D01*
X78290476Y-95114286D01*
X78195238Y-95066667D01*
X78100000Y-94971429D01*
X78052381Y-94828571D01*
X78052381Y-94733333D01*
X78100000Y-94590476D01*
X78147619Y-94542857D01*
X79052381Y-93590476D02*
X79052381Y-94161905D01*
X79052381Y-93876191D02*
X78052381Y-93876191D01*
X78195238Y-93971429D01*
X78290476Y-94066667D01*
X78338095Y-94161905D01*
X78385714Y-92733333D02*
X79052381Y-92733333D01*
X78004762Y-92971429D02*
X78719048Y-93209524D01*
X78719048Y-92590476D01*
X116161905Y-95452381D02*
X116161905Y-94452381D01*
X116400000Y-94452381D01*
X116542858Y-94500000D01*
X116638096Y-94595238D01*
X116685715Y-94690476D01*
X116733334Y-94880952D01*
X116733334Y-95023810D01*
X116685715Y-95214286D01*
X116638096Y-95309524D01*
X116542858Y-95404762D01*
X116400000Y-95452381D01*
X116161905Y-95452381D01*
X117685715Y-95452381D02*
X117114286Y-95452381D01*
X117400000Y-95452381D02*
X117400000Y-94452381D01*
X117304762Y-94595238D01*
X117209524Y-94690476D01*
X117114286Y-94738095D01*
X64452381Y-57738095D02*
X63452381Y-57738095D01*
X63452381Y-57500000D01*
X63500000Y-57357142D01*
X63595238Y-57261904D01*
X63690476Y-57214285D01*
X63880952Y-57166666D01*
X64023810Y-57166666D01*
X64214286Y-57214285D01*
X64309524Y-57261904D01*
X64404762Y-57357142D01*
X64452381Y-57500000D01*
X64452381Y-57738095D01*
X63547619Y-56785714D02*
X63500000Y-56738095D01*
X63452381Y-56642857D01*
X63452381Y-56404761D01*
X63500000Y-56309523D01*
X63547619Y-56261904D01*
X63642857Y-56214285D01*
X63738095Y-56214285D01*
X63880952Y-56261904D01*
X64452381Y-56833333D01*
X64452381Y-56214285D01*
X117952381Y-86038095D02*
X116952381Y-86038095D01*
X116952381Y-85800000D01*
X117000000Y-85657142D01*
X117095238Y-85561904D01*
X117190476Y-85514285D01*
X117380952Y-85466666D01*
X117523810Y-85466666D01*
X117714286Y-85514285D01*
X117809524Y-85561904D01*
X117904762Y-85657142D01*
X117952381Y-85800000D01*
X117952381Y-86038095D01*
X116952381Y-85133333D02*
X116952381Y-84514285D01*
X117333333Y-84847619D01*
X117333333Y-84704761D01*
X117380952Y-84609523D01*
X117428571Y-84561904D01*
X117523810Y-84514285D01*
X117761905Y-84514285D01*
X117857143Y-84561904D01*
X117904762Y-84609523D01*
X117952381Y-84704761D01*
X117952381Y-84990476D01*
X117904762Y-85085714D01*
X117857143Y-85133333D01*
X62161905Y-70152381D02*
X62161905Y-69152381D01*
X62400000Y-69152381D01*
X62542858Y-69200000D01*
X62638096Y-69295238D01*
X62685715Y-69390476D01*
X62733334Y-69580952D01*
X62733334Y-69723810D01*
X62685715Y-69914286D01*
X62638096Y-70009524D01*
X62542858Y-70104762D01*
X62400000Y-70152381D01*
X62161905Y-70152381D01*
X63066667Y-69152381D02*
X63733334Y-69152381D01*
X63304762Y-70152381D01*
X61728571Y-113833333D02*
X61728571Y-114166667D01*
X62252381Y-114166667D02*
X61252381Y-114166667D01*
X61252381Y-113690476D01*
X62252381Y-112785714D02*
X62252381Y-113357143D01*
X62252381Y-113071429D02*
X61252381Y-113071429D01*
X61395238Y-113166667D01*
X61490476Y-113261905D01*
X61538095Y-113357143D01*
X48027619Y-83255238D02*
X47980000Y-83350476D01*
X47884762Y-83445714D01*
X47741905Y-83588571D01*
X47694286Y-83683810D01*
X47694286Y-83779048D01*
X47932381Y-83731429D02*
X47884762Y-83826667D01*
X47789524Y-83921905D01*
X47599048Y-83969524D01*
X47265714Y-83969524D01*
X47075238Y-83921905D01*
X46980000Y-83826667D01*
X46932381Y-83731429D01*
X46932381Y-83540952D01*
X46980000Y-83445714D01*
X47075238Y-83350476D01*
X47265714Y-83302857D01*
X47599048Y-83302857D01*
X47789524Y-83350476D01*
X47884762Y-83445714D01*
X47932381Y-83540952D01*
X47932381Y-83731429D01*
X47932381Y-82350476D02*
X47932381Y-82921905D01*
X47932381Y-82636191D02*
X46932381Y-82636191D01*
X47075238Y-82731429D01*
X47170476Y-82826667D01*
X47218095Y-82921905D01*
X48027619Y-66355238D02*
X47980000Y-66450476D01*
X47884762Y-66545714D01*
X47741905Y-66688571D01*
X47694286Y-66783810D01*
X47694286Y-66879048D01*
X47932381Y-66831429D02*
X47884762Y-66926667D01*
X47789524Y-67021905D01*
X47599048Y-67069524D01*
X47265714Y-67069524D01*
X47075238Y-67021905D01*
X46980000Y-66926667D01*
X46932381Y-66831429D01*
X46932381Y-66640952D01*
X46980000Y-66545714D01*
X47075238Y-66450476D01*
X47265714Y-66402857D01*
X47599048Y-66402857D01*
X47789524Y-66450476D01*
X47884762Y-66545714D01*
X47932381Y-66640952D01*
X47932381Y-66831429D01*
X47027619Y-66021905D02*
X46980000Y-65974286D01*
X46932381Y-65879048D01*
X46932381Y-65640952D01*
X46980000Y-65545714D01*
X47027619Y-65498095D01*
X47122857Y-65450476D01*
X47218095Y-65450476D01*
X47360952Y-65498095D01*
X47932381Y-66069524D01*
X47932381Y-65450476D01*
X60457143Y-86352381D02*
X60123809Y-85876190D01*
X59885714Y-86352381D02*
X59885714Y-85352381D01*
X60266667Y-85352381D01*
X60361905Y-85400000D01*
X60409524Y-85447619D01*
X60457143Y-85542857D01*
X60457143Y-85685714D01*
X60409524Y-85780952D01*
X60361905Y-85828571D01*
X60266667Y-85876190D01*
X59885714Y-85876190D01*
X61409524Y-86352381D02*
X60838095Y-86352381D01*
X61123809Y-86352381D02*
X61123809Y-85352381D01*
X61028571Y-85495238D01*
X60933333Y-85590476D01*
X60838095Y-85638095D01*
X61742857Y-85352381D02*
X62409524Y-85352381D01*
X61980952Y-86352381D01*
X57952381Y-53742857D02*
X57476190Y-54076191D01*
X57952381Y-54314286D02*
X56952381Y-54314286D01*
X56952381Y-53933333D01*
X57000000Y-53838095D01*
X57047619Y-53790476D01*
X57142857Y-53742857D01*
X57285714Y-53742857D01*
X57380952Y-53790476D01*
X57428571Y-53838095D01*
X57476190Y-53933333D01*
X57476190Y-54314286D01*
X56952381Y-53409524D02*
X56952381Y-52790476D01*
X57333333Y-53123810D01*
X57333333Y-52980952D01*
X57380952Y-52885714D01*
X57428571Y-52838095D01*
X57523810Y-52790476D01*
X57761905Y-52790476D01*
X57857143Y-52838095D01*
X57904762Y-52885714D01*
X57952381Y-52980952D01*
X57952381Y-53266667D01*
X57904762Y-53361905D01*
X57857143Y-53409524D01*
X57285714Y-51933333D02*
X57952381Y-51933333D01*
X56904762Y-52171429D02*
X57619048Y-52409524D01*
X57619048Y-51790476D01*
X55952381Y-73942857D02*
X55476190Y-74276191D01*
X55952381Y-74514286D02*
X54952381Y-74514286D01*
X54952381Y-74133333D01*
X55000000Y-74038095D01*
X55047619Y-73990476D01*
X55142857Y-73942857D01*
X55285714Y-73942857D01*
X55380952Y-73990476D01*
X55428571Y-74038095D01*
X55476190Y-74133333D01*
X55476190Y-74514286D01*
X54952381Y-73609524D02*
X54952381Y-72990476D01*
X55333333Y-73323810D01*
X55333333Y-73180952D01*
X55380952Y-73085714D01*
X55428571Y-73038095D01*
X55523810Y-72990476D01*
X55761905Y-72990476D01*
X55857143Y-73038095D01*
X55904762Y-73085714D01*
X55952381Y-73180952D01*
X55952381Y-73466667D01*
X55904762Y-73561905D01*
X55857143Y-73609524D01*
X54952381Y-72085714D02*
X54952381Y-72561905D01*
X55428571Y-72609524D01*
X55380952Y-72561905D01*
X55333333Y-72466667D01*
X55333333Y-72228571D01*
X55380952Y-72133333D01*
X55428571Y-72085714D01*
X55523810Y-72038095D01*
X55761905Y-72038095D01*
X55857143Y-72085714D01*
X55904762Y-72133333D01*
X55952381Y-72228571D01*
X55952381Y-72466667D01*
X55904762Y-72561905D01*
X55857143Y-72609524D01*
X92652381Y-92161905D02*
X93461905Y-92161905D01*
X93557143Y-92114286D01*
X93604762Y-92066667D01*
X93652381Y-91971429D01*
X93652381Y-91780952D01*
X93604762Y-91685714D01*
X93557143Y-91638095D01*
X93461905Y-91590476D01*
X92652381Y-91590476D01*
X92747619Y-91161905D02*
X92700000Y-91114286D01*
X92652381Y-91019048D01*
X92652381Y-90780952D01*
X92700000Y-90685714D01*
X92747619Y-90638095D01*
X92842857Y-90590476D01*
X92938095Y-90590476D01*
X93080952Y-90638095D01*
X93652381Y-91209524D01*
X93652381Y-90590476D01*
X74828095Y-89282381D02*
X74828095Y-90091905D01*
X74875714Y-90187143D01*
X74923333Y-90234762D01*
X75018571Y-90282381D01*
X75209048Y-90282381D01*
X75304286Y-90234762D01*
X75351905Y-90187143D01*
X75399524Y-90091905D01*
X75399524Y-89282381D01*
X76304286Y-89615714D02*
X76304286Y-90282381D01*
X76066190Y-89234762D02*
X75828095Y-89949048D01*
X76447143Y-89949048D01*
X107452381Y-89166666D02*
X106976190Y-89500000D01*
X107452381Y-89738095D02*
X106452381Y-89738095D01*
X106452381Y-89357142D01*
X106500000Y-89261904D01*
X106547619Y-89214285D01*
X106642857Y-89166666D01*
X106785714Y-89166666D01*
X106880952Y-89214285D01*
X106928571Y-89261904D01*
X106976190Y-89357142D01*
X106976190Y-89738095D01*
X106547619Y-88785714D02*
X106500000Y-88738095D01*
X106452381Y-88642857D01*
X106452381Y-88404761D01*
X106500000Y-88309523D01*
X106547619Y-88261904D01*
X106642857Y-88214285D01*
X106738095Y-88214285D01*
X106880952Y-88261904D01*
X107452381Y-88833333D01*
X107452381Y-88214285D01*
X86333334Y-108552381D02*
X86000000Y-108076190D01*
X85761905Y-108552381D02*
X85761905Y-107552381D01*
X86142858Y-107552381D01*
X86238096Y-107600000D01*
X86285715Y-107647619D01*
X86333334Y-107742857D01*
X86333334Y-107885714D01*
X86285715Y-107980952D01*
X86238096Y-108028571D01*
X86142858Y-108076190D01*
X85761905Y-108076190D01*
X86666667Y-107552381D02*
X87285715Y-107552381D01*
X86952381Y-107933333D01*
X87095239Y-107933333D01*
X87190477Y-107980952D01*
X87238096Y-108028571D01*
X87285715Y-108123810D01*
X87285715Y-108361905D01*
X87238096Y-108457143D01*
X87190477Y-108504762D01*
X87095239Y-108552381D01*
X86809524Y-108552381D01*
X86714286Y-108504762D01*
X86666667Y-108457143D01*
X88133334Y-99052381D02*
X87800000Y-98576190D01*
X87561905Y-99052381D02*
X87561905Y-98052381D01*
X87942858Y-98052381D01*
X88038096Y-98100000D01*
X88085715Y-98147619D01*
X88133334Y-98242857D01*
X88133334Y-98385714D01*
X88085715Y-98480952D01*
X88038096Y-98528571D01*
X87942858Y-98576190D01*
X87561905Y-98576190D01*
X89038096Y-98052381D02*
X88561905Y-98052381D01*
X88514286Y-98528571D01*
X88561905Y-98480952D01*
X88657143Y-98433333D01*
X88895239Y-98433333D01*
X88990477Y-98480952D01*
X89038096Y-98528571D01*
X89085715Y-98623810D01*
X89085715Y-98861905D01*
X89038096Y-98957143D01*
X88990477Y-99004762D01*
X88895239Y-99052381D01*
X88657143Y-99052381D01*
X88561905Y-99004762D01*
X88514286Y-98957143D01*
X82952381Y-73866666D02*
X82476190Y-74200000D01*
X82952381Y-74438095D02*
X81952381Y-74438095D01*
X81952381Y-74057142D01*
X82000000Y-73961904D01*
X82047619Y-73914285D01*
X82142857Y-73866666D01*
X82285714Y-73866666D01*
X82380952Y-73914285D01*
X82428571Y-73961904D01*
X82476190Y-74057142D01*
X82476190Y-74438095D01*
X81952381Y-73009523D02*
X81952381Y-73200000D01*
X82000000Y-73295238D01*
X82047619Y-73342857D01*
X82190476Y-73438095D01*
X82380952Y-73485714D01*
X82761905Y-73485714D01*
X82857143Y-73438095D01*
X82904762Y-73390476D01*
X82952381Y-73295238D01*
X82952381Y-73104761D01*
X82904762Y-73009523D01*
X82857143Y-72961904D01*
X82761905Y-72914285D01*
X82523810Y-72914285D01*
X82428571Y-72961904D01*
X82380952Y-73009523D01*
X82333333Y-73104761D01*
X82333333Y-73295238D01*
X82380952Y-73390476D01*
X82428571Y-73438095D01*
X82523810Y-73485714D01*
X76957143Y-99052381D02*
X76623809Y-98576190D01*
X76385714Y-99052381D02*
X76385714Y-98052381D01*
X76766667Y-98052381D01*
X76861905Y-98100000D01*
X76909524Y-98147619D01*
X76957143Y-98242857D01*
X76957143Y-98385714D01*
X76909524Y-98480952D01*
X76861905Y-98528571D01*
X76766667Y-98576190D01*
X76385714Y-98576190D01*
X77909524Y-99052381D02*
X77338095Y-99052381D01*
X77623809Y-99052381D02*
X77623809Y-98052381D01*
X77528571Y-98195238D01*
X77433333Y-98290476D01*
X77338095Y-98338095D01*
X78528571Y-98052381D02*
X78623810Y-98052381D01*
X78719048Y-98100000D01*
X78766667Y-98147619D01*
X78814286Y-98242857D01*
X78861905Y-98433333D01*
X78861905Y-98671429D01*
X78814286Y-98861905D01*
X78766667Y-98957143D01*
X78719048Y-99004762D01*
X78623810Y-99052381D01*
X78528571Y-99052381D01*
X78433333Y-99004762D01*
X78385714Y-98957143D01*
X78338095Y-98861905D01*
X78290476Y-98671429D01*
X78290476Y-98433333D01*
X78338095Y-98242857D01*
X78385714Y-98147619D01*
X78433333Y-98100000D01*
X78528571Y-98052381D01*
X83557143Y-105252381D02*
X83223809Y-104776190D01*
X82985714Y-105252381D02*
X82985714Y-104252381D01*
X83366667Y-104252381D01*
X83461905Y-104300000D01*
X83509524Y-104347619D01*
X83557143Y-104442857D01*
X83557143Y-104585714D01*
X83509524Y-104680952D01*
X83461905Y-104728571D01*
X83366667Y-104776190D01*
X82985714Y-104776190D01*
X84509524Y-105252381D02*
X83938095Y-105252381D01*
X84223809Y-105252381D02*
X84223809Y-104252381D01*
X84128571Y-104395238D01*
X84033333Y-104490476D01*
X83938095Y-104538095D01*
X85461905Y-105252381D02*
X84890476Y-105252381D01*
X85176190Y-105252381D02*
X85176190Y-104252381D01*
X85080952Y-104395238D01*
X84985714Y-104490476D01*
X84890476Y-104538095D01*
X86452381Y-74342857D02*
X85976190Y-74676191D01*
X86452381Y-74914286D02*
X85452381Y-74914286D01*
X85452381Y-74533333D01*
X85500000Y-74438095D01*
X85547619Y-74390476D01*
X85642857Y-74342857D01*
X85785714Y-74342857D01*
X85880952Y-74390476D01*
X85928571Y-74438095D01*
X85976190Y-74533333D01*
X85976190Y-74914286D01*
X86452381Y-73390476D02*
X86452381Y-73961905D01*
X86452381Y-73676191D02*
X85452381Y-73676191D01*
X85595238Y-73771429D01*
X85690476Y-73866667D01*
X85738095Y-73961905D01*
X85452381Y-73057143D02*
X85452381Y-72438095D01*
X85833333Y-72771429D01*
X85833333Y-72628571D01*
X85880952Y-72533333D01*
X85928571Y-72485714D01*
X86023810Y-72438095D01*
X86261905Y-72438095D01*
X86357143Y-72485714D01*
X86404762Y-72533333D01*
X86452381Y-72628571D01*
X86452381Y-72914286D01*
X86404762Y-73009524D01*
X86357143Y-73057143D01*
X83357143Y-102552381D02*
X83023809Y-102076190D01*
X82785714Y-102552381D02*
X82785714Y-101552381D01*
X83166667Y-101552381D01*
X83261905Y-101600000D01*
X83309524Y-101647619D01*
X83357143Y-101742857D01*
X83357143Y-101885714D01*
X83309524Y-101980952D01*
X83261905Y-102028571D01*
X83166667Y-102076190D01*
X82785714Y-102076190D01*
X84309524Y-102552381D02*
X83738095Y-102552381D01*
X84023809Y-102552381D02*
X84023809Y-101552381D01*
X83928571Y-101695238D01*
X83833333Y-101790476D01*
X83738095Y-101838095D01*
X85214286Y-101552381D02*
X84738095Y-101552381D01*
X84690476Y-102028571D01*
X84738095Y-101980952D01*
X84833333Y-101933333D01*
X85071429Y-101933333D01*
X85166667Y-101980952D01*
X85214286Y-102028571D01*
X85261905Y-102123810D01*
X85261905Y-102361905D01*
X85214286Y-102457143D01*
X85166667Y-102504762D01*
X85071429Y-102552381D01*
X84833333Y-102552381D01*
X84738095Y-102504762D01*
X84690476Y-102457143D01*
X71357143Y-93152381D02*
X71023809Y-92676190D01*
X70785714Y-93152381D02*
X70785714Y-92152381D01*
X71166667Y-92152381D01*
X71261905Y-92200000D01*
X71309524Y-92247619D01*
X71357143Y-92342857D01*
X71357143Y-92485714D01*
X71309524Y-92580952D01*
X71261905Y-92628571D01*
X71166667Y-92676190D01*
X70785714Y-92676190D01*
X72309524Y-93152381D02*
X71738095Y-93152381D01*
X72023809Y-93152381D02*
X72023809Y-92152381D01*
X71928571Y-92295238D01*
X71833333Y-92390476D01*
X71738095Y-92438095D01*
X73166667Y-92152381D02*
X72976190Y-92152381D01*
X72880952Y-92200000D01*
X72833333Y-92247619D01*
X72738095Y-92390476D01*
X72690476Y-92580952D01*
X72690476Y-92961905D01*
X72738095Y-93057143D01*
X72785714Y-93104762D01*
X72880952Y-93152381D01*
X73071429Y-93152381D01*
X73166667Y-93104762D01*
X73214286Y-93057143D01*
X73261905Y-92961905D01*
X73261905Y-92723810D01*
X73214286Y-92628571D01*
X73166667Y-92580952D01*
X73071429Y-92533333D01*
X72880952Y-92533333D01*
X72785714Y-92580952D01*
X72738095Y-92628571D01*
X72690476Y-92723810D01*
X75857143Y-108152381D02*
X75523809Y-107676190D01*
X75285714Y-108152381D02*
X75285714Y-107152381D01*
X75666667Y-107152381D01*
X75761905Y-107200000D01*
X75809524Y-107247619D01*
X75857143Y-107342857D01*
X75857143Y-107485714D01*
X75809524Y-107580952D01*
X75761905Y-107628571D01*
X75666667Y-107676190D01*
X75285714Y-107676190D01*
X76238095Y-107247619D02*
X76285714Y-107200000D01*
X76380952Y-107152381D01*
X76619048Y-107152381D01*
X76714286Y-107200000D01*
X76761905Y-107247619D01*
X76809524Y-107342857D01*
X76809524Y-107438095D01*
X76761905Y-107580952D01*
X76190476Y-108152381D01*
X76809524Y-108152381D01*
X77428571Y-107152381D02*
X77523810Y-107152381D01*
X77619048Y-107200000D01*
X77666667Y-107247619D01*
X77714286Y-107342857D01*
X77761905Y-107533333D01*
X77761905Y-107771429D01*
X77714286Y-107961905D01*
X77666667Y-108057143D01*
X77619048Y-108104762D01*
X77523810Y-108152381D01*
X77428571Y-108152381D01*
X77333333Y-108104762D01*
X77285714Y-108057143D01*
X77238095Y-107961905D01*
X77190476Y-107771429D01*
X77190476Y-107533333D01*
X77238095Y-107342857D01*
X77285714Y-107247619D01*
X77333333Y-107200000D01*
X77428571Y-107152381D01*
X110552381Y-89442857D02*
X110076190Y-89776191D01*
X110552381Y-90014286D02*
X109552381Y-90014286D01*
X109552381Y-89633333D01*
X109600000Y-89538095D01*
X109647619Y-89490476D01*
X109742857Y-89442857D01*
X109885714Y-89442857D01*
X109980952Y-89490476D01*
X110028571Y-89538095D01*
X110076190Y-89633333D01*
X110076190Y-90014286D01*
X109647619Y-89061905D02*
X109600000Y-89014286D01*
X109552381Y-88919048D01*
X109552381Y-88680952D01*
X109600000Y-88585714D01*
X109647619Y-88538095D01*
X109742857Y-88490476D01*
X109838095Y-88490476D01*
X109980952Y-88538095D01*
X110552381Y-89109524D01*
X110552381Y-88490476D01*
X110552381Y-87538095D02*
X110552381Y-88109524D01*
X110552381Y-87823810D02*
X109552381Y-87823810D01*
X109695238Y-87919048D01*
X109790476Y-88014286D01*
X109838095Y-88109524D01*
X79257143Y-67052381D02*
X78923809Y-66576190D01*
X78685714Y-67052381D02*
X78685714Y-66052381D01*
X79066667Y-66052381D01*
X79161905Y-66100000D01*
X79209524Y-66147619D01*
X79257143Y-66242857D01*
X79257143Y-66385714D01*
X79209524Y-66480952D01*
X79161905Y-66528571D01*
X79066667Y-66576190D01*
X78685714Y-66576190D01*
X79638095Y-66147619D02*
X79685714Y-66100000D01*
X79780952Y-66052381D01*
X80019048Y-66052381D01*
X80114286Y-66100000D01*
X80161905Y-66147619D01*
X80209524Y-66242857D01*
X80209524Y-66338095D01*
X80161905Y-66480952D01*
X79590476Y-67052381D01*
X80209524Y-67052381D01*
X80590476Y-66147619D02*
X80638095Y-66100000D01*
X80733333Y-66052381D01*
X80971429Y-66052381D01*
X81066667Y-66100000D01*
X81114286Y-66147619D01*
X81161905Y-66242857D01*
X81161905Y-66338095D01*
X81114286Y-66480952D01*
X80542857Y-67052381D01*
X81161905Y-67052381D01*
X69057143Y-66952381D02*
X68723809Y-66476190D01*
X68485714Y-66952381D02*
X68485714Y-65952381D01*
X68866667Y-65952381D01*
X68961905Y-66000000D01*
X69009524Y-66047619D01*
X69057143Y-66142857D01*
X69057143Y-66285714D01*
X69009524Y-66380952D01*
X68961905Y-66428571D01*
X68866667Y-66476190D01*
X68485714Y-66476190D01*
X69438095Y-66047619D02*
X69485714Y-66000000D01*
X69580952Y-65952381D01*
X69819048Y-65952381D01*
X69914286Y-66000000D01*
X69961905Y-66047619D01*
X70009524Y-66142857D01*
X70009524Y-66238095D01*
X69961905Y-66380952D01*
X69390476Y-66952381D01*
X70009524Y-66952381D01*
X70342857Y-65952381D02*
X70961905Y-65952381D01*
X70628571Y-66333333D01*
X70771429Y-66333333D01*
X70866667Y-66380952D01*
X70914286Y-66428571D01*
X70961905Y-66523810D01*
X70961905Y-66761905D01*
X70914286Y-66857143D01*
X70866667Y-66904762D01*
X70771429Y-66952381D01*
X70485714Y-66952381D01*
X70390476Y-66904762D01*
X70342857Y-66857143D01*
X97457143Y-75752381D02*
X97123809Y-75276190D01*
X96885714Y-75752381D02*
X96885714Y-74752381D01*
X97266667Y-74752381D01*
X97361905Y-74800000D01*
X97409524Y-74847619D01*
X97457143Y-74942857D01*
X97457143Y-75085714D01*
X97409524Y-75180952D01*
X97361905Y-75228571D01*
X97266667Y-75276190D01*
X96885714Y-75276190D01*
X97838095Y-74847619D02*
X97885714Y-74800000D01*
X97980952Y-74752381D01*
X98219048Y-74752381D01*
X98314286Y-74800000D01*
X98361905Y-74847619D01*
X98409524Y-74942857D01*
X98409524Y-75038095D01*
X98361905Y-75180952D01*
X97790476Y-75752381D01*
X98409524Y-75752381D01*
X99266667Y-75085714D02*
X99266667Y-75752381D01*
X99028571Y-74704762D02*
X98790476Y-75419048D01*
X99409524Y-75419048D01*
X126657143Y-69352381D02*
X126323809Y-68876190D01*
X126085714Y-69352381D02*
X126085714Y-68352381D01*
X126466667Y-68352381D01*
X126561905Y-68400000D01*
X126609524Y-68447619D01*
X126657143Y-68542857D01*
X126657143Y-68685714D01*
X126609524Y-68780952D01*
X126561905Y-68828571D01*
X126466667Y-68876190D01*
X126085714Y-68876190D01*
X126990476Y-68352381D02*
X127609524Y-68352381D01*
X127276190Y-68733333D01*
X127419048Y-68733333D01*
X127514286Y-68780952D01*
X127561905Y-68828571D01*
X127609524Y-68923810D01*
X127609524Y-69161905D01*
X127561905Y-69257143D01*
X127514286Y-69304762D01*
X127419048Y-69352381D01*
X127133333Y-69352381D01*
X127038095Y-69304762D01*
X126990476Y-69257143D01*
X127942857Y-68352381D02*
X128561905Y-68352381D01*
X128228571Y-68733333D01*
X128371429Y-68733333D01*
X128466667Y-68780952D01*
X128514286Y-68828571D01*
X128561905Y-68923810D01*
X128561905Y-69161905D01*
X128514286Y-69257143D01*
X128466667Y-69304762D01*
X128371429Y-69352381D01*
X128085714Y-69352381D01*
X127990476Y-69304762D01*
X127942857Y-69257143D01*
X126957143Y-100552381D02*
X126623809Y-100076190D01*
X126385714Y-100552381D02*
X126385714Y-99552381D01*
X126766667Y-99552381D01*
X126861905Y-99600000D01*
X126909524Y-99647619D01*
X126957143Y-99742857D01*
X126957143Y-99885714D01*
X126909524Y-99980952D01*
X126861905Y-100028571D01*
X126766667Y-100076190D01*
X126385714Y-100076190D01*
X127290476Y-99552381D02*
X127909524Y-99552381D01*
X127576190Y-99933333D01*
X127719048Y-99933333D01*
X127814286Y-99980952D01*
X127861905Y-100028571D01*
X127909524Y-100123810D01*
X127909524Y-100361905D01*
X127861905Y-100457143D01*
X127814286Y-100504762D01*
X127719048Y-100552381D01*
X127433333Y-100552381D01*
X127338095Y-100504762D01*
X127290476Y-100457143D01*
X128766667Y-99552381D02*
X128576190Y-99552381D01*
X128480952Y-99600000D01*
X128433333Y-99647619D01*
X128338095Y-99790476D01*
X128290476Y-99980952D01*
X128290476Y-100361905D01*
X128338095Y-100457143D01*
X128385714Y-100504762D01*
X128480952Y-100552381D01*
X128671429Y-100552381D01*
X128766667Y-100504762D01*
X128814286Y-100457143D01*
X128861905Y-100361905D01*
X128861905Y-100123810D01*
X128814286Y-100028571D01*
X128766667Y-99980952D01*
X128671429Y-99933333D01*
X128480952Y-99933333D01*
X128385714Y-99980952D01*
X128338095Y-100028571D01*
X128290476Y-100123810D01*
X62657143Y-76752381D02*
X62323809Y-76276190D01*
X62085714Y-76752381D02*
X62085714Y-75752381D01*
X62466667Y-75752381D01*
X62561905Y-75800000D01*
X62609524Y-75847619D01*
X62657143Y-75942857D01*
X62657143Y-76085714D01*
X62609524Y-76180952D01*
X62561905Y-76228571D01*
X62466667Y-76276190D01*
X62085714Y-76276190D01*
X63609524Y-76752381D02*
X63038095Y-76752381D01*
X63323809Y-76752381D02*
X63323809Y-75752381D01*
X63228571Y-75895238D01*
X63133333Y-75990476D01*
X63038095Y-76038095D01*
X64085714Y-76752381D02*
X64276190Y-76752381D01*
X64371429Y-76704762D01*
X64419048Y-76657143D01*
X64514286Y-76514286D01*
X64561905Y-76323810D01*
X64561905Y-75942857D01*
X64514286Y-75847619D01*
X64466667Y-75800000D01*
X64371429Y-75752381D01*
X64180952Y-75752381D01*
X64085714Y-75800000D01*
X64038095Y-75847619D01*
X63990476Y-75942857D01*
X63990476Y-76180952D01*
X64038095Y-76276190D01*
X64085714Y-76323810D01*
X64180952Y-76371429D01*
X64371429Y-76371429D01*
X64466667Y-76323810D01*
X64514286Y-76276190D01*
X64561905Y-76180952D01*
X44657143Y-54442857D02*
X44704762Y-54490476D01*
X44752381Y-54633333D01*
X44752381Y-54728571D01*
X44704762Y-54871429D01*
X44609524Y-54966667D01*
X44514286Y-55014286D01*
X44323810Y-55061905D01*
X44180952Y-55061905D01*
X43990476Y-55014286D01*
X43895238Y-54966667D01*
X43800000Y-54871429D01*
X43752381Y-54728571D01*
X43752381Y-54633333D01*
X43800000Y-54490476D01*
X43847619Y-54442857D01*
X44752381Y-53490476D02*
X44752381Y-54061905D01*
X44752381Y-53776191D02*
X43752381Y-53776191D01*
X43895238Y-53871429D01*
X43990476Y-53966667D01*
X44038095Y-54061905D01*
X43752381Y-52585714D02*
X43752381Y-53061905D01*
X44228571Y-53109524D01*
X44180952Y-53061905D01*
X44133333Y-52966667D01*
X44133333Y-52728571D01*
X44180952Y-52633333D01*
X44228571Y-52585714D01*
X44323810Y-52538095D01*
X44561905Y-52538095D01*
X44657143Y-52585714D01*
X44704762Y-52633333D01*
X44752381Y-52728571D01*
X44752381Y-52966667D01*
X44704762Y-53061905D01*
X44657143Y-53109524D01*
X55757143Y-92257143D02*
X55709524Y-92304762D01*
X55566667Y-92352381D01*
X55471429Y-92352381D01*
X55328571Y-92304762D01*
X55233333Y-92209524D01*
X55185714Y-92114286D01*
X55138095Y-91923810D01*
X55138095Y-91780952D01*
X55185714Y-91590476D01*
X55233333Y-91495238D01*
X55328571Y-91400000D01*
X55471429Y-91352381D01*
X55566667Y-91352381D01*
X55709524Y-91400000D01*
X55757143Y-91447619D01*
X56709524Y-92352381D02*
X56138095Y-92352381D01*
X56423809Y-92352381D02*
X56423809Y-91352381D01*
X56328571Y-91495238D01*
X56233333Y-91590476D01*
X56138095Y-91638095D01*
X57566667Y-91352381D02*
X57376190Y-91352381D01*
X57280952Y-91400000D01*
X57233333Y-91447619D01*
X57138095Y-91590476D01*
X57090476Y-91780952D01*
X57090476Y-92161905D01*
X57138095Y-92257143D01*
X57185714Y-92304762D01*
X57280952Y-92352381D01*
X57471429Y-92352381D01*
X57566667Y-92304762D01*
X57614286Y-92257143D01*
X57661905Y-92161905D01*
X57661905Y-91923810D01*
X57614286Y-91828571D01*
X57566667Y-91780952D01*
X57471429Y-91733333D01*
X57280952Y-91733333D01*
X57185714Y-91780952D01*
X57138095Y-91828571D01*
X57090476Y-91923810D01*
X65852381Y-95242857D02*
X65376190Y-95576191D01*
X65852381Y-95814286D02*
X64852381Y-95814286D01*
X64852381Y-95433333D01*
X64900000Y-95338095D01*
X64947619Y-95290476D01*
X65042857Y-95242857D01*
X65185714Y-95242857D01*
X65280952Y-95290476D01*
X65328571Y-95338095D01*
X65376190Y-95433333D01*
X65376190Y-95814286D01*
X64852381Y-94909524D02*
X64852381Y-94290476D01*
X65233333Y-94623810D01*
X65233333Y-94480952D01*
X65280952Y-94385714D01*
X65328571Y-94338095D01*
X65423810Y-94290476D01*
X65661905Y-94290476D01*
X65757143Y-94338095D01*
X65804762Y-94385714D01*
X65852381Y-94480952D01*
X65852381Y-94766667D01*
X65804762Y-94861905D01*
X65757143Y-94909524D01*
X64852381Y-93957143D02*
X64852381Y-93290476D01*
X65852381Y-93719048D01*
X55261905Y-33452381D02*
X55261905Y-32452381D01*
X55500000Y-32452381D01*
X55642858Y-32500000D01*
X55738096Y-32595238D01*
X55785715Y-32690476D01*
X55833334Y-32880952D01*
X55833334Y-33023810D01*
X55785715Y-33214286D01*
X55738096Y-33309524D01*
X55642858Y-33404762D01*
X55500000Y-33452381D01*
X55261905Y-33452381D01*
X56690477Y-32785714D02*
X56690477Y-33452381D01*
X56452381Y-32404762D02*
X56214286Y-33119048D01*
X56833334Y-33119048D01*
X93356905Y-102419380D02*
X93356905Y-101419380D01*
X93595000Y-101419380D01*
X93737858Y-101466999D01*
X93833096Y-101562237D01*
X93880715Y-101657475D01*
X93928334Y-101847951D01*
X93928334Y-101990809D01*
X93880715Y-102181285D01*
X93833096Y-102276523D01*
X93737858Y-102371761D01*
X93595000Y-102419380D01*
X93356905Y-102419380D01*
X94499762Y-101847951D02*
X94404524Y-101800332D01*
X94356905Y-101752713D01*
X94309286Y-101657475D01*
X94309286Y-101609856D01*
X94356905Y-101514618D01*
X94404524Y-101466999D01*
X94499762Y-101419380D01*
X94690239Y-101419380D01*
X94785477Y-101466999D01*
X94833096Y-101514618D01*
X94880715Y-101609856D01*
X94880715Y-101657475D01*
X94833096Y-101752713D01*
X94785477Y-101800332D01*
X94690239Y-101847951D01*
X94499762Y-101847951D01*
X94404524Y-101895570D01*
X94356905Y-101943189D01*
X94309286Y-102038428D01*
X94309286Y-102228904D01*
X94356905Y-102324142D01*
X94404524Y-102371761D01*
X94499762Y-102419380D01*
X94690239Y-102419380D01*
X94785477Y-102371761D01*
X94833096Y-102324142D01*
X94880715Y-102228904D01*
X94880715Y-102038428D01*
X94833096Y-101943189D01*
X94785477Y-101895570D01*
X94690239Y-101847951D01*
M02*
