M48
;DRILL file {KiCad 4.0.7} date 08/30/22 18:32:51
;FORMAT={-:-/ absolute / inch / decimal}
FMAT,2
INCH,TZ
T1C0.016
T2C0.031
T3C0.039
T4C0.043
T5C0.047
T6C0.059
T7C0.060
T8C0.071
T9C0.120
%
G90
G05
M72
T1
X3.8484Y-4.4606
X3.9311Y-4.3917
X4.2411Y-3.2244
X4.25Y-3.2776
X4.253Y-3.187
X4.3809Y-3.2776
X4.3839Y-3.2362
X4.3927Y-3.1929
X4.8307Y-2.1496
X4.9685Y-2.1535
T2
X1.7362Y-3.4331
X1.9331Y-3.4331
X2.0343Y-1.252
X2.1307Y-1.3815
X2.2165Y-2.7618
X2.2244Y-1.6575
X2.2244Y-2.1575
X2.2736Y-2.8819
X2.2736Y-3.3819
X2.3276Y-1.3815
X2.3343Y-1.252
X2.3878Y-3.5492
X2.3878Y-3.7461
X2.4134Y-3.0354
X2.4134Y-3.3354
X2.5197Y-3.0433
X2.5591Y-3.2323
X2.5591Y-3.3323
X2.5591Y-3.4323
X2.5984Y-2.622
X2.7047Y-3.5787
X2.7047Y-3.7756
X2.7165Y-2.7618
X2.7165Y-3.0433
X2.778Y-4.2744
X2.7799Y-4.0201
X2.7815Y-3.8878
X2.8091Y-3.6161
X2.8169Y-3.752
X2.826Y-2.7449
X2.826Y-2.8449
X2.826Y-2.9449
X2.826Y-3.0449
X2.826Y-3.1449
X2.826Y-3.2449
X2.826Y-3.3449
X2.826Y-3.4449
X2.8984Y-2.622
X2.9882Y-2.622
X3.0138Y-3.752
X3.035Y-1.3169
X3.035Y-1.5138
X3.078Y-4.2744
X3.0799Y-4.0201
X3.0815Y-3.8878
X3.1091Y-3.6161
X3.126Y-2.7449
X3.126Y-2.8449
X3.126Y-2.9449
X3.126Y-3.0449
X3.126Y-3.1449
X3.126Y-3.2449
X3.126Y-3.3449
X3.126Y-3.4449
X3.1783Y-4.1516
X3.1803Y-4.0197
X3.185Y-4.2669
X3.185Y-4.5669
X3.2244Y-3.5846
X3.2244Y-3.7815
X3.252Y-2.7402
X3.252Y-3.0402
X3.2598Y-3.1378
X3.2598Y-3.3346
X3.2882Y-2.622
X3.33Y-4.96
X3.3327Y-4.3386
X3.3465Y-3.8839
X3.3858Y-2.7433
X3.3858Y-3.0433
X3.4311Y-4.3386
X3.4783Y-4.1516
X3.4803Y-4.0197
X3.5465Y-2.6291
X3.5465Y-2.826
X3.5591Y-4.3209
X3.63Y-4.96
X3.6378Y-4.1417
X3.6465Y-3.8839
X3.7118Y-2.9134
X3.7126Y-4.0118
X3.7283Y-3.1949
X3.7291Y-3.3209
X3.7409Y-4.9291
X3.7512Y-3.8839
X3.7591Y-3.4606
X3.7591Y-3.7606
X3.8409Y-4.9291
X3.8591Y-3.4606
X3.8591Y-3.7606
X3.8591Y-4.3209
X3.9094Y-4.0118
X3.9378Y-4.1417
X3.9409Y-4.9291
X3.9591Y-3.4606
X3.9591Y-3.7606
X4.0118Y-2.9134
X4.0283Y-3.1949
X4.0291Y-3.3209
X4.0512Y-3.8839
X4.0512Y-4.0669
X4.0512Y-4.3669
X4.0543Y-2.2638
X4.0543Y-2.5638
X4.0591Y-3.4606
X4.0591Y-3.7606
X4.1138Y-4.9295
X4.1543Y-2.2638
X4.1543Y-2.5638
X4.1673Y-3.8701
X4.1673Y-4.0669
X4.1949Y-3.4232
X4.1949Y-3.7232
X4.2087Y-4.3661
X4.2543Y-2.2638
X4.2543Y-2.5638
X4.2756Y-1.6102
X4.278Y-1.4819
X4.2931Y-2.69
X4.2972Y-3.8327
X4.2972Y-4.1327
X4.3071Y-4.3661
X4.3248Y-3.376
X4.3248Y-3.676
X4.3543Y-2.2638
X4.3543Y-2.5638
X4.4138Y-4.9295
X4.4528Y-3.378
X4.4528Y-3.678
X4.4543Y-2.2638
X4.4543Y-2.5638
X4.4547Y-1.8583
X4.49Y-2.69
X4.5146Y-2.0354
X4.5543Y-2.2638
X4.5543Y-2.5638
X4.5756Y-1.6102
X4.578Y-1.4819
X4.5831Y-2.7
X4.5941Y-3.915
X4.5969Y-3.7831
X4.6516Y-1.8583
X4.6543Y-2.2638
X4.6543Y-2.5638
X4.7024Y-3.6358
X4.7067Y-2.0354
X4.7382Y-1.8602
X4.751Y-2.8356
X4.752Y-3.0984
X4.752Y-3.3583
X4.7522Y-2.9685
X4.7543Y-2.2638
X4.7543Y-2.5638
X4.7551Y-3.2283
X4.7551Y-3.4843
X4.78Y-2.7
X4.8543Y-2.2638
X4.8543Y-2.5638
X4.874Y-1.4409
X4.874Y-1.6378
X4.88Y-2.71
X4.8941Y-3.915
X4.8969Y-3.7831
X4.8992Y-3.6358
X4.935Y-1.8602
X4.9543Y-2.2638
X4.9543Y-2.5638
X5.051Y-2.8356
X5.052Y-3.0984
X5.052Y-3.3583
X5.0522Y-2.9685
X5.0543Y-2.2638
X5.0543Y-2.5638
X5.0551Y-3.2283
X5.0551Y-3.4843
X5.0689Y-4.026
X5.0748Y-1.6693
X5.0748Y-1.9693
X5.1142Y-1.374
X5.1142Y-1.5118
X5.1543Y-2.2638
X5.1543Y-2.5638
X5.1644Y-2.8169
X5.1644Y-3.0138
X5.1654Y-3.0965
X5.1654Y-3.2933
X5.1654Y-3.378
X5.1654Y-3.5748
X5.1665Y-3.6642
X5.1665Y-3.861
X5.1689Y-4.026
X5.18Y-2.71
X5.189Y-1.6693
X5.189Y-1.9693
X5.2126Y-2.1378
X5.2543Y-2.2638
X5.2543Y-2.5638
X5.2689Y-4.026
X5.2923Y-3.4872
X5.2923Y-3.7872
X5.3543Y-2.2638
X5.3543Y-2.5638
X5.4094Y-2.1378
T3
X1.8465Y-3.7961
X1.8465Y-3.8961
X1.8465Y-3.9961
X2.0386Y-1.7059
X2.0386Y-1.9028
X2.0531Y-2.4791
X2.0531Y-2.5791
X2.0531Y-2.6791
X3.622Y-4.7008
X3.722Y-4.7008
X3.822Y-4.7008
X3.922Y-4.7008
X4.022Y-4.7008
X4.122Y-4.7008
X4.222Y-4.7008
X4.322Y-4.7008
X4.3236Y-2.9134
X4.3236Y-3.0134
X4.3346Y-1.3346
X4.422Y-4.7008
X4.4236Y-2.9134
X4.4236Y-3.0134
X4.4346Y-1.3346
X4.522Y-4.7008
X4.5236Y-2.9134
X4.5236Y-3.0134
X4.5346Y-1.3346
X4.622Y-4.7008
X4.722Y-4.7008
X4.822Y-4.7008
X4.922Y-4.7008
X5.022Y-4.7008
X5.122Y-4.7008
X5.3898Y-1.6606
X5.3898Y-1.7606
X5.3898Y-1.8606
X5.3898Y-1.9606
T4
X2.0276Y-3.9067
X2.0276Y-4.2067
X2.0787Y-4.8031
X2.0787Y-4.9803
X2.3346Y-4.8031
X2.3346Y-4.9803
X2.4961Y-4.8031
X2.4961Y-4.9803
X2.752Y-4.8031
X2.752Y-4.9803
X2.7799Y-4.1535
X2.9055Y-4.8031
X2.9055Y-4.9803
X3.0799Y-4.1535
X3.1614Y-4.8031
X3.1614Y-4.9803
X4.4232Y-4.0701
X4.4232Y-4.2118
X4.6024Y-3.2106
X4.6024Y-3.5106
X4.7232Y-4.0701
X4.7232Y-4.2118
T5
X2.0866Y-2.9933
X2.0866Y-3.7933
X3.2362Y-1.685
X3.5591Y-2.9449
X3.5591Y-3.7449
X4.0362Y-1.685
X4.9921Y-4.2047
X5.0906Y-4.4031
X5.189Y-4.2047
T6
X2.0386Y-1.5898
X2.0386Y-1.8043
X2.0386Y-2.0189
T7
X1.878Y-4.435
X1.878Y-4.635
X3.2209Y-1.4071
X3.4209Y-1.4071
X3.6512Y-1.4071
X3.8512Y-1.4071
X4.0453Y-1.9862
X4.2453Y-1.9862
T8
X2.4197Y-3.9961
X2.4197Y-4.2913
X2.4276Y-2.0295
X2.4276Y-2.5295
X2.5157Y-1.5157
X2.811Y-1.5157
X2.8272Y-2.1669
X3.2209Y-2.1669
T9
X1.8033Y-1.3392
X1.8033Y-4.9392
X5.4233Y-1.3392
X5.4233Y-4.9392
T6
X2.215Y-4.5807G85X2.215Y-4.6004
G05
X2.3606Y-4.5807G85X2.3606Y-4.6004
G05
X2.5083Y-4.5807G85X2.5083Y-4.6004
G05
X2.6638Y-4.5807G85X2.6638Y-4.6004
G05
T0
M30
