G04 #@! TF.FileFunction,Soldermask,Bot*
%FSLAX46Y46*%
G04 Gerber Fmt 4.6, Leading zero omitted, Abs format (unit mm)*
G04 Created by KiCad (PCBNEW 4.0.7) date 03/11/21 19:21:47*
%MOMM*%
%LPD*%
G01*
G04 APERTURE LIST*
%ADD10C,0.100000*%
%ADD11C,2.000000*%
%ADD12O,2.000000X2.000000*%
%ADD13R,3.400000X3.400000*%
%ADD14C,3.400000*%
%ADD15C,2.800000*%
%ADD16O,2.800000X2.800000*%
%ADD17C,1.920000*%
%ADD18R,1.920000X1.920000*%
%ADD19R,2.000000X2.000000*%
%ADD20R,2.100000X2.100000*%
%ADD21O,2.100000X2.100000*%
%ADD22R,3.900000X3.900000*%
%ADD23R,2.200000X2.200000*%
%ADD24O,2.200000X2.200000*%
%ADD25C,4.464000*%
%ADD26C,1.900000*%
%ADD27R,2.600000X2.600000*%
%ADD28O,2.600000X2.600000*%
%ADD29C,2.400000*%
%ADD30C,2.900000*%
%ADD31R,2.800000X2.800000*%
%ADD32R,3.000000X3.000000*%
%ADD33O,3.000000X3.000000*%
%ADD34O,2.150000X3.900000*%
%ADD35O,2.400000X3.900000*%
%ADD36R,2.400000X2.400000*%
G04 APERTURE END LIST*
D10*
D11*
X113100000Y-99700000D03*
D12*
X120720000Y-99700000D03*
D13*
X85300000Y-35900000D03*
D14*
X90380000Y-35900000D03*
D15*
X82200000Y-42800000D03*
D16*
X102520000Y-42800000D03*
D11*
X56500000Y-54800000D03*
D12*
X56500000Y-42100000D03*
D17*
X65000000Y-84640000D03*
X65000000Y-87180000D03*
D18*
X65000000Y-82100000D03*
D11*
X95600000Y-98600000D03*
X100600000Y-98600000D03*
X95400000Y-81200000D03*
D12*
X103020000Y-81200000D03*
D19*
X129900000Y-38400000D03*
D11*
X129900000Y-34900000D03*
D19*
X128900000Y-42400000D03*
D12*
X128900000Y-50020000D03*
D20*
X114900000Y-74000000D03*
D21*
X114900000Y-76540000D03*
X112360000Y-74000000D03*
X112360000Y-76540000D03*
X109820000Y-74000000D03*
X109820000Y-76540000D03*
D11*
X131800000Y-42400000D03*
D12*
X131800000Y-50020000D03*
D19*
X136000000Y-57500000D03*
D12*
X102980000Y-65120000D03*
X133460000Y-57500000D03*
X105520000Y-65120000D03*
X130920000Y-57500000D03*
X108060000Y-65120000D03*
X128380000Y-57500000D03*
X110600000Y-65120000D03*
X125840000Y-57500000D03*
X113140000Y-65120000D03*
X123300000Y-57500000D03*
X115680000Y-65120000D03*
X120760000Y-57500000D03*
X118220000Y-65120000D03*
X118220000Y-57500000D03*
X120760000Y-65120000D03*
X115680000Y-57500000D03*
X123300000Y-65120000D03*
X113140000Y-57500000D03*
X125840000Y-65120000D03*
X110600000Y-57500000D03*
X128380000Y-65120000D03*
X108060000Y-57500000D03*
X130920000Y-65120000D03*
X105520000Y-57500000D03*
X133460000Y-65120000D03*
X102980000Y-57500000D03*
X136000000Y-65120000D03*
D22*
X50200000Y-115400000D03*
X44200000Y-115400000D03*
X47200000Y-120100000D03*
D23*
X47700000Y-101500000D03*
D24*
X47700000Y-98960000D03*
X47700000Y-96420000D03*
D25*
X45804000Y-34016000D03*
X137752000Y-34016000D03*
X137752000Y-125456000D03*
X45804000Y-125456000D03*
D20*
X136900000Y-49800000D03*
D21*
X136900000Y-47260000D03*
X136900000Y-44720000D03*
X136900000Y-42180000D03*
D26*
X117400000Y-51800000D03*
X112520000Y-51800000D03*
D27*
X52000000Y-105400000D03*
D28*
X52000000Y-97780000D03*
D13*
X95500000Y-35900000D03*
D14*
X100580000Y-35900000D03*
D29*
X59300000Y-122000000D03*
X59300000Y-126500000D03*
X52800000Y-122000000D03*
X52800000Y-126500000D03*
X69900000Y-122000000D03*
X69900000Y-126500000D03*
X63400000Y-122000000D03*
X63400000Y-126500000D03*
X80300000Y-122000000D03*
X80300000Y-126500000D03*
X73800000Y-122000000D03*
X73800000Y-126500000D03*
X71100000Y-55300000D03*
X81100000Y-55300000D03*
D11*
X102900000Y-84500000D03*
D12*
X95280000Y-84500000D03*
D11*
X124000000Y-96800000D03*
D12*
X131620000Y-96800000D03*
D11*
X87600000Y-124500000D03*
D12*
X95220000Y-124500000D03*
D15*
X90400000Y-74800000D03*
D16*
X90400000Y-95120000D03*
D11*
X128400000Y-88500000D03*
D12*
X120780000Y-88500000D03*
D11*
X128400000Y-82000000D03*
D12*
X120780000Y-82000000D03*
D11*
X128500000Y-75400000D03*
D12*
X120880000Y-75400000D03*
D11*
X120700000Y-85300000D03*
D12*
X128320000Y-85300000D03*
D11*
X120700000Y-78700000D03*
D12*
X128320000Y-78700000D03*
D11*
X120900000Y-72000000D03*
D12*
X128520000Y-72000000D03*
D30*
X129300000Y-111140000D03*
X126800000Y-106100000D03*
X131800000Y-106100000D03*
D20*
X88600000Y-119400000D03*
D21*
X91140000Y-119400000D03*
X93680000Y-119400000D03*
X96220000Y-119400000D03*
X98760000Y-119400000D03*
X101300000Y-119400000D03*
X103840000Y-119400000D03*
X106380000Y-119400000D03*
X108920000Y-119400000D03*
X111460000Y-119400000D03*
X114000000Y-119400000D03*
X116540000Y-119400000D03*
X119080000Y-119400000D03*
X121620000Y-119400000D03*
X124160000Y-119400000D03*
X126700000Y-119400000D03*
D11*
X108600000Y-40900000D03*
D12*
X116220000Y-40900000D03*
D14*
X98210000Y-70620000D03*
X98210000Y-55380000D03*
X91860000Y-70620000D03*
X91860000Y-55380000D03*
D11*
X79000000Y-95300000D03*
X74000000Y-95300000D03*
X131600000Y-86900000D03*
X131600000Y-91900000D03*
X131700000Y-79700000D03*
X131700000Y-84700000D03*
X131700000Y-72400000D03*
X131700000Y-77400000D03*
X81400000Y-38100000D03*
X76400000Y-38100000D03*
X69000000Y-77300000D03*
X64000000Y-77300000D03*
X124500000Y-47300000D03*
X119500000Y-47300000D03*
X116100000Y-68300000D03*
X121100000Y-68300000D03*
X123800000Y-41600000D03*
X123800000Y-36600000D03*
X117200000Y-47300000D03*
X112200000Y-47300000D03*
X123600000Y-92000000D03*
X128600000Y-92000000D03*
X49100000Y-87200000D03*
X44100000Y-87200000D03*
X137400000Y-54300000D03*
X132400000Y-54300000D03*
D23*
X110100000Y-33900000D03*
D24*
X112640000Y-33900000D03*
X115180000Y-33900000D03*
D11*
X108600000Y-37900000D03*
D12*
X116220000Y-37900000D03*
D11*
X87100000Y-55200000D03*
X87100000Y-60200000D03*
D19*
X80500000Y-112400000D03*
D11*
X80500000Y-114900000D03*
X82800000Y-79700000D03*
X82800000Y-84700000D03*
D19*
X74700000Y-112400000D03*
D11*
X74700000Y-114900000D03*
D31*
X71400000Y-38500000D03*
D15*
X63900000Y-38500000D03*
D11*
X82800000Y-94400000D03*
X82800000Y-89400000D03*
D32*
X64000000Y-50600000D03*
D33*
X64000000Y-63300000D03*
D34*
X63550000Y-113500000D03*
D35*
X67500000Y-113500000D03*
D34*
X59800000Y-113500000D03*
D35*
X56100000Y-113500000D03*
D23*
X52100000Y-64900000D03*
D24*
X52100000Y-62360000D03*
X52100000Y-59820000D03*
D23*
X52100000Y-48200000D03*
D24*
X52100000Y-45660000D03*
X52100000Y-43120000D03*
D11*
X59200000Y-69700000D03*
D12*
X59200000Y-82400000D03*
D15*
X52900000Y-94300000D03*
D16*
X52900000Y-73980000D03*
D19*
X103100000Y-87900000D03*
D12*
X95480000Y-95520000D03*
X100560000Y-87900000D03*
X98020000Y-95520000D03*
X98020000Y-87900000D03*
X100560000Y-95520000D03*
X95480000Y-87900000D03*
X103100000Y-95520000D03*
D19*
X79400000Y-87500000D03*
D12*
X71780000Y-69720000D03*
X79400000Y-84960000D03*
X71780000Y-72260000D03*
X79400000Y-82420000D03*
X71780000Y-74800000D03*
X79400000Y-79880000D03*
X71780000Y-77340000D03*
X79400000Y-77340000D03*
X71780000Y-79880000D03*
X79400000Y-74800000D03*
X71780000Y-82420000D03*
X79400000Y-72260000D03*
X71780000Y-84960000D03*
X79400000Y-69720000D03*
X71780000Y-87500000D03*
D11*
X106800000Y-85200000D03*
D12*
X106800000Y-92820000D03*
D11*
X82500000Y-109000000D03*
D12*
X90120000Y-109000000D03*
D11*
X92000000Y-98500000D03*
D12*
X84380000Y-98500000D03*
D11*
X82600000Y-69600000D03*
D12*
X82600000Y-77220000D03*
D11*
X73700000Y-98700000D03*
D12*
X81320000Y-98700000D03*
D11*
X73800000Y-101900000D03*
D12*
X81420000Y-101900000D03*
D11*
X86000000Y-77300000D03*
D12*
X86000000Y-69680000D03*
D11*
X97200000Y-102300000D03*
D12*
X89580000Y-102300000D03*
D11*
X71900000Y-91900000D03*
D12*
X79520000Y-91900000D03*
D11*
X80100000Y-109000000D03*
D12*
X72480000Y-109000000D03*
D11*
X110100000Y-85200000D03*
D12*
X110100000Y-92820000D03*
D11*
X75900000Y-66600000D03*
D12*
X83520000Y-66600000D03*
D11*
X66000000Y-66600000D03*
D12*
X73620000Y-66600000D03*
D11*
X102900000Y-76000000D03*
D12*
X95280000Y-76000000D03*
D11*
X130900000Y-68800000D03*
D12*
X123280000Y-68800000D03*
D11*
X123900000Y-100100000D03*
D12*
X131520000Y-100100000D03*
D11*
X63300000Y-66900000D03*
D12*
X55680000Y-66900000D03*
D36*
X58900000Y-104000000D03*
D29*
X58900000Y-99000000D03*
D11*
X58000000Y-91600000D03*
X58000000Y-86600000D03*
X65400000Y-91100000D03*
D12*
X65400000Y-98720000D03*
D11*
X68700000Y-107400000D03*
D12*
X68700000Y-99780000D03*
D27*
X73800000Y-105400000D03*
D28*
X81420000Y-105400000D03*
D11*
X76300000Y-34900000D03*
X81300000Y-34900000D03*
D29*
X74600000Y-31700000D03*
D11*
X69200000Y-91000000D03*
X69200000Y-96000000D03*
X56700000Y-36200000D03*
X51700000Y-36200000D03*
X58200000Y-33100000D03*
D12*
X50580000Y-33100000D03*
D27*
X120700000Y-96400000D03*
D28*
X113080000Y-96400000D03*
D27*
X117300000Y-88900000D03*
D28*
X117300000Y-81280000D03*
D27*
X120800000Y-92700000D03*
D28*
X113180000Y-92700000D03*
M02*
