M48
;DRILL file {KiCad 4.0.7} date 02/14/23 08:48:36
;FORMAT={-:-/ absolute / inch / decimal}
FMAT,2
INCH,TZ
T1C0.016
T2C0.031
T3C0.039
T4C0.043
T5C0.047
T6C0.059
T7C0.060
T8C0.071
T9C0.120
%
G90
G05
M72
T1
X3.7094Y-4.6169
X3.7228Y-4.4776
X3.9039Y-4.3815
X4.026Y-4.389
X4.5161Y-2.4976
X4.5894Y-4.7071
X4.7177Y-4.6429
X4.9685Y-2.1535
X5.0402Y-2.4736
X5.0579Y-4.6906
X5.1039Y-2.5035
X5.3957Y-2.674
T2
X1.7362Y-3.4331
X1.9331Y-3.4331
X2.0331Y-4.81
X2.0331Y-4.94
X2.0343Y-1.252
X2.1307Y-1.3815
X2.2165Y-2.7618
X2.2244Y-1.6575
X2.2244Y-2.1575
X2.23Y-4.81
X2.23Y-4.94
X2.2736Y-2.8819
X2.2736Y-3.3819
X2.32Y-4.81
X2.32Y-4.94
X2.3276Y-1.3815
X2.3343Y-1.252
X2.3878Y-3.5492
X2.3878Y-3.7461
X2.4134Y-3.0354
X2.4134Y-3.3354
X2.5197Y-3.0433
X2.5591Y-3.2323
X2.5591Y-3.3323
X2.5591Y-3.4323
X2.5984Y-2.622
X2.62Y-4.81
X2.62Y-4.94
X2.7047Y-3.5787
X2.7047Y-3.7756
X2.7165Y-2.7618
X2.7165Y-3.0433
X2.778Y-4.2744
X2.7799Y-4.0201
X2.7815Y-3.8878
X2.8091Y-3.6161
X2.8169Y-3.752
X2.826Y-2.7449
X2.826Y-2.8449
X2.826Y-2.9449
X2.826Y-3.0449
X2.826Y-3.1449
X2.826Y-3.2449
X2.826Y-3.3449
X2.826Y-3.4449
X2.8984Y-2.622
X2.9327Y-4.4673
X2.9327Y-4.6642
X2.9882Y-2.622
X3.0138Y-3.752
X3.035Y-1.3169
X3.035Y-1.5138
X3.078Y-4.2744
X3.0799Y-4.0201
X3.0815Y-3.8878
X3.1091Y-3.6161
X3.126Y-2.7449
X3.126Y-2.8449
X3.126Y-2.9449
X3.126Y-3.0449
X3.126Y-3.1449
X3.126Y-3.2449
X3.126Y-3.3449
X3.126Y-3.4449
X3.18Y-4.
X3.18Y-4.13
X3.2244Y-3.5846
X3.2244Y-3.7815
X3.252Y-2.7402
X3.252Y-3.0402
X3.2598Y-3.1378
X3.2598Y-3.3346
X3.2882Y-2.622
X3.3316Y-4.31
X3.35Y-3.87
X3.38Y-3.45
X3.38Y-3.75
X3.3858Y-2.7433
X3.3858Y-3.0433
X3.43Y-4.31
X3.48Y-4.
X3.48Y-4.13
X3.53Y-4.49
X3.53Y-4.79
X3.5465Y-2.6291
X3.5465Y-2.826
X3.5591Y-4.3209
X3.6378Y-4.1417
X3.65Y-3.87
X3.66Y-4.49
X3.66Y-4.79
X3.7118Y-2.9134
X3.7126Y-4.0118
X3.7283Y-3.1949
X3.7291Y-3.3209
X3.7512Y-3.8839
X3.7591Y-3.4606
X3.7591Y-3.7606
X3.8591Y-3.4606
X3.8591Y-3.7606
X3.8591Y-4.3209
X3.9094Y-4.0118
X3.9378Y-4.1417
X3.9591Y-3.4606
X3.9591Y-3.7606
X4.0118Y-2.9134
X4.0283Y-3.1949
X4.0291Y-3.3209
X4.0457Y-4.0272
X4.0457Y-4.3272
X4.0512Y-3.8839
X4.0543Y-2.2638
X4.0543Y-2.5638
X4.0591Y-3.4606
X4.0591Y-3.7606
X4.1543Y-2.2638
X4.1543Y-2.5638
X4.1673Y-3.8701
X4.1673Y-4.0669
X4.1909Y-4.8016
X4.1925Y-3.4441
X4.1925Y-3.7441
X4.2016Y-4.3
X4.2543Y-2.2638
X4.2543Y-2.5638
X4.2756Y-1.6102
X4.278Y-1.4819
X4.2931Y-2.69
X4.2972Y-3.8327
X4.2972Y-4.1327
X4.3Y-4.3
X4.35Y-3.38
X4.35Y-3.68
X4.3543Y-2.2638
X4.3543Y-2.5638
X4.3878Y-4.8016
X4.4248Y-4.3606
X4.4543Y-2.2638
X4.4543Y-2.5638
X4.4547Y-1.8583
X4.4728Y-3.378
X4.4728Y-3.678
X4.49Y-2.69
X4.5146Y-2.0354
X4.5543Y-2.2638
X4.5543Y-2.5638
X4.56Y-4.51
X4.56Y-4.81
X4.5756Y-1.6102
X4.578Y-1.4819
X4.5831Y-2.7
X4.5929Y-3.7102
X4.5937Y-3.8378
X4.6217Y-4.3606
X4.6516Y-1.8583
X4.6543Y-2.2638
X4.6543Y-2.5638
X4.69Y-4.51
X4.69Y-4.81
X4.7067Y-2.0354
X4.7382Y-1.8602
X4.7386Y-3.0161
X4.7386Y-3.213
X4.7543Y-2.2638
X4.7543Y-2.5638
X4.78Y-2.7
X4.82Y-4.51
X4.82Y-4.81
X4.8543Y-2.2638
X4.8543Y-2.5638
X4.874Y-1.4409
X4.874Y-1.6378
X4.88Y-2.71
X4.8929Y-3.7102
X4.8937Y-3.8378
X4.9217Y-2.865
X4.9217Y-3.165
X4.9217Y-3.2579
X4.9217Y-3.3579
X4.9217Y-3.4579
X4.935Y-1.8602
X4.95Y-4.51
X4.95Y-4.81
X4.9543Y-2.2638
X4.9543Y-2.5638
X5.0205Y-3.5618
X5.0205Y-3.7587
X5.0543Y-2.2638
X5.0543Y-2.5638
X5.0701Y-4.2512
X5.0728Y-4.1173
X5.0748Y-1.6693
X5.0748Y-1.9693
X5.1Y-2.86
X5.1Y-3.16
X5.1142Y-1.374
X5.1142Y-1.5118
X5.13Y-3.26
X5.13Y-3.36
X5.13Y-3.46
X5.1543Y-2.2638
X5.1543Y-2.5638
X5.16Y-3.56
X5.16Y-3.7569
X5.18Y-2.71
X5.189Y-1.6693
X5.189Y-1.9693
X5.2126Y-2.1378
X5.2543Y-2.2638
X5.2543Y-2.5638
X5.3543Y-2.2638
X5.3543Y-2.5638
X5.3701Y-4.2512
X5.3728Y-4.1173
X5.4094Y-2.1378
X5.4331Y-4.3701
X5.4331Y-4.6701
T3
X1.8465Y-3.7961
X1.8465Y-3.8961
X1.8465Y-3.9961
X2.0386Y-1.7059
X2.0386Y-1.9028
X2.0531Y-2.4791
X2.0531Y-2.5791
X2.0531Y-2.6791
X3.622Y-4.9409
X3.722Y-4.9409
X3.822Y-4.9409
X3.922Y-4.9409
X4.022Y-4.9409
X4.122Y-4.9409
X4.222Y-4.9409
X4.322Y-4.9409
X4.3236Y-2.9134
X4.3236Y-3.0134
X4.3346Y-1.3346
X4.422Y-4.9409
X4.4236Y-2.9134
X4.4236Y-3.0134
X4.4346Y-1.3346
X4.522Y-4.9409
X4.5236Y-2.9134
X4.5236Y-3.0134
X4.5346Y-1.3346
X4.622Y-4.9409
X4.722Y-4.9409
X4.822Y-4.9409
X4.922Y-4.9409
X5.022Y-4.9409
X5.122Y-4.9409
X5.3898Y-1.6606
X5.3898Y-1.7606
X5.3898Y-1.8606
X5.3898Y-1.9606
T4
X2.0276Y-3.9067
X2.0276Y-4.2067
X2.7341Y-4.7828
X2.7341Y-4.96
X2.7799Y-4.1535
X2.99Y-4.7828
X2.99Y-4.96
X3.0799Y-4.1535
X3.11Y-4.49
X3.11Y-4.6672
X3.1141Y-4.7828
X3.1141Y-4.96
X3.3659Y-4.49
X3.3659Y-4.6672
X3.37Y-4.7828
X3.37Y-4.96
X3.79Y-4.5
X3.79Y-4.6772
X4.0459Y-4.5
X4.0459Y-4.6772
X4.17Y-4.5
X4.17Y-4.6772
X4.4259Y-4.5
X4.4259Y-4.6772
X4.4484Y-3.9819
X4.4508Y-4.1205
X4.6024Y-3.2106
X4.6024Y-3.5106
X4.7484Y-3.9819
X4.7508Y-4.1205
T5
X2.0866Y-2.9933
X2.0866Y-3.7933
X3.2362Y-1.685
X3.5591Y-2.9449
X3.5591Y-3.7449
X4.0362Y-1.685
X5.1016Y-4.4816
X5.3Y-4.3831
X5.3Y-4.58
T6
X2.0386Y-1.5898
X2.0386Y-1.8043
X2.0386Y-2.0189
T7
X1.878Y-4.435
X1.878Y-4.635
X3.2209Y-1.4071
X3.4209Y-1.4071
X3.6512Y-1.4071
X3.8512Y-1.4071
X4.0453Y-1.9862
X4.2453Y-1.9862
T8
X2.4197Y-3.9961
X2.4197Y-4.2913
X2.4276Y-2.0295
X2.4276Y-2.5295
X2.5157Y-1.5157
X2.811Y-1.5157
X2.8272Y-2.1669
X3.2209Y-2.1669
T9
X1.8033Y-1.3392
X1.8033Y-4.9392
X5.4233Y-1.3392
X5.4233Y-4.9392
T6
X2.215Y-4.5807G85X2.215Y-4.6004
G05
X2.3606Y-4.5807G85X2.3606Y-4.6004
G05
X2.5083Y-4.5807G85X2.5083Y-4.6004
G05
X2.6638Y-4.5807G85X2.6638Y-4.6004
G05
T0
M30
