M48
;DRILL file {KiCad 4.0.7} date 03/23/21 01:17:20
;FORMAT={-:-/ absolute / metric / decimal}
FMAT,2
METRIC,TZ
T1C0.400
T2C0.800
T3C1.000
T4C1.100
T5C1.200
T6C1.300
T7C1.500
T8C1.520
T9C3.048
%
G90
G05
M71
T1
X97.75Y-113.3
X99.85Y-111.55
X100.4Y-62.4
X101.4Y-68.5
X105.4Y-62.7
X122.7Y-54.6
X126.2Y-54.7
T2
X44.1Y-87.2
X49.1Y-87.2
X50.58Y-33.1
X51.7Y-36.2
X56.3Y-70.15
X56.5Y-42.1
X56.5Y-54.8
X56.7Y-36.2
X57.75Y-73.2
X57.75Y-85.9
X58.2Y-33.1
X60.65Y-90.15
X60.65Y-95.15
X61.3Y-77.1
X61.3Y-84.72
X64.Y-77.3
X65.Y-82.1
X65.Y-84.64
X65.Y-87.18
X66.Y-66.6
X68.7Y-90.9
X68.7Y-95.9
X69.Y-70.15
X69.Y-77.3
X69.65Y-101.95
X69.68Y-108.55
X70.65Y-98.75
X71.35Y-91.85
X71.55Y-95.3
X71.78Y-69.72
X71.78Y-72.26
X71.78Y-74.8
X71.78Y-77.34
X71.78Y-79.88
X71.78Y-82.42
X71.78Y-84.96
X71.78Y-87.5
X73.62Y-66.6
X75.9Y-66.6
X76.3Y-34.9
X76.4Y-38.1
X76.55Y-95.3
X77.27Y-101.95
X77.3Y-108.55
X78.27Y-98.75
X78.97Y-91.85
X79.4Y-69.72
X79.4Y-72.26
X79.4Y-74.8
X79.4Y-77.34
X79.4Y-79.88
X79.4Y-82.42
X79.4Y-84.96
X79.4Y-87.5
X80.73Y-105.45
X80.78Y-102.1
X80.9Y-108.38
X80.9Y-116.
X81.3Y-34.9
X81.4Y-38.1
X81.9Y-91.05
X81.9Y-96.05
X82.6Y-69.6
X82.6Y-77.22
X82.8Y-79.7
X82.8Y-84.7
X83.52Y-66.6
X84.65Y-110.2
X85.Y-98.65
X86.Y-69.68
X86.Y-77.3
X87.1Y-55.2
X87.1Y-60.2
X87.15Y-110.2
X87.6Y-124.5
X88.35Y-105.45
X88.4Y-102.1
X90.4Y-109.75
X92.62Y-98.65
X93.45Y-105.9
X94.3Y-101.9
X94.68Y-84.4
X94.7Y-81.15
X95.22Y-124.5
X95.28Y-76.
X95.28Y-98.65
X95.48Y-87.9
X95.48Y-95.52
X98.02Y-87.9
X98.02Y-95.52
X98.02Y-109.75
X99.3Y-101.9
X100.56Y-87.9
X100.56Y-95.52
X101.07Y-105.9
X102.3Y-84.4
X102.32Y-81.15
X102.9Y-76.
X102.9Y-98.65
X102.98Y-57.5
X102.98Y-65.12
X103.1Y-87.9
X103.1Y-95.52
X104.95Y-108.2
X104.95Y-110.7
X105.52Y-57.5
X105.52Y-65.12
X105.85Y-98.3
X105.85Y-103.3
X106.55Y-86.95
X106.55Y-94.57
X108.06Y-57.5
X108.06Y-65.12
X108.6Y-37.9
X108.6Y-40.9
X109.15Y-97.35
X109.15Y-104.97
X109.85Y-85.75
X109.85Y-93.37
X110.6Y-57.5
X110.6Y-65.12
X112.2Y-47.3
X112.52Y-51.8
X112.95Y-100.2
X113.1Y-85.8
X113.1Y-93.42
X113.14Y-57.5
X113.14Y-65.12
X115.68Y-57.5
X115.68Y-65.12
X116.1Y-68.3
X116.22Y-37.9
X116.22Y-40.9
X117.2Y-47.3
X117.4Y-51.8
X118.22Y-57.5
X118.22Y-65.12
X119.5Y-47.3
X120.57Y-100.2
X120.7Y-78.7
X120.7Y-85.3
X120.76Y-57.5
X120.76Y-65.12
X120.78Y-82.
X120.78Y-88.5
X120.88Y-75.4
X120.9Y-72.
X121.1Y-68.3
X123.28Y-68.8
X123.3Y-57.5
X123.3Y-65.12
X123.35Y-92.05
X123.8Y-36.6
X123.8Y-41.6
X124.Y-96.45
X124.Y-99.85
X124.5Y-47.3
X125.84Y-57.5
X125.84Y-65.12
X128.32Y-78.7
X128.32Y-85.3
X128.35Y-92.05
X128.38Y-57.5
X128.38Y-65.12
X128.4Y-82.
X128.4Y-88.5
X128.5Y-75.4
X128.52Y-72.
X128.9Y-42.4
X128.9Y-50.02
X129.9Y-34.9
X129.9Y-38.4
X130.9Y-68.8
X130.92Y-57.5
X130.92Y-65.12
X131.6Y-86.9
X131.6Y-91.9
X131.62Y-96.45
X131.62Y-99.85
X131.7Y-72.4
X131.7Y-77.4
X131.7Y-79.7
X131.7Y-84.7
X131.8Y-42.4
X131.8Y-50.02
X132.4Y-54.3
X133.46Y-57.5
X133.46Y-65.12
X136.Y-57.5
X136.Y-65.12
X137.4Y-54.3
T3
X47.7Y-96.42
X47.7Y-98.96
X47.7Y-101.5
X52.1Y-43.12
X52.1Y-45.66
X52.1Y-48.2
X52.1Y-59.82
X52.1Y-62.36
X52.1Y-64.9
X58.9Y-99.
X58.9Y-104.
X71.1Y-55.3
X74.6Y-31.7
X81.1Y-55.3
X88.6Y-119.4
X91.14Y-119.4
X93.68Y-119.4
X96.22Y-119.4
X98.76Y-119.4
X101.3Y-119.4
X103.84Y-119.4
X106.38Y-119.4
X108.92Y-119.4
X109.82Y-74.
X109.82Y-76.54
X110.1Y-33.9
X111.46Y-119.4
X112.36Y-74.
X112.36Y-76.54
X112.64Y-33.9
X114.Y-119.4
X114.9Y-74.
X114.9Y-76.54
X115.18Y-33.9
X116.54Y-119.4
X119.08Y-119.4
X121.62Y-119.4
X124.16Y-119.4
X126.7Y-119.4
X136.9Y-42.18
X136.9Y-44.72
X136.9Y-47.26
X136.9Y-49.8
T4
X52.Y-97.78
X52.Y-105.4
X52.8Y-122.
X52.8Y-126.5
X59.3Y-122.
X59.3Y-126.5
X63.4Y-122.
X63.4Y-126.5
X69.9Y-122.
X69.9Y-126.5
X70.Y-105.4
X73.8Y-122.
X73.8Y-126.5
X77.62Y-105.4
X80.3Y-122.
X80.3Y-126.5
X112.98Y-103.7
X112.98Y-107.05
X116.9Y-81.55
X116.9Y-89.17
X120.6Y-103.7
X120.6Y-107.05
T5
X52.9Y-73.98
X52.9Y-94.3
X63.9Y-38.5
X71.4Y-38.5
X82.2Y-42.8
X90.4Y-74.8
X90.4Y-95.12
X102.52Y-42.8
X126.8Y-106.1
X129.3Y-111.14
X131.8Y-106.1
T6
X63.65Y-47.4
X63.65Y-60.1
T7
X91.86Y-55.38
X91.86Y-70.62
X98.21Y-55.38
X98.21Y-70.62
T8
X85.3Y-35.9
X90.38Y-35.9
X95.5Y-35.9
X100.58Y-35.9
T9
X45.804Y-34.016
X45.804Y-125.456
X137.752Y-34.016
X137.752Y-125.456
T3
X44.2Y-114.4G85X44.2Y-116.4
G05
X46.2Y-120.1G85X48.2Y-120.1
G05
X50.2Y-114.4G85X50.2Y-116.4
G05
T7
X56.1Y-113.25G85X56.1Y-113.75
G05
X59.8Y-113.25G85X59.8Y-113.75
G05
X63.55Y-113.25G85X63.55Y-113.75
G05
X67.5Y-113.25G85X67.5Y-113.75
G05
T0
M30
