G04 #@! TF.FileFunction,Soldermask,Bot*
%FSLAX46Y46*%
G04 Gerber Fmt 4.6, Leading zero omitted, Abs format (unit mm)*
G04 Created by KiCad (PCBNEW 4.0.7) date 03/08/21 23:20:13*
%MOMM*%
%LPD*%
G01*
G04 APERTURE LIST*
%ADD10C,0.100000*%
%ADD11C,2.000000*%
%ADD12O,2.000000X2.000000*%
%ADD13R,2.000000X2.000000*%
%ADD14R,2.100000X2.100000*%
%ADD15O,2.100000X2.100000*%
%ADD16R,3.900000X3.900000*%
%ADD17R,2.200000X2.200000*%
%ADD18O,2.200000X2.200000*%
%ADD19C,4.464000*%
%ADD20C,1.900000*%
%ADD21R,2.600000X2.600000*%
%ADD22O,2.600000X2.600000*%
%ADD23R,3.400000X3.400000*%
%ADD24C,3.400000*%
%ADD25C,2.400000*%
%ADD26C,2.800000*%
%ADD27O,2.800000X2.800000*%
%ADD28C,2.900000*%
%ADD29R,2.800000X2.800000*%
%ADD30R,3.000000X3.000000*%
%ADD31O,3.000000X3.000000*%
%ADD32O,2.400000X3.900000*%
%ADD33R,2.400000X2.400000*%
G04 APERTURE END LIST*
D10*
D11*
X95600000Y-98600000D03*
X100600000Y-98600000D03*
X95400000Y-81200000D03*
D12*
X103020000Y-81200000D03*
D13*
X58100000Y-105500000D03*
D11*
X61600000Y-105500000D03*
D13*
X129900000Y-38400000D03*
D11*
X129900000Y-34900000D03*
D13*
X128900000Y-42400000D03*
D12*
X128900000Y-50020000D03*
D14*
X114900000Y-74000000D03*
D15*
X114900000Y-76540000D03*
X112360000Y-74000000D03*
X112360000Y-76540000D03*
X109820000Y-74000000D03*
X109820000Y-76540000D03*
D11*
X131800000Y-42400000D03*
D12*
X131800000Y-50020000D03*
D13*
X136000000Y-57500000D03*
D12*
X102980000Y-65120000D03*
X133460000Y-57500000D03*
X105520000Y-65120000D03*
X130920000Y-57500000D03*
X108060000Y-65120000D03*
X128380000Y-57500000D03*
X110600000Y-65120000D03*
X125840000Y-57500000D03*
X113140000Y-65120000D03*
X123300000Y-57500000D03*
X115680000Y-65120000D03*
X120760000Y-57500000D03*
X118220000Y-65120000D03*
X118220000Y-57500000D03*
X120760000Y-65120000D03*
X115680000Y-57500000D03*
X123300000Y-65120000D03*
X113140000Y-57500000D03*
X125840000Y-65120000D03*
X110600000Y-57500000D03*
X128380000Y-65120000D03*
X108060000Y-57500000D03*
X130920000Y-65120000D03*
X105520000Y-57500000D03*
X133460000Y-65120000D03*
X102980000Y-57500000D03*
X136000000Y-65120000D03*
D16*
X50200000Y-115400000D03*
X44200000Y-115400000D03*
X47200000Y-120100000D03*
D17*
X47700000Y-104100000D03*
D18*
X47700000Y-101560000D03*
X47700000Y-99020000D03*
D19*
X45804000Y-34016000D03*
X137752000Y-34016000D03*
X137752000Y-125456000D03*
X45804000Y-125456000D03*
D14*
X136900000Y-49800000D03*
D15*
X136900000Y-47260000D03*
X136900000Y-44720000D03*
X136900000Y-42180000D03*
D20*
X117400000Y-51800000D03*
X112520000Y-51800000D03*
D13*
X120700000Y-92000000D03*
D12*
X113080000Y-92000000D03*
D21*
X66800000Y-73000000D03*
D22*
X59180000Y-73000000D03*
D21*
X53800000Y-103900000D03*
D22*
X53800000Y-96280000D03*
D23*
X97100000Y-35500000D03*
D24*
X92020000Y-35500000D03*
D23*
X86400000Y-35700000D03*
D24*
X81320000Y-35700000D03*
D25*
X59300000Y-122000000D03*
X59300000Y-126500000D03*
X52800000Y-122000000D03*
X52800000Y-126500000D03*
X69900000Y-122000000D03*
X69900000Y-126500000D03*
X63400000Y-122000000D03*
X63400000Y-126500000D03*
X80300000Y-122000000D03*
X80300000Y-126500000D03*
X73800000Y-122000000D03*
X73800000Y-126500000D03*
X71100000Y-55300000D03*
X81100000Y-55300000D03*
D11*
X102900000Y-84500000D03*
D12*
X95280000Y-84500000D03*
D11*
X113000000Y-98100000D03*
D12*
X120620000Y-98100000D03*
D11*
X124000000Y-96800000D03*
D12*
X131620000Y-96800000D03*
D11*
X87600000Y-124500000D03*
D12*
X95220000Y-124500000D03*
D26*
X90400000Y-74800000D03*
D27*
X90400000Y-95120000D03*
D11*
X128400000Y-88500000D03*
D12*
X120780000Y-88500000D03*
D11*
X128400000Y-82000000D03*
D12*
X120780000Y-82000000D03*
D11*
X128500000Y-75400000D03*
D12*
X120880000Y-75400000D03*
D11*
X120700000Y-85300000D03*
D12*
X128320000Y-85300000D03*
D11*
X120700000Y-78700000D03*
D12*
X128320000Y-78700000D03*
D11*
X120900000Y-72000000D03*
D12*
X128520000Y-72000000D03*
D28*
X129300000Y-111140000D03*
X126800000Y-106100000D03*
X131800000Y-106100000D03*
D14*
X88600000Y-119400000D03*
D15*
X91140000Y-119400000D03*
X93680000Y-119400000D03*
X96220000Y-119400000D03*
X98760000Y-119400000D03*
X101300000Y-119400000D03*
X103840000Y-119400000D03*
X106380000Y-119400000D03*
X108920000Y-119400000D03*
X111460000Y-119400000D03*
X114000000Y-119400000D03*
X116540000Y-119400000D03*
X119080000Y-119400000D03*
X121620000Y-119400000D03*
X124160000Y-119400000D03*
X126700000Y-119400000D03*
D26*
X82200000Y-42800000D03*
D27*
X102520000Y-42800000D03*
D11*
X108600000Y-40900000D03*
D12*
X116220000Y-40900000D03*
D24*
X91590000Y-54580000D03*
X91590000Y-69820000D03*
X97940000Y-54580000D03*
X97940000Y-69820000D03*
D11*
X75700000Y-95800000D03*
X70700000Y-95800000D03*
X131600000Y-86900000D03*
X131600000Y-91900000D03*
X131700000Y-79700000D03*
X131700000Y-84700000D03*
X131700000Y-72400000D03*
X131700000Y-77400000D03*
X76600000Y-35100000D03*
X76600000Y-40100000D03*
X69000000Y-79400000D03*
X64000000Y-79400000D03*
X124500000Y-47300000D03*
X119500000Y-47300000D03*
X116100000Y-68300000D03*
X121100000Y-68300000D03*
X123800000Y-41600000D03*
X123800000Y-36600000D03*
X117200000Y-47300000D03*
X112200000Y-47300000D03*
X123000000Y-92000000D03*
X128000000Y-92000000D03*
X57300000Y-94900000D03*
X57300000Y-99900000D03*
X137400000Y-54300000D03*
X132400000Y-54300000D03*
D17*
X110100000Y-33900000D03*
D18*
X112640000Y-33900000D03*
X115180000Y-33900000D03*
D11*
X116300000Y-37800000D03*
D12*
X108680000Y-37800000D03*
D11*
X87100000Y-55200000D03*
X87100000Y-60200000D03*
D13*
X93600000Y-103400000D03*
D11*
X91100000Y-103400000D03*
X82800000Y-79700000D03*
X82800000Y-84700000D03*
D13*
X75800000Y-102100000D03*
D11*
X75800000Y-104600000D03*
D13*
X74700000Y-111200000D03*
D11*
X74700000Y-113700000D03*
D29*
X71400000Y-38500000D03*
D26*
X63900000Y-38500000D03*
D11*
X78600000Y-96300000D03*
X78600000Y-91300000D03*
D13*
X120700000Y-95000000D03*
D12*
X113080000Y-95000000D03*
D30*
X64000000Y-50600000D03*
D31*
X64000000Y-63300000D03*
D13*
X117400000Y-89300000D03*
D12*
X117400000Y-81680000D03*
D21*
X59100000Y-69700000D03*
D22*
X66720000Y-69700000D03*
D32*
X63550000Y-113500000D03*
X67500000Y-113500000D03*
X59800000Y-113500000D03*
X56100000Y-113500000D03*
D17*
X51100000Y-85700000D03*
D18*
X51100000Y-83160000D03*
X51100000Y-80620000D03*
D17*
X51100000Y-68800000D03*
D18*
X51100000Y-66260000D03*
X51100000Y-63720000D03*
D11*
X54700000Y-85900000D03*
D12*
X67400000Y-85900000D03*
D26*
X57600000Y-63700000D03*
D27*
X57600000Y-43380000D03*
D11*
X55600000Y-79400000D03*
D12*
X55600000Y-66700000D03*
D13*
X103100000Y-87900000D03*
D12*
X95480000Y-95520000D03*
X100560000Y-87900000D03*
X98020000Y-95520000D03*
X98020000Y-87900000D03*
X100560000Y-95520000D03*
X95480000Y-87900000D03*
X103100000Y-95520000D03*
D13*
X79400000Y-87500000D03*
D12*
X71780000Y-69720000D03*
X79400000Y-84960000D03*
X71780000Y-72260000D03*
X79400000Y-82420000D03*
X71780000Y-74800000D03*
X79400000Y-79880000D03*
X71780000Y-77340000D03*
X79400000Y-77340000D03*
X71780000Y-79880000D03*
X79400000Y-74800000D03*
X71780000Y-82420000D03*
X79400000Y-72260000D03*
X71780000Y-84960000D03*
X79400000Y-69720000D03*
X71780000Y-87500000D03*
D11*
X106800000Y-85200000D03*
D12*
X106800000Y-92820000D03*
D11*
X83700000Y-107900000D03*
D12*
X91320000Y-107900000D03*
D11*
X92000000Y-98500000D03*
D12*
X84380000Y-98500000D03*
D11*
X82600000Y-69600000D03*
D12*
X82600000Y-77220000D03*
D11*
X81300000Y-98700000D03*
D12*
X73680000Y-98700000D03*
D11*
X88000000Y-104700000D03*
D12*
X80380000Y-104700000D03*
D11*
X86000000Y-77300000D03*
D12*
X86000000Y-69680000D03*
D11*
X88000000Y-102000000D03*
D12*
X80380000Y-102000000D03*
D11*
X75700000Y-92600000D03*
D12*
X68080000Y-92600000D03*
D11*
X80100000Y-107800000D03*
D12*
X72480000Y-107800000D03*
D11*
X110100000Y-85200000D03*
D12*
X110100000Y-92820000D03*
D11*
X75900000Y-66600000D03*
D12*
X83520000Y-66600000D03*
D11*
X66000000Y-66600000D03*
D12*
X73620000Y-66600000D03*
D11*
X101900000Y-75200000D03*
D12*
X94280000Y-75200000D03*
D11*
X130900000Y-68800000D03*
D12*
X123280000Y-68800000D03*
D11*
X123900000Y-100100000D03*
D12*
X131520000Y-100100000D03*
D11*
X67100000Y-76300000D03*
D12*
X59480000Y-76300000D03*
D33*
X47600000Y-54200000D03*
D25*
X47600000Y-49200000D03*
D11*
X53800000Y-91900000D03*
X58800000Y-91900000D03*
X65400000Y-91100000D03*
D12*
X65400000Y-98720000D03*
M02*
