G04 #@! TF.FileFunction,Copper,L2,Bot,Signal*
%FSLAX46Y46*%
G04 Gerber Fmt 4.6, Leading zero omitted, Abs format (unit mm)*
G04 Created by KiCad (PCBNEW 4.0.7) date 03/09/21 00:41:04*
%MOMM*%
%LPD*%
G01*
G04 APERTURE LIST*
%ADD10C,0.100000*%
%ADD11C,1.600000*%
%ADD12O,1.600000X1.600000*%
%ADD13R,1.600000X1.600000*%
%ADD14R,1.700000X1.700000*%
%ADD15O,1.700000X1.700000*%
%ADD16R,3.500000X3.500000*%
%ADD17R,1.800000X1.800000*%
%ADD18O,1.800000X1.800000*%
%ADD19C,4.064000*%
%ADD20C,1.500000*%
%ADD21R,2.200000X2.200000*%
%ADD22O,2.200000X2.200000*%
%ADD23R,3.000000X3.000000*%
%ADD24C,3.000000*%
%ADD25C,2.000000*%
%ADD26C,2.400000*%
%ADD27O,2.400000X2.400000*%
%ADD28C,2.500000*%
%ADD29R,2.400000X2.400000*%
%ADD30R,2.600000X2.600000*%
%ADD31O,2.600000X2.600000*%
%ADD32O,2.000000X3.500000*%
%ADD33R,2.000000X2.000000*%
%ADD34C,0.600000*%
%ADD35C,0.350000*%
%ADD36C,0.500000*%
%ADD37C,2.000000*%
%ADD38C,1.000000*%
G04 APERTURE END LIST*
D10*
D11*
X95600000Y-98600000D03*
X100600000Y-98600000D03*
X95400000Y-81200000D03*
D12*
X103020000Y-81200000D03*
D13*
X58100000Y-105500000D03*
D11*
X61600000Y-105500000D03*
D13*
X129900000Y-38400000D03*
D11*
X129900000Y-34900000D03*
D13*
X128900000Y-42400000D03*
D12*
X128900000Y-50020000D03*
D14*
X114900000Y-74000000D03*
D15*
X114900000Y-76540000D03*
X112360000Y-74000000D03*
X112360000Y-76540000D03*
X109820000Y-74000000D03*
X109820000Y-76540000D03*
D11*
X131800000Y-42400000D03*
D12*
X131800000Y-50020000D03*
D13*
X136000000Y-57500000D03*
D12*
X102980000Y-65120000D03*
X133460000Y-57500000D03*
X105520000Y-65120000D03*
X130920000Y-57500000D03*
X108060000Y-65120000D03*
X128380000Y-57500000D03*
X110600000Y-65120000D03*
X125840000Y-57500000D03*
X113140000Y-65120000D03*
X123300000Y-57500000D03*
X115680000Y-65120000D03*
X120760000Y-57500000D03*
X118220000Y-65120000D03*
X118220000Y-57500000D03*
X120760000Y-65120000D03*
X115680000Y-57500000D03*
X123300000Y-65120000D03*
X113140000Y-57500000D03*
X125840000Y-65120000D03*
X110600000Y-57500000D03*
X128380000Y-65120000D03*
X108060000Y-57500000D03*
X130920000Y-65120000D03*
X105520000Y-57500000D03*
X133460000Y-65120000D03*
X102980000Y-57500000D03*
X136000000Y-65120000D03*
D16*
X50200000Y-115400000D03*
X44200000Y-115400000D03*
X47200000Y-120100000D03*
D17*
X47700000Y-104100000D03*
D18*
X47700000Y-101560000D03*
X47700000Y-99020000D03*
D19*
X45804000Y-34016000D03*
X137752000Y-34016000D03*
X137752000Y-125456000D03*
X45804000Y-125456000D03*
D14*
X136900000Y-49800000D03*
D15*
X136900000Y-47260000D03*
X136900000Y-44720000D03*
X136900000Y-42180000D03*
D20*
X117400000Y-51800000D03*
X112520000Y-51800000D03*
D13*
X120700000Y-92000000D03*
D12*
X113080000Y-92000000D03*
D21*
X66800000Y-73000000D03*
D22*
X59180000Y-73000000D03*
D21*
X53800000Y-103900000D03*
D22*
X53800000Y-96280000D03*
D23*
X97100000Y-35500000D03*
D24*
X92020000Y-35500000D03*
D23*
X86400000Y-35700000D03*
D24*
X81320000Y-35700000D03*
D25*
X59300000Y-122000000D03*
X59300000Y-126500000D03*
X52800000Y-122000000D03*
X52800000Y-126500000D03*
X69900000Y-122000000D03*
X69900000Y-126500000D03*
X63400000Y-122000000D03*
X63400000Y-126500000D03*
X80300000Y-122000000D03*
X80300000Y-126500000D03*
X73800000Y-122000000D03*
X73800000Y-126500000D03*
X71100000Y-55300000D03*
X81100000Y-55300000D03*
D11*
X102900000Y-84500000D03*
D12*
X95280000Y-84500000D03*
D11*
X113000000Y-98100000D03*
D12*
X120620000Y-98100000D03*
D11*
X124000000Y-96800000D03*
D12*
X131620000Y-96800000D03*
D11*
X87600000Y-124500000D03*
D12*
X95220000Y-124500000D03*
D26*
X90400000Y-74800000D03*
D27*
X90400000Y-95120000D03*
D11*
X128400000Y-88500000D03*
D12*
X120780000Y-88500000D03*
D11*
X128400000Y-82000000D03*
D12*
X120780000Y-82000000D03*
D11*
X128500000Y-75400000D03*
D12*
X120880000Y-75400000D03*
D11*
X120700000Y-85300000D03*
D12*
X128320000Y-85300000D03*
D11*
X120700000Y-78700000D03*
D12*
X128320000Y-78700000D03*
D11*
X120900000Y-72000000D03*
D12*
X128520000Y-72000000D03*
D28*
X129300000Y-111140000D03*
X126800000Y-106100000D03*
X131800000Y-106100000D03*
D14*
X88600000Y-119400000D03*
D15*
X91140000Y-119400000D03*
X93680000Y-119400000D03*
X96220000Y-119400000D03*
X98760000Y-119400000D03*
X101300000Y-119400000D03*
X103840000Y-119400000D03*
X106380000Y-119400000D03*
X108920000Y-119400000D03*
X111460000Y-119400000D03*
X114000000Y-119400000D03*
X116540000Y-119400000D03*
X119080000Y-119400000D03*
X121620000Y-119400000D03*
X124160000Y-119400000D03*
X126700000Y-119400000D03*
D26*
X82200000Y-42800000D03*
D27*
X102520000Y-42800000D03*
D11*
X108600000Y-40900000D03*
D12*
X116220000Y-40900000D03*
D24*
X91590000Y-54580000D03*
X91590000Y-69820000D03*
X97940000Y-54580000D03*
X97940000Y-69820000D03*
D11*
X75700000Y-95800000D03*
X70700000Y-95800000D03*
X131600000Y-86900000D03*
X131600000Y-91900000D03*
X131700000Y-79700000D03*
X131700000Y-84700000D03*
X131700000Y-72400000D03*
X131700000Y-77400000D03*
X76600000Y-35100000D03*
X76600000Y-40100000D03*
X69000000Y-79400000D03*
X64000000Y-79400000D03*
X124500000Y-47300000D03*
X119500000Y-47300000D03*
X116100000Y-68300000D03*
X121100000Y-68300000D03*
X123800000Y-41600000D03*
X123800000Y-36600000D03*
X117200000Y-47300000D03*
X112200000Y-47300000D03*
X123000000Y-92000000D03*
X128000000Y-92000000D03*
X57300000Y-94900000D03*
X57300000Y-99900000D03*
X137400000Y-54300000D03*
X132400000Y-54300000D03*
D17*
X110100000Y-33900000D03*
D18*
X112640000Y-33900000D03*
X115180000Y-33900000D03*
D11*
X116300000Y-37800000D03*
D12*
X108680000Y-37800000D03*
D11*
X87100000Y-55200000D03*
X87100000Y-60200000D03*
D13*
X80700000Y-111300000D03*
D11*
X80700000Y-113800000D03*
X82800000Y-79700000D03*
X82800000Y-84700000D03*
D13*
X75800000Y-102100000D03*
D11*
X75800000Y-104600000D03*
D13*
X74700000Y-111200000D03*
D11*
X74700000Y-113700000D03*
D29*
X71400000Y-38500000D03*
D26*
X63900000Y-38500000D03*
D11*
X78600000Y-96300000D03*
X78600000Y-91300000D03*
D13*
X120700000Y-95000000D03*
D12*
X113080000Y-95000000D03*
D30*
X64000000Y-50600000D03*
D31*
X64000000Y-63300000D03*
D13*
X117400000Y-89300000D03*
D12*
X117400000Y-81680000D03*
D21*
X59100000Y-69700000D03*
D22*
X66720000Y-69700000D03*
D32*
X63550000Y-113500000D03*
X67500000Y-113500000D03*
X59800000Y-113500000D03*
X56100000Y-113500000D03*
D17*
X51100000Y-85700000D03*
D18*
X51100000Y-83160000D03*
X51100000Y-80620000D03*
D17*
X51100000Y-68800000D03*
D18*
X51100000Y-66260000D03*
X51100000Y-63720000D03*
D11*
X54700000Y-85900000D03*
D12*
X67400000Y-85900000D03*
D26*
X57600000Y-63700000D03*
D27*
X57600000Y-43380000D03*
D11*
X55600000Y-79400000D03*
D12*
X55600000Y-66700000D03*
D13*
X103100000Y-87900000D03*
D12*
X95480000Y-95520000D03*
X100560000Y-87900000D03*
X98020000Y-95520000D03*
X98020000Y-87900000D03*
X100560000Y-95520000D03*
X95480000Y-87900000D03*
X103100000Y-95520000D03*
D13*
X79400000Y-87500000D03*
D12*
X71780000Y-69720000D03*
X79400000Y-84960000D03*
X71780000Y-72260000D03*
X79400000Y-82420000D03*
X71780000Y-74800000D03*
X79400000Y-79880000D03*
X71780000Y-77340000D03*
X79400000Y-77340000D03*
X71780000Y-79880000D03*
X79400000Y-74800000D03*
X71780000Y-82420000D03*
X79400000Y-72260000D03*
X71780000Y-84960000D03*
X79400000Y-69720000D03*
X71780000Y-87500000D03*
D11*
X106800000Y-85200000D03*
D12*
X106800000Y-92820000D03*
D11*
X82400000Y-108200000D03*
D12*
X90020000Y-108200000D03*
D11*
X92000000Y-98500000D03*
D12*
X84380000Y-98500000D03*
D11*
X82600000Y-69600000D03*
D12*
X82600000Y-77220000D03*
D11*
X81300000Y-98700000D03*
D12*
X73680000Y-98700000D03*
D11*
X88000000Y-104700000D03*
D12*
X80380000Y-104700000D03*
D11*
X86000000Y-77300000D03*
D12*
X86000000Y-69680000D03*
D11*
X88000000Y-102000000D03*
D12*
X80380000Y-102000000D03*
D11*
X75700000Y-92600000D03*
D12*
X68080000Y-92600000D03*
D11*
X80100000Y-107800000D03*
D12*
X72480000Y-107800000D03*
D11*
X110100000Y-85200000D03*
D12*
X110100000Y-92820000D03*
D11*
X75900000Y-66600000D03*
D12*
X83520000Y-66600000D03*
D11*
X66000000Y-66600000D03*
D12*
X73620000Y-66600000D03*
D11*
X101900000Y-75200000D03*
D12*
X94280000Y-75200000D03*
D11*
X130900000Y-68800000D03*
D12*
X123280000Y-68800000D03*
D11*
X123900000Y-100100000D03*
D12*
X131520000Y-100100000D03*
D11*
X67100000Y-76300000D03*
D12*
X59480000Y-76300000D03*
D33*
X47600000Y-54200000D03*
D25*
X47600000Y-49200000D03*
D11*
X53800000Y-91900000D03*
X58800000Y-91900000D03*
X65400000Y-91100000D03*
D12*
X65400000Y-98720000D03*
D21*
X59700000Y-33100000D03*
D22*
X52080000Y-33100000D03*
D13*
X90300000Y-102000000D03*
D12*
X97920000Y-102000000D03*
D34*
X126200000Y-54700000D03*
X122700000Y-54600000D03*
X105400000Y-62700000D03*
X100200000Y-62400000D03*
X101400000Y-68500000D03*
D35*
X122100000Y-96500000D02*
X122200000Y-96500000D01*
X113383403Y-88383403D02*
X117700000Y-92500000D01*
X117700000Y-92500000D02*
X117700000Y-95200000D01*
X117700000Y-95200000D02*
X118800000Y-96500000D01*
X118800000Y-96500000D02*
X122100000Y-96500000D01*
X110402858Y-88383403D02*
X113383403Y-88383403D01*
X124600000Y-70520000D02*
X123280000Y-68800000D01*
X124600000Y-93900000D02*
X124600000Y-70520000D01*
X122200000Y-96500000D02*
X124600000Y-93900000D01*
X110597839Y-88388182D02*
X110911818Y-88388182D01*
X115900000Y-83400000D02*
X117400000Y-81680000D01*
X110911818Y-88388182D02*
X115900000Y-83400000D01*
X111080000Y-88400000D02*
X110597839Y-88388182D01*
X110597839Y-88388182D02*
X110402858Y-88383403D01*
X110402858Y-88383403D02*
X107000000Y-88300000D01*
X104600000Y-78600000D02*
X101900000Y-75200000D01*
X104600000Y-86600000D02*
X104600000Y-78600000D01*
X107000000Y-88300000D02*
X104600000Y-86600000D01*
X111180000Y-88300000D02*
X111080000Y-88400000D01*
X123280000Y-68800000D02*
X123280000Y-65140000D01*
X123280000Y-65140000D02*
X123300000Y-65120000D01*
X131620000Y-96800000D02*
X128700000Y-96800000D01*
X126300000Y-66280000D02*
X125840000Y-65120000D01*
X126300000Y-95100000D02*
X126300000Y-66280000D01*
X128700000Y-96800000D02*
X126300000Y-95100000D01*
D36*
X125840000Y-65120000D02*
X125840000Y-65360000D01*
D35*
X125840000Y-65760000D02*
X125840000Y-65120000D01*
X119500000Y-47300000D02*
X119500000Y-49700000D01*
X119500000Y-49700000D02*
X117400000Y-51800000D01*
X115680000Y-57500000D02*
X115680000Y-53520000D01*
X115680000Y-53520000D02*
X117400000Y-51800000D01*
X112200000Y-47300000D02*
X112200000Y-51480000D01*
X112200000Y-51480000D02*
X112520000Y-51800000D01*
X112520000Y-51800000D02*
X112520000Y-52620000D01*
X113140000Y-53240000D02*
X113140000Y-57500000D01*
X112520000Y-52620000D02*
X113140000Y-53240000D01*
X110600000Y-65120000D02*
X110600000Y-63700000D01*
X114400000Y-63900000D02*
X114400000Y-73500000D01*
X113600000Y-63100000D02*
X114400000Y-63900000D01*
X111200000Y-63100000D02*
X113600000Y-63100000D01*
X110600000Y-63700000D02*
X111200000Y-63100000D01*
X114400000Y-73500000D02*
X114900000Y-74000000D01*
X133460000Y-57500000D02*
X133460000Y-56340000D01*
X135200000Y-48960000D02*
X136900000Y-47260000D01*
X135200000Y-52200000D02*
X135200000Y-48960000D01*
X135500000Y-52500000D02*
X135200000Y-52200000D01*
X135500000Y-54300000D02*
X135500000Y-52500000D01*
X133460000Y-56340000D02*
X135500000Y-54300000D01*
X136900000Y-47260000D02*
X136440000Y-47260000D01*
X136900000Y-49800000D02*
X136900000Y-53800000D01*
X136900000Y-53800000D02*
X137400000Y-54300000D01*
X131800000Y-50020000D02*
X131800000Y-53700000D01*
X131800000Y-53700000D02*
X132400000Y-54300000D01*
X131800000Y-50020000D02*
X128900000Y-50020000D01*
X132400000Y-54300000D02*
X126600000Y-54300000D01*
X109820000Y-72420000D02*
X106800000Y-69400000D01*
X106800000Y-69400000D02*
X106800000Y-64200000D01*
X106800000Y-64200000D02*
X111600000Y-59400000D01*
X111600000Y-59400000D02*
X118700000Y-59400000D01*
X118700000Y-59400000D02*
X119400000Y-58700000D01*
X119400000Y-58700000D02*
X119400000Y-55700000D01*
X119400000Y-55700000D02*
X119900000Y-55200000D01*
X109820000Y-74000000D02*
X109820000Y-72420000D01*
X126600000Y-54300000D02*
X126200000Y-54700000D01*
X122700000Y-54600000D02*
X122600000Y-54500000D01*
X122600000Y-54500000D02*
X120600000Y-54500000D01*
X120600000Y-54500000D02*
X119900000Y-55200000D01*
X130920000Y-57500000D02*
X130920000Y-57480000D01*
X130920000Y-57480000D02*
X134100000Y-54300000D01*
X134100000Y-54300000D02*
X134100000Y-46400000D01*
X134100000Y-46400000D02*
X135780000Y-44720000D01*
X135780000Y-44720000D02*
X136900000Y-44720000D01*
X136180000Y-44720000D02*
X136900000Y-44720000D01*
X84500000Y-113800000D02*
X87300000Y-113800000D01*
X95600000Y-105500000D02*
X95600000Y-98600000D01*
X87300000Y-113800000D02*
X95600000Y-105500000D01*
D37*
X51100000Y-66260000D02*
X46140000Y-66260000D01*
X46140000Y-66260000D02*
X46000000Y-66400000D01*
D35*
X103100000Y-95520000D02*
X103080000Y-95520000D01*
X103080000Y-95520000D02*
X101400000Y-97200000D01*
X101400000Y-97200000D02*
X95480000Y-97200000D01*
X95480000Y-95520000D02*
X95480000Y-97200000D01*
X95480000Y-97200000D02*
X95480000Y-98480000D01*
X95480000Y-98480000D02*
X95600000Y-98600000D01*
X95580000Y-98580000D02*
X95600000Y-98600000D01*
X56575106Y-88951624D02*
X57551624Y-88951624D01*
X84400000Y-113800000D02*
X84500000Y-113800000D01*
X80500000Y-117700000D02*
X84400000Y-113800000D01*
X74000000Y-117700000D02*
X80500000Y-117700000D01*
X72200000Y-115900000D02*
X74000000Y-117700000D01*
X72200000Y-110700000D02*
X72200000Y-115900000D01*
X69200000Y-107700000D02*
X72200000Y-110700000D01*
X69200000Y-104600000D02*
X69200000Y-107700000D01*
X62600000Y-98000000D02*
X69200000Y-104600000D01*
X62600000Y-94000000D02*
X62600000Y-98000000D01*
X57551624Y-88951624D02*
X62600000Y-94000000D01*
D37*
X53800000Y-91900000D02*
X46800000Y-91900000D01*
X46800000Y-91900000D02*
X46000000Y-91100000D01*
X58100000Y-105500000D02*
X58100000Y-104900000D01*
X58100000Y-104900000D02*
X57100000Y-103900000D01*
X57100000Y-103900000D02*
X53800000Y-103900000D01*
X63550000Y-113500000D02*
X63550000Y-111850000D01*
X63550000Y-111850000D02*
X58100000Y-106400000D01*
X58100000Y-106400000D02*
X58100000Y-105500000D01*
X67500000Y-113500000D02*
X63550000Y-113500000D01*
X53800000Y-103900000D02*
X49000000Y-103900000D01*
X49000000Y-103900000D02*
X47700000Y-104100000D01*
X47700000Y-104100000D02*
X44500000Y-104700000D01*
X44300000Y-92800000D02*
X46000000Y-91100000D01*
X44300000Y-104500000D02*
X44300000Y-92800000D01*
X44500000Y-104700000D02*
X44300000Y-104500000D01*
X67500000Y-82200000D02*
X67500000Y-85800000D01*
X67500000Y-85800000D02*
X67400000Y-85900000D01*
X69000000Y-80700000D02*
X69000000Y-79400000D01*
X67500000Y-82200000D02*
X69000000Y-80700000D01*
X62500000Y-82200000D02*
X67500000Y-82200000D01*
X53900000Y-92000000D02*
X56575106Y-88951624D01*
X56575106Y-88951624D02*
X57003082Y-88463930D01*
X57003082Y-88463930D02*
X62500000Y-82200000D01*
D38*
X71780000Y-77340000D02*
X71060000Y-77340000D01*
X71060000Y-77340000D02*
X69000000Y-79400000D01*
D37*
X51100000Y-80620000D02*
X47380000Y-80620000D01*
X47380000Y-80620000D02*
X46000000Y-82000000D01*
X46000000Y-91100000D02*
X46000000Y-82000000D01*
X46000000Y-82000000D02*
X46000000Y-67800000D01*
X46000000Y-67800000D02*
X46000000Y-66400000D01*
X46000000Y-66400000D02*
X46000000Y-58600000D01*
X46000000Y-58600000D02*
X47600000Y-54200000D01*
D35*
X90020000Y-108200000D02*
X89400000Y-108200000D01*
X89400000Y-108200000D02*
X86300000Y-111300000D01*
X86300000Y-111300000D02*
X80700000Y-111300000D01*
X91560000Y-107660000D02*
X90560000Y-107660000D01*
X90560000Y-107660000D02*
X90020000Y-108200000D01*
X93600000Y-103400000D02*
X93600000Y-105620000D01*
X93600000Y-105620000D02*
X91560000Y-107660000D01*
X91560000Y-107660000D02*
X91320000Y-107900000D01*
X93600000Y-103400000D02*
X93600000Y-100100000D01*
X93600000Y-100100000D02*
X92000000Y-98500000D01*
X113080000Y-95000000D02*
X108980000Y-95000000D01*
X108980000Y-95000000D02*
X106800000Y-92820000D01*
X106800000Y-92820000D02*
X94780000Y-92820000D01*
X93300000Y-96500000D02*
X92000000Y-97800000D01*
X93300000Y-94300000D02*
X93300000Y-96500000D01*
X94780000Y-92820000D02*
X93300000Y-94300000D01*
X92000000Y-97800000D02*
X92000000Y-98500000D01*
X92000000Y-98500000D02*
X92000000Y-98900000D01*
X86000000Y-77300000D02*
X85200000Y-77300000D01*
X85200000Y-77300000D02*
X82800000Y-79700000D01*
X79400000Y-77340000D02*
X80440000Y-77340000D01*
X80440000Y-77340000D02*
X82800000Y-79700000D01*
X79440000Y-77300000D02*
X79400000Y-77340000D01*
X75700000Y-92600000D02*
X75700000Y-95800000D01*
X133349998Y-91400000D02*
X133349998Y-88649998D01*
X133349998Y-88649998D02*
X131600000Y-86900000D01*
X128400000Y-88500000D02*
X130000000Y-88500000D01*
X130000000Y-88500000D02*
X131600000Y-86900000D01*
X128320000Y-85300000D02*
X128320000Y-88420000D01*
X128320000Y-88420000D02*
X128400000Y-88500000D01*
X133349998Y-99500000D02*
X133349998Y-101750002D01*
X133349998Y-99500000D02*
X133349998Y-91400000D01*
X71800000Y-119900000D02*
X72700000Y-119000000D01*
X61300000Y-119900000D02*
X71800000Y-119900000D01*
X59300000Y-121900000D02*
X61300000Y-119900000D01*
X133349998Y-101750002D02*
X132900000Y-102200000D01*
X132900000Y-102200000D02*
X124200000Y-102200000D01*
X124200000Y-102200000D02*
X123000000Y-103400000D01*
X123000000Y-103400000D02*
X123000000Y-108600000D01*
X123000000Y-108600000D02*
X122900000Y-108700000D01*
X122900000Y-108700000D02*
X114600000Y-108700000D01*
X114600000Y-108700000D02*
X111800000Y-111500000D01*
X111800000Y-111500000D02*
X100400000Y-111500000D01*
X100400000Y-111500000D02*
X99100000Y-112800000D01*
X99100000Y-112800000D02*
X93000000Y-112800000D01*
X93000000Y-112800000D02*
X90700000Y-115100000D01*
X90700000Y-115100000D02*
X85400000Y-115100000D01*
X85400000Y-115100000D02*
X81500000Y-119000000D01*
X81500000Y-119000000D02*
X72700000Y-119000000D01*
X59300000Y-122000000D02*
X59300000Y-121900000D01*
X59300000Y-122000000D02*
X59300000Y-121400000D01*
X52800000Y-122000000D02*
X59300000Y-122000000D01*
X128520000Y-88380000D02*
X128400000Y-88500000D01*
X128320000Y-88420000D02*
X128400000Y-88500000D01*
X133900000Y-83900000D02*
X133900000Y-81900000D01*
X133900000Y-81900000D02*
X131700000Y-79700000D01*
X131700000Y-79700000D02*
X130700000Y-79700000D01*
X130700000Y-79700000D02*
X128400000Y-82000000D01*
X133900000Y-100949998D02*
X133900000Y-102200000D01*
X82500000Y-119900000D02*
X73300000Y-119900000D01*
X83700000Y-118700000D02*
X82500000Y-119900000D01*
X83700000Y-118000000D02*
X83700000Y-118700000D01*
X85700000Y-116000000D02*
X83700000Y-118000000D01*
X91100000Y-116000000D02*
X85700000Y-116000000D01*
X93200000Y-113900000D02*
X91100000Y-116000000D01*
X99800000Y-113900000D02*
X93200000Y-113900000D01*
X101100000Y-112600000D02*
X99800000Y-113900000D01*
X112300000Y-112600000D02*
X101100000Y-112600000D01*
X114900000Y-110000000D02*
X112300000Y-112600000D01*
X123300000Y-110000000D02*
X114900000Y-110000000D01*
X123800000Y-109500000D02*
X123300000Y-110000000D01*
X123800000Y-104300000D02*
X123800000Y-109500000D01*
X124900000Y-103200000D02*
X123800000Y-104300000D01*
X132900000Y-103200000D02*
X124900000Y-103200000D01*
X133900000Y-102200000D02*
X132900000Y-103200000D01*
X69900000Y-122000000D02*
X71200000Y-122000000D01*
X71200000Y-122000000D02*
X73300000Y-119900000D01*
X133900000Y-100949998D02*
X133900000Y-83900000D01*
X128320000Y-78700000D02*
X128420000Y-81980000D01*
X128420000Y-81980000D02*
X128400000Y-82000000D01*
X69900000Y-122000000D02*
X69900000Y-121800000D01*
X63400000Y-122000000D02*
X69900000Y-122000000D01*
X134500000Y-101900000D02*
X134500000Y-102900000D01*
X84400000Y-122000000D02*
X80300000Y-122000000D01*
X84800000Y-121600000D02*
X84400000Y-122000000D01*
X84800000Y-118800000D02*
X84800000Y-121600000D01*
X86700000Y-116900000D02*
X84800000Y-118800000D01*
X91400000Y-116900000D02*
X86700000Y-116900000D01*
X93300000Y-115000000D02*
X91400000Y-116900000D01*
X100200000Y-115000000D02*
X93300000Y-115000000D01*
X101600000Y-113600000D02*
X100200000Y-115000000D01*
X112500000Y-113600000D02*
X101600000Y-113600000D01*
X115200000Y-110900000D02*
X112500000Y-113600000D01*
X123700000Y-110900000D02*
X115200000Y-110900000D01*
X124600000Y-110000000D02*
X123700000Y-110900000D01*
X124600000Y-104900000D02*
X124600000Y-110000000D01*
X125500000Y-104000000D02*
X124600000Y-104900000D01*
X133400000Y-104000000D02*
X125500000Y-104000000D01*
X134500000Y-102900000D02*
X133400000Y-104000000D01*
X73800000Y-122000000D02*
X73800000Y-121400000D01*
X134500000Y-75200000D02*
X131700000Y-72400000D01*
X134500000Y-101900000D02*
X134500000Y-75200000D01*
X73800000Y-122000000D02*
X73800000Y-121900000D01*
X80300000Y-122000000D02*
X73800000Y-122000000D01*
X131700000Y-72400000D02*
X128920000Y-72400000D01*
X128920000Y-72400000D02*
X128520000Y-72000000D01*
X128520000Y-72000000D02*
X128520000Y-75380000D01*
X128520000Y-75380000D02*
X128500000Y-75400000D01*
X128520000Y-75380000D02*
X128500000Y-75400000D01*
X122500000Y-74000000D02*
X122280000Y-74000000D01*
X122280000Y-74000000D02*
X120880000Y-75400000D01*
X123000000Y-92000000D02*
X120700000Y-92000000D01*
X120700000Y-92000000D02*
X120800000Y-94900000D01*
X120800000Y-94900000D02*
X120700000Y-95000000D01*
X120780000Y-88500000D02*
X118200000Y-88500000D01*
X118200000Y-88500000D02*
X117400000Y-89300000D01*
X120780000Y-88500000D02*
X121000000Y-92300000D01*
X121000000Y-92300000D02*
X120700000Y-92000000D01*
X120760000Y-57500000D02*
X120760000Y-57140000D01*
X120760000Y-57140000D02*
X122200000Y-55700000D01*
X126600000Y-52000000D02*
X126600000Y-42400000D01*
X122900000Y-55700000D02*
X126600000Y-52000000D01*
X122200000Y-55700000D02*
X122900000Y-55700000D01*
X120680000Y-88600000D02*
X120780000Y-88500000D01*
X120600000Y-91900000D02*
X120700000Y-92000000D01*
X128900000Y-42400000D02*
X126600000Y-42400000D01*
X126600000Y-42400000D02*
X124600000Y-42400000D01*
X124600000Y-42400000D02*
X123800000Y-41600000D01*
X131800000Y-42400000D02*
X128900000Y-42400000D01*
X128900000Y-42400000D02*
X128900000Y-39400000D01*
X128900000Y-39400000D02*
X129900000Y-38400000D01*
D38*
X130300000Y-38000000D02*
X138900000Y-38000000D01*
X140300000Y-39400000D02*
X138900000Y-38000000D01*
X140300000Y-113700000D02*
X140300000Y-39400000D01*
X133200000Y-120800000D02*
X140300000Y-113700000D01*
X133200000Y-126400000D02*
X132300000Y-127300000D01*
X132300000Y-127300000D02*
X85200000Y-127300000D01*
X133200000Y-120800000D02*
X133200000Y-126400000D01*
X130300000Y-38000000D02*
X129900000Y-38400000D01*
D35*
X87600000Y-124500000D02*
X87600000Y-124900000D01*
X87600000Y-124900000D02*
X85200000Y-127300000D01*
X91140000Y-119400000D02*
X91140000Y-118560000D01*
X91140000Y-118560000D02*
X93800000Y-115900000D01*
X126800000Y-110800000D02*
X126800000Y-106100000D01*
X125800000Y-111800000D02*
X126800000Y-110800000D01*
X115600000Y-111800000D02*
X125800000Y-111800000D01*
X112700000Y-114700000D02*
X115600000Y-111800000D01*
X101800000Y-114700000D02*
X112700000Y-114700000D01*
X100600000Y-115900000D02*
X101800000Y-114700000D01*
X93800000Y-115900000D02*
X100600000Y-115900000D01*
X91140000Y-119400000D02*
X91140000Y-121260000D01*
X91140000Y-121260000D02*
X87900000Y-124500000D01*
X87900000Y-124500000D02*
X87600000Y-124500000D01*
D38*
X85200000Y-127300000D02*
X82200000Y-124300000D01*
X70600000Y-117500000D02*
X70200000Y-117900000D01*
X70200000Y-117900000D02*
X53200000Y-117900000D01*
X53200000Y-117900000D02*
X50400000Y-120700000D01*
X50400000Y-120700000D02*
X50400000Y-123500000D01*
X50400000Y-123500000D02*
X51100000Y-124200000D01*
X51100000Y-124200000D02*
X82100000Y-124200000D01*
X82200000Y-124300000D02*
X82100000Y-124200000D01*
D35*
X120780000Y-82000000D02*
X120900000Y-82000000D01*
X120900000Y-82000000D02*
X122500000Y-81600000D01*
X120880000Y-75400000D02*
X120900000Y-75400000D01*
X117100000Y-70200000D02*
X121400000Y-70200000D01*
X122500000Y-89780000D02*
X120780000Y-88500000D01*
X122500000Y-71300000D02*
X122500000Y-74000000D01*
X122500000Y-74000000D02*
X122500000Y-81600000D01*
X122500000Y-81600000D02*
X122500000Y-89780000D01*
X121400000Y-70200000D02*
X122500000Y-71300000D01*
X116100000Y-68300000D02*
X116100000Y-68400000D01*
X116100000Y-68400000D02*
X117100000Y-69400000D01*
X116460000Y-76540000D02*
X114900000Y-76540000D01*
X117100000Y-75900000D02*
X116460000Y-76540000D01*
X117100000Y-69400000D02*
X117100000Y-70200000D01*
X117100000Y-70200000D02*
X117100000Y-75900000D01*
X120620000Y-81720000D02*
X120800000Y-81900000D01*
X115680000Y-65120000D02*
X115680000Y-62120000D01*
X120760000Y-60040000D02*
X120760000Y-57500000D01*
X119500000Y-61300000D02*
X120760000Y-60040000D01*
X116500000Y-61300000D02*
X119500000Y-61300000D01*
X115680000Y-62120000D02*
X116500000Y-61300000D01*
D37*
X53800000Y-96280000D02*
X52020000Y-96280000D01*
X49280000Y-99020000D02*
X47700000Y-99020000D01*
X52020000Y-96280000D02*
X49280000Y-99020000D01*
D38*
X57300000Y-94900000D02*
X57300000Y-95000000D01*
X57300000Y-95000000D02*
X63700000Y-101400000D01*
X70600000Y-111000000D02*
X70600000Y-117500000D01*
X69200000Y-109600000D02*
X70600000Y-111000000D01*
X64700000Y-109600000D02*
X69200000Y-109600000D01*
X63700000Y-108600000D02*
X64700000Y-109600000D01*
X63700000Y-101400000D02*
X63700000Y-108600000D01*
X57300000Y-94900000D02*
X57300000Y-95200000D01*
X57300000Y-95200000D02*
X56220000Y-96280000D01*
X56220000Y-96280000D02*
X53800000Y-96280000D01*
X70700000Y-117400000D02*
X70600000Y-117500000D01*
D37*
X53980000Y-96100000D02*
X53800000Y-96280000D01*
D38*
X53980000Y-96100000D02*
X53800000Y-96280000D01*
D35*
X120880000Y-75400000D02*
X121400000Y-75400000D01*
X116100000Y-68300000D02*
X116000000Y-68300000D01*
X115680000Y-65120000D02*
X115680000Y-67880000D01*
X115680000Y-67880000D02*
X116100000Y-68300000D01*
D36*
X120760000Y-57500000D02*
X120760000Y-57840000D01*
D35*
X113080000Y-92000000D02*
X113200000Y-92000000D01*
X113200000Y-92000000D02*
X114500000Y-93300000D01*
X114500000Y-93300000D02*
X114500000Y-96600000D01*
X114500000Y-96600000D02*
X113000000Y-98100000D01*
X113140000Y-65120000D02*
X113140000Y-73220000D01*
X113140000Y-73220000D02*
X112360000Y-74000000D01*
X108060000Y-65120000D02*
X108060000Y-66360000D01*
X108060000Y-66360000D02*
X111100000Y-69400000D01*
X111100000Y-75280000D02*
X112360000Y-76540000D01*
X111100000Y-69400000D02*
X111100000Y-75280000D01*
X108060000Y-65120000D02*
X108060000Y-65460000D01*
X95280000Y-84500000D02*
X95280000Y-81320000D01*
X95280000Y-81320000D02*
X95400000Y-81200000D01*
X95280000Y-84500000D02*
X98300000Y-84500000D01*
X100560000Y-86760000D02*
X100560000Y-87900000D01*
X98300000Y-84500000D02*
X100560000Y-86760000D01*
X100560000Y-87900000D02*
X100560000Y-87660000D01*
X95220000Y-124500000D02*
X95900000Y-124500000D01*
X95900000Y-124500000D02*
X97900000Y-122500000D01*
X97900000Y-122500000D02*
X121060000Y-122500000D01*
X121060000Y-122500000D02*
X124160000Y-119400000D01*
X106800000Y-73400000D02*
X106800000Y-78800000D01*
X101300000Y-59100000D02*
X101300000Y-66400000D01*
X102800000Y-69400000D02*
X106800000Y-73400000D01*
X102800000Y-67900000D02*
X102800000Y-69400000D01*
X101300000Y-66400000D02*
X102800000Y-67900000D01*
X105520000Y-57020000D02*
X104000000Y-55500000D01*
X102300000Y-55500000D02*
X104000000Y-55500000D01*
X101300000Y-57400000D02*
X102300000Y-55500000D01*
X101300000Y-59100000D02*
X101300000Y-57400000D01*
X119300000Y-83900000D02*
X120700000Y-85300000D01*
X119300000Y-80900000D02*
X119300000Y-83900000D01*
X118400000Y-80000000D02*
X119300000Y-80900000D01*
X108000000Y-80000000D02*
X118400000Y-80000000D01*
X106800000Y-78800000D02*
X108000000Y-80000000D01*
X120700000Y-85300000D02*
X120300000Y-85300000D01*
X105520000Y-57020000D02*
X105520000Y-57500000D01*
X105520000Y-56820000D02*
X105520000Y-57500000D01*
X117400000Y-79000000D02*
X120400000Y-79000000D01*
X120400000Y-79000000D02*
X120700000Y-78700000D01*
X104300000Y-66500000D02*
X104300000Y-69700000D01*
X108400000Y-79000000D02*
X117400000Y-79000000D01*
X107400000Y-78000000D02*
X108400000Y-79000000D01*
X107400000Y-72800000D02*
X107400000Y-78000000D01*
X104300000Y-69700000D02*
X107400000Y-72800000D01*
X104300000Y-58820000D02*
X102980000Y-57500000D01*
X104300000Y-66500000D02*
X104300000Y-58820000D01*
X105520000Y-66400000D02*
X105520000Y-69820000D01*
X117650002Y-75249998D02*
X120900000Y-72000000D01*
X117650002Y-77949998D02*
X117650002Y-75249998D01*
X117300000Y-78300000D02*
X117650002Y-77949998D01*
X108900000Y-78300000D02*
X117300000Y-78300000D01*
X108100000Y-77500000D02*
X108900000Y-78300000D01*
X108100000Y-72400000D02*
X108100000Y-77500000D01*
X105520000Y-69820000D02*
X108100000Y-72400000D01*
X105520000Y-66400000D02*
X105520000Y-65120000D01*
X93680000Y-119400000D02*
X93680000Y-118620000D01*
X93680000Y-118620000D02*
X95400000Y-116900000D01*
X95400000Y-116900000D02*
X101200000Y-116900000D01*
X101200000Y-116900000D02*
X102400000Y-115700000D01*
X102400000Y-115700000D02*
X112700000Y-115700000D01*
X112700000Y-115700000D02*
X115500000Y-112900000D01*
X115500000Y-112900000D02*
X127540000Y-112900000D01*
X127540000Y-112900000D02*
X129300000Y-111140000D01*
D37*
X86400000Y-35700000D02*
X86400000Y-31700000D01*
X97940000Y-54580000D02*
X97940000Y-36340000D01*
X97940000Y-36340000D02*
X97100000Y-35500000D01*
X76600000Y-35100000D02*
X76600000Y-33600000D01*
X97200000Y-33800000D02*
X97100000Y-35500000D01*
X95100000Y-31700000D02*
X97200000Y-33800000D01*
X78500000Y-31700000D02*
X86400000Y-31700000D01*
X86400000Y-31700000D02*
X95100000Y-31700000D01*
X76600000Y-33600000D02*
X78500000Y-31700000D01*
D38*
X112640000Y-33900000D02*
X112640000Y-41760000D01*
X110900000Y-43500000D02*
X103220000Y-43500000D01*
X112640000Y-41760000D02*
X110900000Y-43500000D01*
X103220000Y-43500000D02*
X102520000Y-42800000D01*
X108680000Y-37800000D02*
X108680000Y-40820000D01*
X108680000Y-40820000D02*
X108600000Y-40900000D01*
X110100000Y-33900000D02*
X110100000Y-36380000D01*
X110100000Y-36380000D02*
X108680000Y-37800000D01*
D35*
X116220000Y-40900000D02*
X116220000Y-40980000D01*
X116220000Y-40980000D02*
X112900000Y-45100000D01*
X112900000Y-45100000D02*
X107800000Y-45100000D01*
X107800000Y-45100000D02*
X104700000Y-47400000D01*
X104700000Y-47400000D02*
X104700000Y-53500000D01*
X104700000Y-53500000D02*
X106800000Y-55600000D01*
X106800000Y-55600000D02*
X106800000Y-61300000D01*
X106800000Y-61300000D02*
X105400000Y-62700000D01*
X138200000Y-104900000D02*
X138200000Y-111900000D01*
X119080000Y-118120000D02*
X119080000Y-119400000D01*
X120400000Y-116800000D02*
X119080000Y-118120000D01*
X133300000Y-116800000D02*
X120400000Y-116800000D01*
X138200000Y-111900000D02*
X133300000Y-116800000D01*
X138200000Y-104900000D02*
X138200000Y-61100000D01*
X138200000Y-61100000D02*
X137000000Y-59900000D01*
X137000000Y-59900000D02*
X129400000Y-59900000D01*
X129400000Y-59900000D02*
X128380000Y-58880000D01*
X128380000Y-58880000D02*
X128380000Y-57500000D01*
X138800000Y-105600000D02*
X138800000Y-112400000D01*
X129600000Y-58400000D02*
X129600000Y-55900000D01*
X129600000Y-55900000D02*
X129300000Y-55600000D01*
X129300000Y-55600000D02*
X126900000Y-55600000D01*
X126900000Y-55600000D02*
X125840000Y-56660000D01*
X125840000Y-57500000D02*
X125840000Y-56660000D01*
X137100000Y-58800000D02*
X130100000Y-58800000D01*
X138800000Y-60500000D02*
X137100000Y-58800000D01*
X138800000Y-105600000D02*
X138800000Y-60500000D01*
X129700000Y-58400000D02*
X130100000Y-58800000D01*
X129600000Y-58400000D02*
X129700000Y-58400000D01*
X121620000Y-118480000D02*
X121620000Y-119400000D01*
X122500000Y-117600000D02*
X121620000Y-118480000D01*
X133600000Y-117600000D02*
X122500000Y-117600000D01*
X138800000Y-112400000D02*
X133600000Y-117600000D01*
X126300000Y-57040000D02*
X125840000Y-57500000D01*
X125840000Y-57500000D02*
X125840000Y-56860000D01*
X136000000Y-102900000D02*
X136000000Y-111100000D01*
X103300000Y-117400000D02*
X101300000Y-119400000D01*
X113400000Y-117400000D02*
X103300000Y-117400000D01*
X116200000Y-114600000D02*
X113400000Y-117400000D01*
X132500000Y-114600000D02*
X116200000Y-114600000D01*
X136000000Y-111100000D02*
X132500000Y-114600000D01*
X136000000Y-102900000D02*
X136000000Y-69500000D01*
X136000000Y-69500000D02*
X133400000Y-66900000D01*
X133400000Y-66900000D02*
X132100000Y-65600000D01*
X132100000Y-65600000D02*
X132100000Y-64000000D01*
X132100000Y-64000000D02*
X131300000Y-63200000D01*
X131300000Y-63200000D02*
X129000000Y-63200000D01*
X129000000Y-63200000D02*
X128380000Y-63820000D01*
X128380000Y-63820000D02*
X128380000Y-65120000D01*
X128380000Y-65780000D02*
X128380000Y-65120000D01*
X135200000Y-102500000D02*
X135200000Y-110900000D01*
X97920000Y-117700000D02*
X96220000Y-119400000D01*
X101400000Y-117700000D02*
X97920000Y-117700000D01*
X102500000Y-116600000D02*
X101400000Y-117700000D01*
X113100000Y-116600000D02*
X102500000Y-116600000D01*
X115900000Y-113800000D02*
X113100000Y-116600000D01*
X132300000Y-113800000D02*
X115900000Y-113800000D01*
X135200000Y-110900000D02*
X132300000Y-113800000D01*
X130920000Y-66420000D02*
X130920000Y-65120000D01*
X135200000Y-70700000D02*
X130920000Y-66420000D01*
X135200000Y-102500000D02*
X135200000Y-70700000D01*
X130920000Y-65120000D02*
X130780000Y-65120000D01*
X136900000Y-103700000D02*
X136900000Y-111000000D01*
X114000000Y-118100000D02*
X114000000Y-119400000D01*
X117100000Y-115400000D02*
X114000000Y-118100000D01*
X132900000Y-115400000D02*
X117100000Y-115400000D01*
X136900000Y-111000000D02*
X132900000Y-115400000D01*
X136900000Y-68560000D02*
X133460000Y-65120000D01*
X136900000Y-103700000D02*
X136900000Y-68560000D01*
X137500000Y-104600000D02*
X137500000Y-111600000D01*
X116540000Y-117960000D02*
X116540000Y-119400000D01*
X118400000Y-116100000D02*
X116540000Y-117960000D01*
X133000000Y-116100000D02*
X118400000Y-116100000D01*
X137500000Y-111600000D02*
X133000000Y-116100000D01*
X137500000Y-66620000D02*
X136000000Y-65120000D01*
X137500000Y-104600000D02*
X137500000Y-66620000D01*
X70700000Y-95800000D02*
X70780000Y-95800000D01*
X70780000Y-95800000D02*
X73680000Y-98700000D01*
X79400000Y-82420000D02*
X78380000Y-82420000D01*
X72300000Y-95800000D02*
X70700000Y-95800000D01*
X74300000Y-93800000D02*
X72300000Y-95800000D01*
X74300000Y-86500000D02*
X74300000Y-93800000D01*
X78380000Y-82420000D02*
X74300000Y-86500000D01*
X79400000Y-82420000D02*
X79460000Y-82420000D01*
X78980000Y-82420000D02*
X79400000Y-82420000D01*
X79400000Y-82420000D02*
X80120000Y-82420000D01*
D37*
X71400000Y-38500000D02*
X71400000Y-36700000D01*
X67800000Y-33100000D02*
X59700000Y-33100000D01*
X71400000Y-36700000D02*
X67800000Y-33100000D01*
D35*
X94180000Y-73580000D02*
X94280000Y-75200000D01*
X92900000Y-72300000D02*
X94180000Y-73580000D01*
X89700000Y-72300000D02*
X92900000Y-72300000D01*
X83520000Y-66600000D02*
X86800000Y-66600000D01*
X88300000Y-70900000D02*
X89700000Y-72300000D01*
X88300000Y-68100000D02*
X88300000Y-70900000D01*
X86800000Y-66600000D02*
X88300000Y-68100000D01*
D37*
X82200000Y-42800000D02*
X79300000Y-43800000D01*
X79300000Y-43800000D02*
X74450000Y-48650000D01*
X91590000Y-54580000D02*
X91390000Y-54810000D01*
X91000000Y-55200000D02*
X87100000Y-55200000D01*
X91390000Y-54810000D02*
X91000000Y-55200000D01*
X87100000Y-55200000D02*
X81200000Y-55200000D01*
X81200000Y-55200000D02*
X81100000Y-55300000D01*
X83520000Y-66600000D02*
X83520000Y-64580000D01*
X83520000Y-64580000D02*
X83520000Y-65480000D01*
X83520000Y-57720000D02*
X81100000Y-55300000D01*
X83520000Y-63500000D02*
X83520000Y-57720000D01*
X83520000Y-65480000D02*
X83520000Y-63500000D01*
X71400000Y-38500000D02*
X71400000Y-45600000D01*
X71400000Y-45600000D02*
X74450000Y-48650000D01*
X74450000Y-48650000D02*
X81100000Y-55300000D01*
X81200000Y-55400000D02*
X81100000Y-55300000D01*
D35*
X98020000Y-87900000D02*
X98020000Y-87120000D01*
X98020000Y-87120000D02*
X97300000Y-86400000D01*
X93200000Y-85300000D02*
X93200000Y-78000000D01*
X94300000Y-86400000D02*
X93200000Y-85300000D01*
X97300000Y-86400000D02*
X94300000Y-86400000D01*
D37*
X97940000Y-69820000D02*
X97940000Y-76740000D01*
X90400000Y-77600000D02*
X90400000Y-74800000D01*
X90800000Y-78000000D02*
X90400000Y-77600000D01*
X96680000Y-78000000D02*
X93200000Y-78000000D01*
X93200000Y-78000000D02*
X90800000Y-78000000D01*
X97940000Y-76740000D02*
X96680000Y-78000000D01*
D35*
X98020000Y-87900000D02*
X98020000Y-87820000D01*
D38*
X94700000Y-60000000D02*
X96400000Y-60000000D01*
X115180000Y-32980000D02*
X115180000Y-33900000D01*
X113600000Y-31400000D02*
X115180000Y-32980000D01*
X104600000Y-31400000D02*
X113600000Y-31400000D01*
X100000000Y-36000000D02*
X104600000Y-31400000D01*
X100000000Y-44300000D02*
X100000000Y-36000000D01*
X100600000Y-44900000D02*
X100000000Y-44300000D01*
X100600000Y-55800000D02*
X100600000Y-44900000D01*
X96400000Y-60000000D02*
X100600000Y-55800000D01*
X115180000Y-33900000D02*
X115180000Y-36680000D01*
X115180000Y-36680000D02*
X116300000Y-37800000D01*
D37*
X97940000Y-69820000D02*
X97940000Y-68840000D01*
X97940000Y-68840000D02*
X94700000Y-65600000D01*
X94700000Y-65600000D02*
X94700000Y-60000000D01*
X94700000Y-60000000D02*
X94700000Y-58000000D01*
X94700000Y-58000000D02*
X94700000Y-44600000D01*
X94700000Y-44600000D02*
X89600000Y-39500000D01*
X92020000Y-35500000D02*
X92020000Y-38280000D01*
X81320000Y-38820000D02*
X81320000Y-35700000D01*
X82000000Y-39500000D02*
X81320000Y-38820000D01*
X90800000Y-39500000D02*
X89600000Y-39500000D01*
X89600000Y-39500000D02*
X82000000Y-39500000D01*
X92020000Y-38280000D02*
X90800000Y-39500000D01*
X81320000Y-35700000D02*
X81000000Y-35700000D01*
X81000000Y-35700000D02*
X76600000Y-40100000D01*
D35*
X90400000Y-75000000D02*
X90400000Y-74800000D01*
X90400000Y-75000000D02*
X90400000Y-74800000D01*
X90400000Y-75100000D02*
X90400000Y-74800000D01*
X75800000Y-102100000D02*
X79280000Y-102100000D01*
X79280000Y-102100000D02*
X80380000Y-102000000D01*
X75800000Y-102100000D02*
X72800000Y-102100000D01*
X72800000Y-102100000D02*
X65200000Y-94500000D01*
X65200000Y-94500000D02*
X65100000Y-94500000D01*
X69200000Y-85000000D02*
X71780000Y-82420000D01*
X69200000Y-87400000D02*
X69200000Y-85000000D01*
X67400000Y-89200000D02*
X69200000Y-87400000D01*
X64600000Y-89200000D02*
X67400000Y-89200000D01*
X63600000Y-90200000D02*
X64600000Y-89200000D01*
X63600000Y-93000000D02*
X63600000Y-90200000D01*
X65100000Y-94500000D02*
X63600000Y-93000000D01*
X90380000Y-102000000D02*
X88000000Y-102000000D01*
X81300000Y-82600000D02*
X83700000Y-82600000D01*
X85300000Y-84200000D02*
X85300000Y-88920000D01*
X83700000Y-82600000D02*
X85300000Y-84200000D01*
X80380000Y-104700000D02*
X80380000Y-104520000D01*
X80380000Y-104520000D02*
X82700000Y-102200000D01*
X82700000Y-102200000D02*
X82700000Y-97300000D01*
X81300000Y-81780000D02*
X79400000Y-79880000D01*
X81300000Y-83100000D02*
X81300000Y-82600000D01*
X81300000Y-82600000D02*
X81300000Y-81780000D01*
X80800000Y-83600000D02*
X81300000Y-83100000D01*
X78400000Y-83600000D02*
X80800000Y-83600000D01*
X76100000Y-85900000D02*
X78400000Y-83600000D01*
X76100000Y-90800000D02*
X76100000Y-85900000D01*
X78700000Y-93400000D02*
X76100000Y-90800000D01*
X78800000Y-93400000D02*
X78700000Y-93400000D01*
X82700000Y-97300000D02*
X78800000Y-93400000D01*
X88000000Y-102000000D02*
X87500000Y-102000000D01*
X87500000Y-102000000D02*
X85455375Y-103476674D01*
X85455375Y-103476674D02*
X83900000Y-104600000D01*
X83900000Y-104600000D02*
X80380000Y-104700000D01*
X80380000Y-104700000D02*
X75800000Y-104600000D01*
X94800000Y-91500000D02*
X94300000Y-91500000D01*
X73880000Y-106400000D02*
X72480000Y-107800000D01*
X91500000Y-106400000D02*
X73880000Y-106400000D01*
X92600000Y-105300000D02*
X91500000Y-106400000D01*
X92600000Y-101400000D02*
X92600000Y-105300000D01*
X90500000Y-99300000D02*
X92600000Y-101400000D01*
X90500000Y-97400000D02*
X90500000Y-99300000D01*
X92400000Y-95500000D02*
X90500000Y-97400000D01*
X92400000Y-93400000D02*
X92400000Y-95500000D01*
X94300000Y-91500000D02*
X92400000Y-93400000D01*
X72480000Y-107800000D02*
X73100000Y-107800000D01*
X74700000Y-111200000D02*
X74700000Y-110800000D01*
X110100000Y-92820000D02*
X110100000Y-92200000D01*
X110100000Y-92200000D02*
X109400000Y-91500000D01*
X109400000Y-91500000D02*
X94800000Y-91500000D01*
X72480000Y-107800000D02*
X72480000Y-108980000D01*
X72480000Y-108980000D02*
X74700000Y-111200000D01*
X65400000Y-98720000D02*
X66120000Y-98720000D01*
X66120000Y-98720000D02*
X72480000Y-105080000D01*
X72480000Y-105080000D02*
X72480000Y-107800000D01*
X65400000Y-98720000D02*
X65400000Y-99120000D01*
X81300000Y-98700000D02*
X81000000Y-98700000D01*
X81000000Y-98700000D02*
X78600000Y-96300000D01*
X78600000Y-91300000D02*
X79800000Y-91300000D01*
X84380000Y-95880000D02*
X84380000Y-98500000D01*
X79800000Y-91300000D02*
X84380000Y-95880000D01*
X78600000Y-91300000D02*
X78000000Y-91300000D01*
X78000000Y-91300000D02*
X77200000Y-90500000D01*
X77200000Y-90500000D02*
X77200000Y-86800000D01*
X77200000Y-86800000D02*
X79040000Y-84960000D01*
X79040000Y-84960000D02*
X79400000Y-84960000D01*
D37*
X59100000Y-69700000D02*
X59100000Y-66100000D01*
X59100000Y-66100000D02*
X60700000Y-64500000D01*
X60700000Y-64500000D02*
X60700000Y-53900000D01*
X60700000Y-53900000D02*
X64000000Y-50600000D01*
X55600000Y-66700000D02*
X56100000Y-66700000D01*
X56100000Y-66700000D02*
X59100000Y-69700000D01*
X64000000Y-50600000D02*
X64800000Y-50400000D01*
X64800000Y-50400000D02*
X71100000Y-55300000D01*
X57600000Y-43380000D02*
X59100000Y-45500000D01*
X59100000Y-45500000D02*
X64000000Y-50600000D01*
X57600000Y-43380000D02*
X57600000Y-43400000D01*
X66720000Y-69700000D02*
X66720000Y-72920000D01*
X66720000Y-72920000D02*
X66800000Y-73000000D01*
X59180000Y-73000000D02*
X55600000Y-73000000D01*
X53900000Y-71300000D02*
X53900000Y-80300000D01*
X59180000Y-73000000D02*
X58800000Y-73000000D01*
X58800000Y-73000000D02*
X55600000Y-76200000D01*
X55600000Y-79400000D02*
X55600000Y-80200000D01*
X55600000Y-80200000D02*
X52640000Y-83160000D01*
X52640000Y-83160000D02*
X51100000Y-83160000D01*
X55600000Y-79400000D02*
X55600000Y-76200000D01*
X55600000Y-76200000D02*
X55600000Y-73000000D01*
X52900000Y-70300000D02*
X51100000Y-68800000D01*
X55600000Y-73000000D02*
X53900000Y-71300000D01*
X53900000Y-71300000D02*
X52900000Y-70300000D01*
X56100000Y-113500000D02*
X51000000Y-114600000D01*
X51000000Y-114600000D02*
X50200000Y-115400000D01*
X59800000Y-113500000D02*
X56100000Y-113500000D01*
X54700000Y-85900000D02*
X51300000Y-85900000D01*
X51300000Y-85900000D02*
X51100000Y-85700000D01*
X59480000Y-76300000D02*
X59480000Y-81120000D01*
X59480000Y-81120000D02*
X54700000Y-85900000D01*
X57600000Y-63700000D02*
X52620000Y-63800000D01*
X52620000Y-63800000D02*
X51100000Y-63720000D01*
D35*
X106800000Y-85200000D02*
X106000000Y-83700000D01*
X106000000Y-83700000D02*
X105500000Y-82700000D01*
X105500000Y-82700000D02*
X105500000Y-76100000D01*
X105500000Y-76100000D02*
X105400000Y-76100000D01*
X100200000Y-70900000D02*
X100200000Y-62400000D01*
X105400000Y-76100000D02*
X100200000Y-70900000D01*
X124000000Y-96800000D02*
X124000000Y-97200000D01*
X124000000Y-97200000D02*
X123100000Y-98100000D01*
X123100000Y-98100000D02*
X120620000Y-98100000D01*
X103100000Y-87900000D02*
X103700000Y-87900000D01*
X103700000Y-87900000D02*
X105300000Y-89500000D01*
X118400000Y-98100000D02*
X120620000Y-98100000D01*
X117000000Y-96100000D02*
X118400000Y-98100000D01*
X117000000Y-93300000D02*
X117000000Y-96100000D01*
X112600000Y-89500000D02*
X117000000Y-93300000D01*
X105300000Y-89500000D02*
X112600000Y-89500000D01*
X103100000Y-87900000D02*
X103500000Y-87900000D01*
X124000000Y-96800000D02*
X124000000Y-100000000D01*
X124000000Y-100000000D02*
X123900000Y-100100000D01*
X103100000Y-87900000D02*
X103100000Y-88000000D01*
X103100000Y-87900000D02*
X103100000Y-88500000D01*
X103100000Y-88500000D02*
X102100000Y-90200000D01*
X81600000Y-90200000D02*
X79400000Y-87500000D01*
X102100000Y-90200000D02*
X81600000Y-90200000D01*
X103100000Y-87900000D02*
X103100000Y-84700000D01*
X103100000Y-84700000D02*
X102900000Y-84500000D01*
X124000000Y-100000000D02*
X123900000Y-100100000D01*
X103100000Y-87900000D02*
X103100000Y-88300000D01*
X103100000Y-87900000D02*
X103100000Y-88700000D01*
X103100000Y-88700000D02*
X102400000Y-87500000D01*
X103200000Y-87800000D02*
X103100000Y-87900000D01*
X79400000Y-74800000D02*
X80180000Y-74800000D01*
X80180000Y-74800000D02*
X82600000Y-77220000D01*
D38*
X79400000Y-69720000D02*
X79400000Y-66600000D01*
X69600000Y-72620000D02*
X71780000Y-74800000D01*
X69600000Y-65300000D02*
X69600000Y-72620000D01*
X70600000Y-64300000D02*
X69600000Y-65300000D01*
X77100000Y-64300000D02*
X70600000Y-64300000D01*
X79400000Y-66600000D02*
X77100000Y-64300000D01*
D37*
X71780000Y-74800000D02*
X71100000Y-74800000D01*
X71100000Y-74800000D02*
X69600000Y-76300000D01*
X69600000Y-76300000D02*
X67100000Y-76300000D01*
D35*
X109800000Y-85200000D02*
X106200000Y-81600000D01*
X106200000Y-81600000D02*
X106200000Y-75500000D01*
X110100000Y-85200000D02*
X109800000Y-85200000D01*
X106200000Y-75500000D02*
X101400000Y-70700000D01*
X101400000Y-70700000D02*
X101400000Y-68500000D01*
D36*
X75900000Y-66600000D02*
X76100000Y-66600000D01*
X76100000Y-66600000D02*
X73700000Y-67700000D01*
X73700000Y-85580000D02*
X71780000Y-87500000D01*
X73700000Y-67700000D02*
X73700000Y-85580000D01*
D37*
X75900000Y-66600000D02*
X73720000Y-66500000D01*
X73720000Y-66500000D02*
X73620000Y-66600000D01*
D35*
X65400000Y-91100000D02*
X66580000Y-91100000D01*
X66580000Y-91100000D02*
X68080000Y-92600000D01*
X65600000Y-91300000D02*
X65400000Y-91100000D01*
X68080000Y-92600000D02*
X69500000Y-92600000D01*
X69500000Y-92600000D02*
X69900000Y-92200000D01*
X69900000Y-92200000D02*
X69900000Y-86400000D01*
X69900000Y-86400000D02*
X71340000Y-84960000D01*
X71340000Y-84960000D02*
X71780000Y-84960000D01*
X98000000Y-102000000D02*
X122500000Y-102000000D01*
X122500000Y-102000000D02*
X122900000Y-101600000D01*
X124600000Y-58800000D02*
X123300000Y-57500000D01*
X124600000Y-66500000D02*
X124600000Y-58800000D01*
X125400000Y-67300000D02*
X124600000Y-66500000D01*
X125400000Y-95600000D02*
X125400000Y-67300000D01*
X126400000Y-96600000D02*
X125400000Y-95600000D01*
X126400000Y-100800000D02*
X126400000Y-96600000D01*
X125600000Y-101600000D02*
X126400000Y-100800000D01*
X122900000Y-101600000D02*
X125600000Y-101600000D01*
D36*
G36*
X45850304Y-48850376D02*
X45849696Y-49546569D01*
X46115557Y-50190001D01*
X46607410Y-50682713D01*
X47250376Y-50949696D01*
X47946569Y-50950304D01*
X48590001Y-50684443D01*
X49082713Y-50192590D01*
X49349696Y-49549624D01*
X49350304Y-48853431D01*
X49307567Y-48750000D01*
X52050000Y-48750000D01*
X52050000Y-62017578D01*
X51191978Y-61972419D01*
X50516206Y-62070247D01*
X49929312Y-62419235D01*
X49520644Y-62966253D01*
X49352419Y-63628022D01*
X49450247Y-64303794D01*
X49799235Y-64890688D01*
X49849998Y-64928612D01*
X49849998Y-65213864D01*
X49594246Y-65565903D01*
X49693704Y-65810000D01*
X50650000Y-65810000D01*
X50650000Y-65376570D01*
X51008022Y-65467581D01*
X51550000Y-65496106D01*
X51550000Y-65810000D01*
X52000000Y-65810000D01*
X52000000Y-66710000D01*
X51550000Y-66710000D01*
X51550000Y-67121733D01*
X50941562Y-67057187D01*
X50676891Y-67135307D01*
X50650000Y-67135307D01*
X50650000Y-66710000D01*
X49693704Y-66710000D01*
X49594246Y-66954097D01*
X49814276Y-67256965D01*
X49666802Y-67351862D01*
X49495554Y-67602492D01*
X49435307Y-67900000D01*
X49435307Y-68268245D01*
X49429219Y-68279432D01*
X49357187Y-68958438D01*
X49435307Y-69223109D01*
X49435307Y-69700000D01*
X49487604Y-69977933D01*
X49651862Y-70233198D01*
X49902492Y-70404446D01*
X50200000Y-70464693D01*
X50364044Y-70464693D01*
X51718693Y-71593567D01*
X52050000Y-71924874D01*
X52050000Y-79285249D01*
X51794092Y-79114278D01*
X51550000Y-79222147D01*
X51550000Y-80170000D01*
X52000000Y-80170000D01*
X52000000Y-81070000D01*
X51550000Y-81070000D01*
X51550000Y-81410000D01*
X51100000Y-81410000D01*
X50650000Y-81499511D01*
X50650000Y-81070000D01*
X49693704Y-81070000D01*
X49594246Y-81314097D01*
X49849998Y-81666136D01*
X49849998Y-81941368D01*
X49483211Y-82490304D01*
X49350000Y-83160000D01*
X49483211Y-83829696D01*
X49735679Y-84207541D01*
X49666802Y-84251862D01*
X49495554Y-84502492D01*
X49435307Y-84800000D01*
X49435307Y-85271133D01*
X49350000Y-85700000D01*
X49435307Y-86128867D01*
X49435307Y-86600000D01*
X49487604Y-86877933D01*
X49651862Y-87133198D01*
X49902492Y-87304446D01*
X50200000Y-87364693D01*
X50402676Y-87364693D01*
X50630304Y-87516789D01*
X51300000Y-87650000D01*
X54700000Y-87650000D01*
X55369696Y-87516789D01*
X55937437Y-87137437D01*
X60717437Y-82357437D01*
X61096789Y-81789696D01*
X61230000Y-81120000D01*
X61230000Y-79550000D01*
X62449869Y-79550000D01*
X62449732Y-79706961D01*
X62685208Y-80276857D01*
X63120849Y-80713260D01*
X63690333Y-80949730D01*
X64306961Y-80950268D01*
X64876857Y-80714792D01*
X64960990Y-80630805D01*
X68334881Y-80630805D01*
X68419983Y-80878846D01*
X69030064Y-80988239D01*
X69580017Y-80878846D01*
X69665119Y-80630805D01*
X69000000Y-79965685D01*
X68334881Y-80630805D01*
X64960990Y-80630805D01*
X65313260Y-80279151D01*
X65549730Y-79709667D01*
X65549869Y-79550000D01*
X66300000Y-79550000D01*
X66397264Y-79530304D01*
X66476777Y-79476777D01*
X66523490Y-79430064D01*
X67411761Y-79430064D01*
X67521154Y-79980017D01*
X67769195Y-80065119D01*
X68434315Y-79400000D01*
X67769195Y-78734881D01*
X67521154Y-78819983D01*
X67411761Y-79430064D01*
X66523490Y-79430064D01*
X67903554Y-78050000D01*
X68375776Y-78050000D01*
X68334881Y-78169195D01*
X69000000Y-78834315D01*
X69665119Y-78169195D01*
X69622676Y-78045489D01*
X70222000Y-77926276D01*
X70222000Y-78590002D01*
X70529998Y-78590002D01*
X70529998Y-78898000D01*
X70577435Y-78898000D01*
X70513421Y-78993804D01*
X70478846Y-78819983D01*
X70230805Y-78734881D01*
X69565685Y-79400000D01*
X70230805Y-80065119D01*
X70236096Y-80063304D01*
X70317621Y-80473159D01*
X70540189Y-80806257D01*
X67004446Y-84342000D01*
X66149998Y-84342000D01*
X66149998Y-84649998D01*
X65842000Y-84649998D01*
X65842000Y-85504446D01*
X60175757Y-91170689D01*
X60114792Y-91023143D01*
X59679151Y-90586740D01*
X59109667Y-90350270D01*
X58493039Y-90349732D01*
X57923143Y-90585208D01*
X57486740Y-91020849D01*
X57250270Y-91590333D01*
X57249732Y-92206961D01*
X57485208Y-92776857D01*
X57920849Y-93213260D01*
X58070886Y-93275560D01*
X57882773Y-93463673D01*
X57609667Y-93350270D01*
X56993039Y-93349732D01*
X56423143Y-93585208D01*
X55986740Y-94020849D01*
X55767018Y-94550000D01*
X54749653Y-94550000D01*
X54649696Y-94483211D01*
X53980000Y-94350000D01*
X53310304Y-94483211D01*
X53293359Y-94494533D01*
X53115056Y-94530000D01*
X52020000Y-94530000D01*
X51919453Y-94550000D01*
X47800000Y-94550000D01*
X47702736Y-94569696D01*
X47620798Y-94625682D01*
X47567097Y-94709136D01*
X47550000Y-94800000D01*
X47550000Y-97299837D01*
X47030304Y-97403211D01*
X46462563Y-97782563D01*
X46083211Y-98350304D01*
X45950000Y-99020000D01*
X46083211Y-99689696D01*
X46462563Y-100257437D01*
X46575377Y-100332817D01*
X46533274Y-100360949D01*
X46175599Y-100896247D01*
X46050000Y-101527675D01*
X46050000Y-101592325D01*
X46175599Y-102223753D01*
X46392484Y-102548345D01*
X46370628Y-102557398D01*
X46157399Y-102770627D01*
X46042000Y-103049224D01*
X46042000Y-103460500D01*
X46231500Y-103650000D01*
X47250000Y-103650000D01*
X47250000Y-103200000D01*
X47487219Y-103200000D01*
X47550000Y-103212488D01*
X47550000Y-105000000D01*
X47250000Y-105000000D01*
X47250000Y-104550000D01*
X46231500Y-104550000D01*
X46042000Y-104739500D01*
X46042000Y-105150776D01*
X46157399Y-105429373D01*
X46370628Y-105642602D01*
X46449998Y-105675478D01*
X46449998Y-105758000D01*
X47550000Y-105758000D01*
X47550000Y-106050000D01*
X43450000Y-106050000D01*
X43450000Y-93130805D01*
X53134881Y-93130805D01*
X53219983Y-93378846D01*
X53830064Y-93488239D01*
X54380017Y-93378846D01*
X54465119Y-93130805D01*
X53800000Y-92465685D01*
X53134881Y-93130805D01*
X43450000Y-93130805D01*
X43450000Y-91930064D01*
X52211761Y-91930064D01*
X52321154Y-92480017D01*
X52569195Y-92565119D01*
X53234315Y-91900000D01*
X54365685Y-91900000D01*
X55030805Y-92565119D01*
X55278846Y-92480017D01*
X55388239Y-91869936D01*
X55278846Y-91319983D01*
X55030805Y-91234881D01*
X54365685Y-91900000D01*
X53234315Y-91900000D01*
X52569195Y-91234881D01*
X52321154Y-91319983D01*
X52211761Y-91930064D01*
X43450000Y-91930064D01*
X43450000Y-90669195D01*
X53134881Y-90669195D01*
X53800000Y-91334315D01*
X54465119Y-90669195D01*
X54380017Y-90421154D01*
X53769936Y-90311761D01*
X53219983Y-90421154D01*
X53134881Y-90669195D01*
X43450000Y-90669195D01*
X43450000Y-79925903D01*
X49594246Y-79925903D01*
X49693704Y-80170000D01*
X50650000Y-80170000D01*
X50650000Y-79222147D01*
X50405908Y-79114278D01*
X49974484Y-79402511D01*
X49594246Y-79925903D01*
X43450000Y-79925903D01*
X43450000Y-54889500D01*
X45842000Y-54889500D01*
X45842000Y-55350776D01*
X45957399Y-55629373D01*
X46170628Y-55842602D01*
X46449225Y-55958000D01*
X46910500Y-55958000D01*
X47100000Y-55768500D01*
X47100000Y-54700000D01*
X48100000Y-54700000D01*
X48100000Y-55768500D01*
X48289500Y-55958000D01*
X48750775Y-55958000D01*
X49029372Y-55842602D01*
X49242601Y-55629373D01*
X49358000Y-55350776D01*
X49358000Y-54889500D01*
X49168500Y-54700000D01*
X48100000Y-54700000D01*
X47100000Y-54700000D01*
X46031500Y-54700000D01*
X45842000Y-54889500D01*
X43450000Y-54889500D01*
X43450000Y-53049224D01*
X45842000Y-53049224D01*
X45842000Y-53510500D01*
X46031500Y-53700000D01*
X47100000Y-53700000D01*
X47100000Y-52631500D01*
X48100000Y-52631500D01*
X48100000Y-53700000D01*
X49168500Y-53700000D01*
X49358000Y-53510500D01*
X49358000Y-53049224D01*
X49242601Y-52770627D01*
X49029372Y-52557398D01*
X48750775Y-52442000D01*
X48289500Y-52442000D01*
X48100000Y-52631500D01*
X47100000Y-52631500D01*
X46910500Y-52442000D01*
X46449225Y-52442000D01*
X46170628Y-52557398D01*
X45957399Y-52770627D01*
X45842000Y-53049224D01*
X43450000Y-53049224D01*
X43450000Y-48750000D01*
X45891984Y-48750000D01*
X45850304Y-48850376D01*
X45850304Y-48850376D01*
G37*
X45850304Y-48850376D02*
X45849696Y-49546569D01*
X46115557Y-50190001D01*
X46607410Y-50682713D01*
X47250376Y-50949696D01*
X47946569Y-50950304D01*
X48590001Y-50684443D01*
X49082713Y-50192590D01*
X49349696Y-49549624D01*
X49350304Y-48853431D01*
X49307567Y-48750000D01*
X52050000Y-48750000D01*
X52050000Y-62017578D01*
X51191978Y-61972419D01*
X50516206Y-62070247D01*
X49929312Y-62419235D01*
X49520644Y-62966253D01*
X49352419Y-63628022D01*
X49450247Y-64303794D01*
X49799235Y-64890688D01*
X49849998Y-64928612D01*
X49849998Y-65213864D01*
X49594246Y-65565903D01*
X49693704Y-65810000D01*
X50650000Y-65810000D01*
X50650000Y-65376570D01*
X51008022Y-65467581D01*
X51550000Y-65496106D01*
X51550000Y-65810000D01*
X52000000Y-65810000D01*
X52000000Y-66710000D01*
X51550000Y-66710000D01*
X51550000Y-67121733D01*
X50941562Y-67057187D01*
X50676891Y-67135307D01*
X50650000Y-67135307D01*
X50650000Y-66710000D01*
X49693704Y-66710000D01*
X49594246Y-66954097D01*
X49814276Y-67256965D01*
X49666802Y-67351862D01*
X49495554Y-67602492D01*
X49435307Y-67900000D01*
X49435307Y-68268245D01*
X49429219Y-68279432D01*
X49357187Y-68958438D01*
X49435307Y-69223109D01*
X49435307Y-69700000D01*
X49487604Y-69977933D01*
X49651862Y-70233198D01*
X49902492Y-70404446D01*
X50200000Y-70464693D01*
X50364044Y-70464693D01*
X51718693Y-71593567D01*
X52050000Y-71924874D01*
X52050000Y-79285249D01*
X51794092Y-79114278D01*
X51550000Y-79222147D01*
X51550000Y-80170000D01*
X52000000Y-80170000D01*
X52000000Y-81070000D01*
X51550000Y-81070000D01*
X51550000Y-81410000D01*
X51100000Y-81410000D01*
X50650000Y-81499511D01*
X50650000Y-81070000D01*
X49693704Y-81070000D01*
X49594246Y-81314097D01*
X49849998Y-81666136D01*
X49849998Y-81941368D01*
X49483211Y-82490304D01*
X49350000Y-83160000D01*
X49483211Y-83829696D01*
X49735679Y-84207541D01*
X49666802Y-84251862D01*
X49495554Y-84502492D01*
X49435307Y-84800000D01*
X49435307Y-85271133D01*
X49350000Y-85700000D01*
X49435307Y-86128867D01*
X49435307Y-86600000D01*
X49487604Y-86877933D01*
X49651862Y-87133198D01*
X49902492Y-87304446D01*
X50200000Y-87364693D01*
X50402676Y-87364693D01*
X50630304Y-87516789D01*
X51300000Y-87650000D01*
X54700000Y-87650000D01*
X55369696Y-87516789D01*
X55937437Y-87137437D01*
X60717437Y-82357437D01*
X61096789Y-81789696D01*
X61230000Y-81120000D01*
X61230000Y-79550000D01*
X62449869Y-79550000D01*
X62449732Y-79706961D01*
X62685208Y-80276857D01*
X63120849Y-80713260D01*
X63690333Y-80949730D01*
X64306961Y-80950268D01*
X64876857Y-80714792D01*
X64960990Y-80630805D01*
X68334881Y-80630805D01*
X68419983Y-80878846D01*
X69030064Y-80988239D01*
X69580017Y-80878846D01*
X69665119Y-80630805D01*
X69000000Y-79965685D01*
X68334881Y-80630805D01*
X64960990Y-80630805D01*
X65313260Y-80279151D01*
X65549730Y-79709667D01*
X65549869Y-79550000D01*
X66300000Y-79550000D01*
X66397264Y-79530304D01*
X66476777Y-79476777D01*
X66523490Y-79430064D01*
X67411761Y-79430064D01*
X67521154Y-79980017D01*
X67769195Y-80065119D01*
X68434315Y-79400000D01*
X67769195Y-78734881D01*
X67521154Y-78819983D01*
X67411761Y-79430064D01*
X66523490Y-79430064D01*
X67903554Y-78050000D01*
X68375776Y-78050000D01*
X68334881Y-78169195D01*
X69000000Y-78834315D01*
X69665119Y-78169195D01*
X69622676Y-78045489D01*
X70222000Y-77926276D01*
X70222000Y-78590002D01*
X70529998Y-78590002D01*
X70529998Y-78898000D01*
X70577435Y-78898000D01*
X70513421Y-78993804D01*
X70478846Y-78819983D01*
X70230805Y-78734881D01*
X69565685Y-79400000D01*
X70230805Y-80065119D01*
X70236096Y-80063304D01*
X70317621Y-80473159D01*
X70540189Y-80806257D01*
X67004446Y-84342000D01*
X66149998Y-84342000D01*
X66149998Y-84649998D01*
X65842000Y-84649998D01*
X65842000Y-85504446D01*
X60175757Y-91170689D01*
X60114792Y-91023143D01*
X59679151Y-90586740D01*
X59109667Y-90350270D01*
X58493039Y-90349732D01*
X57923143Y-90585208D01*
X57486740Y-91020849D01*
X57250270Y-91590333D01*
X57249732Y-92206961D01*
X57485208Y-92776857D01*
X57920849Y-93213260D01*
X58070886Y-93275560D01*
X57882773Y-93463673D01*
X57609667Y-93350270D01*
X56993039Y-93349732D01*
X56423143Y-93585208D01*
X55986740Y-94020849D01*
X55767018Y-94550000D01*
X54749653Y-94550000D01*
X54649696Y-94483211D01*
X53980000Y-94350000D01*
X53310304Y-94483211D01*
X53293359Y-94494533D01*
X53115056Y-94530000D01*
X52020000Y-94530000D01*
X51919453Y-94550000D01*
X47800000Y-94550000D01*
X47702736Y-94569696D01*
X47620798Y-94625682D01*
X47567097Y-94709136D01*
X47550000Y-94800000D01*
X47550000Y-97299837D01*
X47030304Y-97403211D01*
X46462563Y-97782563D01*
X46083211Y-98350304D01*
X45950000Y-99020000D01*
X46083211Y-99689696D01*
X46462563Y-100257437D01*
X46575377Y-100332817D01*
X46533274Y-100360949D01*
X46175599Y-100896247D01*
X46050000Y-101527675D01*
X46050000Y-101592325D01*
X46175599Y-102223753D01*
X46392484Y-102548345D01*
X46370628Y-102557398D01*
X46157399Y-102770627D01*
X46042000Y-103049224D01*
X46042000Y-103460500D01*
X46231500Y-103650000D01*
X47250000Y-103650000D01*
X47250000Y-103200000D01*
X47487219Y-103200000D01*
X47550000Y-103212488D01*
X47550000Y-105000000D01*
X47250000Y-105000000D01*
X47250000Y-104550000D01*
X46231500Y-104550000D01*
X46042000Y-104739500D01*
X46042000Y-105150776D01*
X46157399Y-105429373D01*
X46370628Y-105642602D01*
X46449998Y-105675478D01*
X46449998Y-105758000D01*
X47550000Y-105758000D01*
X47550000Y-106050000D01*
X43450000Y-106050000D01*
X43450000Y-93130805D01*
X53134881Y-93130805D01*
X53219983Y-93378846D01*
X53830064Y-93488239D01*
X54380017Y-93378846D01*
X54465119Y-93130805D01*
X53800000Y-92465685D01*
X53134881Y-93130805D01*
X43450000Y-93130805D01*
X43450000Y-91930064D01*
X52211761Y-91930064D01*
X52321154Y-92480017D01*
X52569195Y-92565119D01*
X53234315Y-91900000D01*
X54365685Y-91900000D01*
X55030805Y-92565119D01*
X55278846Y-92480017D01*
X55388239Y-91869936D01*
X55278846Y-91319983D01*
X55030805Y-91234881D01*
X54365685Y-91900000D01*
X53234315Y-91900000D01*
X52569195Y-91234881D01*
X52321154Y-91319983D01*
X52211761Y-91930064D01*
X43450000Y-91930064D01*
X43450000Y-90669195D01*
X53134881Y-90669195D01*
X53800000Y-91334315D01*
X54465119Y-90669195D01*
X54380017Y-90421154D01*
X53769936Y-90311761D01*
X53219983Y-90421154D01*
X53134881Y-90669195D01*
X43450000Y-90669195D01*
X43450000Y-79925903D01*
X49594246Y-79925903D01*
X49693704Y-80170000D01*
X50650000Y-80170000D01*
X50650000Y-79222147D01*
X50405908Y-79114278D01*
X49974484Y-79402511D01*
X49594246Y-79925903D01*
X43450000Y-79925903D01*
X43450000Y-54889500D01*
X45842000Y-54889500D01*
X45842000Y-55350776D01*
X45957399Y-55629373D01*
X46170628Y-55842602D01*
X46449225Y-55958000D01*
X46910500Y-55958000D01*
X47100000Y-55768500D01*
X47100000Y-54700000D01*
X48100000Y-54700000D01*
X48100000Y-55768500D01*
X48289500Y-55958000D01*
X48750775Y-55958000D01*
X49029372Y-55842602D01*
X49242601Y-55629373D01*
X49358000Y-55350776D01*
X49358000Y-54889500D01*
X49168500Y-54700000D01*
X48100000Y-54700000D01*
X47100000Y-54700000D01*
X46031500Y-54700000D01*
X45842000Y-54889500D01*
X43450000Y-54889500D01*
X43450000Y-53049224D01*
X45842000Y-53049224D01*
X45842000Y-53510500D01*
X46031500Y-53700000D01*
X47100000Y-53700000D01*
X47100000Y-52631500D01*
X48100000Y-52631500D01*
X48100000Y-53700000D01*
X49168500Y-53700000D01*
X49358000Y-53510500D01*
X49358000Y-53049224D01*
X49242601Y-52770627D01*
X49029372Y-52557398D01*
X48750775Y-52442000D01*
X48289500Y-52442000D01*
X48100000Y-52631500D01*
X47100000Y-52631500D01*
X46910500Y-52442000D01*
X46449225Y-52442000D01*
X46170628Y-52557398D01*
X45957399Y-52770627D01*
X45842000Y-53049224D01*
X43450000Y-53049224D01*
X43450000Y-48750000D01*
X45891984Y-48750000D01*
X45850304Y-48850376D01*
G36*
X72180000Y-76940000D02*
X72580000Y-76940000D01*
X72580000Y-77740000D01*
X72180000Y-77740000D01*
X72180000Y-78140000D01*
X71380000Y-78140000D01*
X71380000Y-77740000D01*
X70980000Y-77740000D01*
X70980000Y-77394874D01*
X71834874Y-76540000D01*
X72180000Y-76540000D01*
X72180000Y-76940000D01*
X72180000Y-76940000D01*
G37*
X72180000Y-76940000D02*
X72580000Y-76940000D01*
X72580000Y-77740000D01*
X72180000Y-77740000D01*
X72180000Y-78140000D01*
X71380000Y-78140000D01*
X71380000Y-77740000D01*
X70980000Y-77740000D01*
X70980000Y-77394874D01*
X71834874Y-76540000D01*
X72180000Y-76540000D01*
X72180000Y-76940000D01*
G36*
X75650000Y-53903554D02*
X75650000Y-58150000D01*
X64300000Y-58150000D01*
X64202736Y-58169696D01*
X64120798Y-58225682D01*
X64067097Y-58309136D01*
X64050000Y-58400000D01*
X64050000Y-61219784D01*
X64000000Y-61209838D01*
X63215499Y-61365885D01*
X62550431Y-61810269D01*
X62106047Y-62475337D01*
X61950000Y-63259838D01*
X61950000Y-63340162D01*
X62106047Y-64124663D01*
X62550431Y-64789731D01*
X63215499Y-65234115D01*
X64000000Y-65390162D01*
X64050000Y-65380216D01*
X64050000Y-67196446D01*
X61396446Y-69850000D01*
X54950000Y-69850000D01*
X54950000Y-68449225D01*
X57242000Y-68449225D01*
X57242000Y-68960500D01*
X57431500Y-69150000D01*
X58550000Y-69150000D01*
X58550000Y-68031500D01*
X59650000Y-68031500D01*
X59650000Y-69150000D01*
X60768500Y-69150000D01*
X60958000Y-68960500D01*
X60958000Y-68449225D01*
X60842602Y-68170628D01*
X60629373Y-67957399D01*
X60350776Y-67842000D01*
X59839500Y-67842000D01*
X59650000Y-68031500D01*
X58550000Y-68031500D01*
X58360500Y-67842000D01*
X57849224Y-67842000D01*
X57570627Y-67957399D01*
X57357398Y-68170628D01*
X57242000Y-68449225D01*
X54950000Y-68449225D01*
X54950000Y-68111724D01*
X54969369Y-68124665D01*
X55200000Y-68008737D01*
X55200000Y-67100000D01*
X56000000Y-67100000D01*
X56000000Y-68008737D01*
X56230631Y-68124665D01*
X56674912Y-67827838D01*
X57024694Y-67330635D01*
X56916307Y-67100000D01*
X56000000Y-67100000D01*
X55200000Y-67100000D01*
X54950000Y-67100000D01*
X54950000Y-66300000D01*
X55200000Y-66300000D01*
X55200000Y-65900000D01*
X56000000Y-65900000D01*
X56000000Y-66300000D01*
X56916307Y-66300000D01*
X57024694Y-66069365D01*
X56850002Y-65821046D01*
X56850002Y-65500003D01*
X57210419Y-65649661D01*
X57986177Y-65650338D01*
X58703143Y-65354094D01*
X59252166Y-64806029D01*
X59549661Y-64089581D01*
X59550338Y-63313823D01*
X59254094Y-62596857D01*
X58706029Y-62047834D01*
X57989581Y-61750339D01*
X57213823Y-61749662D01*
X56685371Y-61968014D01*
X54950000Y-62002861D01*
X54950000Y-56730452D01*
X70376655Y-56730452D01*
X70492759Y-56986448D01*
X71184358Y-57090455D01*
X71707241Y-56986448D01*
X71823345Y-56730452D01*
X71100000Y-56007107D01*
X70376655Y-56730452D01*
X54950000Y-56730452D01*
X54950000Y-55384358D01*
X69309545Y-55384358D01*
X69413552Y-55907241D01*
X69669548Y-56023345D01*
X70392893Y-55300000D01*
X71807107Y-55300000D01*
X72530452Y-56023345D01*
X72786448Y-55907241D01*
X72890455Y-55215642D01*
X72786448Y-54692759D01*
X72530452Y-54576655D01*
X71807107Y-55300000D01*
X70392893Y-55300000D01*
X69669548Y-54576655D01*
X69413552Y-54692759D01*
X69309545Y-55384358D01*
X54950000Y-55384358D01*
X54950000Y-53869548D01*
X70376655Y-53869548D01*
X71100000Y-54592893D01*
X71823345Y-53869548D01*
X71707241Y-53613552D01*
X71015642Y-53509545D01*
X70492759Y-53613552D01*
X70376655Y-53869548D01*
X54950000Y-53869548D01*
X54950000Y-51439500D01*
X61942000Y-51439500D01*
X61942000Y-52050776D01*
X62057399Y-52329373D01*
X62270628Y-52542602D01*
X62549225Y-52658000D01*
X63160500Y-52658000D01*
X63350000Y-52468500D01*
X63350000Y-51250000D01*
X64650000Y-51250000D01*
X64650000Y-52468500D01*
X64839500Y-52658000D01*
X65450775Y-52658000D01*
X65729372Y-52542602D01*
X65942601Y-52329373D01*
X66058000Y-52050776D01*
X66058000Y-51439500D01*
X65868500Y-51250000D01*
X64650000Y-51250000D01*
X63350000Y-51250000D01*
X62131500Y-51250000D01*
X61942000Y-51439500D01*
X54950000Y-51439500D01*
X54950000Y-49149224D01*
X61942000Y-49149224D01*
X61942000Y-49760500D01*
X62131500Y-49950000D01*
X63350000Y-49950000D01*
X63350000Y-48731500D01*
X64650000Y-48731500D01*
X64650000Y-49950000D01*
X65868500Y-49950000D01*
X66058000Y-49760500D01*
X66058000Y-49149224D01*
X65942601Y-48870627D01*
X65729372Y-48657398D01*
X65450775Y-48542000D01*
X64839500Y-48542000D01*
X64650000Y-48731500D01*
X63350000Y-48731500D01*
X63160500Y-48542000D01*
X62549225Y-48542000D01*
X62270628Y-48657398D01*
X62057399Y-48870627D01*
X61942000Y-49149224D01*
X54950000Y-49149224D01*
X54950000Y-44264182D01*
X55852968Y-44264182D01*
X56324315Y-44865438D01*
X56715824Y-45126997D01*
X57000000Y-45043608D01*
X57000000Y-43980000D01*
X58200000Y-43980000D01*
X58200000Y-45043608D01*
X58484176Y-45126997D01*
X58875685Y-44865438D01*
X59347032Y-44264182D01*
X59274340Y-43980000D01*
X58200000Y-43980000D01*
X57000000Y-43980000D01*
X55925660Y-43980000D01*
X55852968Y-44264182D01*
X54950000Y-44264182D01*
X54950000Y-42495818D01*
X55852968Y-42495818D01*
X55925660Y-42780000D01*
X57000000Y-42780000D01*
X57000000Y-41716392D01*
X58200000Y-41716392D01*
X58200000Y-42780000D01*
X59274340Y-42780000D01*
X59347032Y-42495818D01*
X58875685Y-41894562D01*
X58484176Y-41633003D01*
X58200000Y-41716392D01*
X57000000Y-41716392D01*
X56715824Y-41633003D01*
X56324315Y-41894562D01*
X55852968Y-42495818D01*
X54950000Y-42495818D01*
X54950000Y-42000000D01*
X54946598Y-41958900D01*
X54761781Y-40850000D01*
X62596446Y-40850000D01*
X75650000Y-53903554D01*
X75650000Y-53903554D01*
G37*
X75650000Y-53903554D02*
X75650000Y-58150000D01*
X64300000Y-58150000D01*
X64202736Y-58169696D01*
X64120798Y-58225682D01*
X64067097Y-58309136D01*
X64050000Y-58400000D01*
X64050000Y-61219784D01*
X64000000Y-61209838D01*
X63215499Y-61365885D01*
X62550431Y-61810269D01*
X62106047Y-62475337D01*
X61950000Y-63259838D01*
X61950000Y-63340162D01*
X62106047Y-64124663D01*
X62550431Y-64789731D01*
X63215499Y-65234115D01*
X64000000Y-65390162D01*
X64050000Y-65380216D01*
X64050000Y-67196446D01*
X61396446Y-69850000D01*
X54950000Y-69850000D01*
X54950000Y-68449225D01*
X57242000Y-68449225D01*
X57242000Y-68960500D01*
X57431500Y-69150000D01*
X58550000Y-69150000D01*
X58550000Y-68031500D01*
X59650000Y-68031500D01*
X59650000Y-69150000D01*
X60768500Y-69150000D01*
X60958000Y-68960500D01*
X60958000Y-68449225D01*
X60842602Y-68170628D01*
X60629373Y-67957399D01*
X60350776Y-67842000D01*
X59839500Y-67842000D01*
X59650000Y-68031500D01*
X58550000Y-68031500D01*
X58360500Y-67842000D01*
X57849224Y-67842000D01*
X57570627Y-67957399D01*
X57357398Y-68170628D01*
X57242000Y-68449225D01*
X54950000Y-68449225D01*
X54950000Y-68111724D01*
X54969369Y-68124665D01*
X55200000Y-68008737D01*
X55200000Y-67100000D01*
X56000000Y-67100000D01*
X56000000Y-68008737D01*
X56230631Y-68124665D01*
X56674912Y-67827838D01*
X57024694Y-67330635D01*
X56916307Y-67100000D01*
X56000000Y-67100000D01*
X55200000Y-67100000D01*
X54950000Y-67100000D01*
X54950000Y-66300000D01*
X55200000Y-66300000D01*
X55200000Y-65900000D01*
X56000000Y-65900000D01*
X56000000Y-66300000D01*
X56916307Y-66300000D01*
X57024694Y-66069365D01*
X56850002Y-65821046D01*
X56850002Y-65500003D01*
X57210419Y-65649661D01*
X57986177Y-65650338D01*
X58703143Y-65354094D01*
X59252166Y-64806029D01*
X59549661Y-64089581D01*
X59550338Y-63313823D01*
X59254094Y-62596857D01*
X58706029Y-62047834D01*
X57989581Y-61750339D01*
X57213823Y-61749662D01*
X56685371Y-61968014D01*
X54950000Y-62002861D01*
X54950000Y-56730452D01*
X70376655Y-56730452D01*
X70492759Y-56986448D01*
X71184358Y-57090455D01*
X71707241Y-56986448D01*
X71823345Y-56730452D01*
X71100000Y-56007107D01*
X70376655Y-56730452D01*
X54950000Y-56730452D01*
X54950000Y-55384358D01*
X69309545Y-55384358D01*
X69413552Y-55907241D01*
X69669548Y-56023345D01*
X70392893Y-55300000D01*
X71807107Y-55300000D01*
X72530452Y-56023345D01*
X72786448Y-55907241D01*
X72890455Y-55215642D01*
X72786448Y-54692759D01*
X72530452Y-54576655D01*
X71807107Y-55300000D01*
X70392893Y-55300000D01*
X69669548Y-54576655D01*
X69413552Y-54692759D01*
X69309545Y-55384358D01*
X54950000Y-55384358D01*
X54950000Y-53869548D01*
X70376655Y-53869548D01*
X71100000Y-54592893D01*
X71823345Y-53869548D01*
X71707241Y-53613552D01*
X71015642Y-53509545D01*
X70492759Y-53613552D01*
X70376655Y-53869548D01*
X54950000Y-53869548D01*
X54950000Y-51439500D01*
X61942000Y-51439500D01*
X61942000Y-52050776D01*
X62057399Y-52329373D01*
X62270628Y-52542602D01*
X62549225Y-52658000D01*
X63160500Y-52658000D01*
X63350000Y-52468500D01*
X63350000Y-51250000D01*
X64650000Y-51250000D01*
X64650000Y-52468500D01*
X64839500Y-52658000D01*
X65450775Y-52658000D01*
X65729372Y-52542602D01*
X65942601Y-52329373D01*
X66058000Y-52050776D01*
X66058000Y-51439500D01*
X65868500Y-51250000D01*
X64650000Y-51250000D01*
X63350000Y-51250000D01*
X62131500Y-51250000D01*
X61942000Y-51439500D01*
X54950000Y-51439500D01*
X54950000Y-49149224D01*
X61942000Y-49149224D01*
X61942000Y-49760500D01*
X62131500Y-49950000D01*
X63350000Y-49950000D01*
X63350000Y-48731500D01*
X64650000Y-48731500D01*
X64650000Y-49950000D01*
X65868500Y-49950000D01*
X66058000Y-49760500D01*
X66058000Y-49149224D01*
X65942601Y-48870627D01*
X65729372Y-48657398D01*
X65450775Y-48542000D01*
X64839500Y-48542000D01*
X64650000Y-48731500D01*
X63350000Y-48731500D01*
X63160500Y-48542000D01*
X62549225Y-48542000D01*
X62270628Y-48657398D01*
X62057399Y-48870627D01*
X61942000Y-49149224D01*
X54950000Y-49149224D01*
X54950000Y-44264182D01*
X55852968Y-44264182D01*
X56324315Y-44865438D01*
X56715824Y-45126997D01*
X57000000Y-45043608D01*
X57000000Y-43980000D01*
X58200000Y-43980000D01*
X58200000Y-45043608D01*
X58484176Y-45126997D01*
X58875685Y-44865438D01*
X59347032Y-44264182D01*
X59274340Y-43980000D01*
X58200000Y-43980000D01*
X57000000Y-43980000D01*
X55925660Y-43980000D01*
X55852968Y-44264182D01*
X54950000Y-44264182D01*
X54950000Y-42495818D01*
X55852968Y-42495818D01*
X55925660Y-42780000D01*
X57000000Y-42780000D01*
X57000000Y-41716392D01*
X58200000Y-41716392D01*
X58200000Y-42780000D01*
X59274340Y-42780000D01*
X59347032Y-42495818D01*
X58875685Y-41894562D01*
X58484176Y-41633003D01*
X58200000Y-41716392D01*
X57000000Y-41716392D01*
X56715824Y-41633003D01*
X56324315Y-41894562D01*
X55852968Y-42495818D01*
X54950000Y-42495818D01*
X54950000Y-42000000D01*
X54946598Y-41958900D01*
X54761781Y-40850000D01*
X62596446Y-40850000D01*
X75650000Y-53903554D01*
G36*
X69442000Y-37149225D02*
X69442000Y-37710500D01*
X69631500Y-37900000D01*
X70800000Y-37900000D01*
X70800000Y-37300000D01*
X72000000Y-37300000D01*
X72000000Y-37900000D01*
X73168500Y-37900000D01*
X73358000Y-37710500D01*
X73358000Y-37149225D01*
X73275479Y-36950000D01*
X73850000Y-36950000D01*
X73850000Y-41800000D01*
X73869696Y-41897264D01*
X73925682Y-41979202D01*
X74009136Y-42032903D01*
X74100000Y-42050000D01*
X80133648Y-42050000D01*
X79907939Y-42275709D01*
X80249461Y-42617231D01*
X80208482Y-42938928D01*
X80306911Y-43433768D01*
X80570593Y-43580879D01*
X81351472Y-42800000D01*
X80927208Y-42375736D01*
X81252944Y-42050000D01*
X83147056Y-42050000D01*
X83472792Y-42375736D01*
X83048528Y-42800000D01*
X83829407Y-43580879D01*
X84093089Y-43433768D01*
X84191518Y-42661072D01*
X84177446Y-42590324D01*
X84492061Y-42275709D01*
X84266352Y-42050000D01*
X87396446Y-42050000D01*
X92550000Y-47203554D01*
X92550000Y-52291072D01*
X92330579Y-52071651D01*
X92045802Y-52356428D01*
X91368851Y-52288408D01*
X90917361Y-52378216D01*
X90723699Y-52653039D01*
X91590000Y-53519340D01*
X91957696Y-53151644D01*
X92550000Y-53743948D01*
X92550000Y-55416052D01*
X91957696Y-56008356D01*
X91590000Y-55640660D01*
X90723699Y-56506961D01*
X90917361Y-56781784D01*
X91811149Y-56871592D01*
X92063605Y-56821375D01*
X92330579Y-57088349D01*
X92550000Y-56868928D01*
X92550000Y-62096446D01*
X86456090Y-68190356D01*
X86000000Y-68099634D01*
X85406841Y-68217621D01*
X85358382Y-68250000D01*
X83390671Y-68250000D01*
X82909667Y-68050270D01*
X82293039Y-68049732D01*
X81808353Y-68250000D01*
X80650000Y-68250000D01*
X80650000Y-67230631D01*
X82095335Y-67230631D01*
X82392162Y-67674912D01*
X82889365Y-68024694D01*
X83120000Y-67916307D01*
X83120000Y-67000000D01*
X83920000Y-67000000D01*
X83920000Y-67916307D01*
X84150635Y-68024694D01*
X84647838Y-67674912D01*
X84944665Y-67230631D01*
X84828737Y-67000000D01*
X83920000Y-67000000D01*
X83120000Y-67000000D01*
X82211263Y-67000000D01*
X82095335Y-67230631D01*
X80650000Y-67230631D01*
X80650000Y-66600000D01*
X80554849Y-66121646D01*
X80478139Y-66006841D01*
X80453102Y-65969369D01*
X82095335Y-65969369D01*
X82211263Y-66200000D01*
X83120000Y-66200000D01*
X83120000Y-65283693D01*
X83920000Y-65283693D01*
X83920000Y-66200000D01*
X84828737Y-66200000D01*
X84944665Y-65969369D01*
X84647838Y-65525088D01*
X84150635Y-65175306D01*
X83920000Y-65283693D01*
X83120000Y-65283693D01*
X82889365Y-65175306D01*
X82392162Y-65525088D01*
X82095335Y-65969369D01*
X80453102Y-65969369D01*
X80283883Y-65716116D01*
X79250000Y-64682233D01*
X79250000Y-60506961D01*
X85549732Y-60506961D01*
X85785208Y-61076857D01*
X86220849Y-61513260D01*
X86790333Y-61749730D01*
X87406961Y-61750268D01*
X87976857Y-61514792D01*
X88413260Y-61079151D01*
X88649730Y-60509667D01*
X88650268Y-59893039D01*
X88414792Y-59323143D01*
X87979151Y-58886740D01*
X87409667Y-58650270D01*
X86793039Y-58649732D01*
X86223143Y-58885208D01*
X85786740Y-59320849D01*
X85550270Y-59890333D01*
X85549732Y-60506961D01*
X79250000Y-60506961D01*
X79250000Y-60500000D01*
X79230304Y-60402736D01*
X79176777Y-60323223D01*
X76950000Y-58096446D01*
X76950000Y-56730452D01*
X80376655Y-56730452D01*
X80492759Y-56986448D01*
X81184358Y-57090455D01*
X81707241Y-56986448D01*
X81823345Y-56730452D01*
X81523698Y-56430805D01*
X86434881Y-56430805D01*
X86519983Y-56678846D01*
X87130064Y-56788239D01*
X87680017Y-56678846D01*
X87765119Y-56430805D01*
X87100000Y-55765685D01*
X86434881Y-56430805D01*
X81523698Y-56430805D01*
X81100000Y-56007107D01*
X80376655Y-56730452D01*
X76950000Y-56730452D01*
X76950000Y-55384358D01*
X79309545Y-55384358D01*
X79413552Y-55907241D01*
X79669548Y-56023345D01*
X80392893Y-55300000D01*
X81807107Y-55300000D01*
X82530452Y-56023345D01*
X82786448Y-55907241D01*
X82888286Y-55230064D01*
X85511761Y-55230064D01*
X85621154Y-55780017D01*
X85869195Y-55865119D01*
X86534315Y-55200000D01*
X87665685Y-55200000D01*
X88330805Y-55865119D01*
X88578846Y-55780017D01*
X88688239Y-55169936D01*
X88614883Y-54801149D01*
X89298408Y-54801149D01*
X89388216Y-55252639D01*
X89663039Y-55446301D01*
X90529340Y-54580000D01*
X89663039Y-53713699D01*
X89388216Y-53907361D01*
X89298408Y-54801149D01*
X88614883Y-54801149D01*
X88578846Y-54619983D01*
X88330805Y-54534881D01*
X87665685Y-55200000D01*
X86534315Y-55200000D01*
X85869195Y-54534881D01*
X85621154Y-54619983D01*
X85511761Y-55230064D01*
X82888286Y-55230064D01*
X82890455Y-55215642D01*
X82786448Y-54692759D01*
X82530452Y-54576655D01*
X81807107Y-55300000D01*
X80392893Y-55300000D01*
X79669548Y-54576655D01*
X79413552Y-54692759D01*
X79309545Y-55384358D01*
X76950000Y-55384358D01*
X76950000Y-53869548D01*
X80376655Y-53869548D01*
X81100000Y-54592893D01*
X81723698Y-53969195D01*
X86434881Y-53969195D01*
X87100000Y-54634315D01*
X87765119Y-53969195D01*
X87680017Y-53721154D01*
X87069936Y-53611761D01*
X86519983Y-53721154D01*
X86434881Y-53969195D01*
X81723698Y-53969195D01*
X81823345Y-53869548D01*
X81707241Y-53613552D01*
X81015642Y-53509545D01*
X80492759Y-53613552D01*
X80376655Y-53869548D01*
X76950000Y-53869548D01*
X76950000Y-53000000D01*
X76930304Y-52902736D01*
X76876777Y-52823223D01*
X69250000Y-45196446D01*
X69250000Y-44429407D01*
X81419121Y-44429407D01*
X81566232Y-44693089D01*
X82338928Y-44791518D01*
X82833768Y-44693089D01*
X82980879Y-44429407D01*
X82200000Y-43648528D01*
X81419121Y-44429407D01*
X69250000Y-44429407D01*
X69250000Y-39289500D01*
X69442000Y-39289500D01*
X69442000Y-39850775D01*
X69557398Y-40129372D01*
X69770627Y-40342601D01*
X70049224Y-40458000D01*
X70610500Y-40458000D01*
X70800000Y-40268500D01*
X70800000Y-39100000D01*
X72000000Y-39100000D01*
X72000000Y-40268500D01*
X72189500Y-40458000D01*
X72750776Y-40458000D01*
X73029373Y-40342601D01*
X73242602Y-40129372D01*
X73358000Y-39850775D01*
X73358000Y-39289500D01*
X73168500Y-39100000D01*
X72000000Y-39100000D01*
X70800000Y-39100000D01*
X69631500Y-39100000D01*
X69442000Y-39289500D01*
X69250000Y-39289500D01*
X69250000Y-36950000D01*
X69524521Y-36950000D01*
X69442000Y-37149225D01*
X69442000Y-37149225D01*
G37*
X69442000Y-37149225D02*
X69442000Y-37710500D01*
X69631500Y-37900000D01*
X70800000Y-37900000D01*
X70800000Y-37300000D01*
X72000000Y-37300000D01*
X72000000Y-37900000D01*
X73168500Y-37900000D01*
X73358000Y-37710500D01*
X73358000Y-37149225D01*
X73275479Y-36950000D01*
X73850000Y-36950000D01*
X73850000Y-41800000D01*
X73869696Y-41897264D01*
X73925682Y-41979202D01*
X74009136Y-42032903D01*
X74100000Y-42050000D01*
X80133648Y-42050000D01*
X79907939Y-42275709D01*
X80249461Y-42617231D01*
X80208482Y-42938928D01*
X80306911Y-43433768D01*
X80570593Y-43580879D01*
X81351472Y-42800000D01*
X80927208Y-42375736D01*
X81252944Y-42050000D01*
X83147056Y-42050000D01*
X83472792Y-42375736D01*
X83048528Y-42800000D01*
X83829407Y-43580879D01*
X84093089Y-43433768D01*
X84191518Y-42661072D01*
X84177446Y-42590324D01*
X84492061Y-42275709D01*
X84266352Y-42050000D01*
X87396446Y-42050000D01*
X92550000Y-47203554D01*
X92550000Y-52291072D01*
X92330579Y-52071651D01*
X92045802Y-52356428D01*
X91368851Y-52288408D01*
X90917361Y-52378216D01*
X90723699Y-52653039D01*
X91590000Y-53519340D01*
X91957696Y-53151644D01*
X92550000Y-53743948D01*
X92550000Y-55416052D01*
X91957696Y-56008356D01*
X91590000Y-55640660D01*
X90723699Y-56506961D01*
X90917361Y-56781784D01*
X91811149Y-56871592D01*
X92063605Y-56821375D01*
X92330579Y-57088349D01*
X92550000Y-56868928D01*
X92550000Y-62096446D01*
X86456090Y-68190356D01*
X86000000Y-68099634D01*
X85406841Y-68217621D01*
X85358382Y-68250000D01*
X83390671Y-68250000D01*
X82909667Y-68050270D01*
X82293039Y-68049732D01*
X81808353Y-68250000D01*
X80650000Y-68250000D01*
X80650000Y-67230631D01*
X82095335Y-67230631D01*
X82392162Y-67674912D01*
X82889365Y-68024694D01*
X83120000Y-67916307D01*
X83120000Y-67000000D01*
X83920000Y-67000000D01*
X83920000Y-67916307D01*
X84150635Y-68024694D01*
X84647838Y-67674912D01*
X84944665Y-67230631D01*
X84828737Y-67000000D01*
X83920000Y-67000000D01*
X83120000Y-67000000D01*
X82211263Y-67000000D01*
X82095335Y-67230631D01*
X80650000Y-67230631D01*
X80650000Y-66600000D01*
X80554849Y-66121646D01*
X80478139Y-66006841D01*
X80453102Y-65969369D01*
X82095335Y-65969369D01*
X82211263Y-66200000D01*
X83120000Y-66200000D01*
X83120000Y-65283693D01*
X83920000Y-65283693D01*
X83920000Y-66200000D01*
X84828737Y-66200000D01*
X84944665Y-65969369D01*
X84647838Y-65525088D01*
X84150635Y-65175306D01*
X83920000Y-65283693D01*
X83120000Y-65283693D01*
X82889365Y-65175306D01*
X82392162Y-65525088D01*
X82095335Y-65969369D01*
X80453102Y-65969369D01*
X80283883Y-65716116D01*
X79250000Y-64682233D01*
X79250000Y-60506961D01*
X85549732Y-60506961D01*
X85785208Y-61076857D01*
X86220849Y-61513260D01*
X86790333Y-61749730D01*
X87406961Y-61750268D01*
X87976857Y-61514792D01*
X88413260Y-61079151D01*
X88649730Y-60509667D01*
X88650268Y-59893039D01*
X88414792Y-59323143D01*
X87979151Y-58886740D01*
X87409667Y-58650270D01*
X86793039Y-58649732D01*
X86223143Y-58885208D01*
X85786740Y-59320849D01*
X85550270Y-59890333D01*
X85549732Y-60506961D01*
X79250000Y-60506961D01*
X79250000Y-60500000D01*
X79230304Y-60402736D01*
X79176777Y-60323223D01*
X76950000Y-58096446D01*
X76950000Y-56730452D01*
X80376655Y-56730452D01*
X80492759Y-56986448D01*
X81184358Y-57090455D01*
X81707241Y-56986448D01*
X81823345Y-56730452D01*
X81523698Y-56430805D01*
X86434881Y-56430805D01*
X86519983Y-56678846D01*
X87130064Y-56788239D01*
X87680017Y-56678846D01*
X87765119Y-56430805D01*
X87100000Y-55765685D01*
X86434881Y-56430805D01*
X81523698Y-56430805D01*
X81100000Y-56007107D01*
X80376655Y-56730452D01*
X76950000Y-56730452D01*
X76950000Y-55384358D01*
X79309545Y-55384358D01*
X79413552Y-55907241D01*
X79669548Y-56023345D01*
X80392893Y-55300000D01*
X81807107Y-55300000D01*
X82530452Y-56023345D01*
X82786448Y-55907241D01*
X82888286Y-55230064D01*
X85511761Y-55230064D01*
X85621154Y-55780017D01*
X85869195Y-55865119D01*
X86534315Y-55200000D01*
X87665685Y-55200000D01*
X88330805Y-55865119D01*
X88578846Y-55780017D01*
X88688239Y-55169936D01*
X88614883Y-54801149D01*
X89298408Y-54801149D01*
X89388216Y-55252639D01*
X89663039Y-55446301D01*
X90529340Y-54580000D01*
X89663039Y-53713699D01*
X89388216Y-53907361D01*
X89298408Y-54801149D01*
X88614883Y-54801149D01*
X88578846Y-54619983D01*
X88330805Y-54534881D01*
X87665685Y-55200000D01*
X86534315Y-55200000D01*
X85869195Y-54534881D01*
X85621154Y-54619983D01*
X85511761Y-55230064D01*
X82888286Y-55230064D01*
X82890455Y-55215642D01*
X82786448Y-54692759D01*
X82530452Y-54576655D01*
X81807107Y-55300000D01*
X80392893Y-55300000D01*
X79669548Y-54576655D01*
X79413552Y-54692759D01*
X79309545Y-55384358D01*
X76950000Y-55384358D01*
X76950000Y-53869548D01*
X80376655Y-53869548D01*
X81100000Y-54592893D01*
X81723698Y-53969195D01*
X86434881Y-53969195D01*
X87100000Y-54634315D01*
X87765119Y-53969195D01*
X87680017Y-53721154D01*
X87069936Y-53611761D01*
X86519983Y-53721154D01*
X86434881Y-53969195D01*
X81723698Y-53969195D01*
X81823345Y-53869548D01*
X81707241Y-53613552D01*
X81015642Y-53509545D01*
X80492759Y-53613552D01*
X80376655Y-53869548D01*
X76950000Y-53869548D01*
X76950000Y-53000000D01*
X76930304Y-52902736D01*
X76876777Y-52823223D01*
X69250000Y-45196446D01*
X69250000Y-44429407D01*
X81419121Y-44429407D01*
X81566232Y-44693089D01*
X82338928Y-44791518D01*
X82833768Y-44693089D01*
X82980879Y-44429407D01*
X82200000Y-43648528D01*
X81419121Y-44429407D01*
X69250000Y-44429407D01*
X69250000Y-39289500D01*
X69442000Y-39289500D01*
X69442000Y-39850775D01*
X69557398Y-40129372D01*
X69770627Y-40342601D01*
X70049224Y-40458000D01*
X70610500Y-40458000D01*
X70800000Y-40268500D01*
X70800000Y-39100000D01*
X72000000Y-39100000D01*
X72000000Y-40268500D01*
X72189500Y-40458000D01*
X72750776Y-40458000D01*
X73029373Y-40342601D01*
X73242602Y-40129372D01*
X73358000Y-39850775D01*
X73358000Y-39289500D01*
X73168500Y-39100000D01*
X72000000Y-39100000D01*
X70800000Y-39100000D01*
X69631500Y-39100000D01*
X69442000Y-39289500D01*
X69250000Y-39289500D01*
X69250000Y-36950000D01*
X69524521Y-36950000D01*
X69442000Y-37149225D01*
G36*
X99350000Y-54193948D02*
X99350000Y-54230660D01*
X99000660Y-54580000D01*
X99283553Y-54862893D01*
X98222893Y-55923553D01*
X97940000Y-55640660D01*
X97572304Y-56008356D01*
X96511644Y-54947696D01*
X96879340Y-54580000D01*
X96511644Y-54212304D01*
X97572304Y-53151644D01*
X97940000Y-53519340D01*
X98307696Y-53151644D01*
X99350000Y-54193948D01*
X99350000Y-54193948D01*
G37*
X99350000Y-54193948D02*
X99350000Y-54230660D01*
X99000660Y-54580000D01*
X99283553Y-54862893D01*
X98222893Y-55923553D01*
X97940000Y-55640660D01*
X97572304Y-56008356D01*
X96511644Y-54947696D01*
X96879340Y-54580000D01*
X96511644Y-54212304D01*
X97572304Y-53151644D01*
X97940000Y-53519340D01*
X98307696Y-53151644D01*
X99350000Y-54193948D01*
G36*
X99350000Y-33829911D02*
X99242602Y-33570628D01*
X99029373Y-33357399D01*
X98750776Y-33242000D01*
X98039500Y-33242000D01*
X97850000Y-33431500D01*
X97850000Y-34750000D01*
X98370000Y-34750000D01*
X98370000Y-36250000D01*
X97850000Y-36250000D01*
X97850000Y-37568500D01*
X98039500Y-37758000D01*
X98750000Y-37758000D01*
X98750000Y-44300000D01*
X98780713Y-44454403D01*
X98845151Y-44778354D01*
X99116117Y-45183883D01*
X99350000Y-45417766D01*
X99350000Y-52741072D01*
X98680579Y-52071651D01*
X98395802Y-52356428D01*
X97718851Y-52288408D01*
X97466395Y-52338625D01*
X97199421Y-52071651D01*
X96450000Y-52821072D01*
X96450000Y-36300000D01*
X96430304Y-36202736D01*
X96374318Y-36120798D01*
X96290864Y-36067097D01*
X96200000Y-36050000D01*
X94227883Y-36050000D01*
X94269608Y-35949516D01*
X94270390Y-35054411D01*
X93928569Y-34227142D01*
X93551312Y-33849225D01*
X94842000Y-33849225D01*
X94842000Y-34560500D01*
X95031500Y-34750000D01*
X96350000Y-34750000D01*
X96350000Y-33431500D01*
X96160500Y-33242000D01*
X95449224Y-33242000D01*
X95170627Y-33357399D01*
X94957398Y-33570628D01*
X94842000Y-33849225D01*
X93551312Y-33849225D01*
X93296187Y-33593655D01*
X92469516Y-33250392D01*
X91574411Y-33249610D01*
X90747142Y-33591431D01*
X90113655Y-34223813D01*
X89770392Y-35050484D01*
X89769610Y-35945589D01*
X89812752Y-36050000D01*
X83569695Y-36050000D01*
X83570390Y-35254411D01*
X83228569Y-34427142D01*
X82851312Y-34049225D01*
X84142000Y-34049225D01*
X84142000Y-34760500D01*
X84331500Y-34950000D01*
X85650000Y-34950000D01*
X85650000Y-33631500D01*
X87150000Y-33631500D01*
X87150000Y-34950000D01*
X88468500Y-34950000D01*
X88658000Y-34760500D01*
X88658000Y-34049225D01*
X88542602Y-33770628D01*
X88329373Y-33557399D01*
X88050776Y-33442000D01*
X87339500Y-33442000D01*
X87150000Y-33631500D01*
X85650000Y-33631500D01*
X85460500Y-33442000D01*
X84749224Y-33442000D01*
X84470627Y-33557399D01*
X84257398Y-33770628D01*
X84142000Y-34049225D01*
X82851312Y-34049225D01*
X82596187Y-33793655D01*
X81769516Y-33450392D01*
X80874411Y-33449610D01*
X80047142Y-33791431D01*
X79413655Y-34423813D01*
X79138383Y-35086743D01*
X78175126Y-36050000D01*
X77889584Y-36050000D01*
X78603677Y-35335907D01*
X78151126Y-34883357D01*
X78078846Y-34519983D01*
X77830805Y-34434881D01*
X77165685Y-35100000D01*
X77448528Y-35382843D01*
X76882843Y-35948528D01*
X76600000Y-35665685D01*
X76317157Y-35948528D01*
X75751472Y-35382843D01*
X76034315Y-35100000D01*
X75751472Y-34817157D01*
X76317157Y-34251472D01*
X76600000Y-34534315D01*
X77265119Y-33869195D01*
X77180017Y-33621154D01*
X76825323Y-33557554D01*
X76364093Y-33096323D01*
X75650000Y-33810416D01*
X75650000Y-31050000D01*
X99350000Y-31050000D01*
X99350000Y-33829911D01*
X99350000Y-33829911D01*
G37*
X99350000Y-33829911D02*
X99242602Y-33570628D01*
X99029373Y-33357399D01*
X98750776Y-33242000D01*
X98039500Y-33242000D01*
X97850000Y-33431500D01*
X97850000Y-34750000D01*
X98370000Y-34750000D01*
X98370000Y-36250000D01*
X97850000Y-36250000D01*
X97850000Y-37568500D01*
X98039500Y-37758000D01*
X98750000Y-37758000D01*
X98750000Y-44300000D01*
X98780713Y-44454403D01*
X98845151Y-44778354D01*
X99116117Y-45183883D01*
X99350000Y-45417766D01*
X99350000Y-52741072D01*
X98680579Y-52071651D01*
X98395802Y-52356428D01*
X97718851Y-52288408D01*
X97466395Y-52338625D01*
X97199421Y-52071651D01*
X96450000Y-52821072D01*
X96450000Y-36300000D01*
X96430304Y-36202736D01*
X96374318Y-36120798D01*
X96290864Y-36067097D01*
X96200000Y-36050000D01*
X94227883Y-36050000D01*
X94269608Y-35949516D01*
X94270390Y-35054411D01*
X93928569Y-34227142D01*
X93551312Y-33849225D01*
X94842000Y-33849225D01*
X94842000Y-34560500D01*
X95031500Y-34750000D01*
X96350000Y-34750000D01*
X96350000Y-33431500D01*
X96160500Y-33242000D01*
X95449224Y-33242000D01*
X95170627Y-33357399D01*
X94957398Y-33570628D01*
X94842000Y-33849225D01*
X93551312Y-33849225D01*
X93296187Y-33593655D01*
X92469516Y-33250392D01*
X91574411Y-33249610D01*
X90747142Y-33591431D01*
X90113655Y-34223813D01*
X89770392Y-35050484D01*
X89769610Y-35945589D01*
X89812752Y-36050000D01*
X83569695Y-36050000D01*
X83570390Y-35254411D01*
X83228569Y-34427142D01*
X82851312Y-34049225D01*
X84142000Y-34049225D01*
X84142000Y-34760500D01*
X84331500Y-34950000D01*
X85650000Y-34950000D01*
X85650000Y-33631500D01*
X87150000Y-33631500D01*
X87150000Y-34950000D01*
X88468500Y-34950000D01*
X88658000Y-34760500D01*
X88658000Y-34049225D01*
X88542602Y-33770628D01*
X88329373Y-33557399D01*
X88050776Y-33442000D01*
X87339500Y-33442000D01*
X87150000Y-33631500D01*
X85650000Y-33631500D01*
X85460500Y-33442000D01*
X84749224Y-33442000D01*
X84470627Y-33557399D01*
X84257398Y-33770628D01*
X84142000Y-34049225D01*
X82851312Y-34049225D01*
X82596187Y-33793655D01*
X81769516Y-33450392D01*
X80874411Y-33449610D01*
X80047142Y-33791431D01*
X79413655Y-34423813D01*
X79138383Y-35086743D01*
X78175126Y-36050000D01*
X77889584Y-36050000D01*
X78603677Y-35335907D01*
X78151126Y-34883357D01*
X78078846Y-34519983D01*
X77830805Y-34434881D01*
X77165685Y-35100000D01*
X77448528Y-35382843D01*
X76882843Y-35948528D01*
X76600000Y-35665685D01*
X76317157Y-35948528D01*
X75751472Y-35382843D01*
X76034315Y-35100000D01*
X75751472Y-34817157D01*
X76317157Y-34251472D01*
X76600000Y-34534315D01*
X77265119Y-33869195D01*
X77180017Y-33621154D01*
X76825323Y-33557554D01*
X76364093Y-33096323D01*
X75650000Y-33810416D01*
X75650000Y-31050000D01*
X99350000Y-31050000D01*
X99350000Y-33829911D01*
G36*
X80453699Y-37626961D02*
X80647361Y-37901784D01*
X81541149Y-37991592D01*
X81992639Y-37901784D01*
X82186301Y-37626961D01*
X81709340Y-37150000D01*
X84135307Y-37150000D01*
X84135307Y-37200000D01*
X84187604Y-37477933D01*
X84351862Y-37733198D01*
X84602492Y-37904446D01*
X84900000Y-37964693D01*
X87900000Y-37964693D01*
X88177933Y-37912396D01*
X88433198Y-37748138D01*
X88604446Y-37497508D01*
X88664693Y-37200000D01*
X88664693Y-37150000D01*
X90421072Y-37150000D01*
X91279421Y-38008349D01*
X91564198Y-37723572D01*
X92241149Y-37791592D01*
X92493605Y-37741375D01*
X92760579Y-38008349D01*
X93618928Y-37150000D01*
X94863532Y-37150000D01*
X94887604Y-37277933D01*
X95051862Y-37533198D01*
X95302492Y-37704446D01*
X95450000Y-37734317D01*
X95450000Y-57800000D01*
X95469696Y-57897264D01*
X95525682Y-57979202D01*
X95609136Y-58032903D01*
X95700000Y-58050000D01*
X99150000Y-58050000D01*
X99150000Y-62399084D01*
X99149818Y-62607942D01*
X99150000Y-62608382D01*
X99150000Y-67781072D01*
X98680579Y-67311651D01*
X98395802Y-67596428D01*
X97718851Y-67528408D01*
X97267361Y-67618216D01*
X97073699Y-67893039D01*
X97940000Y-68759340D01*
X98307696Y-68391644D01*
X99150000Y-69233948D01*
X99150000Y-69670660D01*
X99000660Y-69820000D01*
X99150000Y-69969340D01*
X99150000Y-70406052D01*
X98307696Y-71248356D01*
X97940000Y-70880660D01*
X97073699Y-71746961D01*
X97267361Y-72021784D01*
X98161149Y-72111592D01*
X98413605Y-72061375D01*
X98680579Y-72328349D01*
X99150000Y-71858928D01*
X99150000Y-79250000D01*
X87650000Y-79250000D01*
X87650000Y-76429407D01*
X89619121Y-76429407D01*
X89766232Y-76693089D01*
X90538928Y-76791518D01*
X91033768Y-76693089D01*
X91180879Y-76429407D01*
X90400000Y-75648528D01*
X89619121Y-76429407D01*
X87650000Y-76429407D01*
X87650000Y-74938928D01*
X88408482Y-74938928D01*
X88506911Y-75433768D01*
X88770593Y-75580879D01*
X89551472Y-74800000D01*
X91248528Y-74800000D01*
X92029407Y-75580879D01*
X92293089Y-75433768D01*
X92391518Y-74661072D01*
X92293089Y-74166232D01*
X92029407Y-74019121D01*
X91248528Y-74800000D01*
X89551472Y-74800000D01*
X88770593Y-74019121D01*
X88506911Y-74166232D01*
X88408482Y-74938928D01*
X87650000Y-74938928D01*
X87650000Y-71558148D01*
X89045926Y-72954074D01*
X89346017Y-73154589D01*
X89666955Y-73218427D01*
X90400000Y-73951472D01*
X91126472Y-73225000D01*
X92516852Y-73225000D01*
X93278330Y-73986478D01*
X93280356Y-74019300D01*
X93153618Y-74103984D01*
X92817621Y-74606841D01*
X92699634Y-75200000D01*
X92817621Y-75793159D01*
X93153618Y-76296016D01*
X93656475Y-76632013D01*
X94249634Y-76750000D01*
X94310366Y-76750000D01*
X94903525Y-76632013D01*
X95406382Y-76296016D01*
X95742379Y-75793159D01*
X95860366Y-75200000D01*
X95742379Y-74606841D01*
X95406382Y-74103984D01*
X95127607Y-73917714D01*
X95103243Y-73523010D01*
X95064335Y-73375565D01*
X95034588Y-73226017D01*
X95018531Y-73201986D01*
X95011156Y-73174038D01*
X94918789Y-73052710D01*
X94834074Y-72925926D01*
X93554074Y-71645926D01*
X93253983Y-71445411D01*
X93164367Y-71427586D01*
X93496345Y-71096187D01*
X93839608Y-70269516D01*
X93839807Y-70041149D01*
X95648408Y-70041149D01*
X95738216Y-70492639D01*
X96013039Y-70686301D01*
X96879340Y-69820000D01*
X96013039Y-68953699D01*
X95738216Y-69147361D01*
X95648408Y-70041149D01*
X93839807Y-70041149D01*
X93840390Y-69374411D01*
X93498569Y-68547142D01*
X92866187Y-67913655D01*
X92039516Y-67570392D01*
X91144411Y-67569610D01*
X90317142Y-67911431D01*
X89683655Y-68543813D01*
X89340392Y-69370484D01*
X89339610Y-70265589D01*
X89597234Y-70889086D01*
X89225000Y-70516852D01*
X89225000Y-68100000D01*
X89154589Y-67746018D01*
X89154589Y-67746017D01*
X89135743Y-67717811D01*
X93676777Y-63176777D01*
X93731625Y-63094073D01*
X93750000Y-63000000D01*
X93750000Y-55245317D01*
X93839608Y-55029516D01*
X93840390Y-54134411D01*
X93750000Y-53915651D01*
X93750000Y-46200000D01*
X93730304Y-46102736D01*
X93676777Y-46023223D01*
X87576777Y-39923223D01*
X87494073Y-39868375D01*
X87400000Y-39850000D01*
X78144491Y-39850000D01*
X78078846Y-39519983D01*
X77830805Y-39434881D01*
X77415685Y-39850000D01*
X75784315Y-39850000D01*
X75751472Y-39817157D01*
X76317157Y-39251472D01*
X76600000Y-39534315D01*
X77265119Y-38869195D01*
X77180017Y-38621154D01*
X76825323Y-38557554D01*
X76364093Y-38096323D01*
X75650000Y-38810416D01*
X75650000Y-37600000D01*
X75630304Y-37502736D01*
X75577477Y-37425422D01*
X75616823Y-37150000D01*
X80930660Y-37150000D01*
X80453699Y-37626961D01*
X80453699Y-37626961D01*
G37*
X80453699Y-37626961D02*
X80647361Y-37901784D01*
X81541149Y-37991592D01*
X81992639Y-37901784D01*
X82186301Y-37626961D01*
X81709340Y-37150000D01*
X84135307Y-37150000D01*
X84135307Y-37200000D01*
X84187604Y-37477933D01*
X84351862Y-37733198D01*
X84602492Y-37904446D01*
X84900000Y-37964693D01*
X87900000Y-37964693D01*
X88177933Y-37912396D01*
X88433198Y-37748138D01*
X88604446Y-37497508D01*
X88664693Y-37200000D01*
X88664693Y-37150000D01*
X90421072Y-37150000D01*
X91279421Y-38008349D01*
X91564198Y-37723572D01*
X92241149Y-37791592D01*
X92493605Y-37741375D01*
X92760579Y-38008349D01*
X93618928Y-37150000D01*
X94863532Y-37150000D01*
X94887604Y-37277933D01*
X95051862Y-37533198D01*
X95302492Y-37704446D01*
X95450000Y-37734317D01*
X95450000Y-57800000D01*
X95469696Y-57897264D01*
X95525682Y-57979202D01*
X95609136Y-58032903D01*
X95700000Y-58050000D01*
X99150000Y-58050000D01*
X99150000Y-62399084D01*
X99149818Y-62607942D01*
X99150000Y-62608382D01*
X99150000Y-67781072D01*
X98680579Y-67311651D01*
X98395802Y-67596428D01*
X97718851Y-67528408D01*
X97267361Y-67618216D01*
X97073699Y-67893039D01*
X97940000Y-68759340D01*
X98307696Y-68391644D01*
X99150000Y-69233948D01*
X99150000Y-69670660D01*
X99000660Y-69820000D01*
X99150000Y-69969340D01*
X99150000Y-70406052D01*
X98307696Y-71248356D01*
X97940000Y-70880660D01*
X97073699Y-71746961D01*
X97267361Y-72021784D01*
X98161149Y-72111592D01*
X98413605Y-72061375D01*
X98680579Y-72328349D01*
X99150000Y-71858928D01*
X99150000Y-79250000D01*
X87650000Y-79250000D01*
X87650000Y-76429407D01*
X89619121Y-76429407D01*
X89766232Y-76693089D01*
X90538928Y-76791518D01*
X91033768Y-76693089D01*
X91180879Y-76429407D01*
X90400000Y-75648528D01*
X89619121Y-76429407D01*
X87650000Y-76429407D01*
X87650000Y-74938928D01*
X88408482Y-74938928D01*
X88506911Y-75433768D01*
X88770593Y-75580879D01*
X89551472Y-74800000D01*
X91248528Y-74800000D01*
X92029407Y-75580879D01*
X92293089Y-75433768D01*
X92391518Y-74661072D01*
X92293089Y-74166232D01*
X92029407Y-74019121D01*
X91248528Y-74800000D01*
X89551472Y-74800000D01*
X88770593Y-74019121D01*
X88506911Y-74166232D01*
X88408482Y-74938928D01*
X87650000Y-74938928D01*
X87650000Y-71558148D01*
X89045926Y-72954074D01*
X89346017Y-73154589D01*
X89666955Y-73218427D01*
X90400000Y-73951472D01*
X91126472Y-73225000D01*
X92516852Y-73225000D01*
X93278330Y-73986478D01*
X93280356Y-74019300D01*
X93153618Y-74103984D01*
X92817621Y-74606841D01*
X92699634Y-75200000D01*
X92817621Y-75793159D01*
X93153618Y-76296016D01*
X93656475Y-76632013D01*
X94249634Y-76750000D01*
X94310366Y-76750000D01*
X94903525Y-76632013D01*
X95406382Y-76296016D01*
X95742379Y-75793159D01*
X95860366Y-75200000D01*
X95742379Y-74606841D01*
X95406382Y-74103984D01*
X95127607Y-73917714D01*
X95103243Y-73523010D01*
X95064335Y-73375565D01*
X95034588Y-73226017D01*
X95018531Y-73201986D01*
X95011156Y-73174038D01*
X94918789Y-73052710D01*
X94834074Y-72925926D01*
X93554074Y-71645926D01*
X93253983Y-71445411D01*
X93164367Y-71427586D01*
X93496345Y-71096187D01*
X93839608Y-70269516D01*
X93839807Y-70041149D01*
X95648408Y-70041149D01*
X95738216Y-70492639D01*
X96013039Y-70686301D01*
X96879340Y-69820000D01*
X96013039Y-68953699D01*
X95738216Y-69147361D01*
X95648408Y-70041149D01*
X93839807Y-70041149D01*
X93840390Y-69374411D01*
X93498569Y-68547142D01*
X92866187Y-67913655D01*
X92039516Y-67570392D01*
X91144411Y-67569610D01*
X90317142Y-67911431D01*
X89683655Y-68543813D01*
X89340392Y-69370484D01*
X89339610Y-70265589D01*
X89597234Y-70889086D01*
X89225000Y-70516852D01*
X89225000Y-68100000D01*
X89154589Y-67746018D01*
X89154589Y-67746017D01*
X89135743Y-67717811D01*
X93676777Y-63176777D01*
X93731625Y-63094073D01*
X93750000Y-63000000D01*
X93750000Y-55245317D01*
X93839608Y-55029516D01*
X93840390Y-54134411D01*
X93750000Y-53915651D01*
X93750000Y-46200000D01*
X93730304Y-46102736D01*
X93676777Y-46023223D01*
X87576777Y-39923223D01*
X87494073Y-39868375D01*
X87400000Y-39850000D01*
X78144491Y-39850000D01*
X78078846Y-39519983D01*
X77830805Y-39434881D01*
X77415685Y-39850000D01*
X75784315Y-39850000D01*
X75751472Y-39817157D01*
X76317157Y-39251472D01*
X76600000Y-39534315D01*
X77265119Y-38869195D01*
X77180017Y-38621154D01*
X76825323Y-38557554D01*
X76364093Y-38096323D01*
X75650000Y-38810416D01*
X75650000Y-37600000D01*
X75630304Y-37502736D01*
X75577477Y-37425422D01*
X75616823Y-37150000D01*
X80930660Y-37150000D01*
X80453699Y-37626961D01*
M02*
