G04 #@! TF.FileFunction,Copper,L2,Bot,Signal*
%FSLAX46Y46*%
G04 Gerber Fmt 4.6, Leading zero omitted, Abs format (unit mm)*
G04 Created by KiCad (PCBNEW 4.0.7) date 04/08/21 23:54:55*
%MOMM*%
%LPD*%
G01*
G04 APERTURE LIST*
%ADD10C,0.100000*%
%ADD11R,1.600000X1.600000*%
%ADD12C,1.600000*%
%ADD13R,3.000000X3.000000*%
%ADD14O,3.000000X3.000000*%
%ADD15O,1.600000X1.600000*%
%ADD16C,3.000000*%
%ADD17C,2.400000*%
%ADD18O,2.400000X2.400000*%
%ADD19C,1.520000*%
%ADD20R,1.520000X1.520000*%
%ADD21R,1.700000X1.700000*%
%ADD22O,1.700000X1.700000*%
%ADD23R,1.800000X1.800000*%
%ADD24O,1.800000X1.800000*%
%ADD25C,4.064000*%
%ADD26C,1.500000*%
%ADD27R,2.200000X2.200000*%
%ADD28O,2.200000X2.200000*%
%ADD29C,2.000000*%
%ADD30C,2.500000*%
%ADD31O,1.750000X3.500000*%
%ADD32O,2.000000X3.500000*%
%ADD33C,0.600000*%
%ADD34C,0.350000*%
%ADD35C,0.500000*%
%ADD36C,2.000000*%
%ADD37C,1.000000*%
G04 APERTURE END LIST*
D10*
D11*
X87150000Y-110200000D03*
D12*
X84650000Y-110200000D03*
D13*
X61450000Y-47000000D03*
D14*
X61450000Y-59700000D03*
D12*
X131040000Y-99720000D03*
D15*
X123420000Y-99720000D03*
D13*
X81810000Y-35740000D03*
D16*
X86890000Y-35740000D03*
D17*
X82200000Y-42800000D03*
D18*
X102520000Y-42800000D03*
D12*
X56500000Y-54800000D03*
D15*
X56500000Y-42100000D03*
D19*
X65000000Y-84640000D03*
X65000000Y-87180000D03*
D20*
X65000000Y-82100000D03*
D12*
X105850000Y-98300000D03*
X105850000Y-103300000D03*
X94700000Y-81150000D03*
D15*
X102320000Y-81150000D03*
D11*
X129900000Y-38400000D03*
D12*
X129900000Y-34900000D03*
D11*
X128900000Y-42400000D03*
D15*
X128900000Y-50020000D03*
D21*
X114900000Y-74000000D03*
D22*
X114900000Y-76540000D03*
X112360000Y-74000000D03*
X112360000Y-76540000D03*
X109820000Y-74000000D03*
X109820000Y-76540000D03*
D12*
X131800000Y-42400000D03*
D15*
X131800000Y-50020000D03*
D11*
X136000000Y-57500000D03*
D15*
X102980000Y-65120000D03*
X133460000Y-57500000D03*
X105520000Y-65120000D03*
X130920000Y-57500000D03*
X108060000Y-65120000D03*
X128380000Y-57500000D03*
X110600000Y-65120000D03*
X125840000Y-57500000D03*
X113140000Y-65120000D03*
X123300000Y-57500000D03*
X115680000Y-65120000D03*
X120760000Y-57500000D03*
X118220000Y-65120000D03*
X118220000Y-57500000D03*
X120760000Y-65120000D03*
X115680000Y-57500000D03*
X123300000Y-65120000D03*
X113140000Y-57500000D03*
X125840000Y-65120000D03*
X110600000Y-57500000D03*
X128380000Y-65120000D03*
X108060000Y-57500000D03*
X130920000Y-65120000D03*
X105520000Y-57500000D03*
X133460000Y-65120000D03*
X102980000Y-57500000D03*
X136000000Y-65120000D03*
D23*
X46900000Y-101500000D03*
D24*
X46900000Y-98960000D03*
X46900000Y-96420000D03*
D25*
X45804000Y-34016000D03*
X137752000Y-34016000D03*
X137752000Y-125456000D03*
X45804000Y-125456000D03*
D21*
X136900000Y-49800000D03*
D22*
X136900000Y-47260000D03*
X136900000Y-44720000D03*
X136900000Y-42180000D03*
D26*
X119550000Y-51700000D03*
X114670000Y-51700000D03*
D27*
X51500000Y-106850000D03*
D28*
X51500000Y-99230000D03*
D13*
X92740000Y-35740000D03*
D16*
X97820000Y-35740000D03*
D29*
X59300000Y-122000000D03*
X59300000Y-126500000D03*
X52800000Y-122000000D03*
X52800000Y-126500000D03*
X69900000Y-122000000D03*
X69900000Y-126500000D03*
X63400000Y-122000000D03*
X63400000Y-126500000D03*
X80300000Y-122000000D03*
X80300000Y-126500000D03*
X73800000Y-122000000D03*
X73800000Y-126500000D03*
D16*
X68880000Y-55050000D03*
X78880000Y-55050000D03*
D12*
X102300000Y-84400000D03*
D15*
X94680000Y-84400000D03*
D12*
X87600000Y-124500000D03*
D15*
X95220000Y-124500000D03*
D17*
X90400000Y-74800000D03*
D18*
X90400000Y-95120000D03*
D12*
X128400000Y-88500000D03*
D15*
X120780000Y-88500000D03*
D12*
X128400000Y-82000000D03*
D15*
X120780000Y-82000000D03*
D12*
X128500000Y-75400000D03*
D15*
X120880000Y-75400000D03*
D12*
X120700000Y-85300000D03*
D15*
X128320000Y-85300000D03*
D12*
X120700000Y-78700000D03*
D15*
X128320000Y-78700000D03*
D12*
X120900000Y-72000000D03*
D15*
X128520000Y-72000000D03*
D30*
X129300000Y-111140000D03*
X126800000Y-106100000D03*
X131800000Y-106100000D03*
D21*
X88600000Y-119400000D03*
D22*
X91140000Y-119400000D03*
X93680000Y-119400000D03*
X96220000Y-119400000D03*
X98760000Y-119400000D03*
X101300000Y-119400000D03*
X103840000Y-119400000D03*
X106380000Y-119400000D03*
X108920000Y-119400000D03*
X111460000Y-119400000D03*
X114000000Y-119400000D03*
X116540000Y-119400000D03*
X119080000Y-119400000D03*
X121620000Y-119400000D03*
X124160000Y-119400000D03*
X126700000Y-119400000D03*
D12*
X108600000Y-40900000D03*
D15*
X116220000Y-40900000D03*
D12*
X76550000Y-95300000D03*
X71550000Y-95300000D03*
X131600000Y-86900000D03*
X131600000Y-91900000D03*
X131700000Y-79700000D03*
X131700000Y-84700000D03*
X131700000Y-72400000D03*
X131700000Y-77400000D03*
X77090000Y-38450000D03*
X77090000Y-33450000D03*
X69000000Y-77300000D03*
X64000000Y-77300000D03*
X125350000Y-47250000D03*
X120350000Y-47250000D03*
X116100000Y-68300000D03*
X121100000Y-68300000D03*
X123800000Y-41600000D03*
X123800000Y-36600000D03*
X118150000Y-47200000D03*
X113150000Y-47200000D03*
X123350000Y-92050000D03*
X128350000Y-92050000D03*
X49100000Y-87200000D03*
X44100000Y-87200000D03*
X137400000Y-54300000D03*
X132400000Y-54300000D03*
D23*
X110100000Y-33900000D03*
D24*
X112640000Y-33900000D03*
X115180000Y-33900000D03*
D12*
X108600000Y-37900000D03*
D15*
X116220000Y-37900000D03*
D12*
X86220000Y-60020000D03*
X86220000Y-65020000D03*
X82800000Y-79700000D03*
X82800000Y-84700000D03*
D11*
X104950000Y-108200000D03*
D12*
X104950000Y-110700000D03*
D13*
X71400000Y-38500000D03*
D16*
X63900000Y-38500000D03*
D12*
X81900000Y-96050000D03*
X81900000Y-91050000D03*
D31*
X63710000Y-116600000D03*
D32*
X67660000Y-116600000D03*
D31*
X59960000Y-116600000D03*
D32*
X56260000Y-116600000D03*
D23*
X52150000Y-68050000D03*
D24*
X52150000Y-65510000D03*
X52150000Y-62970000D03*
D23*
X52100000Y-48200000D03*
D24*
X52100000Y-45660000D03*
X52100000Y-43120000D03*
D12*
X57750000Y-73200000D03*
D15*
X57750000Y-85900000D03*
D17*
X53000000Y-96350000D03*
D18*
X53000000Y-76030000D03*
D11*
X103100000Y-87900000D03*
D15*
X95480000Y-95520000D03*
X100560000Y-87900000D03*
X98020000Y-95520000D03*
X98020000Y-87900000D03*
X100560000Y-95520000D03*
X95480000Y-87900000D03*
X103100000Y-95520000D03*
D11*
X79400000Y-87500000D03*
D15*
X71780000Y-69720000D03*
X79400000Y-84960000D03*
X71780000Y-72260000D03*
X79400000Y-82420000D03*
X71780000Y-74800000D03*
X79400000Y-79880000D03*
X71780000Y-77340000D03*
X79400000Y-77340000D03*
X71780000Y-79880000D03*
X79400000Y-74800000D03*
X71780000Y-82420000D03*
X79400000Y-72260000D03*
X71780000Y-84960000D03*
X79400000Y-69720000D03*
X71780000Y-87500000D03*
D12*
X109850000Y-85750000D03*
D15*
X109850000Y-93370000D03*
D12*
X80900000Y-116000000D03*
D15*
X80900000Y-108380000D03*
D12*
X88400000Y-102100000D03*
D15*
X80780000Y-102100000D03*
D12*
X82600000Y-69600000D03*
D15*
X82600000Y-77220000D03*
D12*
X70650000Y-98750000D03*
D15*
X78270000Y-98750000D03*
D12*
X70610000Y-102110000D03*
D15*
X78230000Y-102110000D03*
D12*
X86000000Y-77300000D03*
D15*
X86000000Y-69680000D03*
D12*
X88350000Y-105450000D03*
D15*
X80730000Y-105450000D03*
D12*
X71350000Y-91850000D03*
D15*
X78970000Y-91850000D03*
D12*
X93450000Y-105900000D03*
D15*
X101070000Y-105900000D03*
D12*
X113100000Y-85800000D03*
D15*
X113100000Y-93420000D03*
D12*
X75900000Y-66600000D03*
D15*
X83520000Y-66600000D03*
D12*
X66000000Y-66600000D03*
D15*
X73620000Y-66600000D03*
D12*
X102060000Y-75660000D03*
D15*
X94440000Y-75660000D03*
D12*
X130900000Y-68800000D03*
D15*
X123280000Y-68800000D03*
D12*
X123420000Y-96340000D03*
D15*
X131040000Y-96340000D03*
D12*
X60650000Y-90150000D03*
X60650000Y-95150000D03*
X90400000Y-109750000D03*
D15*
X98020000Y-109750000D03*
D12*
X78180000Y-108570000D03*
D15*
X70560000Y-108570000D03*
D27*
X70610000Y-105500000D03*
D28*
X78230000Y-105500000D03*
D12*
X68700000Y-90900000D03*
X68700000Y-95900000D03*
X56700000Y-36200000D03*
X51700000Y-36200000D03*
X58200000Y-33100000D03*
D15*
X50580000Y-33100000D03*
D27*
X112350000Y-103380000D03*
D28*
X119970000Y-103380000D03*
D27*
X116900000Y-81550000D03*
D28*
X116900000Y-89170000D03*
D27*
X112350000Y-106980000D03*
D28*
X119970000Y-106980000D03*
D12*
X61300000Y-77100000D03*
D15*
X61300000Y-84720000D03*
D12*
X69000000Y-70150000D03*
D15*
X56300000Y-70150000D03*
D12*
X106550000Y-86950000D03*
D15*
X106550000Y-94570000D03*
D12*
X102900000Y-98650000D03*
D15*
X95280000Y-98650000D03*
D12*
X85000000Y-98650000D03*
D15*
X92620000Y-98650000D03*
D12*
X109150000Y-97350000D03*
D15*
X109150000Y-104970000D03*
D12*
X94300000Y-101900000D03*
X99300000Y-101900000D03*
D13*
X47700000Y-112650000D03*
D16*
X47700000Y-117730000D03*
D13*
X102750000Y-50450000D03*
D16*
X107830000Y-50450000D03*
D13*
X61460000Y-109000000D03*
D16*
X61460000Y-101500000D03*
X90180000Y-54980000D03*
X90180000Y-49980000D03*
D33*
X126200000Y-54700000D03*
X122700000Y-54600000D03*
X99850000Y-111550000D03*
X97750000Y-113300000D03*
X105400000Y-62700000D03*
X100400000Y-62400000D03*
X101400000Y-68500000D03*
D34*
X85950000Y-108950000D02*
X85950000Y-108500000D01*
X116900000Y-89850000D02*
X121350000Y-94300000D01*
X121350000Y-94300000D02*
X124700000Y-94300000D01*
X124700000Y-94300000D02*
X125100000Y-93900000D01*
X125100000Y-93900000D02*
X125100000Y-70520000D01*
X125100000Y-70520000D02*
X123280000Y-68800000D01*
X116900000Y-89170000D02*
X116900000Y-89850000D01*
X116900000Y-89170000D02*
X117370000Y-89170000D01*
X108075000Y-85625000D02*
X108075000Y-86475000D01*
X116080000Y-88350000D02*
X116900000Y-89170000D01*
X109950000Y-88350000D02*
X116080000Y-88350000D01*
X108075000Y-86475000D02*
X109950000Y-88350000D01*
X102060000Y-75660000D02*
X102060000Y-76210000D01*
X102060000Y-76210000D02*
X104650000Y-78300000D01*
X104650000Y-78300000D02*
X104650000Y-82200000D01*
X104650000Y-82200000D02*
X108075000Y-85625000D01*
X108075000Y-85625000D02*
X108150000Y-85700000D01*
X123280000Y-68800000D02*
X123280000Y-65140000D01*
X123280000Y-65140000D02*
X123300000Y-65120000D01*
X119970000Y-106980000D02*
X121790000Y-106980000D01*
X128750000Y-102010000D02*
X131040000Y-99720000D01*
X123500000Y-102010000D02*
X128750000Y-102010000D01*
X122320000Y-103190000D02*
X123500000Y-102010000D01*
X122320000Y-106450000D02*
X122320000Y-103190000D01*
X121790000Y-106980000D02*
X122320000Y-106450000D01*
X126700000Y-95100000D02*
X126700000Y-95380000D01*
X126700000Y-95100000D02*
X126700000Y-66280000D01*
X125840000Y-65120000D02*
X126700000Y-66280000D01*
X126700000Y-95380000D02*
X131040000Y-99720000D01*
D35*
X125840000Y-65120000D02*
X125840000Y-65360000D01*
D34*
X125840000Y-65760000D02*
X125840000Y-65120000D01*
X119550000Y-51700000D02*
X119550000Y-48050000D01*
X119550000Y-48050000D02*
X120350000Y-47250000D01*
X115680000Y-57500000D02*
X115680000Y-55570000D01*
X115680000Y-55570000D02*
X119550000Y-51700000D01*
X113150000Y-47200000D02*
X113850000Y-47200000D01*
X113850000Y-47200000D02*
X114670000Y-48020000D01*
X114670000Y-48020000D02*
X114670000Y-51700000D01*
X113140000Y-57500000D02*
X113140000Y-53230000D01*
X113140000Y-53230000D02*
X114670000Y-51700000D01*
X114350000Y-51380000D02*
X114670000Y-51700000D01*
X110600000Y-65120000D02*
X110600000Y-63700000D01*
X114400000Y-63900000D02*
X114400000Y-73500000D01*
X113600000Y-63100000D02*
X114400000Y-63900000D01*
X111200000Y-63100000D02*
X113600000Y-63100000D01*
X110600000Y-63700000D02*
X111200000Y-63100000D01*
X114400000Y-73500000D02*
X114900000Y-74000000D01*
X133460000Y-57500000D02*
X133460000Y-56340000D01*
X135200000Y-48960000D02*
X136900000Y-47260000D01*
X135200000Y-52200000D02*
X135200000Y-48960000D01*
X135500000Y-52500000D02*
X135200000Y-52200000D01*
X135500000Y-54300000D02*
X135500000Y-52500000D01*
X133460000Y-56340000D02*
X135500000Y-54300000D01*
X136900000Y-47260000D02*
X136440000Y-47260000D01*
X136900000Y-49800000D02*
X136900000Y-53800000D01*
X136900000Y-53800000D02*
X137400000Y-54300000D01*
X131800000Y-50020000D02*
X131800000Y-53700000D01*
X131800000Y-53700000D02*
X132400000Y-54300000D01*
X131800000Y-50020000D02*
X128900000Y-50020000D01*
X132400000Y-54300000D02*
X126600000Y-54300000D01*
X109820000Y-72420000D02*
X106800000Y-69400000D01*
X106800000Y-69400000D02*
X106800000Y-64200000D01*
X106800000Y-64200000D02*
X111600000Y-59400000D01*
X111600000Y-59400000D02*
X118700000Y-59400000D01*
X118700000Y-59400000D02*
X119400000Y-58700000D01*
X119400000Y-58700000D02*
X119400000Y-55700000D01*
X119400000Y-55700000D02*
X119900000Y-55200000D01*
X109820000Y-74000000D02*
X109820000Y-72420000D01*
X126600000Y-54300000D02*
X126200000Y-54700000D01*
X122700000Y-54600000D02*
X122600000Y-54500000D01*
X122600000Y-54500000D02*
X120600000Y-54500000D01*
X120600000Y-54500000D02*
X119900000Y-55200000D01*
X130920000Y-57500000D02*
X130920000Y-57480000D01*
X130920000Y-57480000D02*
X134100000Y-54300000D01*
X134100000Y-54300000D02*
X134100000Y-46400000D01*
X134100000Y-46400000D02*
X135780000Y-44720000D01*
X135780000Y-44720000D02*
X136900000Y-44720000D01*
X136180000Y-44720000D02*
X136900000Y-44720000D01*
D36*
X51500000Y-106850000D02*
X59310000Y-106850000D01*
X59310000Y-106850000D02*
X61460000Y-109000000D01*
X63710000Y-116600000D02*
X63710000Y-111250000D01*
X63710000Y-111250000D02*
X61460000Y-109000000D01*
D34*
X99850000Y-111550000D02*
X99850000Y-107600000D01*
X99850000Y-107600000D02*
X99200000Y-106950000D01*
X105850000Y-98300000D02*
X105850000Y-98270000D01*
X105850000Y-98270000D02*
X103100000Y-95520000D01*
X100375000Y-104375000D02*
X100475000Y-104375000D01*
X100475000Y-104375000D02*
X105850000Y-99000000D01*
X105850000Y-99000000D02*
X105850000Y-98300000D01*
X90250000Y-114900000D02*
X90350000Y-114900000D01*
X90200000Y-114900000D02*
X90250000Y-114900000D01*
X99200000Y-105550000D02*
X100375000Y-104375000D01*
X100375000Y-104375000D02*
X100550000Y-104200000D01*
X99200000Y-106950000D02*
X99200000Y-105550000D01*
X91950000Y-113300000D02*
X97750000Y-113300000D01*
X90350000Y-114900000D02*
X91950000Y-113300000D01*
X103100000Y-95520000D02*
X103100000Y-96000000D01*
X60650000Y-90150000D02*
X61700000Y-88100000D01*
X68200000Y-84200000D02*
X68200000Y-83700000D01*
X66600000Y-85950000D02*
X68200000Y-84200000D01*
X62900000Y-85950000D02*
X66600000Y-85950000D01*
X61700000Y-88100000D02*
X62900000Y-85950000D01*
X65000000Y-82100000D02*
X66300000Y-82100000D01*
X66300000Y-82100000D02*
X68050000Y-83850000D01*
X68050000Y-83850000D02*
X68200000Y-83700000D01*
X68200000Y-83700000D02*
X69000000Y-82900000D01*
X69000000Y-82900000D02*
X69000000Y-77300000D01*
X67660000Y-116600000D02*
X67660000Y-116700000D01*
X67660000Y-116700000D02*
X72150000Y-118400000D01*
X72150000Y-118400000D02*
X80850000Y-118400000D01*
X80850000Y-118400000D02*
X84800000Y-114900000D01*
X84800000Y-114900000D02*
X90200000Y-114900000D01*
X90200000Y-114900000D02*
X90300000Y-114900000D01*
D36*
X51500000Y-106850000D02*
X50036280Y-103979047D01*
X50036280Y-103979047D02*
X46900000Y-101500000D01*
D34*
X103100000Y-95520000D02*
X103080000Y-95520000D01*
D36*
X67660000Y-116600000D02*
X63710000Y-116600000D01*
D37*
X71780000Y-77340000D02*
X71060000Y-77340000D01*
X71060000Y-77340000D02*
X69000000Y-77300000D01*
D34*
X107820000Y-91050000D02*
X113040000Y-91050000D01*
X115900000Y-99310000D02*
X119970000Y-103380000D01*
X115900000Y-93910000D02*
X115900000Y-99310000D01*
X113040000Y-91050000D02*
X115900000Y-93910000D01*
X86075000Y-107475000D02*
X81805000Y-107475000D01*
X81805000Y-107475000D02*
X80900000Y-108380000D01*
X88400000Y-102100000D02*
X87300000Y-102100000D01*
X87150000Y-108550000D02*
X87150000Y-110200000D01*
X86050000Y-107450000D02*
X86075000Y-107475000D01*
X86075000Y-107475000D02*
X87150000Y-108550000D01*
X86050000Y-103350000D02*
X86050000Y-107450000D01*
X87300000Y-102100000D02*
X86050000Y-103350000D01*
X88400000Y-102100000D02*
X88400000Y-92900000D01*
X93800000Y-91100000D02*
X93800000Y-91050000D01*
X90200000Y-91100000D02*
X93800000Y-91100000D01*
X88400000Y-92900000D02*
X90200000Y-91100000D01*
X109850000Y-93370000D02*
X109850000Y-93400000D01*
X108000000Y-91050000D02*
X107820000Y-91050000D01*
X107820000Y-91050000D02*
X93800000Y-91050000D01*
X109700000Y-92970000D02*
X109700000Y-92450000D01*
X109700000Y-92450000D02*
X108000000Y-91050000D01*
X88400000Y-102100000D02*
X88400000Y-102500000D01*
X86000000Y-77300000D02*
X85200000Y-77300000D01*
X85200000Y-77300000D02*
X82800000Y-79700000D01*
X79400000Y-77340000D02*
X80440000Y-77340000D01*
X80440000Y-77340000D02*
X82800000Y-79700000D01*
X79440000Y-77300000D02*
X79400000Y-77340000D01*
X76550000Y-95300000D02*
X76550000Y-94270000D01*
X76550000Y-94270000D02*
X78970000Y-91850000D01*
X78950000Y-91850000D02*
X78650000Y-91850000D01*
X121500000Y-110000000D02*
X121800000Y-110000000D01*
X121800000Y-110000000D02*
X123200000Y-109050000D01*
X133349998Y-91400000D02*
X133349998Y-88649998D01*
X123200000Y-103600000D02*
X123200000Y-109050000D01*
X124350000Y-102700000D02*
X123200000Y-103600000D01*
X132100000Y-102700000D02*
X124350000Y-102700000D01*
X133349998Y-101750002D02*
X132100000Y-102700000D01*
X133349998Y-99500000D02*
X133349998Y-91400000D01*
X133349998Y-99500000D02*
X133349998Y-101750002D01*
X133349998Y-88649998D02*
X131600000Y-86900000D01*
X128400000Y-88500000D02*
X130000000Y-88500000D01*
X130000000Y-88500000D02*
X131600000Y-86900000D01*
X128320000Y-85300000D02*
X128320000Y-88420000D01*
X128320000Y-88420000D02*
X128400000Y-88500000D01*
X71800000Y-119900000D02*
X72750000Y-119200000D01*
X61300000Y-119900000D02*
X71800000Y-119900000D01*
X59300000Y-121900000D02*
X61300000Y-119900000D01*
X121500000Y-110000000D02*
X114350000Y-110000000D01*
X114350000Y-110000000D02*
X111300000Y-113250000D01*
X111300000Y-113250000D02*
X99900000Y-113250000D01*
X99900000Y-113250000D02*
X99150000Y-114250000D01*
X99150000Y-114250000D02*
X92800000Y-114200000D01*
X92800000Y-114200000D02*
X90600000Y-115800000D01*
X90600000Y-115800000D02*
X85300000Y-115800000D01*
X85300000Y-115800000D02*
X81550000Y-119200000D01*
X81550000Y-119200000D02*
X72750000Y-119200000D01*
X59300000Y-122000000D02*
X59300000Y-121900000D01*
X59300000Y-122000000D02*
X59300000Y-121400000D01*
X52800000Y-122000000D02*
X59300000Y-122000000D01*
X128520000Y-88380000D02*
X128400000Y-88500000D01*
X128320000Y-88420000D02*
X128400000Y-88500000D01*
X85700000Y-116650000D02*
X85700000Y-116700000D01*
X133900000Y-100949998D02*
X133900000Y-83900000D01*
X71200000Y-122000000D02*
X73300000Y-119900000D01*
X69900000Y-122000000D02*
X71200000Y-122000000D01*
X133900000Y-102200000D02*
X133000000Y-103300000D01*
X133000000Y-103300000D02*
X125000000Y-103300000D01*
X125000000Y-103300000D02*
X123900000Y-104450000D01*
X123900000Y-104450000D02*
X123900000Y-109650000D01*
X123900000Y-109650000D02*
X123200000Y-110800000D01*
X123200000Y-110800000D02*
X114800000Y-110800000D01*
X114800000Y-110800000D02*
X111750000Y-114100000D01*
X111750000Y-114100000D02*
X100550000Y-114100000D01*
X100550000Y-114100000D02*
X99600000Y-115050000D01*
X99600000Y-115050000D02*
X93000000Y-115050000D01*
X93000000Y-115050000D02*
X91100000Y-116650000D01*
X91100000Y-116650000D02*
X85700000Y-116650000D01*
X83700000Y-118700000D02*
X82500000Y-119900000D01*
X82500000Y-119900000D02*
X73300000Y-119900000D01*
X133900000Y-100949998D02*
X133900000Y-102200000D01*
X133900000Y-81900000D02*
X131700000Y-79700000D01*
X133900000Y-83900000D02*
X133900000Y-81900000D01*
X85700000Y-116700000D02*
X83700000Y-118700000D01*
X131700000Y-79700000D02*
X130700000Y-79700000D01*
X130700000Y-79700000D02*
X128400000Y-82000000D01*
X128320000Y-78700000D02*
X128420000Y-81980000D01*
X128420000Y-81980000D02*
X128400000Y-82000000D01*
X69900000Y-122000000D02*
X69900000Y-121800000D01*
X63400000Y-122000000D02*
X69900000Y-122000000D01*
X100250000Y-115750000D02*
X100250000Y-115700000D01*
X100250000Y-115750000D02*
X93350000Y-115750000D01*
X93350000Y-115750000D02*
X91350000Y-117450000D01*
X91350000Y-117450000D02*
X86650000Y-117450000D01*
X86650000Y-117450000D02*
X84800000Y-118800000D01*
X84800000Y-118800000D02*
X84800000Y-121600000D01*
X84800000Y-121600000D02*
X84400000Y-122000000D01*
X80300000Y-122000000D02*
X84400000Y-122000000D01*
X112040863Y-114743134D02*
X112040863Y-114651475D01*
X101206866Y-114743134D02*
X112040863Y-114743134D01*
X100250000Y-115700000D02*
X101206866Y-114743134D01*
X134500000Y-101900000D02*
X134500000Y-102900000D01*
X134500000Y-101900000D02*
X134500000Y-75200000D01*
X134500000Y-75200000D02*
X131700000Y-72400000D01*
X134500000Y-102900000D02*
X133400000Y-104000000D01*
X133400000Y-104000000D02*
X125500000Y-104000000D01*
X125500000Y-104000000D02*
X124600000Y-104900000D01*
X124600000Y-104900000D02*
X124550000Y-110700000D01*
X124550000Y-110700000D02*
X123350000Y-111700000D01*
X123350000Y-111700000D02*
X114850000Y-111700000D01*
X114850000Y-111700000D02*
X112040863Y-114651475D01*
X112040863Y-114651475D02*
X112000000Y-114700000D01*
X73800000Y-122000000D02*
X73800000Y-121400000D01*
X73800000Y-122000000D02*
X73800000Y-121900000D01*
X80300000Y-122000000D02*
X73800000Y-122000000D01*
X131700000Y-72400000D02*
X128920000Y-72400000D01*
X128920000Y-72400000D02*
X128520000Y-72000000D01*
X128520000Y-72000000D02*
X128520000Y-75380000D01*
X128520000Y-75380000D02*
X128500000Y-75400000D01*
X128520000Y-75380000D02*
X128500000Y-75400000D01*
X112350000Y-103380000D02*
X112350000Y-106980000D01*
X54130000Y-109000000D02*
X56310000Y-109000000D01*
X56310000Y-109000000D02*
X61700000Y-114390000D01*
D35*
X61700000Y-117140000D02*
X61700000Y-118090000D01*
X59150000Y-119360000D02*
X59150000Y-119500000D01*
X60430000Y-119360000D02*
X59150000Y-119360000D01*
X61700000Y-118090000D02*
X60430000Y-119360000D01*
D37*
X45500000Y-109000000D02*
X54130000Y-109000000D01*
D35*
X61700000Y-114390000D02*
X61700000Y-117140000D01*
X61700000Y-117140000D02*
X61700000Y-117200000D01*
D37*
X52800000Y-119500000D02*
X59150000Y-119500000D01*
X59150000Y-119500000D02*
X59400000Y-119500000D01*
X59400000Y-119500000D02*
X59500000Y-119500000D01*
X52900000Y-119400000D02*
X52800000Y-119500000D01*
X52800000Y-119500000D02*
X50400000Y-120700000D01*
X43600000Y-107100000D02*
X45500000Y-109000000D01*
X43600000Y-100600000D02*
X43600000Y-107100000D01*
X43600000Y-98000000D02*
X45180000Y-96420000D01*
X43600000Y-100600000D02*
X43600000Y-98000000D01*
X49100000Y-87200000D02*
X48400000Y-87200000D01*
X48400000Y-87200000D02*
X46900000Y-88700000D01*
X46900000Y-88700000D02*
X46900000Y-96420000D01*
D34*
X120780000Y-88500000D02*
X120700000Y-88500000D01*
X120700000Y-88500000D02*
X116900000Y-84700000D01*
X116900000Y-84700000D02*
X116900000Y-81550000D01*
X122500000Y-87000000D02*
X122500000Y-90600000D01*
X122500000Y-90600000D02*
X123350000Y-92050000D01*
X112200000Y-115350000D02*
X101750000Y-115350000D01*
X101750000Y-115350000D02*
X100650000Y-116450000D01*
X93850000Y-116450000D02*
X91140000Y-118560000D01*
X126800000Y-106100000D02*
X126800000Y-110800000D01*
X125650000Y-112500000D02*
X126800000Y-110800000D01*
X115050000Y-112650000D02*
X125650000Y-112500000D01*
X112200000Y-115350000D02*
X115050000Y-112650000D01*
X93850000Y-116450000D02*
X100650000Y-116450000D01*
D37*
X46900000Y-96420000D02*
X45180000Y-96420000D01*
X51500000Y-99230000D02*
X50580000Y-99230000D01*
X50580000Y-99230000D02*
X49720000Y-96420000D01*
X49720000Y-96420000D02*
X46900000Y-96420000D01*
D34*
X122500000Y-74000000D02*
X122280000Y-74000000D01*
X122280000Y-74000000D02*
X120880000Y-75400000D01*
X120760000Y-57500000D02*
X120760000Y-57140000D01*
X120760000Y-57140000D02*
X122200000Y-55700000D01*
X126600000Y-52000000D02*
X126600000Y-42400000D01*
X122900000Y-55700000D02*
X126600000Y-52000000D01*
X122200000Y-55700000D02*
X122900000Y-55700000D01*
X120680000Y-88600000D02*
X120780000Y-88500000D01*
X128900000Y-42400000D02*
X126600000Y-42400000D01*
X126600000Y-42400000D02*
X124600000Y-42400000D01*
X124600000Y-42400000D02*
X123800000Y-41600000D01*
X131800000Y-42400000D02*
X128900000Y-42400000D01*
X128900000Y-42400000D02*
X128900000Y-39400000D01*
X128900000Y-39400000D02*
X129900000Y-38400000D01*
D37*
X130300000Y-38000000D02*
X138900000Y-38000000D01*
X140300000Y-39400000D02*
X138900000Y-38000000D01*
X140300000Y-113700000D02*
X140300000Y-39400000D01*
X133200000Y-120800000D02*
X140300000Y-113700000D01*
X133200000Y-126400000D02*
X132300000Y-127300000D01*
X132300000Y-127300000D02*
X85200000Y-127300000D01*
X133200000Y-120800000D02*
X133200000Y-126400000D01*
X130300000Y-38000000D02*
X129900000Y-38400000D01*
D34*
X87600000Y-124500000D02*
X87600000Y-124900000D01*
X87600000Y-124900000D02*
X85200000Y-127300000D01*
X91140000Y-119400000D02*
X91140000Y-118560000D01*
X91140000Y-119400000D02*
X91140000Y-121260000D01*
X91140000Y-121260000D02*
X87900000Y-124500000D01*
X87900000Y-124500000D02*
X87600000Y-124500000D01*
D37*
X85200000Y-127300000D02*
X82200000Y-124300000D01*
X50400000Y-120700000D02*
X50400000Y-123500000D01*
X50400000Y-123500000D02*
X51100000Y-124200000D01*
X51100000Y-124200000D02*
X82100000Y-124200000D01*
X82200000Y-124300000D02*
X82100000Y-124200000D01*
D34*
X120780000Y-82000000D02*
X120900000Y-82000000D01*
X120900000Y-82000000D02*
X122500000Y-81600000D01*
X120880000Y-75400000D02*
X120900000Y-75400000D01*
X117100000Y-70200000D02*
X121400000Y-70200000D01*
X122500000Y-87000000D02*
X120780000Y-88500000D01*
X122500000Y-71300000D02*
X122500000Y-74000000D01*
X122500000Y-74000000D02*
X122500000Y-81600000D01*
X122500000Y-81600000D02*
X122500000Y-87000000D01*
X121400000Y-70200000D02*
X122500000Y-71300000D01*
X116100000Y-68300000D02*
X116100000Y-68400000D01*
X116100000Y-68400000D02*
X117100000Y-69400000D01*
X116460000Y-76540000D02*
X114900000Y-76540000D01*
X117100000Y-75900000D02*
X116460000Y-76540000D01*
X117100000Y-69400000D02*
X117100000Y-70200000D01*
X117100000Y-70200000D02*
X117100000Y-75900000D01*
X120620000Y-81720000D02*
X120800000Y-81900000D01*
X115680000Y-65120000D02*
X115680000Y-62120000D01*
X120760000Y-60040000D02*
X120760000Y-57500000D01*
X119500000Y-61300000D02*
X120760000Y-60040000D01*
X116500000Y-61300000D02*
X119500000Y-61300000D01*
X115680000Y-62120000D02*
X116500000Y-61300000D01*
X120880000Y-75400000D02*
X121400000Y-75400000D01*
X116100000Y-68300000D02*
X116000000Y-68300000D01*
X115680000Y-65120000D02*
X115680000Y-67880000D01*
X115680000Y-67880000D02*
X116100000Y-68300000D01*
D35*
X120760000Y-57500000D02*
X120760000Y-57840000D01*
D34*
X113140000Y-65120000D02*
X113140000Y-73220000D01*
X113140000Y-73220000D02*
X112360000Y-74000000D01*
X108060000Y-65120000D02*
X108060000Y-66360000D01*
X108060000Y-66360000D02*
X111100000Y-69400000D01*
X111100000Y-75280000D02*
X112360000Y-76540000D01*
X111100000Y-69400000D02*
X111100000Y-75280000D01*
X108060000Y-65120000D02*
X108060000Y-65460000D01*
X94680000Y-84400000D02*
X94680000Y-81170000D01*
X94680000Y-81170000D02*
X94700000Y-81150000D01*
X100560000Y-86760000D02*
X100560000Y-87900000D01*
X100560000Y-87900000D02*
X100560000Y-87660000D01*
X98300000Y-84500000D02*
X100560000Y-86760000D01*
X94680000Y-84400000D02*
X98300000Y-84500000D01*
X94580000Y-81270000D02*
X94700000Y-81150000D01*
X95220000Y-124500000D02*
X95900000Y-124500000D01*
X95900000Y-124500000D02*
X97900000Y-122500000D01*
X97900000Y-122500000D02*
X121060000Y-122500000D01*
X121060000Y-122500000D02*
X124160000Y-119400000D01*
X106800000Y-73400000D02*
X106800000Y-78800000D01*
X101300000Y-59100000D02*
X101300000Y-66400000D01*
X102800000Y-69400000D02*
X106800000Y-73400000D01*
X102800000Y-67900000D02*
X102800000Y-69400000D01*
X101300000Y-66400000D02*
X102800000Y-67900000D01*
X105520000Y-57020000D02*
X104000000Y-55500000D01*
X102300000Y-55500000D02*
X104000000Y-55500000D01*
X101300000Y-57400000D02*
X102300000Y-55500000D01*
X101300000Y-59100000D02*
X101300000Y-57400000D01*
X119300000Y-83900000D02*
X120700000Y-85300000D01*
X119300000Y-80900000D02*
X119300000Y-83900000D01*
X118600000Y-79700000D02*
X119300000Y-80900000D01*
X108200000Y-79700000D02*
X118600000Y-79700000D01*
X106800000Y-78800000D02*
X108200000Y-79700000D01*
X120700000Y-85300000D02*
X120300000Y-85300000D01*
X105520000Y-57020000D02*
X105520000Y-57500000D01*
X105520000Y-56820000D02*
X105520000Y-57500000D01*
X117400000Y-79000000D02*
X120400000Y-79000000D01*
X120400000Y-79000000D02*
X120700000Y-78700000D01*
X104200000Y-66500000D02*
X104300000Y-69700000D01*
X108400000Y-79000000D02*
X117400000Y-79000000D01*
X107400000Y-78000000D02*
X108400000Y-79000000D01*
X107400000Y-72800000D02*
X107400000Y-78000000D01*
X104300000Y-69700000D02*
X107400000Y-72800000D01*
X104200000Y-58820000D02*
X102980000Y-57500000D01*
X104200000Y-66500000D02*
X104200000Y-58820000D01*
X105520000Y-66400000D02*
X105520000Y-69820000D01*
X117650002Y-75249998D02*
X120900000Y-72000000D01*
X117650002Y-77949998D02*
X117650002Y-75249998D01*
X117300000Y-78300000D02*
X117650002Y-77949998D01*
X108900000Y-78300000D02*
X117300000Y-78300000D01*
X108100000Y-77500000D02*
X108900000Y-78300000D01*
X108100000Y-72400000D02*
X108100000Y-77500000D01*
X105520000Y-69820000D02*
X108100000Y-72400000D01*
X105520000Y-66400000D02*
X105520000Y-65120000D01*
X93680000Y-119400000D02*
X93680000Y-118620000D01*
X93680000Y-118620000D02*
X95300000Y-117050000D01*
X95300000Y-117050000D02*
X101100000Y-117050000D01*
X101100000Y-117050000D02*
X102250000Y-116150000D01*
X102250000Y-116150000D02*
X112550000Y-116150000D01*
X112550000Y-116150000D02*
X115550000Y-113200000D01*
X115550000Y-113200000D02*
X127590000Y-113200000D01*
X127590000Y-113200000D02*
X129300000Y-111140000D01*
D36*
X92740000Y-37355000D02*
X92740000Y-47420000D01*
X92740000Y-47420000D02*
X90180000Y-49980000D01*
X81810000Y-35740000D02*
X81810000Y-37100000D01*
X81810000Y-37100000D02*
X79600000Y-39310000D01*
X92740000Y-35740000D02*
X92740000Y-37355000D01*
X92740000Y-37355000D02*
X92740000Y-36650000D01*
X92740000Y-36650000D02*
X90080000Y-39310000D01*
X90080000Y-39310000D02*
X79600000Y-39310000D01*
X79600000Y-39310000D02*
X77950000Y-39310000D01*
X77950000Y-39310000D02*
X77090000Y-38450000D01*
D34*
X111300000Y-46900000D02*
X111300000Y-45820000D01*
X111300000Y-45820000D02*
X116220000Y-40900000D01*
X106800000Y-57900000D02*
X106800000Y-56750000D01*
X106800000Y-56750000D02*
X111300000Y-53550000D01*
X111300000Y-53550000D02*
X111300000Y-46900000D01*
X111300000Y-46900000D02*
X111300000Y-46650000D01*
X116220000Y-40900000D02*
X116220000Y-40980000D01*
X106800000Y-57900000D02*
X106800000Y-61300000D01*
X106800000Y-61300000D02*
X105400000Y-62700000D01*
X138200000Y-104900000D02*
X138200000Y-111900000D01*
X119080000Y-118120000D02*
X119080000Y-119400000D01*
X120400000Y-116800000D02*
X119080000Y-118120000D01*
X133300000Y-116800000D02*
X120400000Y-116800000D01*
X138200000Y-111900000D02*
X133300000Y-116800000D01*
X138200000Y-104900000D02*
X138200000Y-61100000D01*
X138200000Y-61100000D02*
X137000000Y-59900000D01*
X137000000Y-59900000D02*
X129400000Y-59900000D01*
X129400000Y-59900000D02*
X128380000Y-58880000D01*
X128380000Y-58880000D02*
X128380000Y-57500000D01*
X138800000Y-105600000D02*
X138800000Y-112400000D01*
X129600000Y-58400000D02*
X129600000Y-55900000D01*
X129600000Y-55900000D02*
X129300000Y-55600000D01*
X129300000Y-55600000D02*
X126900000Y-55600000D01*
X126900000Y-55600000D02*
X125840000Y-56660000D01*
X125840000Y-57500000D02*
X125840000Y-56660000D01*
X137100000Y-58800000D02*
X130100000Y-58800000D01*
X138800000Y-60500000D02*
X137100000Y-58800000D01*
X138800000Y-105600000D02*
X138800000Y-60500000D01*
X129700000Y-58400000D02*
X130100000Y-58800000D01*
X129600000Y-58400000D02*
X129700000Y-58400000D01*
X121620000Y-118480000D02*
X121620000Y-119400000D01*
X122500000Y-117600000D02*
X121620000Y-118480000D01*
X133600000Y-117600000D02*
X122500000Y-117600000D01*
X138800000Y-112400000D02*
X133600000Y-117600000D01*
X126300000Y-57040000D02*
X125840000Y-57500000D01*
X125840000Y-57500000D02*
X125840000Y-56860000D01*
X136000000Y-102900000D02*
X136000000Y-111100000D01*
X103300000Y-117400000D02*
X101300000Y-119400000D01*
X113400000Y-117400000D02*
X103300000Y-117400000D01*
X116200000Y-114600000D02*
X113400000Y-117400000D01*
X132500000Y-114600000D02*
X116200000Y-114600000D01*
X136000000Y-111100000D02*
X132500000Y-114600000D01*
X136000000Y-102900000D02*
X136000000Y-69500000D01*
X136000000Y-69500000D02*
X133400000Y-66900000D01*
X133400000Y-66900000D02*
X132100000Y-65600000D01*
X132100000Y-65600000D02*
X132100000Y-64000000D01*
X132100000Y-64000000D02*
X131300000Y-63200000D01*
X131300000Y-63200000D02*
X129000000Y-63200000D01*
X129000000Y-63200000D02*
X128380000Y-63820000D01*
X128380000Y-63820000D02*
X128380000Y-65120000D01*
X128380000Y-65780000D02*
X128380000Y-65120000D01*
X135200000Y-102500000D02*
X135200000Y-110900000D01*
X97920000Y-117700000D02*
X96220000Y-119400000D01*
X101400000Y-117700000D02*
X97920000Y-117700000D01*
X102500000Y-116800000D02*
X101400000Y-117700000D01*
X113100000Y-116800000D02*
X102500000Y-116800000D01*
X115900000Y-113800000D02*
X113100000Y-116800000D01*
X132300000Y-113800000D02*
X115900000Y-113800000D01*
X135200000Y-110900000D02*
X132300000Y-113800000D01*
X130920000Y-66420000D02*
X130920000Y-65120000D01*
X135200000Y-70700000D02*
X130920000Y-66420000D01*
X135200000Y-102500000D02*
X135200000Y-70700000D01*
X130920000Y-65120000D02*
X130780000Y-65120000D01*
X136900000Y-103700000D02*
X136900000Y-111000000D01*
X114000000Y-118100000D02*
X114000000Y-119400000D01*
X117100000Y-115400000D02*
X114000000Y-118100000D01*
X132900000Y-115400000D02*
X117100000Y-115400000D01*
X136900000Y-111000000D02*
X132900000Y-115400000D01*
X136900000Y-68560000D02*
X133460000Y-65120000D01*
X136900000Y-103700000D02*
X136900000Y-68560000D01*
X137500000Y-104600000D02*
X137500000Y-111600000D01*
X116540000Y-117960000D02*
X116540000Y-119400000D01*
X118400000Y-116100000D02*
X116540000Y-117960000D01*
X133000000Y-116100000D02*
X118400000Y-116100000D01*
X137500000Y-111600000D02*
X133000000Y-116100000D01*
X137500000Y-66620000D02*
X136000000Y-65120000D01*
X137500000Y-104600000D02*
X137500000Y-66620000D01*
D36*
X86220000Y-60020000D02*
X88750000Y-60020000D01*
X94440000Y-65710000D02*
X94440000Y-75660000D01*
X88750000Y-60020000D02*
X94440000Y-65710000D01*
X78880000Y-55050000D02*
X81540000Y-55050000D01*
X81540000Y-55050000D02*
X86220000Y-59730000D01*
X86220000Y-59730000D02*
X86220000Y-60020000D01*
D37*
X94440000Y-75240000D02*
X94440000Y-75660000D01*
D36*
X78980000Y-54950000D02*
X78880000Y-55050000D01*
X71400000Y-38500000D02*
X71400000Y-45600000D01*
X74450000Y-48650000D02*
X78880000Y-55050000D01*
X78980000Y-55150000D02*
X78880000Y-55050000D01*
X79300000Y-43800000D02*
X74450000Y-48650000D01*
X71400000Y-45600000D02*
X74450000Y-48650000D01*
X82200000Y-42800000D02*
X79300000Y-43800000D01*
D34*
X106550000Y-86950000D02*
X106550000Y-85870000D01*
X95860000Y-77980000D02*
X95860000Y-78330000D01*
X95510000Y-78330000D02*
X95860000Y-77980000D01*
X94820000Y-78330000D02*
X95510000Y-78330000D01*
X99140000Y-82650000D02*
X94820000Y-78330000D01*
X103330000Y-82650000D02*
X99140000Y-82650000D01*
X106550000Y-85870000D02*
X103330000Y-82650000D01*
X98020000Y-87900000D02*
X98020000Y-86290000D01*
X90400000Y-83470000D02*
X90400000Y-74800000D01*
X92990000Y-86060000D02*
X90400000Y-83470000D01*
X97790000Y-86060000D02*
X92990000Y-86060000D01*
X98020000Y-86290000D02*
X97790000Y-86060000D01*
D36*
X97820000Y-35740000D02*
X97820000Y-76640000D01*
X93270000Y-78330000D02*
X90400000Y-75460000D01*
X96130000Y-78330000D02*
X95860000Y-78330000D01*
X95860000Y-78330000D02*
X93270000Y-78330000D01*
X97820000Y-76640000D02*
X96130000Y-78330000D01*
X90400000Y-75460000D02*
X90400000Y-74800000D01*
X86890000Y-35740000D02*
X86890000Y-31520000D01*
X87820000Y-31680000D02*
X87820000Y-31520000D01*
X87050000Y-31680000D02*
X87820000Y-31680000D01*
X86890000Y-31520000D02*
X87050000Y-31680000D01*
X97820000Y-35740000D02*
X97820000Y-33000000D01*
X79020000Y-31520000D02*
X77090000Y-33450000D01*
X96340000Y-31520000D02*
X87820000Y-31520000D01*
X87820000Y-31520000D02*
X79020000Y-31520000D01*
X97820000Y-33000000D02*
X96340000Y-31520000D01*
X97820000Y-35740000D02*
X101460000Y-35740000D01*
X103300000Y-33900000D02*
X110100000Y-33900000D01*
X101460000Y-35740000D02*
X103300000Y-33900000D01*
X108600000Y-37900000D02*
X108600000Y-40900000D01*
X108600000Y-37900000D02*
X108600000Y-35400000D01*
X108600000Y-35400000D02*
X110100000Y-33900000D01*
D34*
X98020000Y-87900000D02*
X98020000Y-87320000D01*
X98020000Y-87900000D02*
X98020000Y-87820000D01*
D37*
X108680000Y-40820000D02*
X108600000Y-40900000D01*
D34*
X90400000Y-75000000D02*
X90400000Y-74800000D01*
X90400000Y-75000000D02*
X90400000Y-74800000D01*
X90400000Y-75100000D02*
X90400000Y-74800000D01*
X109150000Y-104970000D02*
X109150000Y-100350000D01*
X113100000Y-96400000D02*
X113100000Y-93420000D01*
X109150000Y-100350000D02*
X113100000Y-96400000D01*
X109150000Y-104970000D02*
X108930000Y-104970000D01*
X108930000Y-104970000D02*
X104950000Y-108200000D01*
X104950000Y-108200000D02*
X103370000Y-108200000D01*
X103370000Y-108200000D02*
X101070000Y-105900000D01*
X104950000Y-108200000D02*
X104950000Y-107420000D01*
X113050000Y-92970000D02*
X113050000Y-93300000D01*
X78270000Y-98750000D02*
X78270000Y-97380000D01*
X79600000Y-96050000D02*
X81900000Y-96050000D01*
X78270000Y-97380000D02*
X79600000Y-96050000D01*
X81700000Y-96250000D02*
X81900000Y-96050000D01*
X78550000Y-98450000D02*
X78250000Y-98750000D01*
X78250000Y-98750000D02*
X77950000Y-98750000D01*
X81900000Y-91050000D02*
X81900000Y-91200000D01*
X81900000Y-91200000D02*
X83500000Y-93100000D01*
X83500000Y-99080000D02*
X80780000Y-102100000D01*
X83500000Y-93100000D02*
X83500000Y-99080000D01*
X80780000Y-102100000D02*
X80800000Y-102100000D01*
X81900000Y-91050000D02*
X78900000Y-89400000D01*
X78900000Y-89400000D02*
X78000000Y-88500000D01*
X78000000Y-88500000D02*
X78000000Y-86100000D01*
X78000000Y-86100000D02*
X79140000Y-84960000D01*
X79140000Y-84960000D02*
X79400000Y-84960000D01*
X81900000Y-91050000D02*
X81900000Y-91650000D01*
X81900000Y-91050000D02*
X81300000Y-91050000D01*
X79040000Y-84960000D02*
X79400000Y-84960000D01*
D36*
X61450000Y-47000000D02*
X61450000Y-47450000D01*
X61450000Y-47450000D02*
X68880000Y-55050000D01*
X56500000Y-42100000D02*
X58350000Y-42100000D01*
X58350000Y-42100000D02*
X61450000Y-47000000D01*
D37*
X50580000Y-33100000D02*
X52700000Y-33100000D01*
X54000000Y-42100000D02*
X54000000Y-41100000D01*
X54000000Y-34400000D02*
X54000000Y-42100000D01*
X52700000Y-33100000D02*
X54000000Y-34400000D01*
D36*
X52100000Y-43120000D02*
X52100000Y-43000000D01*
X52100000Y-43000000D02*
X54000000Y-41100000D01*
X54000000Y-41100000D02*
X53000000Y-42100000D01*
X53000000Y-42100000D02*
X56500000Y-42100000D01*
X47700000Y-112650000D02*
X55410000Y-115750000D01*
X55410000Y-115750000D02*
X56260000Y-116600000D01*
X59560000Y-116600000D02*
X55860000Y-116600000D01*
X56300000Y-70150000D02*
X54250000Y-70150000D01*
X54250000Y-70150000D02*
X52150000Y-68050000D01*
X57750000Y-73200000D02*
X57750000Y-71600000D01*
X57750000Y-71600000D02*
X56300000Y-70150000D01*
D34*
X105400000Y-76100000D02*
X105400000Y-80400000D01*
X105400000Y-80400000D02*
X106500000Y-81500000D01*
X106500000Y-81500000D02*
X108900000Y-81500000D01*
X108900000Y-81500000D02*
X109850000Y-82450000D01*
X109850000Y-82450000D02*
X109850000Y-85750000D01*
X100400000Y-70900000D02*
X100400000Y-62400000D01*
X105400000Y-76100000D02*
X100400000Y-70900000D01*
X103100000Y-87900000D02*
X103100000Y-87950000D01*
X103100000Y-87950000D02*
X104860000Y-89710000D01*
X120030000Y-96340000D02*
X123420000Y-96340000D01*
X113400000Y-89710000D02*
X120030000Y-96340000D01*
X104860000Y-89710000D02*
X113400000Y-89710000D01*
X123420000Y-96340000D02*
X123420000Y-99720000D01*
X103100000Y-87900000D02*
X103200000Y-87900000D01*
X102300000Y-84400000D02*
X102300000Y-87100000D01*
X102300000Y-87100000D02*
X103100000Y-87900000D01*
X79400000Y-87500000D02*
X90900000Y-87500000D01*
X102100000Y-89700000D02*
X93100000Y-89700000D01*
X103100000Y-88500000D02*
X102100000Y-89700000D01*
X90900000Y-87500000D02*
X93100000Y-89700000D01*
X103100000Y-87900000D02*
X103700000Y-87900000D01*
X103100000Y-87900000D02*
X103500000Y-87900000D01*
X103100000Y-87900000D02*
X103100000Y-88000000D01*
X103100000Y-87900000D02*
X103100000Y-88500000D01*
X102500000Y-84600000D02*
X102300000Y-84400000D01*
X103100000Y-87900000D02*
X103100000Y-88300000D01*
X103100000Y-87900000D02*
X103100000Y-88700000D01*
X103100000Y-88700000D02*
X102400000Y-87500000D01*
X103200000Y-87800000D02*
X103100000Y-87900000D01*
X79400000Y-74800000D02*
X80180000Y-74800000D01*
X80180000Y-74800000D02*
X82600000Y-77220000D01*
D37*
X69000000Y-70150000D02*
X69000000Y-66350000D01*
X79400000Y-65600000D02*
X79400000Y-69720000D01*
X78200000Y-64400000D02*
X79400000Y-65600000D01*
X70950000Y-64400000D02*
X78200000Y-64400000D01*
X69000000Y-66350000D02*
X70950000Y-64400000D01*
X69000000Y-70150000D02*
X69000000Y-73200000D01*
X70600000Y-74800000D02*
X71780000Y-74800000D01*
X69000000Y-73200000D02*
X70600000Y-74800000D01*
D34*
X106175000Y-75475000D02*
X106175000Y-79525000D01*
X106175000Y-79525000D02*
X107050000Y-80400000D01*
X107050000Y-80400000D02*
X111950000Y-80400000D01*
X111950000Y-80400000D02*
X113100000Y-81550000D01*
X113100000Y-81550000D02*
X113100000Y-85800000D01*
X113050000Y-85350000D02*
X112750000Y-85350000D01*
X106200000Y-75500000D02*
X106175000Y-75475000D01*
X106175000Y-75475000D02*
X101400000Y-70700000D01*
X101400000Y-70700000D02*
X101400000Y-68500000D01*
D35*
X75900000Y-66600000D02*
X76100000Y-66600000D01*
X76100000Y-66600000D02*
X73700000Y-67700000D01*
X73700000Y-85580000D02*
X71780000Y-87500000D01*
X73700000Y-67700000D02*
X73700000Y-85580000D01*
D36*
X75900000Y-66600000D02*
X73720000Y-66500000D01*
X73720000Y-66500000D02*
X73620000Y-66600000D01*
D34*
X126400000Y-98740000D02*
X126400000Y-99630000D01*
X113770000Y-109280000D02*
X113770000Y-109380000D01*
X117770000Y-105280000D02*
X113770000Y-109280000D01*
X120920000Y-105280000D02*
X117770000Y-105280000D01*
X121570000Y-104630000D02*
X120920000Y-105280000D01*
X121570000Y-102590000D02*
X121570000Y-104630000D01*
X122880000Y-101280000D02*
X121570000Y-102590000D01*
X124750000Y-101280000D02*
X122880000Y-101280000D01*
X126400000Y-99630000D02*
X124750000Y-101280000D01*
X126400000Y-98740000D02*
X126400000Y-96600000D01*
X97500000Y-112450000D02*
X95200000Y-112450000D01*
X90300000Y-105450000D02*
X88350000Y-105450000D01*
X92100000Y-107250000D02*
X90300000Y-105450000D01*
X92100000Y-109350000D02*
X92100000Y-107250000D01*
X95200000Y-112450000D02*
X92100000Y-109350000D01*
X98400000Y-112450000D02*
X97500000Y-112450000D01*
X100300000Y-112450000D02*
X98400000Y-112450000D01*
X110700000Y-112450000D02*
X113770000Y-109380000D01*
X100300000Y-112450000D02*
X110700000Y-112450000D01*
X125900000Y-95600000D02*
X125900000Y-67300000D01*
X126400000Y-96600000D02*
X125900000Y-95600000D01*
X124600000Y-58800000D02*
X123300000Y-57500000D01*
X124600000Y-66500000D02*
X124600000Y-58800000D01*
X125900000Y-67300000D02*
X124600000Y-66500000D01*
X70610000Y-102110000D02*
X68050000Y-101900000D01*
X68050000Y-101900000D02*
X66300000Y-100950000D01*
X66300000Y-100950000D02*
X66300000Y-88150000D01*
X66300000Y-88150000D02*
X71780000Y-82870000D01*
X70610000Y-105500000D02*
X70610000Y-102110000D01*
X71780000Y-82870000D02*
X71780000Y-82420000D01*
X80730000Y-105450000D02*
X78280000Y-105550000D01*
X78280000Y-105550000D02*
X78230000Y-105500000D01*
X78230000Y-102110000D02*
X77610000Y-102110000D01*
X77610000Y-102110000D02*
X74400000Y-99700000D01*
X81100000Y-80950000D02*
X80030000Y-79880000D01*
X81100000Y-82600000D02*
X81100000Y-80950000D01*
X79950000Y-83750000D02*
X81100000Y-82600000D01*
X78250000Y-83750000D02*
X79950000Y-83750000D01*
X76200000Y-85800000D02*
X78250000Y-83750000D01*
X76200000Y-92550000D02*
X76200000Y-85800000D01*
X74400000Y-94350000D02*
X76200000Y-92550000D01*
X74400000Y-99700000D02*
X74400000Y-94350000D01*
X80030000Y-79880000D02*
X79400000Y-79880000D01*
X78180000Y-108570000D02*
X77910000Y-105820000D01*
X77910000Y-105820000D02*
X78230000Y-105500000D01*
X78230000Y-102110000D02*
X78080000Y-105350000D01*
X78080000Y-105350000D02*
X78230000Y-105500000D01*
X77960000Y-101840000D02*
X78230000Y-102110000D01*
X78280000Y-102060000D02*
X78230000Y-102110000D01*
X78230000Y-102110000D02*
X78210000Y-102110000D01*
X80080000Y-79880000D02*
X79400000Y-79880000D01*
X78230000Y-105500000D02*
X78230000Y-106180000D01*
X78230000Y-105500000D02*
X78210000Y-105500000D01*
X78430000Y-102310000D02*
X78230000Y-102110000D01*
D36*
X52150000Y-65510000D02*
X54690000Y-65510000D01*
X56500000Y-63700000D02*
X56500000Y-54800000D01*
X54690000Y-65510000D02*
X56500000Y-63700000D01*
X56500000Y-54800000D02*
X56500000Y-49900000D01*
X54800000Y-48200000D02*
X52100000Y-48200000D01*
X56500000Y-49900000D02*
X54800000Y-48200000D01*
D34*
X70560000Y-108570000D02*
X70030000Y-108820000D01*
X65550000Y-87930000D02*
X65000000Y-87180000D01*
X65550000Y-102100000D02*
X65550000Y-87930000D01*
X68580000Y-104480000D02*
X65550000Y-102100000D01*
X68580000Y-107780000D02*
X68580000Y-104480000D01*
X70030000Y-108820000D02*
X68580000Y-107780000D01*
X64320000Y-87180000D02*
X65000000Y-87180000D01*
X71550000Y-95300000D02*
X71550000Y-95200000D01*
X71550000Y-95200000D02*
X74700000Y-92650000D01*
X76230000Y-82420000D02*
X79400000Y-82420000D01*
X74700000Y-83950000D02*
X76230000Y-82420000D01*
X74700000Y-92650000D02*
X74700000Y-83950000D01*
X70630000Y-98750000D02*
X71230000Y-95620000D01*
X71550000Y-95300000D02*
X69900000Y-95300000D01*
X69900000Y-95300000D02*
X68700000Y-95900000D01*
X79020000Y-82800000D02*
X79400000Y-82420000D01*
X71230000Y-95620000D02*
X71550000Y-95300000D01*
X71930000Y-95680000D02*
X71550000Y-95300000D01*
X71550000Y-95300000D02*
X71630000Y-95300000D01*
X79400000Y-82420000D02*
X79460000Y-82420000D01*
X78980000Y-82420000D02*
X79400000Y-82420000D01*
X70820000Y-100320000D02*
X68370000Y-100320000D01*
X68200000Y-100150000D02*
X67150002Y-99100002D01*
X67150002Y-99100002D02*
X67150002Y-97850000D01*
X68370000Y-100320000D02*
X68200000Y-100150000D01*
X72350000Y-101850000D02*
X70820000Y-100320000D01*
X70820000Y-100320000D02*
X70800000Y-100300000D01*
X72350000Y-109850000D02*
X72350000Y-101850000D01*
X74400000Y-111900000D02*
X72350000Y-109850000D01*
X89050000Y-111900000D02*
X74400000Y-111900000D01*
X90400000Y-110550000D02*
X89050000Y-111900000D01*
X67150002Y-93349998D02*
X67150002Y-97850000D01*
X68700000Y-91400000D02*
X67150002Y-93349998D01*
X90400000Y-109750000D02*
X90400000Y-110550000D01*
X67150002Y-97850000D02*
X67150002Y-98000002D01*
X68700000Y-90900000D02*
X68700000Y-91400000D01*
X71330000Y-91850000D02*
X71100000Y-92000000D01*
X71100000Y-92000000D02*
X70100000Y-91000000D01*
X68700000Y-90900000D02*
X69200000Y-86900000D01*
X69200000Y-86900000D02*
X71140000Y-84960000D01*
X71140000Y-84960000D02*
X71780000Y-84960000D01*
X70100000Y-91000000D02*
X68700000Y-90900000D01*
X71340000Y-84960000D02*
X71780000Y-84960000D01*
D37*
X56700000Y-36200000D02*
X56600000Y-34700000D01*
X56600000Y-34700000D02*
X58200000Y-33100000D01*
D36*
X53000000Y-76030000D02*
X49680000Y-73980000D01*
X49680000Y-73980000D02*
X46200000Y-70500000D01*
X46200000Y-71780000D02*
X46200000Y-70500000D01*
X46200000Y-71780000D02*
X46200000Y-71100000D01*
X46500000Y-70200000D02*
X46500000Y-61150000D01*
X46200000Y-70500000D02*
X46500000Y-70200000D01*
X52150000Y-62970000D02*
X48320000Y-62970000D01*
X48320000Y-62970000D02*
X46500000Y-61150000D01*
X61300000Y-77100000D02*
X58500000Y-77100000D01*
X58500000Y-77100000D02*
X57750000Y-77850000D01*
X53000000Y-76030000D02*
X53980000Y-76030000D01*
X53980000Y-76030000D02*
X57750000Y-77850000D01*
X57750000Y-77850000D02*
X57750000Y-85900000D01*
D37*
X51700000Y-36200000D02*
X50200000Y-36900000D01*
X50100000Y-45300000D02*
X50100000Y-45200000D01*
X50000000Y-45300000D02*
X50100000Y-45300000D01*
X49200000Y-46100000D02*
X50000000Y-45300000D01*
X49200000Y-37900000D02*
X49200000Y-46100000D01*
X50200000Y-36900000D02*
X49200000Y-37900000D01*
D36*
X46500000Y-61150000D02*
X46500000Y-58500000D01*
X46500000Y-58500000D02*
X46500000Y-48800000D01*
X46500000Y-48800000D02*
X48600000Y-46700000D01*
X48600000Y-46700000D02*
X50100000Y-45200000D01*
X50100000Y-45200000D02*
X49640000Y-45660000D01*
X49640000Y-45660000D02*
X52100000Y-45660000D01*
X116220000Y-37900000D02*
X116220000Y-34940000D01*
X116220000Y-34940000D02*
X115180000Y-33900000D01*
D34*
X65000000Y-84640000D02*
X61380000Y-84640000D01*
X61380000Y-84640000D02*
X61300000Y-84720000D01*
X106550000Y-94570000D02*
X106550000Y-94750000D01*
X106550000Y-94750000D02*
X109150000Y-97350000D01*
X95480000Y-95520000D02*
X95480000Y-94220000D01*
X104680000Y-92700000D02*
X106550000Y-94570000D01*
X97000000Y-92700000D02*
X104680000Y-92700000D01*
X95480000Y-94220000D02*
X97000000Y-92700000D01*
X95480000Y-95520000D02*
X95480000Y-94920000D01*
X95480000Y-94770000D02*
X95480000Y-95520000D01*
X95280000Y-98650000D02*
X95280000Y-100920000D01*
X95280000Y-100920000D02*
X94300000Y-101900000D01*
X95280000Y-98650000D02*
X92620000Y-98650000D01*
X95280000Y-98650000D02*
X95750000Y-98650000D01*
X95750000Y-98650000D02*
X98020000Y-96380000D01*
X98020000Y-96380000D02*
X98020000Y-95520000D01*
X100550000Y-101800000D02*
X99400000Y-101800000D01*
X99400000Y-101800000D02*
X99300000Y-101900000D01*
X98020000Y-109750000D02*
X98020000Y-105730000D01*
X100550000Y-101000000D02*
X102900000Y-98650000D01*
X100550000Y-103200000D02*
X100550000Y-101800000D01*
X100550000Y-101800000D02*
X100550000Y-101000000D01*
X98020000Y-105730000D02*
X100550000Y-103200000D01*
X100560000Y-95520000D02*
X100560000Y-97560000D01*
X101650000Y-98650000D02*
X102900000Y-98650000D01*
X100560000Y-97560000D02*
X101650000Y-98650000D01*
X100560000Y-95520000D02*
X100560000Y-94990000D01*
X98020000Y-109750000D02*
X97600000Y-109750000D01*
X100560000Y-95520000D02*
X100560000Y-95090000D01*
D36*
X102750000Y-50450000D02*
X102750000Y-43030000D01*
X102750000Y-43030000D02*
X102520000Y-42800000D01*
X107830000Y-50450000D02*
X107830000Y-45970000D01*
X107830000Y-45970000D02*
X112640000Y-41160000D01*
X112640000Y-41160000D02*
X112640000Y-33900000D01*
D35*
G36*
X73250000Y-34003554D02*
X73250000Y-36324522D01*
X73050776Y-36242000D01*
X72339500Y-36242000D01*
X72150000Y-36431500D01*
X72150000Y-37750000D01*
X72670000Y-37750000D01*
X72670000Y-39250000D01*
X72150000Y-39250000D01*
X72150000Y-40568500D01*
X72339500Y-40758000D01*
X73050776Y-40758000D01*
X73250000Y-40675478D01*
X73250000Y-41400000D01*
X73269696Y-41497264D01*
X73323223Y-41576777D01*
X74523223Y-42776777D01*
X74605927Y-42831625D01*
X74700000Y-42850000D01*
X76800000Y-42850000D01*
X76897264Y-42830304D01*
X76976777Y-42776777D01*
X78303554Y-41450000D01*
X80733648Y-41450000D01*
X79907939Y-42275709D01*
X80249461Y-42617231D01*
X80208482Y-42938928D01*
X80306911Y-43433768D01*
X80570593Y-43580879D01*
X81351472Y-42800000D01*
X80927208Y-42375736D01*
X81775736Y-41527208D01*
X82200000Y-41951472D01*
X82624264Y-41527208D01*
X83472792Y-42375736D01*
X83048528Y-42800000D01*
X83829407Y-43580879D01*
X84093089Y-43433768D01*
X84191518Y-42661072D01*
X84177446Y-42590324D01*
X84492061Y-42275709D01*
X83666352Y-41450000D01*
X84396446Y-41450000D01*
X85150000Y-42203554D01*
X85150000Y-49200000D01*
X85169696Y-49297264D01*
X85223223Y-49376777D01*
X88623223Y-52776777D01*
X88705927Y-52831625D01*
X88755279Y-52845967D01*
X89379625Y-52959484D01*
X89313699Y-53053039D01*
X90180000Y-53919340D01*
X90547696Y-53551644D01*
X91608356Y-54612304D01*
X91240660Y-54980000D01*
X92106961Y-55846301D01*
X92381784Y-55652639D01*
X92471592Y-54758851D01*
X92421375Y-54506395D01*
X92688349Y-54239421D01*
X91859254Y-53410326D01*
X92858443Y-53591997D01*
X93531621Y-54265175D01*
X93650000Y-61801952D01*
X93650000Y-72082907D01*
X93139954Y-72507945D01*
X93106205Y-72550000D01*
X88550000Y-72550000D01*
X88550000Y-67900000D01*
X88530304Y-67802736D01*
X88474318Y-67720798D01*
X88390864Y-67667097D01*
X88300000Y-67650000D01*
X84770002Y-67650000D01*
X84770002Y-67492061D01*
X84944665Y-67230631D01*
X84828737Y-67000000D01*
X83920000Y-67000000D01*
X83920000Y-67400000D01*
X83120000Y-67400000D01*
X83120000Y-67000000D01*
X82211263Y-67000000D01*
X82095335Y-67230631D01*
X82269998Y-67492061D01*
X82269998Y-67650000D01*
X82203554Y-67650000D01*
X81850000Y-67296446D01*
X81850000Y-65969369D01*
X82095335Y-65969369D01*
X82211263Y-66200000D01*
X83120000Y-66200000D01*
X83120000Y-65283693D01*
X83920000Y-65283693D01*
X83920000Y-66200000D01*
X84828737Y-66200000D01*
X84944665Y-65969369D01*
X84647838Y-65525088D01*
X84366208Y-65326961D01*
X84669732Y-65326961D01*
X84905208Y-65896857D01*
X85340849Y-66333260D01*
X85910333Y-66569730D01*
X86526961Y-66570268D01*
X87096857Y-66334792D01*
X87533260Y-65899151D01*
X87769730Y-65329667D01*
X87770268Y-64713039D01*
X87534792Y-64143143D01*
X87099151Y-63706740D01*
X86529667Y-63470270D01*
X85913039Y-63469732D01*
X85343143Y-63705208D01*
X84906740Y-64140849D01*
X84670270Y-64710333D01*
X84669732Y-65326961D01*
X84366208Y-65326961D01*
X84150635Y-65175306D01*
X83920000Y-65283693D01*
X83120000Y-65283693D01*
X82889365Y-65175306D01*
X82392162Y-65525088D01*
X82095335Y-65969369D01*
X81850000Y-65969369D01*
X81850000Y-61300000D01*
X81840038Y-61250805D01*
X85554881Y-61250805D01*
X85639983Y-61498846D01*
X86250064Y-61608239D01*
X86800017Y-61498846D01*
X86885119Y-61250805D01*
X86220000Y-60585685D01*
X85554881Y-61250805D01*
X81840038Y-61250805D01*
X81830304Y-61202736D01*
X81774318Y-61120798D01*
X81687092Y-61065660D01*
X78954407Y-60050064D01*
X84631761Y-60050064D01*
X84741154Y-60600017D01*
X84989195Y-60685119D01*
X85654315Y-60020000D01*
X86785685Y-60020000D01*
X87450805Y-60685119D01*
X87698846Y-60600017D01*
X87808239Y-59989936D01*
X87698846Y-59439983D01*
X87450805Y-59354881D01*
X86785685Y-60020000D01*
X85654315Y-60020000D01*
X84989195Y-59354881D01*
X84741154Y-59439983D01*
X84631761Y-60050064D01*
X78954407Y-60050064D01*
X75561760Y-58789195D01*
X85554881Y-58789195D01*
X86220000Y-59454315D01*
X86885119Y-58789195D01*
X86800017Y-58541154D01*
X86189936Y-58431761D01*
X85639983Y-58541154D01*
X85554881Y-58789195D01*
X75561760Y-58789195D01*
X74020000Y-58216204D01*
X74020000Y-56976961D01*
X78013699Y-56976961D01*
X78207361Y-57251784D01*
X79101149Y-57341592D01*
X79552639Y-57251784D01*
X79746301Y-56976961D01*
X79676301Y-56906961D01*
X89313699Y-56906961D01*
X89507361Y-57181784D01*
X90401149Y-57271592D01*
X90852639Y-57181784D01*
X91046301Y-56906961D01*
X90180000Y-56040660D01*
X89313699Y-56906961D01*
X79676301Y-56906961D01*
X78880000Y-56110660D01*
X78013699Y-56976961D01*
X74020000Y-56976961D01*
X74020000Y-55271149D01*
X76588408Y-55271149D01*
X76678216Y-55722639D01*
X76953039Y-55916301D01*
X77819340Y-55050000D01*
X79940660Y-55050000D01*
X80806961Y-55916301D01*
X81081784Y-55722639D01*
X81134183Y-55201149D01*
X87888408Y-55201149D01*
X87978216Y-55652639D01*
X88253039Y-55846301D01*
X89119340Y-54980000D01*
X88253039Y-54113699D01*
X87978216Y-54307361D01*
X87888408Y-55201149D01*
X81134183Y-55201149D01*
X81171592Y-54828851D01*
X81081784Y-54377361D01*
X80806961Y-54183699D01*
X79940660Y-55050000D01*
X77819340Y-55050000D01*
X76953039Y-54183699D01*
X76678216Y-54377361D01*
X76588408Y-55271149D01*
X74020000Y-55271149D01*
X74020000Y-54190000D01*
X73994766Y-54080547D01*
X73528493Y-53123039D01*
X78013699Y-53123039D01*
X78880000Y-53989340D01*
X79746301Y-53123039D01*
X79552639Y-52848216D01*
X78658851Y-52758408D01*
X78207361Y-52848216D01*
X78013699Y-53123039D01*
X73528493Y-53123039D01*
X69350000Y-44542366D01*
X69350000Y-44429407D01*
X81419121Y-44429407D01*
X81566232Y-44693089D01*
X82338928Y-44791518D01*
X82833768Y-44693089D01*
X82980879Y-44429407D01*
X82200000Y-43648528D01*
X81419121Y-44429407D01*
X69350000Y-44429407D01*
X69350000Y-40521974D01*
X69470627Y-40642601D01*
X69749224Y-40758000D01*
X70460500Y-40758000D01*
X70650000Y-40568500D01*
X70650000Y-39250000D01*
X70130000Y-39250000D01*
X70130000Y-37750000D01*
X70650000Y-37750000D01*
X70650000Y-36431500D01*
X70460500Y-36242000D01*
X69749224Y-36242000D01*
X69470627Y-36357399D01*
X69257398Y-36570628D01*
X69142000Y-36849225D01*
X69142000Y-37057903D01*
X69100000Y-37050000D01*
X67814480Y-37050000D01*
X67647093Y-35961986D01*
X67612836Y-35868848D01*
X67545042Y-35796376D01*
X67454393Y-35755989D01*
X67400000Y-35750000D01*
X59916823Y-35750000D01*
X59850000Y-35282236D01*
X59850000Y-34106938D01*
X59936497Y-32550000D01*
X71796446Y-32550000D01*
X73250000Y-34003554D01*
X73250000Y-34003554D01*
G37*
X73250000Y-34003554D02*
X73250000Y-36324522D01*
X73050776Y-36242000D01*
X72339500Y-36242000D01*
X72150000Y-36431500D01*
X72150000Y-37750000D01*
X72670000Y-37750000D01*
X72670000Y-39250000D01*
X72150000Y-39250000D01*
X72150000Y-40568500D01*
X72339500Y-40758000D01*
X73050776Y-40758000D01*
X73250000Y-40675478D01*
X73250000Y-41400000D01*
X73269696Y-41497264D01*
X73323223Y-41576777D01*
X74523223Y-42776777D01*
X74605927Y-42831625D01*
X74700000Y-42850000D01*
X76800000Y-42850000D01*
X76897264Y-42830304D01*
X76976777Y-42776777D01*
X78303554Y-41450000D01*
X80733648Y-41450000D01*
X79907939Y-42275709D01*
X80249461Y-42617231D01*
X80208482Y-42938928D01*
X80306911Y-43433768D01*
X80570593Y-43580879D01*
X81351472Y-42800000D01*
X80927208Y-42375736D01*
X81775736Y-41527208D01*
X82200000Y-41951472D01*
X82624264Y-41527208D01*
X83472792Y-42375736D01*
X83048528Y-42800000D01*
X83829407Y-43580879D01*
X84093089Y-43433768D01*
X84191518Y-42661072D01*
X84177446Y-42590324D01*
X84492061Y-42275709D01*
X83666352Y-41450000D01*
X84396446Y-41450000D01*
X85150000Y-42203554D01*
X85150000Y-49200000D01*
X85169696Y-49297264D01*
X85223223Y-49376777D01*
X88623223Y-52776777D01*
X88705927Y-52831625D01*
X88755279Y-52845967D01*
X89379625Y-52959484D01*
X89313699Y-53053039D01*
X90180000Y-53919340D01*
X90547696Y-53551644D01*
X91608356Y-54612304D01*
X91240660Y-54980000D01*
X92106961Y-55846301D01*
X92381784Y-55652639D01*
X92471592Y-54758851D01*
X92421375Y-54506395D01*
X92688349Y-54239421D01*
X91859254Y-53410326D01*
X92858443Y-53591997D01*
X93531621Y-54265175D01*
X93650000Y-61801952D01*
X93650000Y-72082907D01*
X93139954Y-72507945D01*
X93106205Y-72550000D01*
X88550000Y-72550000D01*
X88550000Y-67900000D01*
X88530304Y-67802736D01*
X88474318Y-67720798D01*
X88390864Y-67667097D01*
X88300000Y-67650000D01*
X84770002Y-67650000D01*
X84770002Y-67492061D01*
X84944665Y-67230631D01*
X84828737Y-67000000D01*
X83920000Y-67000000D01*
X83920000Y-67400000D01*
X83120000Y-67400000D01*
X83120000Y-67000000D01*
X82211263Y-67000000D01*
X82095335Y-67230631D01*
X82269998Y-67492061D01*
X82269998Y-67650000D01*
X82203554Y-67650000D01*
X81850000Y-67296446D01*
X81850000Y-65969369D01*
X82095335Y-65969369D01*
X82211263Y-66200000D01*
X83120000Y-66200000D01*
X83120000Y-65283693D01*
X83920000Y-65283693D01*
X83920000Y-66200000D01*
X84828737Y-66200000D01*
X84944665Y-65969369D01*
X84647838Y-65525088D01*
X84366208Y-65326961D01*
X84669732Y-65326961D01*
X84905208Y-65896857D01*
X85340849Y-66333260D01*
X85910333Y-66569730D01*
X86526961Y-66570268D01*
X87096857Y-66334792D01*
X87533260Y-65899151D01*
X87769730Y-65329667D01*
X87770268Y-64713039D01*
X87534792Y-64143143D01*
X87099151Y-63706740D01*
X86529667Y-63470270D01*
X85913039Y-63469732D01*
X85343143Y-63705208D01*
X84906740Y-64140849D01*
X84670270Y-64710333D01*
X84669732Y-65326961D01*
X84366208Y-65326961D01*
X84150635Y-65175306D01*
X83920000Y-65283693D01*
X83120000Y-65283693D01*
X82889365Y-65175306D01*
X82392162Y-65525088D01*
X82095335Y-65969369D01*
X81850000Y-65969369D01*
X81850000Y-61300000D01*
X81840038Y-61250805D01*
X85554881Y-61250805D01*
X85639983Y-61498846D01*
X86250064Y-61608239D01*
X86800017Y-61498846D01*
X86885119Y-61250805D01*
X86220000Y-60585685D01*
X85554881Y-61250805D01*
X81840038Y-61250805D01*
X81830304Y-61202736D01*
X81774318Y-61120798D01*
X81687092Y-61065660D01*
X78954407Y-60050064D01*
X84631761Y-60050064D01*
X84741154Y-60600017D01*
X84989195Y-60685119D01*
X85654315Y-60020000D01*
X86785685Y-60020000D01*
X87450805Y-60685119D01*
X87698846Y-60600017D01*
X87808239Y-59989936D01*
X87698846Y-59439983D01*
X87450805Y-59354881D01*
X86785685Y-60020000D01*
X85654315Y-60020000D01*
X84989195Y-59354881D01*
X84741154Y-59439983D01*
X84631761Y-60050064D01*
X78954407Y-60050064D01*
X75561760Y-58789195D01*
X85554881Y-58789195D01*
X86220000Y-59454315D01*
X86885119Y-58789195D01*
X86800017Y-58541154D01*
X86189936Y-58431761D01*
X85639983Y-58541154D01*
X85554881Y-58789195D01*
X75561760Y-58789195D01*
X74020000Y-58216204D01*
X74020000Y-56976961D01*
X78013699Y-56976961D01*
X78207361Y-57251784D01*
X79101149Y-57341592D01*
X79552639Y-57251784D01*
X79746301Y-56976961D01*
X79676301Y-56906961D01*
X89313699Y-56906961D01*
X89507361Y-57181784D01*
X90401149Y-57271592D01*
X90852639Y-57181784D01*
X91046301Y-56906961D01*
X90180000Y-56040660D01*
X89313699Y-56906961D01*
X79676301Y-56906961D01*
X78880000Y-56110660D01*
X78013699Y-56976961D01*
X74020000Y-56976961D01*
X74020000Y-55271149D01*
X76588408Y-55271149D01*
X76678216Y-55722639D01*
X76953039Y-55916301D01*
X77819340Y-55050000D01*
X79940660Y-55050000D01*
X80806961Y-55916301D01*
X81081784Y-55722639D01*
X81134183Y-55201149D01*
X87888408Y-55201149D01*
X87978216Y-55652639D01*
X88253039Y-55846301D01*
X89119340Y-54980000D01*
X88253039Y-54113699D01*
X87978216Y-54307361D01*
X87888408Y-55201149D01*
X81134183Y-55201149D01*
X81171592Y-54828851D01*
X81081784Y-54377361D01*
X80806961Y-54183699D01*
X79940660Y-55050000D01*
X77819340Y-55050000D01*
X76953039Y-54183699D01*
X76678216Y-54377361D01*
X76588408Y-55271149D01*
X74020000Y-55271149D01*
X74020000Y-54190000D01*
X73994766Y-54080547D01*
X73528493Y-53123039D01*
X78013699Y-53123039D01*
X78880000Y-53989340D01*
X79746301Y-53123039D01*
X79552639Y-52848216D01*
X78658851Y-52758408D01*
X78207361Y-52848216D01*
X78013699Y-53123039D01*
X73528493Y-53123039D01*
X69350000Y-44542366D01*
X69350000Y-44429407D01*
X81419121Y-44429407D01*
X81566232Y-44693089D01*
X82338928Y-44791518D01*
X82833768Y-44693089D01*
X82980879Y-44429407D01*
X82200000Y-43648528D01*
X81419121Y-44429407D01*
X69350000Y-44429407D01*
X69350000Y-40521974D01*
X69470627Y-40642601D01*
X69749224Y-40758000D01*
X70460500Y-40758000D01*
X70650000Y-40568500D01*
X70650000Y-39250000D01*
X70130000Y-39250000D01*
X70130000Y-37750000D01*
X70650000Y-37750000D01*
X70650000Y-36431500D01*
X70460500Y-36242000D01*
X69749224Y-36242000D01*
X69470627Y-36357399D01*
X69257398Y-36570628D01*
X69142000Y-36849225D01*
X69142000Y-37057903D01*
X69100000Y-37050000D01*
X67814480Y-37050000D01*
X67647093Y-35961986D01*
X67612836Y-35868848D01*
X67545042Y-35796376D01*
X67454393Y-35755989D01*
X67400000Y-35750000D01*
X59916823Y-35750000D01*
X59850000Y-35282236D01*
X59850000Y-34106938D01*
X59936497Y-32550000D01*
X71796446Y-32550000D01*
X73250000Y-34003554D01*
G36*
X56950000Y-51600000D02*
X56969696Y-51697264D01*
X57023223Y-51776777D01*
X57750000Y-52503554D01*
X57750000Y-54141467D01*
X57730805Y-54134881D01*
X57065685Y-54800000D01*
X57730805Y-55465119D01*
X57750000Y-55458533D01*
X57750000Y-66100000D01*
X54050000Y-66100000D01*
X54050000Y-62800000D01*
X54030304Y-62702736D01*
X53974318Y-62620798D01*
X53950000Y-62605150D01*
X53950000Y-56030805D01*
X55834881Y-56030805D01*
X55919983Y-56278846D01*
X56530064Y-56388239D01*
X57080017Y-56278846D01*
X57165119Y-56030805D01*
X56500000Y-55365685D01*
X55834881Y-56030805D01*
X53950000Y-56030805D01*
X53950000Y-54830064D01*
X54911761Y-54830064D01*
X55021154Y-55380017D01*
X55269195Y-55465119D01*
X55934315Y-54800000D01*
X55269195Y-54134881D01*
X55021154Y-54219983D01*
X54911761Y-54830064D01*
X53950000Y-54830064D01*
X53950000Y-53569195D01*
X55834881Y-53569195D01*
X56500000Y-54234315D01*
X57165119Y-53569195D01*
X57080017Y-53321154D01*
X56469936Y-53211761D01*
X55919983Y-53321154D01*
X55834881Y-53569195D01*
X53950000Y-53569195D01*
X53950000Y-47550000D01*
X56950000Y-47550000D01*
X56950000Y-51600000D01*
X56950000Y-51600000D01*
G37*
X56950000Y-51600000D02*
X56969696Y-51697264D01*
X57023223Y-51776777D01*
X57750000Y-52503554D01*
X57750000Y-54141467D01*
X57730805Y-54134881D01*
X57065685Y-54800000D01*
X57730805Y-55465119D01*
X57750000Y-55458533D01*
X57750000Y-66100000D01*
X54050000Y-66100000D01*
X54050000Y-62800000D01*
X54030304Y-62702736D01*
X53974318Y-62620798D01*
X53950000Y-62605150D01*
X53950000Y-56030805D01*
X55834881Y-56030805D01*
X55919983Y-56278846D01*
X56530064Y-56388239D01*
X57080017Y-56278846D01*
X57165119Y-56030805D01*
X56500000Y-55365685D01*
X55834881Y-56030805D01*
X53950000Y-56030805D01*
X53950000Y-54830064D01*
X54911761Y-54830064D01*
X55021154Y-55380017D01*
X55269195Y-55465119D01*
X55934315Y-54800000D01*
X55269195Y-54134881D01*
X55021154Y-54219983D01*
X54911761Y-54830064D01*
X53950000Y-54830064D01*
X53950000Y-53569195D01*
X55834881Y-53569195D01*
X56500000Y-54234315D01*
X57165119Y-53569195D01*
X57080017Y-53321154D01*
X56469936Y-53211761D01*
X55919983Y-53321154D01*
X55834881Y-53569195D01*
X53950000Y-53569195D01*
X53950000Y-47550000D01*
X56950000Y-47550000D01*
X56950000Y-51600000D01*
G36*
X48450000Y-111900000D02*
X49768500Y-111900000D01*
X49818500Y-111850000D01*
X57851852Y-111850000D01*
X59982144Y-113980292D01*
X60034707Y-117870000D01*
X59522500Y-117870000D01*
X59522500Y-117475000D01*
X58516500Y-117475000D01*
X58347105Y-117730457D01*
X58538774Y-118250000D01*
X57716177Y-118250000D01*
X57945808Y-117743564D01*
X57797120Y-117475000D01*
X56760000Y-117475000D01*
X56760000Y-117870000D01*
X55760000Y-117870000D01*
X55760000Y-117475000D01*
X54722880Y-117475000D01*
X54574192Y-117743564D01*
X54803823Y-118250000D01*
X53385611Y-118250000D01*
X53378354Y-118245151D01*
X52900000Y-118150001D01*
X52421646Y-118245151D01*
X52145250Y-118429832D01*
X51504914Y-118750000D01*
X49712723Y-118750000D01*
X49949608Y-118179516D01*
X49950390Y-117284411D01*
X49608569Y-116457142D01*
X48976187Y-115823655D01*
X48149516Y-115480392D01*
X47750000Y-115480043D01*
X47750000Y-115456436D01*
X54574192Y-115456436D01*
X54722880Y-115725000D01*
X55760000Y-115725000D01*
X55760000Y-114363328D01*
X56760000Y-114363328D01*
X56760000Y-115725000D01*
X57797120Y-115725000D01*
X57938551Y-115469543D01*
X58347105Y-115469543D01*
X58516500Y-115725000D01*
X59522500Y-115725000D01*
X59522500Y-114349396D01*
X59281768Y-114239507D01*
X59000146Y-114403875D01*
X58567638Y-114871760D01*
X58347105Y-115469543D01*
X57938551Y-115469543D01*
X57945808Y-115456436D01*
X57666873Y-114841263D01*
X57173754Y-114379662D01*
X57017498Y-114263570D01*
X56760000Y-114363328D01*
X55760000Y-114363328D01*
X55502502Y-114263570D01*
X55346246Y-114379662D01*
X54853127Y-114841263D01*
X54574192Y-115456436D01*
X47750000Y-115456436D01*
X47750000Y-114908000D01*
X49350775Y-114908000D01*
X49629372Y-114792602D01*
X49842601Y-114579373D01*
X49958000Y-114300776D01*
X49958000Y-113589500D01*
X49768500Y-113400000D01*
X48450000Y-113400000D01*
X48450000Y-113920000D01*
X47750000Y-113920000D01*
X47750000Y-111850000D01*
X48450000Y-111850000D01*
X48450000Y-111900000D01*
X48450000Y-111900000D01*
G37*
X48450000Y-111900000D02*
X49768500Y-111900000D01*
X49818500Y-111850000D01*
X57851852Y-111850000D01*
X59982144Y-113980292D01*
X60034707Y-117870000D01*
X59522500Y-117870000D01*
X59522500Y-117475000D01*
X58516500Y-117475000D01*
X58347105Y-117730457D01*
X58538774Y-118250000D01*
X57716177Y-118250000D01*
X57945808Y-117743564D01*
X57797120Y-117475000D01*
X56760000Y-117475000D01*
X56760000Y-117870000D01*
X55760000Y-117870000D01*
X55760000Y-117475000D01*
X54722880Y-117475000D01*
X54574192Y-117743564D01*
X54803823Y-118250000D01*
X53385611Y-118250000D01*
X53378354Y-118245151D01*
X52900000Y-118150001D01*
X52421646Y-118245151D01*
X52145250Y-118429832D01*
X51504914Y-118750000D01*
X49712723Y-118750000D01*
X49949608Y-118179516D01*
X49950390Y-117284411D01*
X49608569Y-116457142D01*
X48976187Y-115823655D01*
X48149516Y-115480392D01*
X47750000Y-115480043D01*
X47750000Y-115456436D01*
X54574192Y-115456436D01*
X54722880Y-115725000D01*
X55760000Y-115725000D01*
X55760000Y-114363328D01*
X56760000Y-114363328D01*
X56760000Y-115725000D01*
X57797120Y-115725000D01*
X57938551Y-115469543D01*
X58347105Y-115469543D01*
X58516500Y-115725000D01*
X59522500Y-115725000D01*
X59522500Y-114349396D01*
X59281768Y-114239507D01*
X59000146Y-114403875D01*
X58567638Y-114871760D01*
X58347105Y-115469543D01*
X57938551Y-115469543D01*
X57945808Y-115456436D01*
X57666873Y-114841263D01*
X57173754Y-114379662D01*
X57017498Y-114263570D01*
X56760000Y-114363328D01*
X55760000Y-114363328D01*
X55502502Y-114263570D01*
X55346246Y-114379662D01*
X54853127Y-114841263D01*
X54574192Y-115456436D01*
X47750000Y-115456436D01*
X47750000Y-114908000D01*
X49350775Y-114908000D01*
X49629372Y-114792602D01*
X49842601Y-114579373D01*
X49958000Y-114300776D01*
X49958000Y-113589500D01*
X49768500Y-113400000D01*
X48450000Y-113400000D01*
X48450000Y-113920000D01*
X47750000Y-113920000D01*
X47750000Y-111850000D01*
X48450000Y-111850000D01*
X48450000Y-111900000D01*
G36*
X58646323Y-89914093D02*
X59098874Y-90366643D01*
X59171154Y-90730017D01*
X59419195Y-90815119D01*
X60084315Y-90150000D01*
X59801472Y-89867157D01*
X60318629Y-89350000D01*
X60415685Y-89350000D01*
X60650000Y-89584315D01*
X60884315Y-89350000D01*
X60981371Y-89350000D01*
X61350000Y-89718629D01*
X61350000Y-90015685D01*
X61215685Y-90150000D01*
X61350000Y-90284315D01*
X61350000Y-90581371D01*
X60932843Y-90998528D01*
X60650000Y-90715685D01*
X59984881Y-91380805D01*
X60069983Y-91628846D01*
X60424677Y-91692446D01*
X60885907Y-92153677D01*
X61350000Y-91689584D01*
X61350000Y-93762350D01*
X60959667Y-93600270D01*
X60343039Y-93599732D01*
X59773143Y-93835208D01*
X59336740Y-94270849D01*
X59100270Y-94840333D01*
X59099732Y-95456961D01*
X59335208Y-96026857D01*
X59770849Y-96463260D01*
X60340333Y-96699730D01*
X60956961Y-96700268D01*
X61350000Y-96537868D01*
X61350000Y-99249903D01*
X61014411Y-99249610D01*
X60187142Y-99591431D01*
X59553655Y-100223813D01*
X59210392Y-101050484D01*
X59209610Y-101945589D01*
X59551431Y-102772858D01*
X60183813Y-103406345D01*
X61010484Y-103749608D01*
X61905589Y-103750390D01*
X62732858Y-103408569D01*
X63366345Y-102776187D01*
X63460266Y-102550000D01*
X64096446Y-102550000D01*
X65750000Y-104203554D01*
X65750000Y-110300000D01*
X65769696Y-110397264D01*
X65825682Y-110479202D01*
X65909136Y-110532903D01*
X66000000Y-110550000D01*
X69650000Y-110550000D01*
X69650000Y-116850000D01*
X62835000Y-116850000D01*
X62835000Y-115725000D01*
X63272500Y-115725000D01*
X63272500Y-114349396D01*
X64147500Y-114349396D01*
X64147500Y-115725000D01*
X65153500Y-115725000D01*
X65322895Y-115469543D01*
X65318060Y-115456436D01*
X65974192Y-115456436D01*
X66122880Y-115725000D01*
X67160000Y-115725000D01*
X67160000Y-114363328D01*
X68160000Y-114363328D01*
X68160000Y-115725000D01*
X69197120Y-115725000D01*
X69345808Y-115456436D01*
X69066873Y-114841263D01*
X68573754Y-114379662D01*
X68417498Y-114263570D01*
X68160000Y-114363328D01*
X67160000Y-114363328D01*
X66902502Y-114263570D01*
X66746246Y-114379662D01*
X66253127Y-114841263D01*
X65974192Y-115456436D01*
X65318060Y-115456436D01*
X65102362Y-114871760D01*
X64669854Y-114403875D01*
X64388232Y-114239507D01*
X64147500Y-114349396D01*
X63272500Y-114349396D01*
X63031768Y-114239507D01*
X62750146Y-114403875D01*
X62700000Y-114458123D01*
X62700000Y-114390000D01*
X62623880Y-114007317D01*
X62550000Y-113896748D01*
X62550000Y-111258000D01*
X63110775Y-111258000D01*
X63389372Y-111142602D01*
X63602601Y-110929373D01*
X63718000Y-110650776D01*
X63718000Y-109939500D01*
X63528500Y-109750000D01*
X62210000Y-109750000D01*
X62210000Y-109856446D01*
X61276777Y-108923223D01*
X61194073Y-108868375D01*
X61100000Y-108850000D01*
X60190000Y-108850000D01*
X60190000Y-108250000D01*
X60710000Y-108250000D01*
X60710000Y-106931500D01*
X62210000Y-106931500D01*
X62210000Y-108250000D01*
X63528500Y-108250000D01*
X63718000Y-108060500D01*
X63718000Y-107349224D01*
X63602601Y-107070627D01*
X63389372Y-106857398D01*
X63110775Y-106742000D01*
X62399500Y-106742000D01*
X62210000Y-106931500D01*
X60710000Y-106931500D01*
X60520500Y-106742000D01*
X59809225Y-106742000D01*
X59530628Y-106857398D01*
X59317399Y-107070627D01*
X59202000Y-107349224D01*
X59202000Y-108850000D01*
X57468148Y-108850000D01*
X56964074Y-108345926D01*
X56663983Y-108145411D01*
X56310000Y-108075000D01*
X54952347Y-108075000D01*
X54608354Y-107845151D01*
X54130000Y-107750000D01*
X53358000Y-107750000D01*
X53358000Y-107589500D01*
X53168500Y-107400000D01*
X52050000Y-107400000D01*
X52050000Y-107750000D01*
X50950000Y-107750000D01*
X50950000Y-107400000D01*
X49831500Y-107400000D01*
X49642000Y-107589500D01*
X49642000Y-107750000D01*
X46017767Y-107750000D01*
X44850000Y-106582234D01*
X44850000Y-105599224D01*
X49642000Y-105599224D01*
X49642000Y-106110500D01*
X49831500Y-106300000D01*
X50950000Y-106300000D01*
X50950000Y-105181500D01*
X52050000Y-105181500D01*
X52050000Y-106300000D01*
X53168500Y-106300000D01*
X53358000Y-106110500D01*
X53358000Y-105599224D01*
X53242601Y-105320627D01*
X53029372Y-105107398D01*
X52750775Y-104992000D01*
X52239500Y-104992000D01*
X52050000Y-105181500D01*
X50950000Y-105181500D01*
X50760500Y-104992000D01*
X50249225Y-104992000D01*
X49970628Y-105107398D01*
X49757399Y-105320627D01*
X49642000Y-105599224D01*
X44850000Y-105599224D01*
X44850000Y-102139500D01*
X45242000Y-102139500D01*
X45242000Y-102550776D01*
X45357399Y-102829373D01*
X45570628Y-103042602D01*
X45849225Y-103158000D01*
X46260500Y-103158000D01*
X46450000Y-102968500D01*
X46450000Y-101950000D01*
X47350000Y-101950000D01*
X47350000Y-102968500D01*
X47539500Y-103158000D01*
X47950775Y-103158000D01*
X48229372Y-103042602D01*
X48442601Y-102829373D01*
X48558000Y-102550776D01*
X48558000Y-102139500D01*
X48368500Y-101950000D01*
X47350000Y-101950000D01*
X46450000Y-101950000D01*
X45431500Y-101950000D01*
X45242000Y-102139500D01*
X44850000Y-102139500D01*
X44850000Y-98517766D01*
X45697767Y-97670000D01*
X45809525Y-97670000D01*
X45839457Y-97690000D01*
X45733274Y-97760949D01*
X45375599Y-98296247D01*
X45250000Y-98927675D01*
X45250000Y-98992325D01*
X45375599Y-99623753D01*
X45592484Y-99948345D01*
X45570628Y-99957398D01*
X45357399Y-100170627D01*
X45242000Y-100449224D01*
X45242000Y-100860500D01*
X45431500Y-101050000D01*
X46450000Y-101050000D01*
X46450000Y-100600000D01*
X46687219Y-100600000D01*
X46900000Y-100642325D01*
X47112781Y-100600000D01*
X47350000Y-100600000D01*
X47350000Y-101050000D01*
X48368500Y-101050000D01*
X48558000Y-100860500D01*
X48558000Y-100449224D01*
X48442601Y-100170627D01*
X48229372Y-99957398D01*
X48207516Y-99948345D01*
X48424401Y-99623753D01*
X48550000Y-98992325D01*
X48550000Y-98927675D01*
X48424401Y-98296247D01*
X48066726Y-97760949D01*
X47960543Y-97690000D01*
X47990475Y-97670000D01*
X48795331Y-97670000D01*
X49384726Y-99595813D01*
X49413357Y-99649060D01*
X49425151Y-99708354D01*
X49528017Y-99862304D01*
X49615702Y-100025379D01*
X49662530Y-100063616D01*
X49696117Y-100113883D01*
X49850068Y-100216750D01*
X49993483Y-100333855D01*
X50040595Y-100348019D01*
X50191852Y-100574392D01*
X50792036Y-100975421D01*
X51500000Y-101116244D01*
X52207964Y-100975421D01*
X52808148Y-100574392D01*
X53209177Y-99974208D01*
X53350000Y-99266244D01*
X53350000Y-99193756D01*
X53209177Y-98485792D01*
X53110343Y-98337877D01*
X53138928Y-98341518D01*
X53633768Y-98243089D01*
X53780879Y-97979407D01*
X53000000Y-97198528D01*
X52575736Y-97622792D01*
X51727208Y-96774264D01*
X52151472Y-96350000D01*
X53848528Y-96350000D01*
X54629407Y-97130879D01*
X54893089Y-96983768D01*
X54991518Y-96211072D01*
X54893089Y-95716232D01*
X54629407Y-95569121D01*
X53848528Y-96350000D01*
X52151472Y-96350000D01*
X51370593Y-95569121D01*
X51106911Y-95716232D01*
X51020192Y-96397001D01*
X50915274Y-96054187D01*
X50886643Y-96000940D01*
X50874849Y-95941646D01*
X50771983Y-95787696D01*
X50684298Y-95624621D01*
X50637470Y-95586384D01*
X50603883Y-95536117D01*
X50449932Y-95433250D01*
X50306517Y-95316145D01*
X50248622Y-95298739D01*
X50198354Y-95265151D01*
X50016757Y-95229029D01*
X49839444Y-95175720D01*
X49779295Y-95181794D01*
X49720000Y-95170000D01*
X48150000Y-95170000D01*
X48150000Y-94720593D01*
X52219121Y-94720593D01*
X53000000Y-95501472D01*
X53780879Y-94720593D01*
X53633768Y-94456911D01*
X52861072Y-94358482D01*
X52366232Y-94456911D01*
X52219121Y-94720593D01*
X48150000Y-94720593D01*
X48150000Y-89350000D01*
X59210416Y-89350000D01*
X58646323Y-89914093D01*
X58646323Y-89914093D01*
G37*
X58646323Y-89914093D02*
X59098874Y-90366643D01*
X59171154Y-90730017D01*
X59419195Y-90815119D01*
X60084315Y-90150000D01*
X59801472Y-89867157D01*
X60318629Y-89350000D01*
X60415685Y-89350000D01*
X60650000Y-89584315D01*
X60884315Y-89350000D01*
X60981371Y-89350000D01*
X61350000Y-89718629D01*
X61350000Y-90015685D01*
X61215685Y-90150000D01*
X61350000Y-90284315D01*
X61350000Y-90581371D01*
X60932843Y-90998528D01*
X60650000Y-90715685D01*
X59984881Y-91380805D01*
X60069983Y-91628846D01*
X60424677Y-91692446D01*
X60885907Y-92153677D01*
X61350000Y-91689584D01*
X61350000Y-93762350D01*
X60959667Y-93600270D01*
X60343039Y-93599732D01*
X59773143Y-93835208D01*
X59336740Y-94270849D01*
X59100270Y-94840333D01*
X59099732Y-95456961D01*
X59335208Y-96026857D01*
X59770849Y-96463260D01*
X60340333Y-96699730D01*
X60956961Y-96700268D01*
X61350000Y-96537868D01*
X61350000Y-99249903D01*
X61014411Y-99249610D01*
X60187142Y-99591431D01*
X59553655Y-100223813D01*
X59210392Y-101050484D01*
X59209610Y-101945589D01*
X59551431Y-102772858D01*
X60183813Y-103406345D01*
X61010484Y-103749608D01*
X61905589Y-103750390D01*
X62732858Y-103408569D01*
X63366345Y-102776187D01*
X63460266Y-102550000D01*
X64096446Y-102550000D01*
X65750000Y-104203554D01*
X65750000Y-110300000D01*
X65769696Y-110397264D01*
X65825682Y-110479202D01*
X65909136Y-110532903D01*
X66000000Y-110550000D01*
X69650000Y-110550000D01*
X69650000Y-116850000D01*
X62835000Y-116850000D01*
X62835000Y-115725000D01*
X63272500Y-115725000D01*
X63272500Y-114349396D01*
X64147500Y-114349396D01*
X64147500Y-115725000D01*
X65153500Y-115725000D01*
X65322895Y-115469543D01*
X65318060Y-115456436D01*
X65974192Y-115456436D01*
X66122880Y-115725000D01*
X67160000Y-115725000D01*
X67160000Y-114363328D01*
X68160000Y-114363328D01*
X68160000Y-115725000D01*
X69197120Y-115725000D01*
X69345808Y-115456436D01*
X69066873Y-114841263D01*
X68573754Y-114379662D01*
X68417498Y-114263570D01*
X68160000Y-114363328D01*
X67160000Y-114363328D01*
X66902502Y-114263570D01*
X66746246Y-114379662D01*
X66253127Y-114841263D01*
X65974192Y-115456436D01*
X65318060Y-115456436D01*
X65102362Y-114871760D01*
X64669854Y-114403875D01*
X64388232Y-114239507D01*
X64147500Y-114349396D01*
X63272500Y-114349396D01*
X63031768Y-114239507D01*
X62750146Y-114403875D01*
X62700000Y-114458123D01*
X62700000Y-114390000D01*
X62623880Y-114007317D01*
X62550000Y-113896748D01*
X62550000Y-111258000D01*
X63110775Y-111258000D01*
X63389372Y-111142602D01*
X63602601Y-110929373D01*
X63718000Y-110650776D01*
X63718000Y-109939500D01*
X63528500Y-109750000D01*
X62210000Y-109750000D01*
X62210000Y-109856446D01*
X61276777Y-108923223D01*
X61194073Y-108868375D01*
X61100000Y-108850000D01*
X60190000Y-108850000D01*
X60190000Y-108250000D01*
X60710000Y-108250000D01*
X60710000Y-106931500D01*
X62210000Y-106931500D01*
X62210000Y-108250000D01*
X63528500Y-108250000D01*
X63718000Y-108060500D01*
X63718000Y-107349224D01*
X63602601Y-107070627D01*
X63389372Y-106857398D01*
X63110775Y-106742000D01*
X62399500Y-106742000D01*
X62210000Y-106931500D01*
X60710000Y-106931500D01*
X60520500Y-106742000D01*
X59809225Y-106742000D01*
X59530628Y-106857398D01*
X59317399Y-107070627D01*
X59202000Y-107349224D01*
X59202000Y-108850000D01*
X57468148Y-108850000D01*
X56964074Y-108345926D01*
X56663983Y-108145411D01*
X56310000Y-108075000D01*
X54952347Y-108075000D01*
X54608354Y-107845151D01*
X54130000Y-107750000D01*
X53358000Y-107750000D01*
X53358000Y-107589500D01*
X53168500Y-107400000D01*
X52050000Y-107400000D01*
X52050000Y-107750000D01*
X50950000Y-107750000D01*
X50950000Y-107400000D01*
X49831500Y-107400000D01*
X49642000Y-107589500D01*
X49642000Y-107750000D01*
X46017767Y-107750000D01*
X44850000Y-106582234D01*
X44850000Y-105599224D01*
X49642000Y-105599224D01*
X49642000Y-106110500D01*
X49831500Y-106300000D01*
X50950000Y-106300000D01*
X50950000Y-105181500D01*
X52050000Y-105181500D01*
X52050000Y-106300000D01*
X53168500Y-106300000D01*
X53358000Y-106110500D01*
X53358000Y-105599224D01*
X53242601Y-105320627D01*
X53029372Y-105107398D01*
X52750775Y-104992000D01*
X52239500Y-104992000D01*
X52050000Y-105181500D01*
X50950000Y-105181500D01*
X50760500Y-104992000D01*
X50249225Y-104992000D01*
X49970628Y-105107398D01*
X49757399Y-105320627D01*
X49642000Y-105599224D01*
X44850000Y-105599224D01*
X44850000Y-102139500D01*
X45242000Y-102139500D01*
X45242000Y-102550776D01*
X45357399Y-102829373D01*
X45570628Y-103042602D01*
X45849225Y-103158000D01*
X46260500Y-103158000D01*
X46450000Y-102968500D01*
X46450000Y-101950000D01*
X47350000Y-101950000D01*
X47350000Y-102968500D01*
X47539500Y-103158000D01*
X47950775Y-103158000D01*
X48229372Y-103042602D01*
X48442601Y-102829373D01*
X48558000Y-102550776D01*
X48558000Y-102139500D01*
X48368500Y-101950000D01*
X47350000Y-101950000D01*
X46450000Y-101950000D01*
X45431500Y-101950000D01*
X45242000Y-102139500D01*
X44850000Y-102139500D01*
X44850000Y-98517766D01*
X45697767Y-97670000D01*
X45809525Y-97670000D01*
X45839457Y-97690000D01*
X45733274Y-97760949D01*
X45375599Y-98296247D01*
X45250000Y-98927675D01*
X45250000Y-98992325D01*
X45375599Y-99623753D01*
X45592484Y-99948345D01*
X45570628Y-99957398D01*
X45357399Y-100170627D01*
X45242000Y-100449224D01*
X45242000Y-100860500D01*
X45431500Y-101050000D01*
X46450000Y-101050000D01*
X46450000Y-100600000D01*
X46687219Y-100600000D01*
X46900000Y-100642325D01*
X47112781Y-100600000D01*
X47350000Y-100600000D01*
X47350000Y-101050000D01*
X48368500Y-101050000D01*
X48558000Y-100860500D01*
X48558000Y-100449224D01*
X48442601Y-100170627D01*
X48229372Y-99957398D01*
X48207516Y-99948345D01*
X48424401Y-99623753D01*
X48550000Y-98992325D01*
X48550000Y-98927675D01*
X48424401Y-98296247D01*
X48066726Y-97760949D01*
X47960543Y-97690000D01*
X47990475Y-97670000D01*
X48795331Y-97670000D01*
X49384726Y-99595813D01*
X49413357Y-99649060D01*
X49425151Y-99708354D01*
X49528017Y-99862304D01*
X49615702Y-100025379D01*
X49662530Y-100063616D01*
X49696117Y-100113883D01*
X49850068Y-100216750D01*
X49993483Y-100333855D01*
X50040595Y-100348019D01*
X50191852Y-100574392D01*
X50792036Y-100975421D01*
X51500000Y-101116244D01*
X52207964Y-100975421D01*
X52808148Y-100574392D01*
X53209177Y-99974208D01*
X53350000Y-99266244D01*
X53350000Y-99193756D01*
X53209177Y-98485792D01*
X53110343Y-98337877D01*
X53138928Y-98341518D01*
X53633768Y-98243089D01*
X53780879Y-97979407D01*
X53000000Y-97198528D01*
X52575736Y-97622792D01*
X51727208Y-96774264D01*
X52151472Y-96350000D01*
X53848528Y-96350000D01*
X54629407Y-97130879D01*
X54893089Y-96983768D01*
X54991518Y-96211072D01*
X54893089Y-95716232D01*
X54629407Y-95569121D01*
X53848528Y-96350000D01*
X52151472Y-96350000D01*
X51370593Y-95569121D01*
X51106911Y-95716232D01*
X51020192Y-96397001D01*
X50915274Y-96054187D01*
X50886643Y-96000940D01*
X50874849Y-95941646D01*
X50771983Y-95787696D01*
X50684298Y-95624621D01*
X50637470Y-95586384D01*
X50603883Y-95536117D01*
X50449932Y-95433250D01*
X50306517Y-95316145D01*
X50248622Y-95298739D01*
X50198354Y-95265151D01*
X50016757Y-95229029D01*
X49839444Y-95175720D01*
X49779295Y-95181794D01*
X49720000Y-95170000D01*
X48150000Y-95170000D01*
X48150000Y-94720593D01*
X52219121Y-94720593D01*
X53000000Y-95501472D01*
X53780879Y-94720593D01*
X53633768Y-94456911D01*
X52861072Y-94358482D01*
X52366232Y-94456911D01*
X52219121Y-94720593D01*
X48150000Y-94720593D01*
X48150000Y-89350000D01*
X59210416Y-89350000D01*
X58646323Y-89914093D01*
G36*
X60423223Y-41676777D02*
X60505927Y-41731625D01*
X60600000Y-41750000D01*
X64556911Y-41750000D01*
X71910000Y-54267993D01*
X71910000Y-58246274D01*
X65505081Y-58151527D01*
X64330515Y-56976961D01*
X68013699Y-56976961D01*
X68207361Y-57251784D01*
X69101149Y-57341592D01*
X69552639Y-57251784D01*
X69746301Y-56976961D01*
X68880000Y-56110660D01*
X68013699Y-56976961D01*
X64330515Y-56976961D01*
X62624703Y-55271149D01*
X66588408Y-55271149D01*
X66678216Y-55722639D01*
X66953039Y-55916301D01*
X67819340Y-55050000D01*
X69940660Y-55050000D01*
X70806961Y-55916301D01*
X71081784Y-55722639D01*
X71171592Y-54828851D01*
X71081784Y-54377361D01*
X70806961Y-54183699D01*
X69940660Y-55050000D01*
X67819340Y-55050000D01*
X66953039Y-54183699D01*
X66678216Y-54377361D01*
X66588408Y-55271149D01*
X62624703Y-55271149D01*
X60476593Y-53123039D01*
X68013699Y-53123039D01*
X68880000Y-53989340D01*
X69746301Y-53123039D01*
X69552639Y-52848216D01*
X68658851Y-52758408D01*
X68207361Y-52848216D01*
X68013699Y-53123039D01*
X60476593Y-53123039D01*
X58250000Y-50896446D01*
X58250000Y-49900000D01*
X58150000Y-49397267D01*
X58150000Y-47939500D01*
X59192000Y-47939500D01*
X59192000Y-48650776D01*
X59307399Y-48929373D01*
X59520628Y-49142602D01*
X59799225Y-49258000D01*
X60510500Y-49258000D01*
X60700000Y-49068500D01*
X60700000Y-47750000D01*
X62200000Y-47750000D01*
X62200000Y-49068500D01*
X62389500Y-49258000D01*
X63100775Y-49258000D01*
X63379372Y-49142602D01*
X63592601Y-48929373D01*
X63708000Y-48650776D01*
X63708000Y-47939500D01*
X63518500Y-47750000D01*
X62200000Y-47750000D01*
X60700000Y-47750000D01*
X59381500Y-47750000D01*
X59192000Y-47939500D01*
X58150000Y-47939500D01*
X58150000Y-47200000D01*
X58130304Y-47102736D01*
X58076777Y-47023223D01*
X56402778Y-45349224D01*
X59192000Y-45349224D01*
X59192000Y-46060500D01*
X59381500Y-46250000D01*
X60700000Y-46250000D01*
X60700000Y-44931500D01*
X62200000Y-44931500D01*
X62200000Y-46250000D01*
X63518500Y-46250000D01*
X63708000Y-46060500D01*
X63708000Y-45349224D01*
X63592601Y-45070627D01*
X63379372Y-44857398D01*
X63100775Y-44742000D01*
X62389500Y-44742000D01*
X62200000Y-44931500D01*
X60700000Y-44931500D01*
X60510500Y-44742000D01*
X59799225Y-44742000D01*
X59520628Y-44857398D01*
X59307399Y-45070627D01*
X59192000Y-45349224D01*
X56402778Y-45349224D01*
X55076777Y-44023223D01*
X54994073Y-43968375D01*
X54871125Y-43951673D01*
X53379829Y-44125080D01*
X53605754Y-43814097D01*
X53506296Y-43570000D01*
X52550000Y-43570000D01*
X52550000Y-43999511D01*
X52100000Y-43910000D01*
X51650000Y-43910000D01*
X51650000Y-43570000D01*
X51200000Y-43570000D01*
X51200000Y-42730635D01*
X55075306Y-42730635D01*
X55425088Y-43227838D01*
X55869369Y-43524665D01*
X56100000Y-43408737D01*
X56100000Y-42500000D01*
X56900000Y-42500000D01*
X56900000Y-43408737D01*
X57130631Y-43524665D01*
X57574912Y-43227838D01*
X57924694Y-42730635D01*
X57816307Y-42500000D01*
X56900000Y-42500000D01*
X56100000Y-42500000D01*
X55183693Y-42500000D01*
X55075306Y-42730635D01*
X51200000Y-42730635D01*
X51200000Y-42670000D01*
X51650000Y-42670000D01*
X51650000Y-41722147D01*
X52550000Y-41722147D01*
X52550000Y-42670000D01*
X53506296Y-42670000D01*
X53605754Y-42425903D01*
X53225516Y-41902511D01*
X52794092Y-41614278D01*
X52550000Y-41722147D01*
X51650000Y-41722147D01*
X51405908Y-41614278D01*
X51023149Y-41869998D01*
X50850000Y-41869998D01*
X50850000Y-41469365D01*
X55075306Y-41469365D01*
X55183693Y-41700000D01*
X56100000Y-41700000D01*
X56100000Y-40791263D01*
X56900000Y-40791263D01*
X56900000Y-41700000D01*
X57816307Y-41700000D01*
X57924694Y-41469365D01*
X57574912Y-40972162D01*
X57130631Y-40675335D01*
X56900000Y-40791263D01*
X56100000Y-40791263D01*
X55869369Y-40675335D01*
X55425088Y-40972162D01*
X55075306Y-41469365D01*
X50850000Y-41469365D01*
X50850000Y-39000000D01*
X50845968Y-38955279D01*
X50845008Y-38950000D01*
X57696446Y-38950000D01*
X60423223Y-41676777D01*
X60423223Y-41676777D01*
G37*
X60423223Y-41676777D02*
X60505927Y-41731625D01*
X60600000Y-41750000D01*
X64556911Y-41750000D01*
X71910000Y-54267993D01*
X71910000Y-58246274D01*
X65505081Y-58151527D01*
X64330515Y-56976961D01*
X68013699Y-56976961D01*
X68207361Y-57251784D01*
X69101149Y-57341592D01*
X69552639Y-57251784D01*
X69746301Y-56976961D01*
X68880000Y-56110660D01*
X68013699Y-56976961D01*
X64330515Y-56976961D01*
X62624703Y-55271149D01*
X66588408Y-55271149D01*
X66678216Y-55722639D01*
X66953039Y-55916301D01*
X67819340Y-55050000D01*
X69940660Y-55050000D01*
X70806961Y-55916301D01*
X71081784Y-55722639D01*
X71171592Y-54828851D01*
X71081784Y-54377361D01*
X70806961Y-54183699D01*
X69940660Y-55050000D01*
X67819340Y-55050000D01*
X66953039Y-54183699D01*
X66678216Y-54377361D01*
X66588408Y-55271149D01*
X62624703Y-55271149D01*
X60476593Y-53123039D01*
X68013699Y-53123039D01*
X68880000Y-53989340D01*
X69746301Y-53123039D01*
X69552639Y-52848216D01*
X68658851Y-52758408D01*
X68207361Y-52848216D01*
X68013699Y-53123039D01*
X60476593Y-53123039D01*
X58250000Y-50896446D01*
X58250000Y-49900000D01*
X58150000Y-49397267D01*
X58150000Y-47939500D01*
X59192000Y-47939500D01*
X59192000Y-48650776D01*
X59307399Y-48929373D01*
X59520628Y-49142602D01*
X59799225Y-49258000D01*
X60510500Y-49258000D01*
X60700000Y-49068500D01*
X60700000Y-47750000D01*
X62200000Y-47750000D01*
X62200000Y-49068500D01*
X62389500Y-49258000D01*
X63100775Y-49258000D01*
X63379372Y-49142602D01*
X63592601Y-48929373D01*
X63708000Y-48650776D01*
X63708000Y-47939500D01*
X63518500Y-47750000D01*
X62200000Y-47750000D01*
X60700000Y-47750000D01*
X59381500Y-47750000D01*
X59192000Y-47939500D01*
X58150000Y-47939500D01*
X58150000Y-47200000D01*
X58130304Y-47102736D01*
X58076777Y-47023223D01*
X56402778Y-45349224D01*
X59192000Y-45349224D01*
X59192000Y-46060500D01*
X59381500Y-46250000D01*
X60700000Y-46250000D01*
X60700000Y-44931500D01*
X62200000Y-44931500D01*
X62200000Y-46250000D01*
X63518500Y-46250000D01*
X63708000Y-46060500D01*
X63708000Y-45349224D01*
X63592601Y-45070627D01*
X63379372Y-44857398D01*
X63100775Y-44742000D01*
X62389500Y-44742000D01*
X62200000Y-44931500D01*
X60700000Y-44931500D01*
X60510500Y-44742000D01*
X59799225Y-44742000D01*
X59520628Y-44857398D01*
X59307399Y-45070627D01*
X59192000Y-45349224D01*
X56402778Y-45349224D01*
X55076777Y-44023223D01*
X54994073Y-43968375D01*
X54871125Y-43951673D01*
X53379829Y-44125080D01*
X53605754Y-43814097D01*
X53506296Y-43570000D01*
X52550000Y-43570000D01*
X52550000Y-43999511D01*
X52100000Y-43910000D01*
X51650000Y-43910000D01*
X51650000Y-43570000D01*
X51200000Y-43570000D01*
X51200000Y-42730635D01*
X55075306Y-42730635D01*
X55425088Y-43227838D01*
X55869369Y-43524665D01*
X56100000Y-43408737D01*
X56100000Y-42500000D01*
X56900000Y-42500000D01*
X56900000Y-43408737D01*
X57130631Y-43524665D01*
X57574912Y-43227838D01*
X57924694Y-42730635D01*
X57816307Y-42500000D01*
X56900000Y-42500000D01*
X56100000Y-42500000D01*
X55183693Y-42500000D01*
X55075306Y-42730635D01*
X51200000Y-42730635D01*
X51200000Y-42670000D01*
X51650000Y-42670000D01*
X51650000Y-41722147D01*
X52550000Y-41722147D01*
X52550000Y-42670000D01*
X53506296Y-42670000D01*
X53605754Y-42425903D01*
X53225516Y-41902511D01*
X52794092Y-41614278D01*
X52550000Y-41722147D01*
X51650000Y-41722147D01*
X51405908Y-41614278D01*
X51023149Y-41869998D01*
X50850000Y-41869998D01*
X50850000Y-41469365D01*
X55075306Y-41469365D01*
X55183693Y-41700000D01*
X56100000Y-41700000D01*
X56100000Y-40791263D01*
X56900000Y-40791263D01*
X56900000Y-41700000D01*
X57816307Y-41700000D01*
X57924694Y-41469365D01*
X57574912Y-40972162D01*
X57130631Y-40675335D01*
X56900000Y-40791263D01*
X56100000Y-40791263D01*
X55869369Y-40675335D01*
X55425088Y-40972162D01*
X55075306Y-41469365D01*
X50850000Y-41469365D01*
X50850000Y-39000000D01*
X50845968Y-38955279D01*
X50845008Y-38950000D01*
X57696446Y-38950000D01*
X60423223Y-41676777D01*
G36*
X49650000Y-70200000D02*
X49669696Y-70297264D01*
X49725682Y-70379202D01*
X49809136Y-70432903D01*
X49897396Y-70449986D01*
X52098035Y-70472909D01*
X53012563Y-71387437D01*
X53580304Y-71766789D01*
X54250000Y-71900000D01*
X54450000Y-71900000D01*
X54450000Y-74766920D01*
X54275685Y-74544562D01*
X53884176Y-74283003D01*
X53600000Y-74366392D01*
X53600000Y-75430000D01*
X54200000Y-75430000D01*
X54200000Y-76630000D01*
X53600000Y-76630000D01*
X53600000Y-77693608D01*
X53884176Y-77776997D01*
X54275685Y-77515438D01*
X54460252Y-77280002D01*
X54958000Y-77280002D01*
X54958000Y-76300000D01*
X59860416Y-76300000D01*
X59296323Y-76864093D01*
X59748874Y-77316643D01*
X59821154Y-77680017D01*
X60069195Y-77765119D01*
X60734315Y-77100000D01*
X60451472Y-76817157D01*
X60968629Y-76300000D01*
X61065685Y-76300000D01*
X61300000Y-76534315D01*
X61534315Y-76300000D01*
X61631371Y-76300000D01*
X62148528Y-76817157D01*
X61865685Y-77100000D01*
X62148528Y-77382843D01*
X61582843Y-77948528D01*
X61300000Y-77665685D01*
X60634881Y-78330805D01*
X60719983Y-78578846D01*
X61074677Y-78642446D01*
X61535907Y-79103677D01*
X62200000Y-78439584D01*
X62200000Y-83099353D01*
X43350000Y-83050645D01*
X43350000Y-76914182D01*
X51252968Y-76914182D01*
X51724315Y-77515438D01*
X52115824Y-77776997D01*
X52400000Y-77693608D01*
X52400000Y-76630000D01*
X51325660Y-76630000D01*
X51252968Y-76914182D01*
X43350000Y-76914182D01*
X43350000Y-75145818D01*
X51252968Y-75145818D01*
X51325660Y-75430000D01*
X52400000Y-75430000D01*
X52400000Y-74366392D01*
X52115824Y-74283003D01*
X51724315Y-74544562D01*
X51252968Y-75145818D01*
X43350000Y-75145818D01*
X43350000Y-39050000D01*
X43700000Y-39050000D01*
X43797264Y-39030304D01*
X43879202Y-38974318D01*
X43932903Y-38890864D01*
X43949905Y-38793093D01*
X43927529Y-38696411D01*
X43893900Y-38650000D01*
X49650000Y-38650000D01*
X49650000Y-70200000D01*
X49650000Y-70200000D01*
G37*
X49650000Y-70200000D02*
X49669696Y-70297264D01*
X49725682Y-70379202D01*
X49809136Y-70432903D01*
X49897396Y-70449986D01*
X52098035Y-70472909D01*
X53012563Y-71387437D01*
X53580304Y-71766789D01*
X54250000Y-71900000D01*
X54450000Y-71900000D01*
X54450000Y-74766920D01*
X54275685Y-74544562D01*
X53884176Y-74283003D01*
X53600000Y-74366392D01*
X53600000Y-75430000D01*
X54200000Y-75430000D01*
X54200000Y-76630000D01*
X53600000Y-76630000D01*
X53600000Y-77693608D01*
X53884176Y-77776997D01*
X54275685Y-77515438D01*
X54460252Y-77280002D01*
X54958000Y-77280002D01*
X54958000Y-76300000D01*
X59860416Y-76300000D01*
X59296323Y-76864093D01*
X59748874Y-77316643D01*
X59821154Y-77680017D01*
X60069195Y-77765119D01*
X60734315Y-77100000D01*
X60451472Y-76817157D01*
X60968629Y-76300000D01*
X61065685Y-76300000D01*
X61300000Y-76534315D01*
X61534315Y-76300000D01*
X61631371Y-76300000D01*
X62148528Y-76817157D01*
X61865685Y-77100000D01*
X62148528Y-77382843D01*
X61582843Y-77948528D01*
X61300000Y-77665685D01*
X60634881Y-78330805D01*
X60719983Y-78578846D01*
X61074677Y-78642446D01*
X61535907Y-79103677D01*
X62200000Y-78439584D01*
X62200000Y-83099353D01*
X43350000Y-83050645D01*
X43350000Y-76914182D01*
X51252968Y-76914182D01*
X51724315Y-77515438D01*
X52115824Y-77776997D01*
X52400000Y-77693608D01*
X52400000Y-76630000D01*
X51325660Y-76630000D01*
X51252968Y-76914182D01*
X43350000Y-76914182D01*
X43350000Y-75145818D01*
X51252968Y-75145818D01*
X51325660Y-75430000D01*
X52400000Y-75430000D01*
X52400000Y-74366392D01*
X52115824Y-74283003D01*
X51724315Y-74544562D01*
X51252968Y-75145818D01*
X43350000Y-75145818D01*
X43350000Y-39050000D01*
X43700000Y-39050000D01*
X43797264Y-39030304D01*
X43879202Y-38974318D01*
X43932903Y-38890864D01*
X43949905Y-38793093D01*
X43927529Y-38696411D01*
X43893900Y-38650000D01*
X49650000Y-38650000D01*
X49650000Y-70200000D01*
G36*
X95596429Y-35284199D02*
X95528408Y-35961149D01*
X95618216Y-36412639D01*
X95893039Y-36606301D01*
X96759340Y-35740000D01*
X96391644Y-35372304D01*
X96503948Y-35260000D01*
X99136052Y-35260000D01*
X99248356Y-35372304D01*
X98880660Y-35740000D01*
X99746961Y-36606301D01*
X100021784Y-36412639D01*
X100111592Y-35518851D01*
X100061375Y-35266395D01*
X100067770Y-35260000D01*
X100330000Y-35260000D01*
X100330000Y-61349938D01*
X100192058Y-61349818D01*
X99806000Y-61509334D01*
X99510372Y-61804446D01*
X99350182Y-62190226D01*
X99349818Y-62607942D01*
X99475000Y-62910905D01*
X99475000Y-70900000D01*
X99508468Y-71068255D01*
X99538636Y-71237161D01*
X99543611Y-71244932D01*
X99545411Y-71253982D01*
X99640723Y-71396627D01*
X99733229Y-71541126D01*
X100330000Y-72161768D01*
X100330000Y-79040000D01*
X88510000Y-79040000D01*
X88510000Y-76429407D01*
X89619121Y-76429407D01*
X89766232Y-76693089D01*
X90538928Y-76791518D01*
X91033768Y-76693089D01*
X91180879Y-76429407D01*
X90400000Y-75648528D01*
X89619121Y-76429407D01*
X88510000Y-76429407D01*
X88510000Y-75435491D01*
X88770593Y-75580879D01*
X89551472Y-74800000D01*
X89127208Y-74375736D01*
X89576716Y-73926228D01*
X90372476Y-73923948D01*
X90400000Y-73951472D01*
X90427682Y-73923790D01*
X91218580Y-73921524D01*
X91672792Y-74375736D01*
X91248528Y-74800000D01*
X92029407Y-75580879D01*
X92293089Y-75433768D01*
X92391518Y-74661072D01*
X92377446Y-74590324D01*
X92690000Y-74277770D01*
X92690000Y-75660000D01*
X92823211Y-76329696D01*
X93202563Y-76897437D01*
X93770304Y-77276789D01*
X94440000Y-77410000D01*
X95109696Y-77276789D01*
X95677437Y-76897437D01*
X96056789Y-76329696D01*
X96190000Y-75660000D01*
X96190000Y-65710000D01*
X96056789Y-65040304D01*
X95677437Y-64472563D01*
X95490000Y-64285126D01*
X95490000Y-37666961D01*
X96953699Y-37666961D01*
X97147361Y-37941784D01*
X98041149Y-38031592D01*
X98492639Y-37941784D01*
X98686301Y-37666961D01*
X97820000Y-36800660D01*
X96953699Y-37666961D01*
X95490000Y-37666961D01*
X95490000Y-35260000D01*
X95572230Y-35260000D01*
X95596429Y-35284199D01*
X95596429Y-35284199D01*
G37*
X95596429Y-35284199D02*
X95528408Y-35961149D01*
X95618216Y-36412639D01*
X95893039Y-36606301D01*
X96759340Y-35740000D01*
X96391644Y-35372304D01*
X96503948Y-35260000D01*
X99136052Y-35260000D01*
X99248356Y-35372304D01*
X98880660Y-35740000D01*
X99746961Y-36606301D01*
X100021784Y-36412639D01*
X100111592Y-35518851D01*
X100061375Y-35266395D01*
X100067770Y-35260000D01*
X100330000Y-35260000D01*
X100330000Y-61349938D01*
X100192058Y-61349818D01*
X99806000Y-61509334D01*
X99510372Y-61804446D01*
X99350182Y-62190226D01*
X99349818Y-62607942D01*
X99475000Y-62910905D01*
X99475000Y-70900000D01*
X99508468Y-71068255D01*
X99538636Y-71237161D01*
X99543611Y-71244932D01*
X99545411Y-71253982D01*
X99640723Y-71396627D01*
X99733229Y-71541126D01*
X100330000Y-72161768D01*
X100330000Y-79040000D01*
X88510000Y-79040000D01*
X88510000Y-76429407D01*
X89619121Y-76429407D01*
X89766232Y-76693089D01*
X90538928Y-76791518D01*
X91033768Y-76693089D01*
X91180879Y-76429407D01*
X90400000Y-75648528D01*
X89619121Y-76429407D01*
X88510000Y-76429407D01*
X88510000Y-75435491D01*
X88770593Y-75580879D01*
X89551472Y-74800000D01*
X89127208Y-74375736D01*
X89576716Y-73926228D01*
X90372476Y-73923948D01*
X90400000Y-73951472D01*
X90427682Y-73923790D01*
X91218580Y-73921524D01*
X91672792Y-74375736D01*
X91248528Y-74800000D01*
X92029407Y-75580879D01*
X92293089Y-75433768D01*
X92391518Y-74661072D01*
X92377446Y-74590324D01*
X92690000Y-74277770D01*
X92690000Y-75660000D01*
X92823211Y-76329696D01*
X93202563Y-76897437D01*
X93770304Y-77276789D01*
X94440000Y-77410000D01*
X95109696Y-77276789D01*
X95677437Y-76897437D01*
X96056789Y-76329696D01*
X96190000Y-75660000D01*
X96190000Y-65710000D01*
X96056789Y-65040304D01*
X95677437Y-64472563D01*
X95490000Y-64285126D01*
X95490000Y-37666961D01*
X96953699Y-37666961D01*
X97147361Y-37941784D01*
X98041149Y-38031592D01*
X98492639Y-37941784D01*
X98686301Y-37666961D01*
X97820000Y-36800660D01*
X96953699Y-37666961D01*
X95490000Y-37666961D01*
X95490000Y-35260000D01*
X95572230Y-35260000D01*
X95596429Y-35284199D01*
M02*
