G04 #@! TF.FileFunction,Copper,L2,Bot,Signal*
%FSLAX46Y46*%
G04 Gerber Fmt 4.6, Leading zero omitted, Abs format (unit mm)*
G04 Created by KiCad (PCBNEW 4.0.7) date 08/30/22 18:32:50*
%MOMM*%
%LPD*%
G01*
G04 APERTURE LIST*
%ADD10C,0.100000*%
%ADD11C,1.600000*%
%ADD12O,1.600000X1.600000*%
%ADD13R,3.000000X3.000000*%
%ADD14O,3.000000X3.000000*%
%ADD15C,3.000000*%
%ADD16R,1.600000X1.600000*%
%ADD17R,1.700000X1.700000*%
%ADD18O,1.700000X1.700000*%
%ADD19R,4.500000X2.250000*%
%ADD20O,4.500000X2.250000*%
%ADD21R,1.800000X1.600000*%
%ADD22C,2.400000*%
%ADD23O,2.400000X2.400000*%
%ADD24C,1.520000*%
%ADD25R,1.520000X1.520000*%
%ADD26R,1.800000X1.800000*%
%ADD27O,1.800000X1.800000*%
%ADD28C,4.064000*%
%ADD29C,1.500000*%
%ADD30R,2.200000X2.200000*%
%ADD31O,2.200000X2.200000*%
%ADD32C,2.000000*%
%ADD33C,2.500000*%
%ADD34O,1.750000X3.500000*%
%ADD35O,2.000000X3.500000*%
%ADD36C,0.600000*%
%ADD37C,0.350000*%
%ADD38C,0.500000*%
%ADD39C,2.000000*%
%ADD40C,1.000000*%
G04 APERTURE END LIST*
D10*
D11*
X134425000Y-88575000D03*
D12*
X134425000Y-96195000D03*
D13*
X61660000Y-51550000D03*
D14*
X61660000Y-64250000D03*
D13*
X71400000Y-38500000D03*
D15*
X63900000Y-38500000D03*
D16*
X136000000Y-57500000D03*
D12*
X102980000Y-65120000D03*
X133460000Y-57500000D03*
X105520000Y-65120000D03*
X130920000Y-57500000D03*
X108060000Y-65120000D03*
X128380000Y-57500000D03*
X110600000Y-65120000D03*
X125840000Y-57500000D03*
X113140000Y-65120000D03*
X123300000Y-57500000D03*
X115680000Y-65120000D03*
X120760000Y-57500000D03*
X118220000Y-65120000D03*
X118220000Y-57500000D03*
X120760000Y-65120000D03*
X115680000Y-57500000D03*
X123300000Y-65120000D03*
X113140000Y-57500000D03*
X125840000Y-65120000D03*
X110600000Y-57500000D03*
X128380000Y-65120000D03*
X108060000Y-57500000D03*
X130920000Y-65120000D03*
X105520000Y-57500000D03*
X133460000Y-65120000D03*
X102980000Y-57500000D03*
X136000000Y-65120000D03*
D17*
X114900000Y-74000000D03*
D18*
X114900000Y-76540000D03*
X112360000Y-74000000D03*
X112360000Y-76540000D03*
X109820000Y-74000000D03*
X109820000Y-76540000D03*
D19*
X51780000Y-51280000D03*
D20*
X51780000Y-45830000D03*
X51780000Y-40380000D03*
D21*
X51780000Y-48330000D03*
X51780000Y-43330000D03*
D16*
X87150000Y-110200000D03*
D11*
X84650000Y-110200000D03*
X124310000Y-99440000D03*
D12*
X116690000Y-99440000D03*
D13*
X81810000Y-35740000D03*
D15*
X86890000Y-35740000D03*
D22*
X82200000Y-42800000D03*
D23*
X102520000Y-42800000D03*
D11*
X56500000Y-54800000D03*
D12*
X56500000Y-42100000D03*
D24*
X65000000Y-84640000D03*
X65000000Y-87180000D03*
D25*
X65000000Y-82100000D03*
D11*
X105850000Y-98300000D03*
X105850000Y-103300000D03*
X94700000Y-81150000D03*
D12*
X102320000Y-81150000D03*
D16*
X129900000Y-38400000D03*
D11*
X129900000Y-34900000D03*
D16*
X128900000Y-42400000D03*
D12*
X128900000Y-50020000D03*
D11*
X131800000Y-42400000D03*
D12*
X131800000Y-50020000D03*
D26*
X46900000Y-101500000D03*
D27*
X46900000Y-98960000D03*
X46900000Y-96420000D03*
D28*
X45804000Y-34016000D03*
X137752000Y-34016000D03*
X137752000Y-125456000D03*
X45804000Y-125456000D03*
D17*
X136900000Y-49800000D03*
D18*
X136900000Y-47260000D03*
X136900000Y-44720000D03*
X136900000Y-42180000D03*
D29*
X119550000Y-51700000D03*
X114670000Y-51700000D03*
D30*
X51500000Y-106850000D03*
D31*
X51500000Y-99230000D03*
D13*
X92740000Y-35740000D03*
D15*
X97820000Y-35740000D03*
D32*
X59300000Y-122000000D03*
X59300000Y-126500000D03*
X52800000Y-122000000D03*
X52800000Y-126500000D03*
X69900000Y-122000000D03*
X69900000Y-126500000D03*
X63400000Y-122000000D03*
X63400000Y-126500000D03*
X80300000Y-122000000D03*
X80300000Y-126500000D03*
X73800000Y-122000000D03*
X73800000Y-126500000D03*
D15*
X71810000Y-55040000D03*
X81810000Y-55040000D03*
D11*
X94720000Y-84350000D03*
D12*
X102340000Y-84350000D03*
D11*
X84582000Y-125984000D03*
D12*
X92202000Y-125984000D03*
D22*
X90400000Y-74800000D03*
D23*
X90400000Y-95120000D03*
D11*
X128400000Y-88500000D03*
D12*
X120780000Y-88500000D03*
D11*
X128400000Y-82000000D03*
D12*
X120780000Y-82000000D03*
D11*
X128325000Y-75400000D03*
D12*
X120705000Y-75400000D03*
D11*
X120700000Y-85300000D03*
D12*
X128320000Y-85300000D03*
D11*
X120700000Y-78700000D03*
D12*
X128320000Y-78700000D03*
D11*
X120675000Y-72025000D03*
D12*
X128295000Y-72025000D03*
D33*
X129300000Y-111840000D03*
X126800000Y-106800000D03*
X131800000Y-106800000D03*
D17*
X92000000Y-119400000D03*
D18*
X94540000Y-119400000D03*
X97080000Y-119400000D03*
X99620000Y-119400000D03*
X102160000Y-119400000D03*
X104700000Y-119400000D03*
X107240000Y-119400000D03*
X109780000Y-119400000D03*
X112320000Y-119400000D03*
X114860000Y-119400000D03*
X117400000Y-119400000D03*
X119940000Y-119400000D03*
X122480000Y-119400000D03*
X125020000Y-119400000D03*
X127560000Y-119400000D03*
X130100000Y-119400000D03*
D11*
X108600000Y-40900000D03*
D12*
X116220000Y-40900000D03*
D11*
X76550000Y-95300000D03*
X71550000Y-95300000D03*
X131200000Y-85800000D03*
X131200000Y-90800000D03*
X131200000Y-78650000D03*
X131200000Y-83650000D03*
X131175000Y-71550000D03*
X131175000Y-76550000D03*
X77090000Y-38450000D03*
X77090000Y-33450000D03*
X69000000Y-77300000D03*
X64000000Y-77300000D03*
X125350000Y-47250000D03*
X120350000Y-47250000D03*
X114046000Y-68326000D03*
X109046000Y-68326000D03*
X123800000Y-41600000D03*
X123800000Y-36600000D03*
X118150000Y-47200000D03*
X113150000Y-47200000D03*
X119440000Y-92350000D03*
X124440000Y-92350000D03*
X49100000Y-87200000D03*
X44100000Y-87200000D03*
X137400000Y-54300000D03*
X132400000Y-54300000D03*
D26*
X110100000Y-33900000D03*
D27*
X112640000Y-33900000D03*
X115180000Y-33900000D03*
D11*
X116280000Y-37640000D03*
D12*
X108660000Y-37640000D03*
D11*
X90080000Y-71780000D03*
X90080000Y-66780000D03*
X82800000Y-79700000D03*
X82800000Y-84700000D03*
D16*
X109400000Y-110900000D03*
D11*
X106900000Y-110900000D03*
X81900000Y-96050000D03*
X81900000Y-91050000D03*
D34*
X63710000Y-116600000D03*
D35*
X67660000Y-116600000D03*
D34*
X59960000Y-116600000D03*
D35*
X56260000Y-116600000D03*
D26*
X52150000Y-68050000D03*
D27*
X52150000Y-65510000D03*
X52150000Y-62970000D03*
D11*
X57750000Y-73200000D03*
D12*
X57750000Y-85900000D03*
D22*
X53000000Y-96350000D03*
D23*
X53000000Y-76030000D03*
D16*
X103100000Y-87900000D03*
D12*
X95480000Y-95520000D03*
X100560000Y-87900000D03*
X98020000Y-95520000D03*
X98020000Y-87900000D03*
X100560000Y-95520000D03*
X95480000Y-87900000D03*
X103100000Y-95520000D03*
D16*
X79400000Y-87500000D03*
D12*
X71780000Y-69720000D03*
X79400000Y-84960000D03*
X71780000Y-72260000D03*
X79400000Y-82420000D03*
X71780000Y-74800000D03*
X79400000Y-79880000D03*
X71780000Y-77340000D03*
X79400000Y-77340000D03*
X71780000Y-79880000D03*
X79400000Y-74800000D03*
X71780000Y-82420000D03*
X79400000Y-72260000D03*
X71780000Y-84960000D03*
X79400000Y-69720000D03*
X71780000Y-87500000D03*
D11*
X109850000Y-85750000D03*
D12*
X109850000Y-93370000D03*
D11*
X80900000Y-116000000D03*
D12*
X80900000Y-108380000D03*
D11*
X88400000Y-102100000D03*
D12*
X80780000Y-102100000D03*
D11*
X82600000Y-69600000D03*
D12*
X82600000Y-77220000D03*
D11*
X70650000Y-98750000D03*
D12*
X78270000Y-98750000D03*
D11*
X70610000Y-102110000D03*
D12*
X78230000Y-102110000D03*
D11*
X86000000Y-77300000D03*
D12*
X86000000Y-69680000D03*
D11*
X88350000Y-105450000D03*
D12*
X80730000Y-105450000D03*
D11*
X71350000Y-91850000D03*
D12*
X78970000Y-91850000D03*
D11*
X102900000Y-103300000D03*
D12*
X102900000Y-110920000D03*
D11*
X113100000Y-85800000D03*
D12*
X113100000Y-93420000D03*
D11*
X75900000Y-66600000D03*
D12*
X83520000Y-66600000D03*
D11*
X66000000Y-66600000D03*
D12*
X73620000Y-66600000D03*
D11*
X101900000Y-74000000D03*
D12*
X94280000Y-74000000D03*
D11*
X131572000Y-68834000D03*
D12*
X123952000Y-68834000D03*
D11*
X116760000Y-96090000D03*
D12*
X124380000Y-96090000D03*
D11*
X60650000Y-90150000D03*
X60650000Y-95150000D03*
X90400000Y-109750000D03*
D12*
X98020000Y-109750000D03*
D11*
X78180000Y-108570000D03*
D12*
X70560000Y-108570000D03*
D30*
X70610000Y-105500000D03*
D31*
X78230000Y-105500000D03*
D11*
X68700000Y-90900000D03*
X68700000Y-95900000D03*
X54120000Y-35090000D03*
X59120000Y-35090000D03*
X59290000Y-31800000D03*
D12*
X51670000Y-31800000D03*
D30*
X112350000Y-103380000D03*
D31*
X119970000Y-103380000D03*
D30*
X116900000Y-81550000D03*
D31*
X116900000Y-89170000D03*
D30*
X112350000Y-106980000D03*
D31*
X119970000Y-106980000D03*
D11*
X61300000Y-77100000D03*
D12*
X61300000Y-84720000D03*
D11*
X69000000Y-70150000D03*
D12*
X56300000Y-70150000D03*
D11*
X106550000Y-86950000D03*
D12*
X106550000Y-94570000D03*
D11*
X102900000Y-98650000D03*
D12*
X95280000Y-98650000D03*
D11*
X85000000Y-98650000D03*
D12*
X92620000Y-98650000D03*
D11*
X109150000Y-97350000D03*
D12*
X109150000Y-104970000D03*
D11*
X94300000Y-101900000D03*
X99300000Y-101900000D03*
D13*
X47700000Y-112650000D03*
D15*
X47700000Y-117730000D03*
D13*
X102750000Y-50450000D03*
D15*
X107830000Y-50450000D03*
D13*
X61460000Y-109000000D03*
D15*
X61460000Y-101500000D03*
D11*
X92400000Y-105200000D03*
D12*
X100020000Y-105200000D03*
D24*
X131290000Y-102260000D03*
X133830000Y-102260000D03*
D25*
X128750000Y-102260000D03*
D11*
X131230000Y-98070000D03*
X131230000Y-93070000D03*
D24*
X97560000Y-125200000D03*
X100100000Y-125200000D03*
D25*
X95020000Y-125200000D03*
D11*
X104490000Y-125210000D03*
D12*
X112110000Y-125210000D03*
D11*
X121412000Y-68580000D03*
X116412000Y-68580000D03*
D36*
X122700000Y-54600000D03*
X126200000Y-54700000D03*
X97750000Y-113300000D03*
X99850000Y-111550000D03*
X107950000Y-83250000D03*
X111275000Y-83250000D03*
X107725000Y-81900000D03*
X111350000Y-82200000D03*
X111575000Y-81100000D03*
X108025000Y-80950000D03*
D37*
X85950000Y-108950000D02*
X85950000Y-108500000D01*
X123952000Y-68834000D02*
X123952000Y-67310000D01*
X123952000Y-67310000D02*
X123280000Y-66638000D01*
X123280000Y-71374000D02*
X123280000Y-69506000D01*
X123280000Y-69506000D02*
X123952000Y-68834000D01*
X123280000Y-87580000D02*
X123280000Y-87700000D01*
X123280000Y-71374000D02*
X123280000Y-87580000D01*
X117610000Y-92660000D02*
X117610000Y-89880000D01*
X118480000Y-93530000D02*
X117610000Y-92660000D01*
X120940000Y-93530000D02*
X118480000Y-93530000D01*
X121370000Y-93100000D02*
X120940000Y-93530000D01*
X121370000Y-91070000D02*
X121370000Y-93100000D01*
X122370000Y-90070000D02*
X121370000Y-91070000D01*
X122370000Y-88610000D02*
X122370000Y-90070000D01*
X123280000Y-87700000D02*
X122370000Y-88610000D01*
X117610000Y-89880000D02*
X116900000Y-89170000D01*
X116900000Y-89170000D02*
X116900000Y-89850000D01*
X116900000Y-89170000D02*
X117370000Y-89170000D01*
X108075000Y-85625000D02*
X108075000Y-86475000D01*
X116080000Y-88350000D02*
X116900000Y-89170000D01*
X109950000Y-88350000D02*
X116080000Y-88350000D01*
X108075000Y-86475000D02*
X109950000Y-88350000D01*
X101900000Y-74000000D02*
X101900000Y-74550000D01*
X101900000Y-74550000D02*
X104650000Y-78300000D01*
X104650000Y-78300000D02*
X104650000Y-82200000D01*
X104650000Y-82200000D02*
X108075000Y-85625000D01*
X108075000Y-85625000D02*
X108150000Y-85700000D01*
X123280000Y-66638000D02*
X123280000Y-65140000D01*
X123280000Y-65140000D02*
X123300000Y-65120000D01*
X125840000Y-65120000D02*
X125840000Y-65642000D01*
X125840000Y-65642000D02*
X126746000Y-66548000D01*
X126746000Y-86868000D02*
X125476000Y-88138000D01*
X126746000Y-66548000D02*
X126746000Y-86868000D01*
X125476000Y-88138000D02*
X124970000Y-88644000D01*
X122330000Y-101780000D02*
X122330000Y-100430000D01*
X122710000Y-97390000D02*
X122730000Y-97390000D01*
X122710000Y-100050000D02*
X122710000Y-97390000D01*
X122330000Y-100430000D02*
X122710000Y-100050000D01*
X124970000Y-88644000D02*
X124970000Y-88690000D01*
X124970000Y-88690000D02*
X123780000Y-89880000D01*
X123780000Y-89880000D02*
X123780000Y-90690000D01*
X123780000Y-90690000D02*
X123090000Y-91380000D01*
X123090000Y-91380000D02*
X123090000Y-93780000D01*
X123090000Y-93780000D02*
X122730000Y-94140000D01*
X122730000Y-94140000D02*
X122730000Y-97390000D01*
X122730000Y-97860000D02*
X124310000Y-99440000D01*
X122730000Y-97390000D02*
X122730000Y-97860000D01*
X119970000Y-106980000D02*
X121230000Y-106980000D01*
X121230000Y-106980000D02*
X122330000Y-105880000D01*
X122330000Y-105880000D02*
X122330000Y-101780000D01*
D38*
X125840000Y-65120000D02*
X125840000Y-65360000D01*
D37*
X125840000Y-65760000D02*
X125840000Y-65120000D01*
X119550000Y-51700000D02*
X119550000Y-48050000D01*
X119550000Y-48050000D02*
X120350000Y-47250000D01*
X115680000Y-57500000D02*
X115680000Y-55570000D01*
X115680000Y-55570000D02*
X119550000Y-51700000D01*
X113150000Y-47200000D02*
X113850000Y-47200000D01*
X113850000Y-47200000D02*
X114670000Y-48020000D01*
X114670000Y-48020000D02*
X114670000Y-51700000D01*
X113140000Y-57500000D02*
X113140000Y-53230000D01*
X113140000Y-53230000D02*
X114670000Y-51700000D01*
X114350000Y-51380000D02*
X114670000Y-51700000D01*
X114400000Y-66040000D02*
X114300000Y-66040000D01*
X112522000Y-71374000D02*
X114900000Y-73752000D01*
X112522000Y-67818000D02*
X112522000Y-71374000D01*
X114300000Y-66040000D02*
X112522000Y-67818000D01*
X114900000Y-73752000D02*
X114900000Y-74000000D01*
X110600000Y-65120000D02*
X110600000Y-63700000D01*
X114400000Y-63900000D02*
X114400000Y-66040000D01*
X113600000Y-63100000D02*
X114400000Y-63900000D01*
X111200000Y-63100000D02*
X113600000Y-63100000D01*
X110600000Y-63700000D02*
X111200000Y-63100000D01*
X114400000Y-73500000D02*
X114900000Y-74000000D01*
X133460000Y-57500000D02*
X133460000Y-56340000D01*
X135200000Y-48960000D02*
X136900000Y-47260000D01*
X135200000Y-52200000D02*
X135200000Y-48960000D01*
X135500000Y-52500000D02*
X135200000Y-52200000D01*
X135500000Y-54300000D02*
X135500000Y-52500000D01*
X133460000Y-56340000D02*
X135500000Y-54300000D01*
X136900000Y-47260000D02*
X136440000Y-47260000D01*
X136900000Y-49800000D02*
X136900000Y-53800000D01*
X136900000Y-53800000D02*
X137400000Y-54300000D01*
X106760000Y-66802000D02*
X106760000Y-69422000D01*
X108966000Y-73146000D02*
X109820000Y-74000000D01*
X108966000Y-71628000D02*
X108966000Y-73146000D01*
X106760000Y-69422000D02*
X108966000Y-71628000D01*
X120600000Y-54500000D02*
X119900000Y-55200000D01*
X122600000Y-54500000D02*
X120600000Y-54500000D01*
X122700000Y-54600000D02*
X122600000Y-54500000D01*
X126600000Y-54300000D02*
X126200000Y-54700000D01*
X119400000Y-55700000D02*
X119900000Y-55200000D01*
X119400000Y-58700000D02*
X119400000Y-55700000D01*
X118700000Y-59400000D02*
X119400000Y-58700000D01*
X126600000Y-54300000D02*
X132400000Y-54300000D01*
X117960000Y-60140000D02*
X118700000Y-59400000D01*
X110360000Y-60140000D02*
X117960000Y-60140000D01*
X106760000Y-63740000D02*
X110360000Y-60140000D01*
X106760000Y-66802000D02*
X106760000Y-63740000D01*
X131800000Y-50020000D02*
X131800000Y-53700000D01*
X131800000Y-53700000D02*
X132400000Y-54300000D01*
X131800000Y-50020000D02*
X128900000Y-50020000D01*
X130920000Y-57500000D02*
X130920000Y-57480000D01*
X130920000Y-57480000D02*
X134100000Y-54300000D01*
X134100000Y-54300000D02*
X134100000Y-46400000D01*
X134100000Y-46400000D02*
X135780000Y-44720000D01*
X135780000Y-44720000D02*
X136900000Y-44720000D01*
X136180000Y-44720000D02*
X136900000Y-44720000D01*
X99850000Y-111550000D02*
X99850000Y-110850000D01*
X90350000Y-114900000D02*
X91950000Y-113300000D01*
X91950000Y-113300000D02*
X97750000Y-113300000D01*
X90200000Y-114900000D02*
X90250000Y-114900000D01*
X90250000Y-114900000D02*
X90350000Y-114900000D01*
X104400000Y-99750000D02*
X105850000Y-98300000D01*
X104400000Y-106300000D02*
X104400000Y-99750000D01*
X99850000Y-110850000D02*
X104400000Y-106300000D01*
D39*
X51500000Y-106850000D02*
X59310000Y-106850000D01*
X59310000Y-106850000D02*
X61460000Y-109000000D01*
X63710000Y-116600000D02*
X63710000Y-111250000D01*
X63710000Y-111250000D02*
X61460000Y-109000000D01*
D37*
X105850000Y-98300000D02*
X105850000Y-98270000D01*
X105850000Y-98270000D02*
X103100000Y-95520000D01*
X105850000Y-99000000D02*
X105850000Y-98300000D01*
X103100000Y-95520000D02*
X103100000Y-96000000D01*
X60650000Y-90150000D02*
X61700000Y-88100000D01*
X68200000Y-84200000D02*
X68200000Y-83700000D01*
X66600000Y-85950000D02*
X68200000Y-84200000D01*
X62900000Y-85950000D02*
X66600000Y-85950000D01*
X61700000Y-88100000D02*
X62900000Y-85950000D01*
X65000000Y-82100000D02*
X66300000Y-82100000D01*
X66300000Y-82100000D02*
X68050000Y-83850000D01*
X68050000Y-83850000D02*
X68200000Y-83700000D01*
X68200000Y-83700000D02*
X69000000Y-82900000D01*
X69000000Y-82900000D02*
X69000000Y-77300000D01*
X67660000Y-116600000D02*
X67660000Y-116700000D01*
X67660000Y-116700000D02*
X72150000Y-118400000D01*
X72150000Y-118400000D02*
X80850000Y-118400000D01*
X80850000Y-118400000D02*
X84800000Y-114900000D01*
X84800000Y-114900000D02*
X90200000Y-114900000D01*
X90200000Y-114900000D02*
X90300000Y-114900000D01*
D39*
X51500000Y-106850000D02*
X50036280Y-103979047D01*
X50036280Y-103979047D02*
X46900000Y-101500000D01*
D37*
X103100000Y-95520000D02*
X103080000Y-95520000D01*
D39*
X67660000Y-116600000D02*
X63710000Y-116600000D01*
D40*
X71780000Y-77340000D02*
X71060000Y-77340000D01*
X71060000Y-77340000D02*
X69000000Y-77300000D01*
D37*
X119970000Y-103380000D02*
X116590000Y-103380000D01*
X114850000Y-101640000D02*
X114850000Y-92860000D01*
X116590000Y-103380000D02*
X114850000Y-101640000D01*
X107820000Y-91050000D02*
X113040000Y-91050000D01*
X113040000Y-91050000D02*
X114850000Y-92860000D01*
X86075000Y-107475000D02*
X81805000Y-107475000D01*
X81805000Y-107475000D02*
X80900000Y-108380000D01*
X88400000Y-102100000D02*
X87300000Y-102100000D01*
X87150000Y-108550000D02*
X87150000Y-110200000D01*
X86050000Y-107450000D02*
X86075000Y-107475000D01*
X86075000Y-107475000D02*
X87150000Y-108550000D01*
X86050000Y-103350000D02*
X86050000Y-107450000D01*
X87300000Y-102100000D02*
X86050000Y-103350000D01*
X88400000Y-102100000D02*
X88400000Y-92900000D01*
X93800000Y-91100000D02*
X93800000Y-91050000D01*
X90200000Y-91100000D02*
X93800000Y-91100000D01*
X88400000Y-92900000D02*
X90200000Y-91100000D01*
X109850000Y-93370000D02*
X109850000Y-93400000D01*
X108000000Y-91050000D02*
X107820000Y-91050000D01*
X107820000Y-91050000D02*
X93800000Y-91050000D01*
X109700000Y-92970000D02*
X109700000Y-92450000D01*
X109700000Y-92450000D02*
X108000000Y-91050000D01*
X88400000Y-102100000D02*
X88400000Y-102500000D01*
X86000000Y-77300000D02*
X85200000Y-77300000D01*
X85200000Y-77300000D02*
X82800000Y-79700000D01*
X79400000Y-77340000D02*
X80440000Y-77340000D01*
X80440000Y-77340000D02*
X82800000Y-79700000D01*
X79440000Y-77300000D02*
X79400000Y-77340000D01*
X76550000Y-95300000D02*
X76550000Y-94270000D01*
X76550000Y-94270000D02*
X78970000Y-91850000D01*
X78950000Y-91850000D02*
X78650000Y-91850000D01*
X131200000Y-85800000D02*
X128820000Y-85800000D01*
X128820000Y-85800000D02*
X128320000Y-85300000D01*
X128400000Y-88500000D02*
X128400000Y-89190000D01*
X128400000Y-89190000D02*
X125780000Y-91550000D01*
X125780000Y-100810000D02*
X123430000Y-103420000D01*
X125780000Y-91550000D02*
X125780000Y-100810000D01*
X121500000Y-110000000D02*
X121800000Y-110000000D01*
X121800000Y-110000000D02*
X123200000Y-109050000D01*
X123200000Y-103600000D02*
X123200000Y-109050000D01*
X123430000Y-103420000D02*
X123200000Y-103600000D01*
X128320000Y-85300000D02*
X128320000Y-88420000D01*
X128320000Y-88420000D02*
X128400000Y-88500000D01*
X71800000Y-119900000D02*
X72750000Y-119200000D01*
X61300000Y-119900000D02*
X71800000Y-119900000D01*
X59300000Y-121900000D02*
X61300000Y-119900000D01*
X121500000Y-110000000D02*
X114350000Y-110000000D01*
X114350000Y-110000000D02*
X111300000Y-113250000D01*
X111300000Y-113250000D02*
X99900000Y-113250000D01*
X99900000Y-113250000D02*
X99150000Y-114250000D01*
X99150000Y-114250000D02*
X92800000Y-114200000D01*
X92800000Y-114200000D02*
X90600000Y-115800000D01*
X90600000Y-115800000D02*
X85300000Y-115800000D01*
X85300000Y-115800000D02*
X81550000Y-119200000D01*
X81550000Y-119200000D02*
X72750000Y-119200000D01*
X59300000Y-122000000D02*
X59300000Y-121900000D01*
X59300000Y-122000000D02*
X59300000Y-121400000D01*
X52800000Y-122000000D02*
X59300000Y-122000000D01*
X128520000Y-88380000D02*
X128400000Y-88500000D01*
X128320000Y-88420000D02*
X128400000Y-88500000D01*
X131200000Y-78650000D02*
X131675000Y-78650000D01*
X131675000Y-78650000D02*
X133125000Y-79800000D01*
X85700000Y-116700000D02*
X83700000Y-118700000D01*
X82500000Y-119900000D02*
X73300000Y-119900000D01*
X83700000Y-118700000D02*
X82500000Y-119900000D01*
X91100000Y-116650000D02*
X85700000Y-116650000D01*
X93000000Y-115050000D02*
X91100000Y-116650000D01*
X99600000Y-115050000D02*
X93000000Y-115050000D01*
X100550000Y-114100000D02*
X99600000Y-115050000D01*
X111750000Y-114100000D02*
X100550000Y-114100000D01*
X114800000Y-110800000D02*
X111750000Y-114100000D01*
X123200000Y-110800000D02*
X114800000Y-110800000D01*
X123900000Y-109650000D02*
X123200000Y-110800000D01*
X123900000Y-104450000D02*
X123900000Y-109650000D01*
X125000000Y-103300000D02*
X123900000Y-104450000D01*
X69900000Y-122000000D02*
X71200000Y-122000000D01*
X71200000Y-122000000D02*
X73300000Y-119900000D01*
X85700000Y-116650000D02*
X85700000Y-116700000D01*
X128740000Y-90220000D02*
X126410002Y-92089998D01*
X126410002Y-92089998D02*
X126410002Y-101429998D01*
X126410002Y-101429998D02*
X125000000Y-103300000D01*
X129900000Y-89060000D02*
X128740000Y-90220000D01*
X129900000Y-88300000D02*
X129900000Y-89060000D01*
X130775000Y-87425000D02*
X129900000Y-88300000D01*
X132325000Y-87425000D02*
X130775000Y-87425000D01*
X133125000Y-86625000D02*
X132325000Y-87425000D01*
X133125000Y-79800000D02*
X133125000Y-86625000D01*
X128400000Y-82000000D02*
X128400000Y-78780000D01*
X128400000Y-78780000D02*
X128320000Y-78700000D01*
X131200000Y-78650000D02*
X128370000Y-78650000D01*
X128370000Y-78650000D02*
X128320000Y-78700000D01*
X128420000Y-81980000D02*
X128400000Y-82000000D01*
X69900000Y-122000000D02*
X69900000Y-121800000D01*
X63400000Y-122000000D02*
X69900000Y-122000000D01*
X131175000Y-71550000D02*
X132425000Y-71550000D01*
X114850000Y-111700000D02*
X112040863Y-114651475D01*
X123350000Y-111700000D02*
X114850000Y-111700000D01*
X124550000Y-110700000D02*
X123350000Y-111700000D01*
X124600000Y-104900000D02*
X124550000Y-110700000D01*
X129120000Y-90860000D02*
X127050000Y-92470000D01*
X127050000Y-92470000D02*
X127050000Y-101990000D01*
X127050000Y-101990000D02*
X124600000Y-104900000D01*
X130925000Y-89055000D02*
X129120000Y-90860000D01*
X130925000Y-88725000D02*
X130925000Y-89055000D01*
X131400000Y-88250000D02*
X130925000Y-88725000D01*
X132700000Y-88250000D02*
X131400000Y-88250000D01*
X133850000Y-87100000D02*
X132700000Y-88250000D01*
X133850000Y-72975000D02*
X133850000Y-87100000D01*
X132425000Y-71550000D02*
X133850000Y-72975000D01*
X131175000Y-71550000D02*
X128745000Y-71575000D01*
X128745000Y-71575000D02*
X128295000Y-72025000D01*
X86650000Y-117450000D02*
X86550000Y-117450000D01*
X86550000Y-117450000D02*
X82000000Y-122000000D01*
X82000000Y-122000000D02*
X80300000Y-122000000D01*
X100250000Y-115750000D02*
X100250000Y-115700000D01*
X100250000Y-115750000D02*
X93350000Y-115750000D01*
X93350000Y-115750000D02*
X91350000Y-117450000D01*
X91350000Y-117450000D02*
X86650000Y-117450000D01*
X112040863Y-114651475D02*
X112040863Y-114743134D01*
X101206866Y-114743134D02*
X112040863Y-114743134D01*
X100250000Y-115700000D02*
X101206866Y-114743134D01*
X112040863Y-114651475D02*
X112000000Y-114700000D01*
X73800000Y-122000000D02*
X73800000Y-121400000D01*
X73800000Y-122000000D02*
X73800000Y-121900000D01*
X80300000Y-122000000D02*
X73800000Y-122000000D01*
X128695000Y-72425000D02*
X128295000Y-72025000D01*
X128295000Y-72025000D02*
X128345000Y-75380000D01*
X128345000Y-75380000D02*
X128325000Y-75400000D01*
X128345000Y-75380000D02*
X128325000Y-75400000D01*
X117100000Y-70200000D02*
X114904000Y-70200000D01*
X114046000Y-69342000D02*
X114046000Y-68326000D01*
X114904000Y-70200000D02*
X114046000Y-69342000D01*
X115680000Y-65120000D02*
X115680000Y-66692000D01*
X115680000Y-66692000D02*
X114046000Y-68326000D01*
D40*
X84582000Y-125984000D02*
X84582000Y-127678000D01*
X84582000Y-127678000D02*
X84320000Y-127940000D01*
D37*
X84582000Y-125984000D02*
X84328000Y-125984000D01*
X94540000Y-118860000D02*
X96950000Y-116450000D01*
X96950000Y-116450000D02*
X100650000Y-116450000D01*
X112200000Y-115350000D02*
X115050000Y-112650000D01*
X115050000Y-112650000D02*
X125650000Y-112500000D01*
X125650000Y-112500000D02*
X126800000Y-110800000D01*
X126800000Y-106800000D02*
X126800000Y-110800000D01*
X101750000Y-115350000D02*
X100650000Y-116450000D01*
X112200000Y-115350000D02*
X101750000Y-115350000D01*
X92202000Y-121412000D02*
X89154000Y-121412000D01*
X89154000Y-121412000D02*
X84582000Y-125984000D01*
D40*
X82443000Y-126238000D02*
X82443000Y-125623000D01*
X50400000Y-120700000D02*
X50400000Y-123500000D01*
X50400000Y-123500000D02*
X51100000Y-124200000D01*
X51100000Y-124200000D02*
X81020000Y-124200000D01*
X52800000Y-119500000D02*
X50400000Y-120700000D01*
X82443000Y-126825000D02*
X84320000Y-127940000D01*
X82443000Y-126238000D02*
X82443000Y-126825000D01*
X82443000Y-125623000D02*
X81020000Y-124200000D01*
X131180000Y-127940000D02*
X133200000Y-125920000D01*
X133200000Y-120800000D02*
X133200000Y-125920000D01*
X133200000Y-120800000D02*
X140300000Y-113700000D01*
X140300000Y-113700000D02*
X140300000Y-39400000D01*
X140300000Y-39400000D02*
X138900000Y-38000000D01*
X130300000Y-38000000D02*
X138900000Y-38000000D01*
X84320000Y-127940000D02*
X131180000Y-127940000D01*
D37*
X94540000Y-119400000D02*
X94540000Y-120852000D01*
X93980000Y-121412000D02*
X92202000Y-121412000D01*
X94540000Y-120852000D02*
X93980000Y-121412000D01*
X128750000Y-102260000D02*
X128750000Y-104850000D01*
X128750000Y-104850000D02*
X126800000Y-106800000D01*
X126800000Y-106800000D02*
X126800000Y-106525000D01*
X120780000Y-88500000D02*
X120780000Y-90840000D01*
X120780000Y-90840000D02*
X119440000Y-92350000D01*
X94540000Y-119400000D02*
X94540000Y-118860000D01*
X112350000Y-103380000D02*
X112350000Y-106980000D01*
X54130000Y-109000000D02*
X56310000Y-109000000D01*
X56310000Y-109000000D02*
X61700000Y-114390000D01*
D38*
X61700000Y-117140000D02*
X61700000Y-118090000D01*
X59150000Y-119360000D02*
X59150000Y-119500000D01*
X60430000Y-119360000D02*
X59150000Y-119360000D01*
X61700000Y-118090000D02*
X60430000Y-119360000D01*
D40*
X45500000Y-109000000D02*
X54130000Y-109000000D01*
D38*
X61700000Y-114390000D02*
X61700000Y-117140000D01*
X61700000Y-117140000D02*
X61700000Y-117200000D01*
D40*
X52800000Y-119500000D02*
X59150000Y-119500000D01*
X59150000Y-119500000D02*
X59400000Y-119500000D01*
X59400000Y-119500000D02*
X59500000Y-119500000D01*
X52900000Y-119400000D02*
X52800000Y-119500000D01*
X43600000Y-107100000D02*
X45500000Y-109000000D01*
X43600000Y-100600000D02*
X43600000Y-107100000D01*
X43600000Y-98000000D02*
X45180000Y-96420000D01*
X43600000Y-100600000D02*
X43600000Y-98000000D01*
X49100000Y-87200000D02*
X48400000Y-87200000D01*
X48400000Y-87200000D02*
X46900000Y-88700000D01*
X46900000Y-88700000D02*
X46900000Y-96420000D01*
D37*
X120780000Y-88500000D02*
X120700000Y-88500000D01*
X120700000Y-88500000D02*
X116900000Y-84700000D01*
X116900000Y-84700000D02*
X116900000Y-81550000D01*
D40*
X46900000Y-96420000D02*
X45180000Y-96420000D01*
X51500000Y-99230000D02*
X50580000Y-99230000D01*
X50580000Y-99230000D02*
X49720000Y-96420000D01*
X49720000Y-96420000D02*
X46900000Y-96420000D01*
D37*
X122500000Y-74000000D02*
X122280000Y-74000000D01*
X122280000Y-74000000D02*
X120705000Y-75400000D01*
X120760000Y-57500000D02*
X120760000Y-57140000D01*
X120760000Y-57140000D02*
X122200000Y-55700000D01*
X126600000Y-52000000D02*
X126600000Y-42400000D01*
X122900000Y-55700000D02*
X126600000Y-52000000D01*
X122200000Y-55700000D02*
X122900000Y-55700000D01*
X120680000Y-88600000D02*
X120780000Y-88500000D01*
X128900000Y-42400000D02*
X126600000Y-42400000D01*
X126600000Y-42400000D02*
X124600000Y-42400000D01*
X124600000Y-42400000D02*
X123800000Y-41600000D01*
X131800000Y-42400000D02*
X128900000Y-42400000D01*
X128900000Y-42400000D02*
X128900000Y-39400000D01*
X128900000Y-39400000D02*
X129900000Y-38400000D01*
D40*
X130300000Y-38000000D02*
X129900000Y-38400000D01*
D37*
X84882000Y-125984000D02*
X84582000Y-125984000D01*
X120780000Y-82000000D02*
X120900000Y-82000000D01*
X120900000Y-82000000D02*
X122500000Y-81600000D01*
X120705000Y-75400000D02*
X120725000Y-75400000D01*
X117100000Y-70200000D02*
X121400000Y-70200000D01*
X122500000Y-87000000D02*
X120780000Y-88500000D01*
X122500000Y-71300000D02*
X122500000Y-74000000D01*
X122500000Y-74000000D02*
X122500000Y-81600000D01*
X122500000Y-81600000D02*
X122500000Y-87000000D01*
X121400000Y-70200000D02*
X122500000Y-71300000D01*
X116460000Y-76540000D02*
X114900000Y-76540000D01*
X117100000Y-75900000D02*
X116460000Y-76540000D01*
X117100000Y-70200000D02*
X117100000Y-75900000D01*
X120620000Y-81720000D02*
X120800000Y-81900000D01*
X115680000Y-65120000D02*
X115680000Y-62120000D01*
X120760000Y-60040000D02*
X120760000Y-57500000D01*
X119500000Y-61300000D02*
X120760000Y-60040000D01*
X116500000Y-61300000D02*
X119500000Y-61300000D01*
X115680000Y-62120000D02*
X116500000Y-61300000D01*
X120705000Y-75400000D02*
X121225000Y-75400000D01*
D38*
X120760000Y-57500000D02*
X120760000Y-57840000D01*
D37*
X113140000Y-65120000D02*
X112934000Y-65120000D01*
X112934000Y-65120000D02*
X111760000Y-66294000D01*
X111760000Y-66294000D02*
X111760000Y-73400000D01*
X111760000Y-73400000D02*
X112360000Y-74000000D01*
X108060000Y-65120000D02*
X108060000Y-66184000D01*
X109728000Y-71882000D02*
X111100000Y-73254000D01*
X109728000Y-71120000D02*
X109728000Y-71882000D01*
X107442000Y-68834000D02*
X109728000Y-71120000D01*
X107442000Y-66802000D02*
X107442000Y-68834000D01*
X108060000Y-66184000D02*
X107442000Y-66802000D01*
X108060000Y-65650000D02*
X108060000Y-65120000D01*
X111100000Y-75280000D02*
X112360000Y-76540000D01*
X111100000Y-73254000D02*
X111100000Y-75280000D01*
X108060000Y-65120000D02*
X108060000Y-65460000D01*
X94700000Y-81150000D02*
X94700000Y-84330000D01*
X94700000Y-84330000D02*
X94720000Y-84350000D01*
X100560000Y-87900000D02*
X100560000Y-85450000D01*
X99460000Y-84350000D02*
X94720000Y-84350000D01*
X100560000Y-85450000D02*
X99460000Y-84350000D01*
X94680000Y-81170000D02*
X94700000Y-81150000D01*
X100560000Y-87900000D02*
X100560000Y-87660000D01*
X94580000Y-81270000D02*
X94700000Y-81150000D01*
X97320000Y-126740000D02*
X93210000Y-126740000D01*
X91948000Y-125478000D02*
X92202000Y-125984000D01*
X93210000Y-126740000D02*
X91948000Y-125478000D01*
X98590000Y-126740000D02*
X97320000Y-126740000D01*
X125090000Y-126740000D02*
X125760000Y-126740000D01*
X125760000Y-126740000D02*
X127560000Y-124940000D01*
X127560000Y-123630000D02*
X127560000Y-124940000D01*
X127560000Y-119400000D02*
X127560000Y-123630000D01*
X125090000Y-126740000D02*
X98590000Y-126740000D01*
X120700000Y-85300000D02*
X120700000Y-85275000D01*
X120700000Y-85275000D02*
X119025000Y-83600000D01*
X108060000Y-55910000D02*
X108060000Y-57500000D01*
X106575000Y-54425000D02*
X108060000Y-55910000D01*
X101975000Y-54425000D02*
X106575000Y-54425000D01*
X100550000Y-55975000D02*
X101975000Y-54425000D01*
X100550000Y-69400000D02*
X100550000Y-55975000D01*
X105500000Y-74625000D02*
X100550000Y-69400000D01*
X105500000Y-80800000D02*
X105500000Y-74625000D01*
X107950000Y-83250000D02*
X105500000Y-80800000D01*
X113600000Y-83250000D02*
X111275000Y-83250000D01*
X114475000Y-82375000D02*
X113600000Y-83250000D01*
X114475000Y-79925000D02*
X114475000Y-82375000D01*
X114975000Y-79425000D02*
X114475000Y-79925000D01*
X118100000Y-79425000D02*
X114975000Y-79425000D01*
X119025000Y-80350000D02*
X118100000Y-79425000D01*
X119025000Y-83600000D02*
X119025000Y-80350000D01*
X120700000Y-85300000D02*
X120300000Y-85300000D01*
X120700000Y-78700000D02*
X119400000Y-78700000D01*
X104150000Y-55400000D02*
X105520000Y-56770000D01*
X102025000Y-55400000D02*
X104150000Y-55400000D01*
X101125000Y-56300000D02*
X102025000Y-55400000D01*
X101125000Y-69175000D02*
X101125000Y-56300000D01*
X106150000Y-74200000D02*
X101125000Y-69175000D01*
X106150000Y-80325000D02*
X106150000Y-74200000D01*
X107725000Y-81900000D02*
X106150000Y-80325000D01*
X113600000Y-82200000D02*
X111350000Y-82200000D01*
X113850000Y-81950000D02*
X113600000Y-82200000D01*
X113850000Y-79700000D02*
X113850000Y-81950000D01*
X114675002Y-78874998D02*
X113850000Y-79700000D01*
X119225002Y-78874998D02*
X114675002Y-78874998D01*
X119400000Y-78700000D02*
X119225002Y-78874998D01*
X105520000Y-56770000D02*
X105520000Y-57500000D01*
X105520000Y-57045000D02*
X105520000Y-57500000D01*
X105520000Y-57500000D02*
X105520000Y-57580000D01*
X120675000Y-72025000D02*
X120025000Y-72025000D01*
X120025000Y-72025000D02*
X118950000Y-73300000D01*
X118950000Y-73300000D02*
X118950000Y-76525000D01*
X118950000Y-76525000D02*
X117225000Y-78250000D01*
X117225000Y-78250000D02*
X114025000Y-78250000D01*
X114025000Y-78250000D02*
X112875000Y-79400000D01*
X112875000Y-79400000D02*
X112875000Y-80550000D01*
X112875000Y-80550000D02*
X112325000Y-81100000D01*
X112325000Y-81100000D02*
X111575000Y-81100000D01*
X108025000Y-80950000D02*
X106800000Y-79725000D01*
X106800000Y-79725000D02*
X106800000Y-73325000D01*
X106800000Y-73325000D02*
X101675002Y-68200002D01*
X101675002Y-68200002D02*
X101675002Y-58804998D01*
X101675002Y-58804998D02*
X102980000Y-57500000D01*
X102980000Y-57500000D02*
X103000000Y-57500000D01*
X101100000Y-117050000D02*
X99430000Y-117050000D01*
X129300000Y-111840000D02*
X127590000Y-113200000D01*
X115550000Y-113200000D02*
X127590000Y-113200000D01*
X112550000Y-116150000D02*
X115550000Y-113200000D01*
X102250000Y-116150000D02*
X112550000Y-116150000D01*
X101124267Y-117031008D02*
X102250000Y-116150000D01*
X101100000Y-117050000D02*
X101124267Y-117031008D01*
X99430000Y-117050000D02*
X97080000Y-119400000D01*
X110600000Y-57500000D02*
X110600000Y-56000000D01*
X116220000Y-43305000D02*
X116220000Y-40900000D01*
X115225000Y-44300000D02*
X116220000Y-43305000D01*
X112675000Y-44300000D02*
X115225000Y-44300000D01*
X110675000Y-46300000D02*
X112675000Y-44300000D01*
X110675000Y-55925000D02*
X110675000Y-46300000D01*
X110600000Y-56000000D02*
X110675000Y-55925000D01*
X116220000Y-40900000D02*
X116220000Y-40980000D01*
X122480000Y-119400000D02*
X122480000Y-119020000D01*
X122480000Y-119020000D02*
X124700000Y-116800000D01*
X138670000Y-104960000D02*
X138675000Y-111500000D01*
X133300000Y-116800000D02*
X124700000Y-116800000D01*
X138675000Y-111500000D02*
X133300000Y-116800000D01*
X138670000Y-104960000D02*
X138670000Y-61160000D01*
X138670000Y-61160000D02*
X137000000Y-59900000D01*
X137000000Y-59900000D02*
X129400000Y-59900000D01*
X129400000Y-59900000D02*
X128380000Y-58880000D01*
X128380000Y-58880000D02*
X128380000Y-57500000D01*
X125020000Y-119400000D02*
X125020000Y-119080000D01*
X125020000Y-119080000D02*
X126500000Y-117600000D01*
X139300000Y-105640000D02*
X139300000Y-112050000D01*
X129600000Y-58400000D02*
X129600000Y-55900000D01*
X129600000Y-55900000D02*
X129300000Y-55600000D01*
X129300000Y-55600000D02*
X126900000Y-55600000D01*
X126900000Y-55600000D02*
X125840000Y-56660000D01*
X125840000Y-57500000D02*
X125840000Y-56660000D01*
X137100000Y-58800000D02*
X130100000Y-58800000D01*
X139300000Y-60540000D02*
X137100000Y-58800000D01*
X139300000Y-105640000D02*
X139300000Y-60540000D01*
X129700000Y-58400000D02*
X130100000Y-58800000D01*
X129600000Y-58400000D02*
X129700000Y-58400000D01*
X133600000Y-117600000D02*
X126500000Y-117600000D01*
X139300000Y-112050000D02*
X133600000Y-117600000D01*
X126300000Y-57040000D02*
X125840000Y-57500000D01*
X125840000Y-57500000D02*
X125840000Y-56860000D01*
X136800000Y-97400000D02*
X136800000Y-90325000D01*
X136800000Y-110300000D02*
X135600000Y-111500000D01*
X136800000Y-97400000D02*
X136800000Y-110300000D01*
X136800000Y-70300000D02*
X135300000Y-68800000D01*
X136800000Y-90325000D02*
X136800000Y-70300000D01*
X104700000Y-119400000D02*
X104700000Y-118800000D01*
X104700000Y-118800000D02*
X105880000Y-117620000D01*
X135600000Y-111500000D02*
X132500000Y-114600000D01*
X132500000Y-114600000D02*
X120400000Y-114600000D01*
X120400000Y-114600000D02*
X117380000Y-117620000D01*
X117380000Y-117620000D02*
X105880000Y-117620000D01*
X135300000Y-68800000D02*
X133400000Y-66900000D01*
X133400000Y-66900000D02*
X132100000Y-65600000D01*
X132100000Y-65600000D02*
X132100000Y-64000000D01*
X132100000Y-64000000D02*
X131300000Y-63200000D01*
X131300000Y-63200000D02*
X129000000Y-63200000D01*
X129000000Y-63200000D02*
X128380000Y-63820000D01*
X128380000Y-63820000D02*
X128380000Y-65120000D01*
X128380000Y-65780000D02*
X128380000Y-65120000D01*
X136200000Y-71882000D02*
X136200000Y-70922000D01*
X136200000Y-70922000D02*
X130920000Y-65642000D01*
X130920000Y-65642000D02*
X130920000Y-65120000D01*
X108980000Y-121540000D02*
X111240000Y-121540000D01*
X112110000Y-122410000D02*
X112110000Y-125210000D01*
X111240000Y-121540000D02*
X112110000Y-122410000D01*
X112110000Y-125210000D02*
X112110000Y-124906000D01*
X108980000Y-121540000D02*
X104460000Y-121540000D01*
X104460000Y-121540000D02*
X103430000Y-120510000D01*
X103430000Y-120510000D02*
X103430000Y-117880000D01*
X103430000Y-117880000D02*
X104510000Y-116800000D01*
X136200000Y-88250000D02*
X134750000Y-88250000D01*
X134750000Y-88250000D02*
X134425000Y-88575000D01*
X136200000Y-89775000D02*
X136200000Y-89925000D01*
X136200000Y-89925000D02*
X136200000Y-109900000D01*
X134700000Y-111400000D02*
X132300000Y-113800000D01*
X132300000Y-113800000D02*
X119890000Y-113800000D01*
X119890000Y-113800000D02*
X117090000Y-116800000D01*
X117090000Y-116800000D02*
X107500000Y-116800000D01*
X136100000Y-110000000D02*
X134700000Y-111400000D01*
X136200000Y-109900000D02*
X136100000Y-110000000D01*
X136200000Y-90200000D02*
X136200000Y-89775000D01*
X136200000Y-89775000D02*
X136200000Y-88250000D01*
X136200000Y-88250000D02*
X136200000Y-71882000D01*
X130920000Y-65120000D02*
X130780000Y-65120000D01*
X107500000Y-116800000D02*
X104510000Y-116800000D01*
X137460000Y-96050000D02*
X137460000Y-94465000D01*
X137460000Y-103640000D02*
X137460000Y-96050000D01*
X137450000Y-110450000D02*
X132900000Y-115400000D01*
X137460000Y-103640000D02*
X137450000Y-110450000D01*
X137460000Y-94465000D02*
X137460000Y-94430000D01*
X137460000Y-94430000D02*
X137460000Y-68500000D01*
X117400000Y-119400000D02*
X117400000Y-118800000D01*
X117400000Y-118800000D02*
X120800000Y-115400000D01*
X132900000Y-115400000D02*
X120800000Y-115400000D01*
X137460000Y-68500000D02*
X133460000Y-65120000D01*
X119940000Y-119400000D02*
X119940000Y-118510002D01*
X119940000Y-118510002D02*
X122350002Y-116100000D01*
X138060000Y-104580000D02*
X138075000Y-110825000D01*
X133000000Y-116100000D02*
X122350002Y-116100000D01*
X138075000Y-110825000D02*
X133000000Y-116100000D01*
X138060000Y-66600000D02*
X136000000Y-65120000D01*
X138060000Y-104580000D02*
X138060000Y-66600000D01*
D39*
X92740000Y-35740000D02*
X92740000Y-36480000D01*
X92740000Y-36480000D02*
X89900000Y-39320000D01*
X81810000Y-38340000D02*
X81810000Y-35740000D01*
X82790000Y-39320000D02*
X81810000Y-38340000D01*
X89900000Y-39320000D02*
X82790000Y-39320000D01*
X86490000Y-66600000D02*
X83520000Y-66600000D01*
X90080000Y-70190000D02*
X86490000Y-66600000D01*
X90080000Y-71780000D02*
X90080000Y-70190000D01*
X83520000Y-66600000D02*
X83520000Y-56750000D01*
X83520000Y-56750000D02*
X81810000Y-55040000D01*
X92950000Y-36330000D02*
X92740000Y-35740000D01*
X92950000Y-36330000D02*
X92740000Y-35740000D01*
X81810000Y-35740000D02*
X81810000Y-37100000D01*
X81810000Y-37100000D02*
X79600000Y-39310000D01*
X79600000Y-39310000D02*
X77950000Y-39310000D01*
X77950000Y-39310000D02*
X77090000Y-38450000D01*
D38*
X94280000Y-74000000D02*
X94440000Y-73740000D01*
X92480000Y-71780000D02*
X90080000Y-71780000D01*
X94440000Y-73740000D02*
X92480000Y-71780000D01*
D39*
X81910000Y-54940000D02*
X81810000Y-55040000D01*
X81910000Y-55140000D02*
X81810000Y-55040000D01*
D37*
X106550000Y-86950000D02*
X106550000Y-86310000D01*
X106550000Y-86310000D02*
X103960000Y-83720000D01*
X103960000Y-83720000D02*
X103960000Y-79290000D01*
X103960000Y-79290000D02*
X101310000Y-76640000D01*
X101310000Y-76640000D02*
X97820000Y-76640000D01*
D39*
X116280000Y-37640000D02*
X116280000Y-35000000D01*
X116280000Y-35000000D02*
X115180000Y-33900000D01*
X96110000Y-31520000D02*
X114830000Y-31520000D01*
X115180000Y-31870000D02*
X115180000Y-33900000D01*
X114830000Y-31520000D02*
X115180000Y-31870000D01*
D37*
X98020000Y-87900000D02*
X98020000Y-86290000D01*
X90400000Y-83470000D02*
X90400000Y-74800000D01*
X92990000Y-86060000D02*
X90400000Y-83470000D01*
X97790000Y-86060000D02*
X92990000Y-86060000D01*
X98020000Y-86290000D02*
X97790000Y-86060000D01*
D39*
X97820000Y-35740000D02*
X97820000Y-76640000D01*
X93270000Y-78330000D02*
X90400000Y-75460000D01*
X96130000Y-78330000D02*
X95860000Y-78330000D01*
X95860000Y-78330000D02*
X93270000Y-78330000D01*
X97820000Y-76640000D02*
X96130000Y-78330000D01*
X90400000Y-75460000D02*
X90400000Y-74800000D01*
X86890000Y-35740000D02*
X86890000Y-31520000D01*
X87820000Y-31680000D02*
X87820000Y-31520000D01*
X87050000Y-31680000D02*
X87820000Y-31680000D01*
X86890000Y-31520000D02*
X87050000Y-31680000D01*
X97820000Y-35740000D02*
X97820000Y-33000000D01*
X79020000Y-31520000D02*
X77090000Y-33450000D01*
X96340000Y-31520000D02*
X96110000Y-31520000D01*
X96110000Y-31520000D02*
X87820000Y-31520000D01*
X87820000Y-31520000D02*
X79020000Y-31520000D01*
X97820000Y-33000000D02*
X96340000Y-31520000D01*
D37*
X98020000Y-87900000D02*
X98020000Y-87320000D01*
X98020000Y-87900000D02*
X98020000Y-87820000D01*
X90400000Y-75000000D02*
X90400000Y-74800000D01*
X90400000Y-75000000D02*
X90400000Y-74800000D01*
X90400000Y-75100000D02*
X90400000Y-74800000D01*
X102900000Y-110920000D02*
X102900000Y-109500000D01*
X107430000Y-104970000D02*
X109150000Y-104970000D01*
X102900000Y-109500000D02*
X107430000Y-104970000D01*
X109400000Y-110900000D02*
X109400000Y-105220000D01*
X109400000Y-105220000D02*
X109150000Y-104970000D01*
X109150000Y-104970000D02*
X109150000Y-100350000D01*
X113100000Y-96400000D02*
X113100000Y-93420000D01*
X109150000Y-100350000D02*
X113100000Y-96400000D01*
X109150000Y-104970000D02*
X108930000Y-104970000D01*
X113050000Y-92970000D02*
X113050000Y-93300000D01*
X78270000Y-98750000D02*
X78270000Y-97380000D01*
X79600000Y-96050000D02*
X81900000Y-96050000D01*
X78270000Y-97380000D02*
X79600000Y-96050000D01*
X81700000Y-96250000D02*
X81900000Y-96050000D01*
X78550000Y-98450000D02*
X78250000Y-98750000D01*
X78250000Y-98750000D02*
X77950000Y-98750000D01*
X81900000Y-91050000D02*
X81900000Y-91200000D01*
X81900000Y-91200000D02*
X83500000Y-93100000D01*
X83500000Y-99080000D02*
X80780000Y-102100000D01*
X83500000Y-93100000D02*
X83500000Y-99080000D01*
X80780000Y-102100000D02*
X80800000Y-102100000D01*
X81900000Y-91050000D02*
X78900000Y-89400000D01*
X78900000Y-89400000D02*
X78000000Y-88500000D01*
X78000000Y-88500000D02*
X78000000Y-86100000D01*
X78000000Y-86100000D02*
X79140000Y-84960000D01*
X79140000Y-84960000D02*
X79400000Y-84960000D01*
X81900000Y-91050000D02*
X81900000Y-91650000D01*
X81900000Y-91050000D02*
X81300000Y-91050000D01*
X79040000Y-84960000D02*
X79400000Y-84960000D01*
D39*
X47700000Y-112650000D02*
X55410000Y-115750000D01*
X55410000Y-115750000D02*
X56260000Y-116600000D01*
X59560000Y-116600000D02*
X55860000Y-116600000D01*
X56300000Y-70150000D02*
X54250000Y-70150000D01*
X54250000Y-70150000D02*
X52150000Y-68050000D01*
X57750000Y-73200000D02*
X57750000Y-71600000D01*
X57750000Y-71600000D02*
X56300000Y-70150000D01*
D37*
X107375000Y-74525000D02*
X107375000Y-72450000D01*
X107375000Y-72450000D02*
X104850000Y-69925000D01*
X102980000Y-65120000D02*
X103470000Y-65120000D01*
X103470000Y-65120000D02*
X104850000Y-66500000D01*
X104850000Y-66500000D02*
X104850000Y-69925000D01*
X107375000Y-74525000D02*
X107375000Y-79300000D01*
X107375000Y-79300000D02*
X109300000Y-81225000D01*
X109300000Y-81225000D02*
X109300000Y-85200000D01*
X109300000Y-85200000D02*
X109850000Y-85750000D01*
X109850000Y-85750000D02*
X109850000Y-85300000D01*
X109850000Y-85750000D02*
X109850000Y-85650000D01*
X102340000Y-84350000D02*
X102340000Y-87140000D01*
X102340000Y-87140000D02*
X103100000Y-87900000D01*
X102340000Y-87140000D02*
X103100000Y-87900000D01*
X116690000Y-99440000D02*
X116690000Y-96160000D01*
X116690000Y-96160000D02*
X116760000Y-96090000D01*
X113350000Y-89710000D02*
X113970000Y-89710000D01*
X116760000Y-92500000D02*
X116760000Y-96090000D01*
X113970000Y-89710000D02*
X116760000Y-92500000D01*
X116760000Y-96090000D02*
X116650000Y-96200000D01*
X103100000Y-87900000D02*
X103100000Y-87950000D01*
X103100000Y-87950000D02*
X104860000Y-89710000D01*
X104860000Y-89710000D02*
X113350000Y-89710000D01*
X113350000Y-89710000D02*
X113400000Y-89710000D01*
X103100000Y-87900000D02*
X103200000Y-87900000D01*
X79400000Y-87500000D02*
X90900000Y-87500000D01*
X102100000Y-89700000D02*
X93100000Y-89700000D01*
X103100000Y-88500000D02*
X102100000Y-89700000D01*
X90900000Y-87500000D02*
X93100000Y-89700000D01*
X103100000Y-87900000D02*
X103700000Y-87900000D01*
X103100000Y-87900000D02*
X103500000Y-87900000D01*
X103100000Y-87900000D02*
X103100000Y-88000000D01*
X103100000Y-87900000D02*
X103100000Y-88500000D01*
X103100000Y-87900000D02*
X103100000Y-88300000D01*
X103100000Y-87900000D02*
X103100000Y-88700000D01*
X103200000Y-87800000D02*
X103100000Y-87900000D01*
X79400000Y-74800000D02*
X80180000Y-74800000D01*
X80180000Y-74800000D02*
X82600000Y-77220000D01*
D40*
X69000000Y-70150000D02*
X69000000Y-66350000D01*
X79400000Y-65600000D02*
X79400000Y-69720000D01*
X78200000Y-64400000D02*
X79400000Y-65600000D01*
X70950000Y-64400000D02*
X78200000Y-64400000D01*
X69000000Y-66350000D02*
X70950000Y-64400000D01*
X69000000Y-70150000D02*
X69000000Y-73200000D01*
X70600000Y-74800000D02*
X71780000Y-74800000D01*
X69000000Y-73200000D02*
X70600000Y-74800000D01*
D37*
X108175000Y-74250000D02*
X108175000Y-72150000D01*
X108175000Y-72150000D02*
X105520000Y-69495000D01*
X113100000Y-85800000D02*
X112650000Y-85800000D01*
X112650000Y-85800000D02*
X110300000Y-83450000D01*
X105520000Y-69495000D02*
X105520000Y-65120000D01*
X108175000Y-78875000D02*
X108175000Y-74250000D01*
X110300000Y-81000000D02*
X108175000Y-78875000D01*
X110300000Y-83450000D02*
X110300000Y-81000000D01*
X113100000Y-85800000D02*
X113100000Y-85400000D01*
X113050000Y-85350000D02*
X112750000Y-85350000D01*
D38*
X75900000Y-66600000D02*
X76100000Y-66600000D01*
X76100000Y-66600000D02*
X73700000Y-67700000D01*
X73700000Y-85580000D02*
X71780000Y-87500000D01*
X73700000Y-67700000D02*
X73700000Y-85580000D01*
D39*
X75900000Y-66600000D02*
X73720000Y-66500000D01*
X73720000Y-66500000D02*
X73620000Y-66600000D01*
D37*
X124600000Y-67056000D02*
X124714000Y-67056000D01*
X125730000Y-86360000D02*
X124968000Y-87122000D01*
X125730000Y-68072000D02*
X125730000Y-86360000D01*
X124714000Y-67056000D02*
X125730000Y-68072000D01*
X124600000Y-65278000D02*
X124600000Y-67056000D01*
X123952000Y-88138000D02*
X123952000Y-88168000D01*
X124968000Y-87122000D02*
X123952000Y-88138000D01*
X121570000Y-94070000D02*
X121570000Y-104040000D01*
X123952000Y-88168000D02*
X123080000Y-89040000D01*
X123080000Y-89040000D02*
X123080000Y-90380000D01*
X123080000Y-90380000D02*
X122160000Y-91300000D01*
X122160000Y-91300000D02*
X122160000Y-93480000D01*
X122160000Y-93480000D02*
X121570000Y-94070000D01*
X121570000Y-103630000D02*
X121570000Y-104040000D01*
X121570000Y-104040000D02*
X121570000Y-104630000D01*
X113770000Y-109280000D02*
X113770000Y-109380000D01*
X100300000Y-112450000D02*
X110700000Y-112450000D01*
X110700000Y-112450000D02*
X113770000Y-109380000D01*
X100300000Y-112450000D02*
X98400000Y-112450000D01*
X98400000Y-112450000D02*
X97500000Y-112450000D01*
X97500000Y-112450000D02*
X95400000Y-112450000D01*
X120920000Y-105280000D02*
X117770000Y-105280000D01*
X117770000Y-105280000D02*
X113770000Y-109280000D01*
X121570000Y-104630000D02*
X120920000Y-105280000D01*
X95400000Y-112450000D02*
X94650000Y-112450000D01*
X89450000Y-105450000D02*
X88350000Y-105450000D01*
X93500000Y-109500000D02*
X89450000Y-105450000D01*
X93500000Y-111300000D02*
X93500000Y-109500000D01*
X94650000Y-112450000D02*
X93500000Y-111300000D01*
X95400000Y-112450000D02*
X95200000Y-112450000D01*
X124600000Y-58800000D02*
X123300000Y-57500000D01*
X124600000Y-66500000D02*
X124600000Y-66430000D01*
X124600000Y-66430000D02*
X124600000Y-65278000D01*
X124600000Y-65278000D02*
X124600000Y-58800000D01*
X70610000Y-102110000D02*
X68050000Y-101900000D01*
X68050000Y-101900000D02*
X66300000Y-100950000D01*
X66300000Y-100950000D02*
X66300000Y-88150000D01*
X66300000Y-88150000D02*
X71780000Y-82870000D01*
X70610000Y-105500000D02*
X70610000Y-102110000D01*
X71780000Y-82870000D02*
X71780000Y-82420000D01*
X80730000Y-105450000D02*
X78280000Y-105550000D01*
X78280000Y-105550000D02*
X78230000Y-105500000D01*
X78230000Y-102110000D02*
X77610000Y-102110000D01*
X77610000Y-102110000D02*
X74400000Y-99700000D01*
X81100000Y-80950000D02*
X80030000Y-79880000D01*
X81100000Y-82600000D02*
X81100000Y-80950000D01*
X79950000Y-83750000D02*
X81100000Y-82600000D01*
X78250000Y-83750000D02*
X79950000Y-83750000D01*
X76200000Y-85800000D02*
X78250000Y-83750000D01*
X76200000Y-92550000D02*
X76200000Y-85800000D01*
X74400000Y-94350000D02*
X76200000Y-92550000D01*
X74400000Y-99700000D02*
X74400000Y-94350000D01*
X80030000Y-79880000D02*
X79400000Y-79880000D01*
X78180000Y-108570000D02*
X77910000Y-105820000D01*
X77910000Y-105820000D02*
X78230000Y-105500000D01*
X78230000Y-102110000D02*
X78080000Y-105350000D01*
X78080000Y-105350000D02*
X78230000Y-105500000D01*
X77960000Y-101840000D02*
X78230000Y-102110000D01*
X78280000Y-102060000D02*
X78230000Y-102110000D01*
X78230000Y-102110000D02*
X78210000Y-102110000D01*
X80080000Y-79880000D02*
X79400000Y-79880000D01*
X78230000Y-105500000D02*
X78230000Y-106180000D01*
X78230000Y-105500000D02*
X78210000Y-105500000D01*
X78430000Y-102310000D02*
X78230000Y-102110000D01*
D40*
X51780000Y-48330000D02*
X54430000Y-48330000D01*
X56300000Y-50200000D02*
X56300000Y-54600000D01*
X54430000Y-48330000D02*
X56300000Y-50200000D01*
X56300000Y-54600000D02*
X56500000Y-54800000D01*
X51780000Y-48330000D02*
X51780000Y-51280000D01*
D39*
X51780000Y-51280000D02*
X54550000Y-51280000D01*
X56500000Y-53230000D02*
X56500000Y-54800000D01*
X54550000Y-51280000D02*
X56500000Y-53230000D01*
X52150000Y-65510000D02*
X54690000Y-65510000D01*
X56500000Y-63700000D02*
X56500000Y-54800000D01*
X54690000Y-65510000D02*
X56500000Y-63700000D01*
D37*
X70560000Y-108570000D02*
X70030000Y-108820000D01*
X65550000Y-87930000D02*
X65000000Y-87180000D01*
X65550000Y-102100000D02*
X65550000Y-87930000D01*
X68580000Y-104480000D02*
X65550000Y-102100000D01*
X68580000Y-107780000D02*
X68580000Y-104480000D01*
X70030000Y-108820000D02*
X68580000Y-107780000D01*
X64320000Y-87180000D02*
X65000000Y-87180000D01*
X71550000Y-95300000D02*
X71550000Y-95200000D01*
X71550000Y-95200000D02*
X74700000Y-92650000D01*
X76230000Y-82420000D02*
X79400000Y-82420000D01*
X74700000Y-83950000D02*
X76230000Y-82420000D01*
X74700000Y-92650000D02*
X74700000Y-83950000D01*
X70630000Y-98750000D02*
X71230000Y-95620000D01*
X71550000Y-95300000D02*
X69900000Y-95300000D01*
X69900000Y-95300000D02*
X68700000Y-95900000D01*
X79020000Y-82800000D02*
X79400000Y-82420000D01*
X71230000Y-95620000D02*
X71550000Y-95300000D01*
X71930000Y-95680000D02*
X71550000Y-95300000D01*
X71550000Y-95300000D02*
X71630000Y-95300000D01*
X79400000Y-82420000D02*
X79460000Y-82420000D01*
X78980000Y-82420000D02*
X79400000Y-82420000D01*
X70820000Y-100320000D02*
X68370000Y-100320000D01*
X68200000Y-100150000D02*
X67150002Y-99100002D01*
X67150002Y-99100002D02*
X67150002Y-97850000D01*
X68370000Y-100320000D02*
X68200000Y-100150000D01*
X72350000Y-101850000D02*
X70820000Y-100320000D01*
X70820000Y-100320000D02*
X70800000Y-100300000D01*
X72350000Y-109850000D02*
X72350000Y-101850000D01*
X74400000Y-111900000D02*
X72350000Y-109850000D01*
X89050000Y-111900000D02*
X74400000Y-111900000D01*
X90400000Y-110550000D02*
X89050000Y-111900000D01*
X67150002Y-93349998D02*
X67150002Y-97850000D01*
X68700000Y-91400000D02*
X67150002Y-93349998D01*
X90400000Y-109750000D02*
X90400000Y-110550000D01*
X67150002Y-97850000D02*
X67150002Y-98000002D01*
X68700000Y-90900000D02*
X68700000Y-91400000D01*
X71330000Y-91850000D02*
X71100000Y-92000000D01*
X71100000Y-92000000D02*
X70100000Y-91000000D01*
X68700000Y-90900000D02*
X69200000Y-86900000D01*
X69200000Y-86900000D02*
X71140000Y-84960000D01*
X71140000Y-84960000D02*
X71780000Y-84960000D01*
X70100000Y-91000000D02*
X68700000Y-90900000D01*
X71340000Y-84960000D02*
X71780000Y-84960000D01*
D40*
X51780000Y-43330000D02*
X51780000Y-40380000D01*
X54120000Y-35090000D02*
X54120000Y-38040000D01*
X54120000Y-38040000D02*
X51780000Y-40380000D01*
D39*
X56500000Y-42100000D02*
X56500000Y-41360000D01*
X56500000Y-41360000D02*
X55520000Y-40380000D01*
X55520000Y-40380000D02*
X51780000Y-40380000D01*
D40*
X59290000Y-31800000D02*
X59290000Y-34920000D01*
X59290000Y-34920000D02*
X59120000Y-35090000D01*
D37*
X65000000Y-84640000D02*
X61380000Y-84640000D01*
X61380000Y-84640000D02*
X61300000Y-84720000D01*
X106550000Y-94570000D02*
X106550000Y-94750000D01*
X106550000Y-94750000D02*
X109150000Y-97350000D01*
X95480000Y-95520000D02*
X95480000Y-94220000D01*
X104680000Y-92700000D02*
X106550000Y-94570000D01*
X97000000Y-92700000D02*
X104680000Y-92700000D01*
X95480000Y-94220000D02*
X97000000Y-92700000D01*
X95480000Y-95520000D02*
X95480000Y-94920000D01*
X95480000Y-94770000D02*
X95480000Y-95520000D01*
X95280000Y-98650000D02*
X95280000Y-100920000D01*
X95280000Y-100920000D02*
X94300000Y-101900000D01*
X95280000Y-98650000D02*
X92620000Y-98650000D01*
X95280000Y-98650000D02*
X95750000Y-98650000D01*
X95750000Y-98650000D02*
X98020000Y-96380000D01*
X98020000Y-96380000D02*
X98020000Y-95520000D01*
X100020000Y-105200000D02*
X100020000Y-107750000D01*
X100020000Y-107750000D02*
X98020000Y-109750000D01*
X99300000Y-101900000D02*
X99300000Y-104480000D01*
X99300000Y-104480000D02*
X100020000Y-105200000D01*
X102900000Y-98650000D02*
X102550000Y-98650000D01*
X102550000Y-98650000D02*
X99300000Y-101900000D01*
X99400000Y-101800000D02*
X99300000Y-101900000D01*
X100560000Y-95520000D02*
X100560000Y-97560000D01*
X101650000Y-98650000D02*
X102900000Y-98650000D01*
X100560000Y-97560000D02*
X101650000Y-98650000D01*
X100560000Y-95520000D02*
X100560000Y-94990000D01*
X98020000Y-109750000D02*
X97600000Y-109750000D01*
X100560000Y-95520000D02*
X100560000Y-95090000D01*
D39*
X102750000Y-50450000D02*
X102750000Y-43030000D01*
X102750000Y-43030000D02*
X102520000Y-42800000D01*
X107830000Y-50450000D02*
X107830000Y-45970000D01*
X112640000Y-41160000D02*
X112640000Y-33900000D01*
X107830000Y-45970000D02*
X112640000Y-41160000D01*
D40*
X51780000Y-45830000D02*
X48120000Y-45830000D01*
X51670000Y-35080000D02*
X51670000Y-31800000D01*
X47550000Y-39200000D02*
X51670000Y-35080000D01*
X47550000Y-45260000D02*
X47550000Y-39200000D01*
X48120000Y-45830000D02*
X47550000Y-45260000D01*
D39*
X51780000Y-45830000D02*
X48770000Y-45830000D01*
X48780000Y-58050000D02*
X48780000Y-62970000D01*
X47110000Y-56380000D02*
X48780000Y-58050000D01*
X47110000Y-47490000D02*
X47110000Y-56380000D01*
X48770000Y-45830000D02*
X47110000Y-47490000D01*
X52150000Y-62970000D02*
X48780000Y-62970000D01*
X48780000Y-62970000D02*
X48630000Y-62970000D01*
X51080000Y-76030000D02*
X53000000Y-76030000D01*
X48730000Y-73680000D02*
X51080000Y-76030000D01*
X48730000Y-63070000D02*
X48730000Y-73680000D01*
X48630000Y-62970000D02*
X48730000Y-63070000D01*
X61300000Y-77100000D02*
X58500000Y-77100000D01*
X58500000Y-77100000D02*
X57750000Y-77850000D01*
X53000000Y-76030000D02*
X53980000Y-76030000D01*
X53980000Y-76030000D02*
X57750000Y-77850000D01*
X57750000Y-77850000D02*
X57750000Y-85900000D01*
X108660000Y-37640000D02*
X108660000Y-40840000D01*
X108660000Y-40840000D02*
X108600000Y-40900000D01*
X110100000Y-33900000D02*
X110100000Y-36200000D01*
X110100000Y-36200000D02*
X108660000Y-37640000D01*
D40*
X108680000Y-40820000D02*
X108600000Y-40900000D01*
D37*
X131290000Y-102260000D02*
X131290000Y-98130000D01*
X131290000Y-98130000D02*
X131230000Y-98070000D01*
X134425000Y-96195000D02*
X133105000Y-96195000D01*
X133105000Y-96195000D02*
X131230000Y-98070000D01*
X97560000Y-125200000D02*
X97560000Y-124690000D01*
X97560000Y-124690000D02*
X98552000Y-123698000D01*
X103124000Y-123698000D02*
X104490000Y-125064000D01*
X98552000Y-123698000D02*
X103124000Y-123698000D01*
X104490000Y-125064000D02*
X104490000Y-125210000D01*
X97560000Y-125200000D02*
X97560000Y-124720000D01*
X104082000Y-124802000D02*
X104490000Y-125210000D01*
X104490000Y-125210000D02*
X104374000Y-125210000D01*
X97560000Y-124850000D02*
X97560000Y-125200000D01*
X99620000Y-119400000D02*
X99620000Y-119500000D01*
X99620000Y-119500000D02*
X95020000Y-124100000D01*
X95020000Y-124100000D02*
X95020000Y-125200000D01*
X99620000Y-119400000D02*
X99620000Y-119570000D01*
X95020000Y-124680000D02*
X95020000Y-125200000D01*
X118220000Y-65120000D02*
X118220000Y-66772000D01*
X118220000Y-66772000D02*
X116412000Y-68580000D01*
D38*
G36*
X48450000Y-111900000D02*
X49768500Y-111900000D01*
X49818500Y-111850000D01*
X57851852Y-111850000D01*
X59982144Y-113980292D01*
X60034707Y-117870000D01*
X59522500Y-117870000D01*
X59522500Y-117475000D01*
X58516500Y-117475000D01*
X58347105Y-117730457D01*
X58538774Y-118250000D01*
X57716177Y-118250000D01*
X57945808Y-117743564D01*
X57797120Y-117475000D01*
X56760000Y-117475000D01*
X56760000Y-117870000D01*
X55760000Y-117870000D01*
X55760000Y-117475000D01*
X54722880Y-117475000D01*
X54574192Y-117743564D01*
X54803823Y-118250000D01*
X53385611Y-118250000D01*
X53378354Y-118245151D01*
X52900000Y-118150001D01*
X52421646Y-118245151D01*
X52145250Y-118429832D01*
X51504914Y-118750000D01*
X49712723Y-118750000D01*
X49949608Y-118179516D01*
X49950390Y-117284411D01*
X49608569Y-116457142D01*
X48976187Y-115823655D01*
X48149516Y-115480392D01*
X47750000Y-115480043D01*
X47750000Y-115456436D01*
X54574192Y-115456436D01*
X54722880Y-115725000D01*
X55760000Y-115725000D01*
X55760000Y-114363328D01*
X56760000Y-114363328D01*
X56760000Y-115725000D01*
X57797120Y-115725000D01*
X57938551Y-115469543D01*
X58347105Y-115469543D01*
X58516500Y-115725000D01*
X59522500Y-115725000D01*
X59522500Y-114349396D01*
X59281768Y-114239507D01*
X59000146Y-114403875D01*
X58567638Y-114871760D01*
X58347105Y-115469543D01*
X57938551Y-115469543D01*
X57945808Y-115456436D01*
X57666873Y-114841263D01*
X57173754Y-114379662D01*
X57017498Y-114263570D01*
X56760000Y-114363328D01*
X55760000Y-114363328D01*
X55502502Y-114263570D01*
X55346246Y-114379662D01*
X54853127Y-114841263D01*
X54574192Y-115456436D01*
X47750000Y-115456436D01*
X47750000Y-114908000D01*
X49350775Y-114908000D01*
X49629372Y-114792602D01*
X49842601Y-114579373D01*
X49958000Y-114300776D01*
X49958000Y-113589500D01*
X49768500Y-113400000D01*
X48450000Y-113400000D01*
X48450000Y-113920000D01*
X47750000Y-113920000D01*
X47750000Y-111850000D01*
X48450000Y-111850000D01*
X48450000Y-111900000D01*
X48450000Y-111900000D01*
G37*
X48450000Y-111900000D02*
X49768500Y-111900000D01*
X49818500Y-111850000D01*
X57851852Y-111850000D01*
X59982144Y-113980292D01*
X60034707Y-117870000D01*
X59522500Y-117870000D01*
X59522500Y-117475000D01*
X58516500Y-117475000D01*
X58347105Y-117730457D01*
X58538774Y-118250000D01*
X57716177Y-118250000D01*
X57945808Y-117743564D01*
X57797120Y-117475000D01*
X56760000Y-117475000D01*
X56760000Y-117870000D01*
X55760000Y-117870000D01*
X55760000Y-117475000D01*
X54722880Y-117475000D01*
X54574192Y-117743564D01*
X54803823Y-118250000D01*
X53385611Y-118250000D01*
X53378354Y-118245151D01*
X52900000Y-118150001D01*
X52421646Y-118245151D01*
X52145250Y-118429832D01*
X51504914Y-118750000D01*
X49712723Y-118750000D01*
X49949608Y-118179516D01*
X49950390Y-117284411D01*
X49608569Y-116457142D01*
X48976187Y-115823655D01*
X48149516Y-115480392D01*
X47750000Y-115480043D01*
X47750000Y-115456436D01*
X54574192Y-115456436D01*
X54722880Y-115725000D01*
X55760000Y-115725000D01*
X55760000Y-114363328D01*
X56760000Y-114363328D01*
X56760000Y-115725000D01*
X57797120Y-115725000D01*
X57938551Y-115469543D01*
X58347105Y-115469543D01*
X58516500Y-115725000D01*
X59522500Y-115725000D01*
X59522500Y-114349396D01*
X59281768Y-114239507D01*
X59000146Y-114403875D01*
X58567638Y-114871760D01*
X58347105Y-115469543D01*
X57938551Y-115469543D01*
X57945808Y-115456436D01*
X57666873Y-114841263D01*
X57173754Y-114379662D01*
X57017498Y-114263570D01*
X56760000Y-114363328D01*
X55760000Y-114363328D01*
X55502502Y-114263570D01*
X55346246Y-114379662D01*
X54853127Y-114841263D01*
X54574192Y-115456436D01*
X47750000Y-115456436D01*
X47750000Y-114908000D01*
X49350775Y-114908000D01*
X49629372Y-114792602D01*
X49842601Y-114579373D01*
X49958000Y-114300776D01*
X49958000Y-113589500D01*
X49768500Y-113400000D01*
X48450000Y-113400000D01*
X48450000Y-113920000D01*
X47750000Y-113920000D01*
X47750000Y-111850000D01*
X48450000Y-111850000D01*
X48450000Y-111900000D01*
G36*
X58646323Y-89914093D02*
X59098874Y-90366643D01*
X59171154Y-90730017D01*
X59419195Y-90815119D01*
X60084315Y-90150000D01*
X59801472Y-89867157D01*
X60318629Y-89350000D01*
X60415685Y-89350000D01*
X60650000Y-89584315D01*
X60884315Y-89350000D01*
X60981371Y-89350000D01*
X61350000Y-89718629D01*
X61350000Y-90015685D01*
X61215685Y-90150000D01*
X61350000Y-90284315D01*
X61350000Y-90581371D01*
X60932843Y-90998528D01*
X60650000Y-90715685D01*
X59984881Y-91380805D01*
X60069983Y-91628846D01*
X60424677Y-91692446D01*
X60885907Y-92153677D01*
X61350000Y-91689584D01*
X61350000Y-93762350D01*
X60959667Y-93600270D01*
X60343039Y-93599732D01*
X59773143Y-93835208D01*
X59336740Y-94270849D01*
X59100270Y-94840333D01*
X59099732Y-95456961D01*
X59335208Y-96026857D01*
X59770849Y-96463260D01*
X60340333Y-96699730D01*
X60956961Y-96700268D01*
X61350000Y-96537868D01*
X61350000Y-99249903D01*
X61014411Y-99249610D01*
X60187142Y-99591431D01*
X59553655Y-100223813D01*
X59210392Y-101050484D01*
X59209610Y-101945589D01*
X59551431Y-102772858D01*
X60183813Y-103406345D01*
X61010484Y-103749608D01*
X61905589Y-103750390D01*
X62732858Y-103408569D01*
X63366345Y-102776187D01*
X63460266Y-102550000D01*
X64096446Y-102550000D01*
X65750000Y-104203554D01*
X65750000Y-110300000D01*
X65769696Y-110397264D01*
X65825682Y-110479202D01*
X65909136Y-110532903D01*
X66000000Y-110550000D01*
X69650000Y-110550000D01*
X69650000Y-116850000D01*
X62835000Y-116850000D01*
X62835000Y-115725000D01*
X63272500Y-115725000D01*
X63272500Y-114349396D01*
X64147500Y-114349396D01*
X64147500Y-115725000D01*
X65153500Y-115725000D01*
X65322895Y-115469543D01*
X65318060Y-115456436D01*
X65974192Y-115456436D01*
X66122880Y-115725000D01*
X67160000Y-115725000D01*
X67160000Y-114363328D01*
X68160000Y-114363328D01*
X68160000Y-115725000D01*
X69197120Y-115725000D01*
X69345808Y-115456436D01*
X69066873Y-114841263D01*
X68573754Y-114379662D01*
X68417498Y-114263570D01*
X68160000Y-114363328D01*
X67160000Y-114363328D01*
X66902502Y-114263570D01*
X66746246Y-114379662D01*
X66253127Y-114841263D01*
X65974192Y-115456436D01*
X65318060Y-115456436D01*
X65102362Y-114871760D01*
X64669854Y-114403875D01*
X64388232Y-114239507D01*
X64147500Y-114349396D01*
X63272500Y-114349396D01*
X63031768Y-114239507D01*
X62750146Y-114403875D01*
X62700000Y-114458123D01*
X62700000Y-114390000D01*
X62623880Y-114007317D01*
X62550000Y-113896748D01*
X62550000Y-111258000D01*
X63110775Y-111258000D01*
X63389372Y-111142602D01*
X63602601Y-110929373D01*
X63718000Y-110650776D01*
X63718000Y-109939500D01*
X63528500Y-109750000D01*
X62210000Y-109750000D01*
X62210000Y-109856446D01*
X61276777Y-108923223D01*
X61194073Y-108868375D01*
X61100000Y-108850000D01*
X60190000Y-108850000D01*
X60190000Y-108250000D01*
X60710000Y-108250000D01*
X60710000Y-106931500D01*
X62210000Y-106931500D01*
X62210000Y-108250000D01*
X63528500Y-108250000D01*
X63718000Y-108060500D01*
X63718000Y-107349224D01*
X63602601Y-107070627D01*
X63389372Y-106857398D01*
X63110775Y-106742000D01*
X62399500Y-106742000D01*
X62210000Y-106931500D01*
X60710000Y-106931500D01*
X60520500Y-106742000D01*
X59809225Y-106742000D01*
X59530628Y-106857398D01*
X59317399Y-107070627D01*
X59202000Y-107349224D01*
X59202000Y-108850000D01*
X57468148Y-108850000D01*
X56964074Y-108345926D01*
X56663983Y-108145411D01*
X56310000Y-108075000D01*
X54952347Y-108075000D01*
X54608354Y-107845151D01*
X54130000Y-107750000D01*
X53358000Y-107750000D01*
X53358000Y-107589500D01*
X53168500Y-107400000D01*
X52050000Y-107400000D01*
X52050000Y-107750000D01*
X50950000Y-107750000D01*
X50950000Y-107400000D01*
X49831500Y-107400000D01*
X49642000Y-107589500D01*
X49642000Y-107750000D01*
X46017767Y-107750000D01*
X44850000Y-106582234D01*
X44850000Y-105599224D01*
X49642000Y-105599224D01*
X49642000Y-106110500D01*
X49831500Y-106300000D01*
X50950000Y-106300000D01*
X50950000Y-105181500D01*
X52050000Y-105181500D01*
X52050000Y-106300000D01*
X53168500Y-106300000D01*
X53358000Y-106110500D01*
X53358000Y-105599224D01*
X53242601Y-105320627D01*
X53029372Y-105107398D01*
X52750775Y-104992000D01*
X52239500Y-104992000D01*
X52050000Y-105181500D01*
X50950000Y-105181500D01*
X50760500Y-104992000D01*
X50249225Y-104992000D01*
X49970628Y-105107398D01*
X49757399Y-105320627D01*
X49642000Y-105599224D01*
X44850000Y-105599224D01*
X44850000Y-102139500D01*
X45242000Y-102139500D01*
X45242000Y-102550776D01*
X45357399Y-102829373D01*
X45570628Y-103042602D01*
X45849225Y-103158000D01*
X46260500Y-103158000D01*
X46450000Y-102968500D01*
X46450000Y-101950000D01*
X47350000Y-101950000D01*
X47350000Y-102968500D01*
X47539500Y-103158000D01*
X47950775Y-103158000D01*
X48229372Y-103042602D01*
X48442601Y-102829373D01*
X48558000Y-102550776D01*
X48558000Y-102139500D01*
X48368500Y-101950000D01*
X47350000Y-101950000D01*
X46450000Y-101950000D01*
X45431500Y-101950000D01*
X45242000Y-102139500D01*
X44850000Y-102139500D01*
X44850000Y-98517766D01*
X45697767Y-97670000D01*
X45809525Y-97670000D01*
X45839457Y-97690000D01*
X45733274Y-97760949D01*
X45375599Y-98296247D01*
X45250000Y-98927675D01*
X45250000Y-98992325D01*
X45375599Y-99623753D01*
X45592484Y-99948345D01*
X45570628Y-99957398D01*
X45357399Y-100170627D01*
X45242000Y-100449224D01*
X45242000Y-100860500D01*
X45431500Y-101050000D01*
X46450000Y-101050000D01*
X46450000Y-100600000D01*
X46687219Y-100600000D01*
X46900000Y-100642325D01*
X47112781Y-100600000D01*
X47350000Y-100600000D01*
X47350000Y-101050000D01*
X48368500Y-101050000D01*
X48558000Y-100860500D01*
X48558000Y-100449224D01*
X48442601Y-100170627D01*
X48229372Y-99957398D01*
X48207516Y-99948345D01*
X48424401Y-99623753D01*
X48550000Y-98992325D01*
X48550000Y-98927675D01*
X48424401Y-98296247D01*
X48066726Y-97760949D01*
X47960543Y-97690000D01*
X47990475Y-97670000D01*
X48795331Y-97670000D01*
X49384726Y-99595813D01*
X49413357Y-99649060D01*
X49425151Y-99708354D01*
X49528017Y-99862304D01*
X49615702Y-100025379D01*
X49662530Y-100063616D01*
X49696117Y-100113883D01*
X49850068Y-100216750D01*
X49993483Y-100333855D01*
X50040595Y-100348019D01*
X50191852Y-100574392D01*
X50792036Y-100975421D01*
X51500000Y-101116244D01*
X52207964Y-100975421D01*
X52808148Y-100574392D01*
X53209177Y-99974208D01*
X53350000Y-99266244D01*
X53350000Y-99193756D01*
X53209177Y-98485792D01*
X53110343Y-98337877D01*
X53138928Y-98341518D01*
X53633768Y-98243089D01*
X53780879Y-97979407D01*
X53000000Y-97198528D01*
X52575736Y-97622792D01*
X51727208Y-96774264D01*
X52151472Y-96350000D01*
X53848528Y-96350000D01*
X54629407Y-97130879D01*
X54893089Y-96983768D01*
X54991518Y-96211072D01*
X54893089Y-95716232D01*
X54629407Y-95569121D01*
X53848528Y-96350000D01*
X52151472Y-96350000D01*
X51370593Y-95569121D01*
X51106911Y-95716232D01*
X51020192Y-96397001D01*
X50915274Y-96054187D01*
X50886643Y-96000940D01*
X50874849Y-95941646D01*
X50771983Y-95787696D01*
X50684298Y-95624621D01*
X50637470Y-95586384D01*
X50603883Y-95536117D01*
X50449932Y-95433250D01*
X50306517Y-95316145D01*
X50248622Y-95298739D01*
X50198354Y-95265151D01*
X50016757Y-95229029D01*
X49839444Y-95175720D01*
X49779295Y-95181794D01*
X49720000Y-95170000D01*
X48150000Y-95170000D01*
X48150000Y-94720593D01*
X52219121Y-94720593D01*
X53000000Y-95501472D01*
X53780879Y-94720593D01*
X53633768Y-94456911D01*
X52861072Y-94358482D01*
X52366232Y-94456911D01*
X52219121Y-94720593D01*
X48150000Y-94720593D01*
X48150000Y-89350000D01*
X59210416Y-89350000D01*
X58646323Y-89914093D01*
X58646323Y-89914093D01*
G37*
X58646323Y-89914093D02*
X59098874Y-90366643D01*
X59171154Y-90730017D01*
X59419195Y-90815119D01*
X60084315Y-90150000D01*
X59801472Y-89867157D01*
X60318629Y-89350000D01*
X60415685Y-89350000D01*
X60650000Y-89584315D01*
X60884315Y-89350000D01*
X60981371Y-89350000D01*
X61350000Y-89718629D01*
X61350000Y-90015685D01*
X61215685Y-90150000D01*
X61350000Y-90284315D01*
X61350000Y-90581371D01*
X60932843Y-90998528D01*
X60650000Y-90715685D01*
X59984881Y-91380805D01*
X60069983Y-91628846D01*
X60424677Y-91692446D01*
X60885907Y-92153677D01*
X61350000Y-91689584D01*
X61350000Y-93762350D01*
X60959667Y-93600270D01*
X60343039Y-93599732D01*
X59773143Y-93835208D01*
X59336740Y-94270849D01*
X59100270Y-94840333D01*
X59099732Y-95456961D01*
X59335208Y-96026857D01*
X59770849Y-96463260D01*
X60340333Y-96699730D01*
X60956961Y-96700268D01*
X61350000Y-96537868D01*
X61350000Y-99249903D01*
X61014411Y-99249610D01*
X60187142Y-99591431D01*
X59553655Y-100223813D01*
X59210392Y-101050484D01*
X59209610Y-101945589D01*
X59551431Y-102772858D01*
X60183813Y-103406345D01*
X61010484Y-103749608D01*
X61905589Y-103750390D01*
X62732858Y-103408569D01*
X63366345Y-102776187D01*
X63460266Y-102550000D01*
X64096446Y-102550000D01*
X65750000Y-104203554D01*
X65750000Y-110300000D01*
X65769696Y-110397264D01*
X65825682Y-110479202D01*
X65909136Y-110532903D01*
X66000000Y-110550000D01*
X69650000Y-110550000D01*
X69650000Y-116850000D01*
X62835000Y-116850000D01*
X62835000Y-115725000D01*
X63272500Y-115725000D01*
X63272500Y-114349396D01*
X64147500Y-114349396D01*
X64147500Y-115725000D01*
X65153500Y-115725000D01*
X65322895Y-115469543D01*
X65318060Y-115456436D01*
X65974192Y-115456436D01*
X66122880Y-115725000D01*
X67160000Y-115725000D01*
X67160000Y-114363328D01*
X68160000Y-114363328D01*
X68160000Y-115725000D01*
X69197120Y-115725000D01*
X69345808Y-115456436D01*
X69066873Y-114841263D01*
X68573754Y-114379662D01*
X68417498Y-114263570D01*
X68160000Y-114363328D01*
X67160000Y-114363328D01*
X66902502Y-114263570D01*
X66746246Y-114379662D01*
X66253127Y-114841263D01*
X65974192Y-115456436D01*
X65318060Y-115456436D01*
X65102362Y-114871760D01*
X64669854Y-114403875D01*
X64388232Y-114239507D01*
X64147500Y-114349396D01*
X63272500Y-114349396D01*
X63031768Y-114239507D01*
X62750146Y-114403875D01*
X62700000Y-114458123D01*
X62700000Y-114390000D01*
X62623880Y-114007317D01*
X62550000Y-113896748D01*
X62550000Y-111258000D01*
X63110775Y-111258000D01*
X63389372Y-111142602D01*
X63602601Y-110929373D01*
X63718000Y-110650776D01*
X63718000Y-109939500D01*
X63528500Y-109750000D01*
X62210000Y-109750000D01*
X62210000Y-109856446D01*
X61276777Y-108923223D01*
X61194073Y-108868375D01*
X61100000Y-108850000D01*
X60190000Y-108850000D01*
X60190000Y-108250000D01*
X60710000Y-108250000D01*
X60710000Y-106931500D01*
X62210000Y-106931500D01*
X62210000Y-108250000D01*
X63528500Y-108250000D01*
X63718000Y-108060500D01*
X63718000Y-107349224D01*
X63602601Y-107070627D01*
X63389372Y-106857398D01*
X63110775Y-106742000D01*
X62399500Y-106742000D01*
X62210000Y-106931500D01*
X60710000Y-106931500D01*
X60520500Y-106742000D01*
X59809225Y-106742000D01*
X59530628Y-106857398D01*
X59317399Y-107070627D01*
X59202000Y-107349224D01*
X59202000Y-108850000D01*
X57468148Y-108850000D01*
X56964074Y-108345926D01*
X56663983Y-108145411D01*
X56310000Y-108075000D01*
X54952347Y-108075000D01*
X54608354Y-107845151D01*
X54130000Y-107750000D01*
X53358000Y-107750000D01*
X53358000Y-107589500D01*
X53168500Y-107400000D01*
X52050000Y-107400000D01*
X52050000Y-107750000D01*
X50950000Y-107750000D01*
X50950000Y-107400000D01*
X49831500Y-107400000D01*
X49642000Y-107589500D01*
X49642000Y-107750000D01*
X46017767Y-107750000D01*
X44850000Y-106582234D01*
X44850000Y-105599224D01*
X49642000Y-105599224D01*
X49642000Y-106110500D01*
X49831500Y-106300000D01*
X50950000Y-106300000D01*
X50950000Y-105181500D01*
X52050000Y-105181500D01*
X52050000Y-106300000D01*
X53168500Y-106300000D01*
X53358000Y-106110500D01*
X53358000Y-105599224D01*
X53242601Y-105320627D01*
X53029372Y-105107398D01*
X52750775Y-104992000D01*
X52239500Y-104992000D01*
X52050000Y-105181500D01*
X50950000Y-105181500D01*
X50760500Y-104992000D01*
X50249225Y-104992000D01*
X49970628Y-105107398D01*
X49757399Y-105320627D01*
X49642000Y-105599224D01*
X44850000Y-105599224D01*
X44850000Y-102139500D01*
X45242000Y-102139500D01*
X45242000Y-102550776D01*
X45357399Y-102829373D01*
X45570628Y-103042602D01*
X45849225Y-103158000D01*
X46260500Y-103158000D01*
X46450000Y-102968500D01*
X46450000Y-101950000D01*
X47350000Y-101950000D01*
X47350000Y-102968500D01*
X47539500Y-103158000D01*
X47950775Y-103158000D01*
X48229372Y-103042602D01*
X48442601Y-102829373D01*
X48558000Y-102550776D01*
X48558000Y-102139500D01*
X48368500Y-101950000D01*
X47350000Y-101950000D01*
X46450000Y-101950000D01*
X45431500Y-101950000D01*
X45242000Y-102139500D01*
X44850000Y-102139500D01*
X44850000Y-98517766D01*
X45697767Y-97670000D01*
X45809525Y-97670000D01*
X45839457Y-97690000D01*
X45733274Y-97760949D01*
X45375599Y-98296247D01*
X45250000Y-98927675D01*
X45250000Y-98992325D01*
X45375599Y-99623753D01*
X45592484Y-99948345D01*
X45570628Y-99957398D01*
X45357399Y-100170627D01*
X45242000Y-100449224D01*
X45242000Y-100860500D01*
X45431500Y-101050000D01*
X46450000Y-101050000D01*
X46450000Y-100600000D01*
X46687219Y-100600000D01*
X46900000Y-100642325D01*
X47112781Y-100600000D01*
X47350000Y-100600000D01*
X47350000Y-101050000D01*
X48368500Y-101050000D01*
X48558000Y-100860500D01*
X48558000Y-100449224D01*
X48442601Y-100170627D01*
X48229372Y-99957398D01*
X48207516Y-99948345D01*
X48424401Y-99623753D01*
X48550000Y-98992325D01*
X48550000Y-98927675D01*
X48424401Y-98296247D01*
X48066726Y-97760949D01*
X47960543Y-97690000D01*
X47990475Y-97670000D01*
X48795331Y-97670000D01*
X49384726Y-99595813D01*
X49413357Y-99649060D01*
X49425151Y-99708354D01*
X49528017Y-99862304D01*
X49615702Y-100025379D01*
X49662530Y-100063616D01*
X49696117Y-100113883D01*
X49850068Y-100216750D01*
X49993483Y-100333855D01*
X50040595Y-100348019D01*
X50191852Y-100574392D01*
X50792036Y-100975421D01*
X51500000Y-101116244D01*
X52207964Y-100975421D01*
X52808148Y-100574392D01*
X53209177Y-99974208D01*
X53350000Y-99266244D01*
X53350000Y-99193756D01*
X53209177Y-98485792D01*
X53110343Y-98337877D01*
X53138928Y-98341518D01*
X53633768Y-98243089D01*
X53780879Y-97979407D01*
X53000000Y-97198528D01*
X52575736Y-97622792D01*
X51727208Y-96774264D01*
X52151472Y-96350000D01*
X53848528Y-96350000D01*
X54629407Y-97130879D01*
X54893089Y-96983768D01*
X54991518Y-96211072D01*
X54893089Y-95716232D01*
X54629407Y-95569121D01*
X53848528Y-96350000D01*
X52151472Y-96350000D01*
X51370593Y-95569121D01*
X51106911Y-95716232D01*
X51020192Y-96397001D01*
X50915274Y-96054187D01*
X50886643Y-96000940D01*
X50874849Y-95941646D01*
X50771983Y-95787696D01*
X50684298Y-95624621D01*
X50637470Y-95586384D01*
X50603883Y-95536117D01*
X50449932Y-95433250D01*
X50306517Y-95316145D01*
X50248622Y-95298739D01*
X50198354Y-95265151D01*
X50016757Y-95229029D01*
X49839444Y-95175720D01*
X49779295Y-95181794D01*
X49720000Y-95170000D01*
X48150000Y-95170000D01*
X48150000Y-94720593D01*
X52219121Y-94720593D01*
X53000000Y-95501472D01*
X53780879Y-94720593D01*
X53633768Y-94456911D01*
X52861072Y-94358482D01*
X52366232Y-94456911D01*
X52219121Y-94720593D01*
X48150000Y-94720593D01*
X48150000Y-89350000D01*
X59210416Y-89350000D01*
X58646323Y-89914093D01*
G36*
X59963433Y-40409403D02*
X60100000Y-40450000D01*
X62728946Y-40450000D01*
X63450484Y-40749608D01*
X64292827Y-40750344D01*
X74030000Y-54061677D01*
X74030000Y-54458938D01*
X74011784Y-54367361D01*
X73736961Y-54173699D01*
X72870660Y-55040000D01*
X73736961Y-55906301D01*
X74011784Y-55712639D01*
X74030000Y-55531350D01*
X74030000Y-58033356D01*
X65502151Y-58148597D01*
X64320515Y-56966961D01*
X70943699Y-56966961D01*
X71137361Y-57241784D01*
X72031149Y-57331592D01*
X72482639Y-57241784D01*
X72676301Y-56966961D01*
X71810000Y-56100660D01*
X70943699Y-56966961D01*
X64320515Y-56966961D01*
X62614703Y-55261149D01*
X69518408Y-55261149D01*
X69608216Y-55712639D01*
X69883039Y-55906301D01*
X70749340Y-55040000D01*
X69883039Y-54173699D01*
X69608216Y-54367361D01*
X69518408Y-55261149D01*
X62614703Y-55261149D01*
X60910000Y-53556446D01*
X60910000Y-52300000D01*
X62410000Y-52300000D01*
X62410000Y-53618500D01*
X62599500Y-53808000D01*
X63310775Y-53808000D01*
X63589372Y-53692602D01*
X63802601Y-53479373D01*
X63918000Y-53200776D01*
X63918000Y-53113039D01*
X70943699Y-53113039D01*
X71810000Y-53979340D01*
X72676301Y-53113039D01*
X72482639Y-52838216D01*
X71588851Y-52748408D01*
X71137361Y-52838216D01*
X70943699Y-53113039D01*
X63918000Y-53113039D01*
X63918000Y-52489500D01*
X63728500Y-52300000D01*
X62410000Y-52300000D01*
X60910000Y-52300000D01*
X59653554Y-52300000D01*
X58150000Y-50796446D01*
X58150000Y-49899224D01*
X59402000Y-49899224D01*
X59402000Y-50610500D01*
X59591500Y-50800000D01*
X60910000Y-50800000D01*
X60910000Y-49481500D01*
X62410000Y-49481500D01*
X62410000Y-50800000D01*
X63728500Y-50800000D01*
X63918000Y-50610500D01*
X63918000Y-49899224D01*
X63802601Y-49620627D01*
X63589372Y-49407398D01*
X63310775Y-49292000D01*
X62599500Y-49292000D01*
X62410000Y-49481500D01*
X60910000Y-49481500D01*
X60720500Y-49292000D01*
X60009225Y-49292000D01*
X59730628Y-49407398D01*
X59517399Y-49620627D01*
X59402000Y-49899224D01*
X58150000Y-49899224D01*
X58150000Y-47200000D01*
X58130304Y-47102736D01*
X58076777Y-47023223D01*
X55076777Y-44023223D01*
X54994073Y-43968375D01*
X54871125Y-43951673D01*
X53656869Y-44092866D01*
X53438000Y-44049330D01*
X53438000Y-43919500D01*
X53248500Y-43730000D01*
X52230000Y-43730000D01*
X52230000Y-43955000D01*
X51330000Y-43955000D01*
X51330000Y-43730000D01*
X50880000Y-43730000D01*
X50880000Y-42930000D01*
X51330000Y-42930000D01*
X51330000Y-41961500D01*
X52230000Y-41961500D01*
X52230000Y-42930000D01*
X53248500Y-42930000D01*
X53438000Y-42740500D01*
X53438000Y-42730635D01*
X55075306Y-42730635D01*
X55425088Y-43227838D01*
X55869369Y-43524665D01*
X56100000Y-43408737D01*
X56100000Y-42500000D01*
X56900000Y-42500000D01*
X56900000Y-43408737D01*
X57130631Y-43524665D01*
X57574912Y-43227838D01*
X57924694Y-42730635D01*
X57816307Y-42500000D01*
X56900000Y-42500000D01*
X56100000Y-42500000D01*
X55183693Y-42500000D01*
X55075306Y-42730635D01*
X53438000Y-42730635D01*
X53438000Y-42379224D01*
X53356304Y-42181993D01*
X53888865Y-41985521D01*
X54428379Y-41486799D01*
X54438933Y-41469365D01*
X55075306Y-41469365D01*
X55183693Y-41700000D01*
X56100000Y-41700000D01*
X56100000Y-40791263D01*
X56900000Y-40791263D01*
X56900000Y-41700000D01*
X57816307Y-41700000D01*
X57924694Y-41469365D01*
X57574912Y-40972162D01*
X57130631Y-40675335D01*
X56900000Y-40791263D01*
X56100000Y-40791263D01*
X55869369Y-40675335D01*
X55425088Y-40972162D01*
X55075306Y-41469365D01*
X54438933Y-41469365D01*
X54591902Y-41216691D01*
X54502353Y-40942500D01*
X52905000Y-40942500D01*
X52905000Y-41802745D01*
X52830775Y-41772000D01*
X52419500Y-41772000D01*
X52230000Y-41961500D01*
X51330000Y-41961500D01*
X51140500Y-41772000D01*
X50850000Y-41772000D01*
X50850000Y-39255000D01*
X52905000Y-39255000D01*
X52905000Y-39817500D01*
X54502353Y-39817500D01*
X54591902Y-39543309D01*
X54428379Y-39273201D01*
X54078742Y-38950000D01*
X57725682Y-38950000D01*
X59963433Y-40409403D01*
X59963433Y-40409403D01*
G37*
X59963433Y-40409403D02*
X60100000Y-40450000D01*
X62728946Y-40450000D01*
X63450484Y-40749608D01*
X64292827Y-40750344D01*
X74030000Y-54061677D01*
X74030000Y-54458938D01*
X74011784Y-54367361D01*
X73736961Y-54173699D01*
X72870660Y-55040000D01*
X73736961Y-55906301D01*
X74011784Y-55712639D01*
X74030000Y-55531350D01*
X74030000Y-58033356D01*
X65502151Y-58148597D01*
X64320515Y-56966961D01*
X70943699Y-56966961D01*
X71137361Y-57241784D01*
X72031149Y-57331592D01*
X72482639Y-57241784D01*
X72676301Y-56966961D01*
X71810000Y-56100660D01*
X70943699Y-56966961D01*
X64320515Y-56966961D01*
X62614703Y-55261149D01*
X69518408Y-55261149D01*
X69608216Y-55712639D01*
X69883039Y-55906301D01*
X70749340Y-55040000D01*
X69883039Y-54173699D01*
X69608216Y-54367361D01*
X69518408Y-55261149D01*
X62614703Y-55261149D01*
X60910000Y-53556446D01*
X60910000Y-52300000D01*
X62410000Y-52300000D01*
X62410000Y-53618500D01*
X62599500Y-53808000D01*
X63310775Y-53808000D01*
X63589372Y-53692602D01*
X63802601Y-53479373D01*
X63918000Y-53200776D01*
X63918000Y-53113039D01*
X70943699Y-53113039D01*
X71810000Y-53979340D01*
X72676301Y-53113039D01*
X72482639Y-52838216D01*
X71588851Y-52748408D01*
X71137361Y-52838216D01*
X70943699Y-53113039D01*
X63918000Y-53113039D01*
X63918000Y-52489500D01*
X63728500Y-52300000D01*
X62410000Y-52300000D01*
X60910000Y-52300000D01*
X59653554Y-52300000D01*
X58150000Y-50796446D01*
X58150000Y-49899224D01*
X59402000Y-49899224D01*
X59402000Y-50610500D01*
X59591500Y-50800000D01*
X60910000Y-50800000D01*
X60910000Y-49481500D01*
X62410000Y-49481500D01*
X62410000Y-50800000D01*
X63728500Y-50800000D01*
X63918000Y-50610500D01*
X63918000Y-49899224D01*
X63802601Y-49620627D01*
X63589372Y-49407398D01*
X63310775Y-49292000D01*
X62599500Y-49292000D01*
X62410000Y-49481500D01*
X60910000Y-49481500D01*
X60720500Y-49292000D01*
X60009225Y-49292000D01*
X59730628Y-49407398D01*
X59517399Y-49620627D01*
X59402000Y-49899224D01*
X58150000Y-49899224D01*
X58150000Y-47200000D01*
X58130304Y-47102736D01*
X58076777Y-47023223D01*
X55076777Y-44023223D01*
X54994073Y-43968375D01*
X54871125Y-43951673D01*
X53656869Y-44092866D01*
X53438000Y-44049330D01*
X53438000Y-43919500D01*
X53248500Y-43730000D01*
X52230000Y-43730000D01*
X52230000Y-43955000D01*
X51330000Y-43955000D01*
X51330000Y-43730000D01*
X50880000Y-43730000D01*
X50880000Y-42930000D01*
X51330000Y-42930000D01*
X51330000Y-41961500D01*
X52230000Y-41961500D01*
X52230000Y-42930000D01*
X53248500Y-42930000D01*
X53438000Y-42740500D01*
X53438000Y-42730635D01*
X55075306Y-42730635D01*
X55425088Y-43227838D01*
X55869369Y-43524665D01*
X56100000Y-43408737D01*
X56100000Y-42500000D01*
X56900000Y-42500000D01*
X56900000Y-43408737D01*
X57130631Y-43524665D01*
X57574912Y-43227838D01*
X57924694Y-42730635D01*
X57816307Y-42500000D01*
X56900000Y-42500000D01*
X56100000Y-42500000D01*
X55183693Y-42500000D01*
X55075306Y-42730635D01*
X53438000Y-42730635D01*
X53438000Y-42379224D01*
X53356304Y-42181993D01*
X53888865Y-41985521D01*
X54428379Y-41486799D01*
X54438933Y-41469365D01*
X55075306Y-41469365D01*
X55183693Y-41700000D01*
X56100000Y-41700000D01*
X56100000Y-40791263D01*
X56900000Y-40791263D01*
X56900000Y-41700000D01*
X57816307Y-41700000D01*
X57924694Y-41469365D01*
X57574912Y-40972162D01*
X57130631Y-40675335D01*
X56900000Y-40791263D01*
X56100000Y-40791263D01*
X55869369Y-40675335D01*
X55425088Y-40972162D01*
X55075306Y-41469365D01*
X54438933Y-41469365D01*
X54591902Y-41216691D01*
X54502353Y-40942500D01*
X52905000Y-40942500D01*
X52905000Y-41802745D01*
X52830775Y-41772000D01*
X52419500Y-41772000D01*
X52230000Y-41961500D01*
X51330000Y-41961500D01*
X51140500Y-41772000D01*
X50850000Y-41772000D01*
X50850000Y-39255000D01*
X52905000Y-39255000D01*
X52905000Y-39817500D01*
X54502353Y-39817500D01*
X54591902Y-39543309D01*
X54428379Y-39273201D01*
X54078742Y-38950000D01*
X57725682Y-38950000D01*
X59963433Y-40409403D01*
G36*
X49650000Y-38800536D02*
X49270402Y-39054175D01*
X48863953Y-39662469D01*
X48721227Y-40380000D01*
X48863953Y-41097531D01*
X49270402Y-41705825D01*
X49650000Y-41959464D01*
X49650000Y-44244016D01*
X49131621Y-44723201D01*
X48968098Y-44993309D01*
X49057647Y-45267500D01*
X49650000Y-45267500D01*
X49650000Y-46392500D01*
X49057647Y-46392500D01*
X48968098Y-46666691D01*
X49131621Y-46936799D01*
X49650000Y-47415984D01*
X49650000Y-49390307D01*
X49530000Y-49390307D01*
X49252067Y-49442604D01*
X48996802Y-49606862D01*
X48825554Y-49857492D01*
X48765307Y-50155000D01*
X48765307Y-52405000D01*
X48817604Y-52682933D01*
X48981862Y-52938198D01*
X49232492Y-53109446D01*
X49530000Y-53169693D01*
X49650000Y-53169693D01*
X49650000Y-70200000D01*
X49669696Y-70297264D01*
X49725682Y-70379202D01*
X49809136Y-70432903D01*
X49897396Y-70449986D01*
X52098035Y-70472909D01*
X53012563Y-71387437D01*
X53580304Y-71766789D01*
X54250000Y-71900000D01*
X54450000Y-71900000D01*
X54450000Y-74766920D01*
X54275685Y-74544562D01*
X53884176Y-74283003D01*
X53600000Y-74366392D01*
X53600000Y-75430000D01*
X54200000Y-75430000D01*
X54200000Y-76630000D01*
X53600000Y-76630000D01*
X53600000Y-77693608D01*
X53884176Y-77776997D01*
X54275685Y-77515438D01*
X54460252Y-77280002D01*
X54958000Y-77280002D01*
X54958000Y-76300000D01*
X59860416Y-76300000D01*
X59296323Y-76864093D01*
X59748874Y-77316643D01*
X59821154Y-77680017D01*
X60069195Y-77765119D01*
X60734315Y-77100000D01*
X60451472Y-76817157D01*
X60968629Y-76300000D01*
X61065685Y-76300000D01*
X61300000Y-76534315D01*
X61534315Y-76300000D01*
X61631371Y-76300000D01*
X62148528Y-76817157D01*
X61865685Y-77100000D01*
X62148528Y-77382843D01*
X61582843Y-77948528D01*
X61300000Y-77665685D01*
X60634881Y-78330805D01*
X60719983Y-78578846D01*
X61074677Y-78642446D01*
X61535907Y-79103677D01*
X62200000Y-78439584D01*
X62200000Y-83099353D01*
X43350000Y-83050645D01*
X43350000Y-76914182D01*
X51252968Y-76914182D01*
X51724315Y-77515438D01*
X52115824Y-77776997D01*
X52400000Y-77693608D01*
X52400000Y-76630000D01*
X51325660Y-76630000D01*
X51252968Y-76914182D01*
X43350000Y-76914182D01*
X43350000Y-75145818D01*
X51252968Y-75145818D01*
X51325660Y-75430000D01*
X52400000Y-75430000D01*
X52400000Y-74366392D01*
X52115824Y-74283003D01*
X51724315Y-74544562D01*
X51252968Y-75145818D01*
X43350000Y-75145818D01*
X43350000Y-39050000D01*
X43700000Y-39050000D01*
X43797264Y-39030304D01*
X43879202Y-38974318D01*
X43932903Y-38890864D01*
X43949905Y-38793093D01*
X43927529Y-38696411D01*
X43893900Y-38650000D01*
X49650000Y-38650000D01*
X49650000Y-38800536D01*
X49650000Y-38800536D01*
G37*
X49650000Y-38800536D02*
X49270402Y-39054175D01*
X48863953Y-39662469D01*
X48721227Y-40380000D01*
X48863953Y-41097531D01*
X49270402Y-41705825D01*
X49650000Y-41959464D01*
X49650000Y-44244016D01*
X49131621Y-44723201D01*
X48968098Y-44993309D01*
X49057647Y-45267500D01*
X49650000Y-45267500D01*
X49650000Y-46392500D01*
X49057647Y-46392500D01*
X48968098Y-46666691D01*
X49131621Y-46936799D01*
X49650000Y-47415984D01*
X49650000Y-49390307D01*
X49530000Y-49390307D01*
X49252067Y-49442604D01*
X48996802Y-49606862D01*
X48825554Y-49857492D01*
X48765307Y-50155000D01*
X48765307Y-52405000D01*
X48817604Y-52682933D01*
X48981862Y-52938198D01*
X49232492Y-53109446D01*
X49530000Y-53169693D01*
X49650000Y-53169693D01*
X49650000Y-70200000D01*
X49669696Y-70297264D01*
X49725682Y-70379202D01*
X49809136Y-70432903D01*
X49897396Y-70449986D01*
X52098035Y-70472909D01*
X53012563Y-71387437D01*
X53580304Y-71766789D01*
X54250000Y-71900000D01*
X54450000Y-71900000D01*
X54450000Y-74766920D01*
X54275685Y-74544562D01*
X53884176Y-74283003D01*
X53600000Y-74366392D01*
X53600000Y-75430000D01*
X54200000Y-75430000D01*
X54200000Y-76630000D01*
X53600000Y-76630000D01*
X53600000Y-77693608D01*
X53884176Y-77776997D01*
X54275685Y-77515438D01*
X54460252Y-77280002D01*
X54958000Y-77280002D01*
X54958000Y-76300000D01*
X59860416Y-76300000D01*
X59296323Y-76864093D01*
X59748874Y-77316643D01*
X59821154Y-77680017D01*
X60069195Y-77765119D01*
X60734315Y-77100000D01*
X60451472Y-76817157D01*
X60968629Y-76300000D01*
X61065685Y-76300000D01*
X61300000Y-76534315D01*
X61534315Y-76300000D01*
X61631371Y-76300000D01*
X62148528Y-76817157D01*
X61865685Y-77100000D01*
X62148528Y-77382843D01*
X61582843Y-77948528D01*
X61300000Y-77665685D01*
X60634881Y-78330805D01*
X60719983Y-78578846D01*
X61074677Y-78642446D01*
X61535907Y-79103677D01*
X62200000Y-78439584D01*
X62200000Y-83099353D01*
X43350000Y-83050645D01*
X43350000Y-76914182D01*
X51252968Y-76914182D01*
X51724315Y-77515438D01*
X52115824Y-77776997D01*
X52400000Y-77693608D01*
X52400000Y-76630000D01*
X51325660Y-76630000D01*
X51252968Y-76914182D01*
X43350000Y-76914182D01*
X43350000Y-75145818D01*
X51252968Y-75145818D01*
X51325660Y-75430000D01*
X52400000Y-75430000D01*
X52400000Y-74366392D01*
X52115824Y-74283003D01*
X51724315Y-74544562D01*
X51252968Y-75145818D01*
X43350000Y-75145818D01*
X43350000Y-39050000D01*
X43700000Y-39050000D01*
X43797264Y-39030304D01*
X43879202Y-38974318D01*
X43932903Y-38890864D01*
X43949905Y-38793093D01*
X43927529Y-38696411D01*
X43893900Y-38650000D01*
X49650000Y-38650000D01*
X49650000Y-38800536D01*
G36*
X95587635Y-35275405D02*
X95596428Y-35284198D01*
X95528408Y-35961149D01*
X95618216Y-36412639D01*
X95893039Y-36606301D01*
X96759340Y-35740000D01*
X96391644Y-35372304D01*
X96452793Y-35311155D01*
X99196143Y-35424517D01*
X98880660Y-35740000D01*
X99205000Y-36064340D01*
X99205000Y-36151052D01*
X98187696Y-37168356D01*
X97820000Y-36800660D01*
X96953699Y-37666961D01*
X97147361Y-37941784D01*
X98041149Y-38031592D01*
X98293605Y-37981375D01*
X98560579Y-38248349D01*
X99205000Y-37603928D01*
X99205000Y-79211062D01*
X88510000Y-79043878D01*
X88510000Y-76429407D01*
X89619121Y-76429407D01*
X89766232Y-76693089D01*
X90538928Y-76791518D01*
X91033768Y-76693089D01*
X91180879Y-76429407D01*
X90400000Y-75648528D01*
X89619121Y-76429407D01*
X88510000Y-76429407D01*
X88510000Y-75435491D01*
X88770593Y-75580879D01*
X89551472Y-74800000D01*
X89127208Y-74375736D01*
X89600126Y-73902818D01*
X90336384Y-73887856D01*
X90400000Y-73951472D01*
X90466256Y-73885216D01*
X91168011Y-73870955D01*
X91672792Y-74375736D01*
X91248528Y-74800000D01*
X92029407Y-75580879D01*
X92293089Y-75433768D01*
X92391518Y-74661072D01*
X92377446Y-74590324D01*
X92692061Y-74275709D01*
X92265014Y-73848662D01*
X92731623Y-73839180D01*
X92699634Y-74000000D01*
X92817621Y-74593159D01*
X93153618Y-75096016D01*
X93656475Y-75432013D01*
X94249634Y-75550000D01*
X94310366Y-75550000D01*
X94903525Y-75432013D01*
X95406382Y-75096016D01*
X95742379Y-74593159D01*
X95860366Y-74000000D01*
X95742379Y-73406841D01*
X95406382Y-72903984D01*
X94903525Y-72567987D01*
X94627244Y-72513031D01*
X94415000Y-72300787D01*
X94415000Y-37971764D01*
X94517933Y-37952396D01*
X94773198Y-37788138D01*
X94944446Y-37537508D01*
X95004693Y-37240000D01*
X95004693Y-35442264D01*
X95047491Y-35447877D01*
X95146491Y-35440996D01*
X95235013Y-35396140D01*
X95281264Y-35348300D01*
X95342442Y-35265273D01*
X95587635Y-35275405D01*
X95587635Y-35275405D01*
G37*
X95587635Y-35275405D02*
X95596428Y-35284198D01*
X95528408Y-35961149D01*
X95618216Y-36412639D01*
X95893039Y-36606301D01*
X96759340Y-35740000D01*
X96391644Y-35372304D01*
X96452793Y-35311155D01*
X99196143Y-35424517D01*
X98880660Y-35740000D01*
X99205000Y-36064340D01*
X99205000Y-36151052D01*
X98187696Y-37168356D01*
X97820000Y-36800660D01*
X96953699Y-37666961D01*
X97147361Y-37941784D01*
X98041149Y-38031592D01*
X98293605Y-37981375D01*
X98560579Y-38248349D01*
X99205000Y-37603928D01*
X99205000Y-79211062D01*
X88510000Y-79043878D01*
X88510000Y-76429407D01*
X89619121Y-76429407D01*
X89766232Y-76693089D01*
X90538928Y-76791518D01*
X91033768Y-76693089D01*
X91180879Y-76429407D01*
X90400000Y-75648528D01*
X89619121Y-76429407D01*
X88510000Y-76429407D01*
X88510000Y-75435491D01*
X88770593Y-75580879D01*
X89551472Y-74800000D01*
X89127208Y-74375736D01*
X89600126Y-73902818D01*
X90336384Y-73887856D01*
X90400000Y-73951472D01*
X90466256Y-73885216D01*
X91168011Y-73870955D01*
X91672792Y-74375736D01*
X91248528Y-74800000D01*
X92029407Y-75580879D01*
X92293089Y-75433768D01*
X92391518Y-74661072D01*
X92377446Y-74590324D01*
X92692061Y-74275709D01*
X92265014Y-73848662D01*
X92731623Y-73839180D01*
X92699634Y-74000000D01*
X92817621Y-74593159D01*
X93153618Y-75096016D01*
X93656475Y-75432013D01*
X94249634Y-75550000D01*
X94310366Y-75550000D01*
X94903525Y-75432013D01*
X95406382Y-75096016D01*
X95742379Y-74593159D01*
X95860366Y-74000000D01*
X95742379Y-73406841D01*
X95406382Y-72903984D01*
X94903525Y-72567987D01*
X94627244Y-72513031D01*
X94415000Y-72300787D01*
X94415000Y-37971764D01*
X94517933Y-37952396D01*
X94773198Y-37788138D01*
X94944446Y-37537508D01*
X95004693Y-37240000D01*
X95004693Y-35442264D01*
X95047491Y-35447877D01*
X95146491Y-35440996D01*
X95235013Y-35396140D01*
X95281264Y-35348300D01*
X95342442Y-35265273D01*
X95587635Y-35275405D01*
G36*
X56950000Y-51600000D02*
X56969696Y-51697264D01*
X57023223Y-51776777D01*
X57750000Y-52503554D01*
X57750000Y-54141467D01*
X57730805Y-54134881D01*
X57065685Y-54800000D01*
X57730805Y-55465119D01*
X57750000Y-55458533D01*
X57750000Y-66100000D01*
X54050000Y-66100000D01*
X54050000Y-62800000D01*
X54030304Y-62702736D01*
X53974318Y-62620798D01*
X53950000Y-62605150D01*
X53950000Y-56030805D01*
X55834881Y-56030805D01*
X55919983Y-56278846D01*
X56530064Y-56388239D01*
X57080017Y-56278846D01*
X57165119Y-56030805D01*
X56500000Y-55365685D01*
X55834881Y-56030805D01*
X53950000Y-56030805D01*
X53950000Y-54830064D01*
X54911761Y-54830064D01*
X55021154Y-55380017D01*
X55269195Y-55465119D01*
X55934315Y-54800000D01*
X55269195Y-54134881D01*
X55021154Y-54219983D01*
X54911761Y-54830064D01*
X53950000Y-54830064D01*
X53950000Y-53569195D01*
X55834881Y-53569195D01*
X56500000Y-54234315D01*
X57165119Y-53569195D01*
X57080017Y-53321154D01*
X56469936Y-53211761D01*
X55919983Y-53321154D01*
X55834881Y-53569195D01*
X53950000Y-53569195D01*
X53950000Y-53163000D01*
X54180775Y-53163000D01*
X54459372Y-53047602D01*
X54672601Y-52834373D01*
X54788000Y-52555776D01*
X54788000Y-52032000D01*
X54598500Y-51842500D01*
X53950000Y-51842500D01*
X53950000Y-50717500D01*
X54598500Y-50717500D01*
X54788000Y-50528000D01*
X54788000Y-50004224D01*
X54672601Y-49725627D01*
X54459372Y-49512398D01*
X54180775Y-49397000D01*
X53950000Y-49397000D01*
X53950000Y-47550000D01*
X56950000Y-47550000D01*
X56950000Y-51600000D01*
X56950000Y-51600000D01*
G37*
X56950000Y-51600000D02*
X56969696Y-51697264D01*
X57023223Y-51776777D01*
X57750000Y-52503554D01*
X57750000Y-54141467D01*
X57730805Y-54134881D01*
X57065685Y-54800000D01*
X57730805Y-55465119D01*
X57750000Y-55458533D01*
X57750000Y-66100000D01*
X54050000Y-66100000D01*
X54050000Y-62800000D01*
X54030304Y-62702736D01*
X53974318Y-62620798D01*
X53950000Y-62605150D01*
X53950000Y-56030805D01*
X55834881Y-56030805D01*
X55919983Y-56278846D01*
X56530064Y-56388239D01*
X57080017Y-56278846D01*
X57165119Y-56030805D01*
X56500000Y-55365685D01*
X55834881Y-56030805D01*
X53950000Y-56030805D01*
X53950000Y-54830064D01*
X54911761Y-54830064D01*
X55021154Y-55380017D01*
X55269195Y-55465119D01*
X55934315Y-54800000D01*
X55269195Y-54134881D01*
X55021154Y-54219983D01*
X54911761Y-54830064D01*
X53950000Y-54830064D01*
X53950000Y-53569195D01*
X55834881Y-53569195D01*
X56500000Y-54234315D01*
X57165119Y-53569195D01*
X57080017Y-53321154D01*
X56469936Y-53211761D01*
X55919983Y-53321154D01*
X55834881Y-53569195D01*
X53950000Y-53569195D01*
X53950000Y-53163000D01*
X54180775Y-53163000D01*
X54459372Y-53047602D01*
X54672601Y-52834373D01*
X54788000Y-52555776D01*
X54788000Y-52032000D01*
X54598500Y-51842500D01*
X53950000Y-51842500D01*
X53950000Y-50717500D01*
X54598500Y-50717500D01*
X54788000Y-50528000D01*
X54788000Y-50004224D01*
X54672601Y-49725627D01*
X54459372Y-49512398D01*
X54180775Y-49397000D01*
X53950000Y-49397000D01*
X53950000Y-47550000D01*
X56950000Y-47550000D01*
X56950000Y-51600000D01*
G36*
X62503181Y-32015710D02*
X62519696Y-32097264D01*
X62575682Y-32179202D01*
X62659136Y-32232903D01*
X62750000Y-32250000D01*
X75190000Y-32250000D01*
X75190000Y-36880000D01*
X75209696Y-36977264D01*
X75265682Y-37059202D01*
X75349136Y-37112903D01*
X75438408Y-37129995D01*
X76453267Y-37136459D01*
X76424881Y-37219195D01*
X77090000Y-37884315D01*
X77755119Y-37219195D01*
X77729522Y-37144588D01*
X79552000Y-37156196D01*
X79552000Y-37390775D01*
X79667398Y-37669372D01*
X79880627Y-37882601D01*
X80159224Y-37998000D01*
X80870500Y-37998000D01*
X81060000Y-37808500D01*
X81060000Y-37165801D01*
X82560000Y-37175356D01*
X82560000Y-37808500D01*
X82749500Y-37998000D01*
X83460776Y-37998000D01*
X83739373Y-37882601D01*
X83952602Y-37669372D01*
X84068000Y-37390775D01*
X84068000Y-37184961D01*
X85160178Y-37191917D01*
X85613813Y-37646345D01*
X86440484Y-37989608D01*
X87335589Y-37990390D01*
X88162858Y-37648569D01*
X88598370Y-37213817D01*
X90482000Y-37225814D01*
X90482000Y-37390775D01*
X90597398Y-37669372D01*
X90810627Y-37882601D01*
X91089224Y-37998000D01*
X92458040Y-37998000D01*
X92400488Y-67608447D01*
X91416848Y-67602344D01*
X91629730Y-67089667D01*
X91630268Y-66473039D01*
X91394792Y-65903143D01*
X90959151Y-65466740D01*
X90389667Y-65230270D01*
X89773039Y-65229732D01*
X89203143Y-65465208D01*
X88766740Y-65900849D01*
X88530270Y-66470333D01*
X88529732Y-67086961D01*
X88735811Y-67585711D01*
X84770002Y-67561106D01*
X84770002Y-67492061D01*
X84944665Y-67230631D01*
X84828737Y-67000000D01*
X83920000Y-67000000D01*
X83920000Y-67400000D01*
X83120000Y-67400000D01*
X83120000Y-67000000D01*
X82211263Y-67000000D01*
X82095335Y-67230631D01*
X82269998Y-67492061D01*
X82269998Y-67545596D01*
X80650000Y-67535545D01*
X80650000Y-65969369D01*
X82095335Y-65969369D01*
X82211263Y-66200000D01*
X83120000Y-66200000D01*
X83120000Y-65283693D01*
X83920000Y-65283693D01*
X83920000Y-66200000D01*
X84828737Y-66200000D01*
X84944665Y-65969369D01*
X84647838Y-65525088D01*
X84150635Y-65175306D01*
X83920000Y-65283693D01*
X83120000Y-65283693D01*
X82889365Y-65175306D01*
X82392162Y-65525088D01*
X82095335Y-65969369D01*
X80650000Y-65969369D01*
X80650000Y-65600000D01*
X80554849Y-65121646D01*
X80392287Y-64878355D01*
X80283883Y-64716116D01*
X79083883Y-63516117D01*
X78678354Y-63245151D01*
X78200000Y-63150000D01*
X75205302Y-63150000D01*
X75229993Y-59931918D01*
X75230000Y-59930000D01*
X75230000Y-56966961D01*
X80943699Y-56966961D01*
X81137361Y-57241784D01*
X82031149Y-57331592D01*
X82482639Y-57241784D01*
X82676301Y-56966961D01*
X81810000Y-56100660D01*
X80943699Y-56966961D01*
X75230000Y-56966961D01*
X75230000Y-55261149D01*
X79518408Y-55261149D01*
X79608216Y-55712639D01*
X79883039Y-55906301D01*
X80749340Y-55040000D01*
X82870660Y-55040000D01*
X83736961Y-55906301D01*
X84011784Y-55712639D01*
X84101592Y-54818851D01*
X84011784Y-54367361D01*
X83736961Y-54173699D01*
X82870660Y-55040000D01*
X80749340Y-55040000D01*
X79883039Y-54173699D01*
X79608216Y-54367361D01*
X79518408Y-55261149D01*
X75230000Y-55261149D01*
X75230000Y-53113039D01*
X80943699Y-53113039D01*
X81810000Y-53979340D01*
X82676301Y-53113039D01*
X82482639Y-52838216D01*
X81588851Y-52748408D01*
X81137361Y-52838216D01*
X80943699Y-53113039D01*
X75230000Y-53113039D01*
X75230000Y-50090000D01*
X75210304Y-49992736D01*
X75156777Y-49913223D01*
X69672961Y-44429407D01*
X81419121Y-44429407D01*
X81566232Y-44693089D01*
X82338928Y-44791518D01*
X82833768Y-44693089D01*
X82980879Y-44429407D01*
X82200000Y-43648528D01*
X81419121Y-44429407D01*
X69672961Y-44429407D01*
X68340000Y-43096446D01*
X68340000Y-42938928D01*
X80208482Y-42938928D01*
X80306911Y-43433768D01*
X80570593Y-43580879D01*
X81351472Y-42800000D01*
X83048528Y-42800000D01*
X83829407Y-43580879D01*
X84093089Y-43433768D01*
X84191518Y-42661072D01*
X84093089Y-42166232D01*
X83829407Y-42019121D01*
X83048528Y-42800000D01*
X81351472Y-42800000D01*
X80570593Y-42019121D01*
X80306911Y-42166232D01*
X80208482Y-42938928D01*
X68340000Y-42938928D01*
X68340000Y-41170593D01*
X81419121Y-41170593D01*
X82200000Y-41951472D01*
X82980879Y-41170593D01*
X82833768Y-40906911D01*
X82061072Y-40808482D01*
X81566232Y-40906911D01*
X81419121Y-41170593D01*
X68340000Y-41170593D01*
X68340000Y-39439500D01*
X69142000Y-39439500D01*
X69142000Y-40150775D01*
X69257398Y-40429372D01*
X69470627Y-40642601D01*
X69749224Y-40758000D01*
X70460500Y-40758000D01*
X70650000Y-40568500D01*
X70650000Y-39250000D01*
X72150000Y-39250000D01*
X72150000Y-40568500D01*
X72339500Y-40758000D01*
X73050776Y-40758000D01*
X73329373Y-40642601D01*
X73542602Y-40429372D01*
X73658000Y-40150775D01*
X73658000Y-39680805D01*
X76424881Y-39680805D01*
X76509983Y-39928846D01*
X77120064Y-40038239D01*
X77670017Y-39928846D01*
X77755119Y-39680805D01*
X77090000Y-39015685D01*
X76424881Y-39680805D01*
X73658000Y-39680805D01*
X73658000Y-39439500D01*
X73468500Y-39250000D01*
X72150000Y-39250000D01*
X70650000Y-39250000D01*
X69331500Y-39250000D01*
X69142000Y-39439500D01*
X68340000Y-39439500D01*
X68340000Y-38480064D01*
X75501761Y-38480064D01*
X75611154Y-39030017D01*
X75859195Y-39115119D01*
X76524315Y-38450000D01*
X77655685Y-38450000D01*
X78320805Y-39115119D01*
X78568846Y-39030017D01*
X78678239Y-38419936D01*
X78568846Y-37869983D01*
X78320805Y-37784881D01*
X77655685Y-38450000D01*
X76524315Y-38450000D01*
X75859195Y-37784881D01*
X75611154Y-37869983D01*
X75501761Y-38480064D01*
X68340000Y-38480064D01*
X68340000Y-38220000D01*
X68320304Y-38122736D01*
X68264318Y-38040798D01*
X68180864Y-37987097D01*
X68090000Y-37970000D01*
X66115512Y-37970000D01*
X65808569Y-37227142D01*
X65431312Y-36849225D01*
X69142000Y-36849225D01*
X69142000Y-37560500D01*
X69331500Y-37750000D01*
X70650000Y-37750000D01*
X70650000Y-36431500D01*
X72150000Y-36431500D01*
X72150000Y-37750000D01*
X73468500Y-37750000D01*
X73658000Y-37560500D01*
X73658000Y-36849225D01*
X73542602Y-36570628D01*
X73329373Y-36357399D01*
X73050776Y-36242000D01*
X72339500Y-36242000D01*
X72150000Y-36431500D01*
X70650000Y-36431500D01*
X70460500Y-36242000D01*
X69749224Y-36242000D01*
X69470627Y-36357399D01*
X69257398Y-36570628D01*
X69142000Y-36849225D01*
X65431312Y-36849225D01*
X65176187Y-36593655D01*
X64349516Y-36250392D01*
X63454411Y-36249610D01*
X62627142Y-36591431D01*
X62330000Y-36888055D01*
X62330000Y-32005371D01*
X62503181Y-32015710D01*
X62503181Y-32015710D01*
G37*
X62503181Y-32015710D02*
X62519696Y-32097264D01*
X62575682Y-32179202D01*
X62659136Y-32232903D01*
X62750000Y-32250000D01*
X75190000Y-32250000D01*
X75190000Y-36880000D01*
X75209696Y-36977264D01*
X75265682Y-37059202D01*
X75349136Y-37112903D01*
X75438408Y-37129995D01*
X76453267Y-37136459D01*
X76424881Y-37219195D01*
X77090000Y-37884315D01*
X77755119Y-37219195D01*
X77729522Y-37144588D01*
X79552000Y-37156196D01*
X79552000Y-37390775D01*
X79667398Y-37669372D01*
X79880627Y-37882601D01*
X80159224Y-37998000D01*
X80870500Y-37998000D01*
X81060000Y-37808500D01*
X81060000Y-37165801D01*
X82560000Y-37175356D01*
X82560000Y-37808500D01*
X82749500Y-37998000D01*
X83460776Y-37998000D01*
X83739373Y-37882601D01*
X83952602Y-37669372D01*
X84068000Y-37390775D01*
X84068000Y-37184961D01*
X85160178Y-37191917D01*
X85613813Y-37646345D01*
X86440484Y-37989608D01*
X87335589Y-37990390D01*
X88162858Y-37648569D01*
X88598370Y-37213817D01*
X90482000Y-37225814D01*
X90482000Y-37390775D01*
X90597398Y-37669372D01*
X90810627Y-37882601D01*
X91089224Y-37998000D01*
X92458040Y-37998000D01*
X92400488Y-67608447D01*
X91416848Y-67602344D01*
X91629730Y-67089667D01*
X91630268Y-66473039D01*
X91394792Y-65903143D01*
X90959151Y-65466740D01*
X90389667Y-65230270D01*
X89773039Y-65229732D01*
X89203143Y-65465208D01*
X88766740Y-65900849D01*
X88530270Y-66470333D01*
X88529732Y-67086961D01*
X88735811Y-67585711D01*
X84770002Y-67561106D01*
X84770002Y-67492061D01*
X84944665Y-67230631D01*
X84828737Y-67000000D01*
X83920000Y-67000000D01*
X83920000Y-67400000D01*
X83120000Y-67400000D01*
X83120000Y-67000000D01*
X82211263Y-67000000D01*
X82095335Y-67230631D01*
X82269998Y-67492061D01*
X82269998Y-67545596D01*
X80650000Y-67535545D01*
X80650000Y-65969369D01*
X82095335Y-65969369D01*
X82211263Y-66200000D01*
X83120000Y-66200000D01*
X83120000Y-65283693D01*
X83920000Y-65283693D01*
X83920000Y-66200000D01*
X84828737Y-66200000D01*
X84944665Y-65969369D01*
X84647838Y-65525088D01*
X84150635Y-65175306D01*
X83920000Y-65283693D01*
X83120000Y-65283693D01*
X82889365Y-65175306D01*
X82392162Y-65525088D01*
X82095335Y-65969369D01*
X80650000Y-65969369D01*
X80650000Y-65600000D01*
X80554849Y-65121646D01*
X80392287Y-64878355D01*
X80283883Y-64716116D01*
X79083883Y-63516117D01*
X78678354Y-63245151D01*
X78200000Y-63150000D01*
X75205302Y-63150000D01*
X75229993Y-59931918D01*
X75230000Y-59930000D01*
X75230000Y-56966961D01*
X80943699Y-56966961D01*
X81137361Y-57241784D01*
X82031149Y-57331592D01*
X82482639Y-57241784D01*
X82676301Y-56966961D01*
X81810000Y-56100660D01*
X80943699Y-56966961D01*
X75230000Y-56966961D01*
X75230000Y-55261149D01*
X79518408Y-55261149D01*
X79608216Y-55712639D01*
X79883039Y-55906301D01*
X80749340Y-55040000D01*
X82870660Y-55040000D01*
X83736961Y-55906301D01*
X84011784Y-55712639D01*
X84101592Y-54818851D01*
X84011784Y-54367361D01*
X83736961Y-54173699D01*
X82870660Y-55040000D01*
X80749340Y-55040000D01*
X79883039Y-54173699D01*
X79608216Y-54367361D01*
X79518408Y-55261149D01*
X75230000Y-55261149D01*
X75230000Y-53113039D01*
X80943699Y-53113039D01*
X81810000Y-53979340D01*
X82676301Y-53113039D01*
X82482639Y-52838216D01*
X81588851Y-52748408D01*
X81137361Y-52838216D01*
X80943699Y-53113039D01*
X75230000Y-53113039D01*
X75230000Y-50090000D01*
X75210304Y-49992736D01*
X75156777Y-49913223D01*
X69672961Y-44429407D01*
X81419121Y-44429407D01*
X81566232Y-44693089D01*
X82338928Y-44791518D01*
X82833768Y-44693089D01*
X82980879Y-44429407D01*
X82200000Y-43648528D01*
X81419121Y-44429407D01*
X69672961Y-44429407D01*
X68340000Y-43096446D01*
X68340000Y-42938928D01*
X80208482Y-42938928D01*
X80306911Y-43433768D01*
X80570593Y-43580879D01*
X81351472Y-42800000D01*
X83048528Y-42800000D01*
X83829407Y-43580879D01*
X84093089Y-43433768D01*
X84191518Y-42661072D01*
X84093089Y-42166232D01*
X83829407Y-42019121D01*
X83048528Y-42800000D01*
X81351472Y-42800000D01*
X80570593Y-42019121D01*
X80306911Y-42166232D01*
X80208482Y-42938928D01*
X68340000Y-42938928D01*
X68340000Y-41170593D01*
X81419121Y-41170593D01*
X82200000Y-41951472D01*
X82980879Y-41170593D01*
X82833768Y-40906911D01*
X82061072Y-40808482D01*
X81566232Y-40906911D01*
X81419121Y-41170593D01*
X68340000Y-41170593D01*
X68340000Y-39439500D01*
X69142000Y-39439500D01*
X69142000Y-40150775D01*
X69257398Y-40429372D01*
X69470627Y-40642601D01*
X69749224Y-40758000D01*
X70460500Y-40758000D01*
X70650000Y-40568500D01*
X70650000Y-39250000D01*
X72150000Y-39250000D01*
X72150000Y-40568500D01*
X72339500Y-40758000D01*
X73050776Y-40758000D01*
X73329373Y-40642601D01*
X73542602Y-40429372D01*
X73658000Y-40150775D01*
X73658000Y-39680805D01*
X76424881Y-39680805D01*
X76509983Y-39928846D01*
X77120064Y-40038239D01*
X77670017Y-39928846D01*
X77755119Y-39680805D01*
X77090000Y-39015685D01*
X76424881Y-39680805D01*
X73658000Y-39680805D01*
X73658000Y-39439500D01*
X73468500Y-39250000D01*
X72150000Y-39250000D01*
X70650000Y-39250000D01*
X69331500Y-39250000D01*
X69142000Y-39439500D01*
X68340000Y-39439500D01*
X68340000Y-38480064D01*
X75501761Y-38480064D01*
X75611154Y-39030017D01*
X75859195Y-39115119D01*
X76524315Y-38450000D01*
X77655685Y-38450000D01*
X78320805Y-39115119D01*
X78568846Y-39030017D01*
X78678239Y-38419936D01*
X78568846Y-37869983D01*
X78320805Y-37784881D01*
X77655685Y-38450000D01*
X76524315Y-38450000D01*
X75859195Y-37784881D01*
X75611154Y-37869983D01*
X75501761Y-38480064D01*
X68340000Y-38480064D01*
X68340000Y-38220000D01*
X68320304Y-38122736D01*
X68264318Y-38040798D01*
X68180864Y-37987097D01*
X68090000Y-37970000D01*
X66115512Y-37970000D01*
X65808569Y-37227142D01*
X65431312Y-36849225D01*
X69142000Y-36849225D01*
X69142000Y-37560500D01*
X69331500Y-37750000D01*
X70650000Y-37750000D01*
X70650000Y-36431500D01*
X72150000Y-36431500D01*
X72150000Y-37750000D01*
X73468500Y-37750000D01*
X73658000Y-37560500D01*
X73658000Y-36849225D01*
X73542602Y-36570628D01*
X73329373Y-36357399D01*
X73050776Y-36242000D01*
X72339500Y-36242000D01*
X72150000Y-36431500D01*
X70650000Y-36431500D01*
X70460500Y-36242000D01*
X69749224Y-36242000D01*
X69470627Y-36357399D01*
X69257398Y-36570628D01*
X69142000Y-36849225D01*
X65431312Y-36849225D01*
X65176187Y-36593655D01*
X64349516Y-36250392D01*
X63454411Y-36249610D01*
X62627142Y-36591431D01*
X62330000Y-36888055D01*
X62330000Y-32005371D01*
X62503181Y-32015710D01*
M02*
