M48
;DRILL file {KiCad 4.0.7} date 05/08/21 10:41:15
;FORMAT={-:-/ absolute / metric / decimal}
FMAT,2
METRIC,TZ
T1C0.400
T2C0.800
T3C1.000
T4C1.100
T5C1.200
T6C1.500
T7C1.520
T8C1.800
T9C3.048
%
G90
G05
M71
T1
X97.75Y-113.3
X99.85Y-111.55
X107.725Y-81.9
X107.95Y-83.25
X108.025Y-80.95
X111.275Y-83.25
X111.35Y-82.2
X111.575Y-81.1
X122.7Y-54.6
X126.2Y-54.7
T2
X44.1Y-87.2
X49.1Y-87.2
X51.67Y-31.8
X54.12Y-35.09
X56.3Y-70.15
X56.5Y-42.1
X56.5Y-54.8
X57.75Y-73.2
X57.75Y-85.9
X59.12Y-35.09
X59.29Y-31.8
X60.65Y-90.15
X60.65Y-95.15
X61.3Y-77.1
X61.3Y-84.72
X64.Y-77.3
X65.Y-82.1
X65.Y-84.64
X65.Y-87.18
X66.Y-66.6
X68.7Y-90.9
X68.7Y-95.9
X69.Y-70.15
X69.Y-77.3
X70.56Y-108.57
X70.61Y-102.11
X70.65Y-98.75
X71.35Y-91.85
X71.55Y-95.3
X71.78Y-69.72
X71.78Y-72.26
X71.78Y-74.8
X71.78Y-77.34
X71.78Y-79.88
X71.78Y-82.42
X71.78Y-84.96
X71.78Y-87.5
X73.62Y-66.6
X75.9Y-66.6
X76.55Y-95.3
X77.09Y-33.45
X77.09Y-38.45
X78.18Y-108.57
X78.23Y-102.11
X78.27Y-98.75
X78.97Y-91.85
X79.4Y-69.72
X79.4Y-72.26
X79.4Y-74.8
X79.4Y-77.34
X79.4Y-79.88
X79.4Y-82.42
X79.4Y-84.96
X79.4Y-87.5
X80.73Y-105.45
X80.78Y-102.1
X80.9Y-108.38
X80.9Y-116.
X81.9Y-91.05
X81.9Y-96.05
X82.6Y-69.6
X82.6Y-77.22
X82.8Y-79.7
X82.8Y-84.7
X83.52Y-66.6
X84.65Y-110.2
X85.Y-98.65
X86.Y-69.68
X86.Y-77.3
X87.15Y-110.2
X87.6Y-124.5
X88.35Y-105.45
X88.4Y-102.1
X90.08Y-66.78
X90.08Y-71.78
X90.4Y-109.75
X92.4Y-105.2
X92.62Y-98.65
X94.28Y-74.
X94.3Y-101.9
X94.68Y-84.4
X94.7Y-81.15
X95.22Y-124.5
X95.28Y-98.65
X95.48Y-87.9
X95.48Y-95.52
X98.02Y-87.9
X98.02Y-95.52
X98.02Y-109.75
X99.3Y-101.9
X100.02Y-105.2
X100.56Y-87.9
X100.56Y-95.52
X101.9Y-74.
X102.3Y-84.4
X102.32Y-81.15
X102.9Y-98.65
X102.9Y-103.3
X102.9Y-110.92
X102.98Y-57.5
X102.98Y-65.12
X103.1Y-87.9
X103.1Y-95.52
X105.52Y-57.5
X105.52Y-65.12
X105.85Y-98.3
X105.85Y-103.3
X106.55Y-86.95
X106.55Y-94.57
X106.9Y-110.9
X108.06Y-57.5
X108.06Y-65.12
X108.6Y-40.9
X108.66Y-37.64
X109.15Y-97.35
X109.15Y-104.97
X109.4Y-110.9
X109.85Y-85.75
X109.85Y-93.37
X110.6Y-57.5
X110.6Y-65.12
X113.1Y-85.8
X113.1Y-93.42
X113.14Y-57.5
X113.14Y-65.12
X113.15Y-47.2
X114.67Y-51.7
X115.68Y-57.5
X115.68Y-65.12
X116.1Y-68.3
X116.22Y-40.9
X116.28Y-37.64
X118.15Y-47.2
X118.22Y-57.5
X118.22Y-65.12
X119.55Y-51.7
X120.35Y-47.25
X120.7Y-78.7
X120.7Y-85.3
X120.76Y-57.5
X120.76Y-65.12
X120.78Y-82.
X120.78Y-88.5
X120.88Y-75.4
X120.9Y-72.
X121.1Y-68.3
X123.28Y-68.8
X123.3Y-57.5
X123.3Y-65.12
X123.35Y-92.05
X123.42Y-96.34
X123.42Y-99.72
X123.8Y-36.6
X123.8Y-41.6
X125.35Y-47.25
X125.84Y-57.5
X125.84Y-65.12
X128.32Y-78.7
X128.32Y-85.3
X128.35Y-92.05
X128.38Y-57.5
X128.38Y-65.12
X128.4Y-82.
X128.4Y-88.5
X128.5Y-75.4
X128.52Y-72.
X128.9Y-42.4
X128.9Y-50.02
X129.9Y-34.9
X129.9Y-38.4
X130.9Y-68.8
X130.92Y-57.5
X130.92Y-65.12
X131.04Y-96.34
X131.04Y-99.72
X131.6Y-86.9
X131.6Y-91.9
X131.7Y-72.4
X131.7Y-77.4
X131.7Y-79.7
X131.7Y-84.7
X131.8Y-42.4
X131.8Y-50.02
X132.4Y-54.3
X133.46Y-57.5
X133.46Y-65.12
X136.Y-57.5
X136.Y-65.12
X137.4Y-54.3
T3
X46.9Y-96.42
X46.9Y-98.96
X46.9Y-101.5
X51.78Y-43.33
X51.78Y-48.33
X52.15Y-62.97
X52.15Y-65.51
X52.15Y-68.05
X92.Y-119.4
X94.54Y-119.4
X97.08Y-119.4
X99.62Y-119.4
X102.16Y-119.4
X104.7Y-119.4
X107.24Y-119.4
X109.78Y-119.4
X109.82Y-74.
X109.82Y-76.54
X110.1Y-33.9
X112.32Y-119.4
X112.36Y-74.
X112.36Y-76.54
X112.64Y-33.9
X114.86Y-119.4
X114.9Y-74.
X114.9Y-76.54
X115.18Y-33.9
X117.4Y-119.4
X119.94Y-119.4
X122.48Y-119.4
X125.02Y-119.4
X127.56Y-119.4
X130.1Y-119.4
X136.9Y-42.18
X136.9Y-44.72
X136.9Y-47.26
X136.9Y-49.8
T4
X51.5Y-99.23
X51.5Y-106.85
X52.8Y-122.
X52.8Y-126.5
X59.3Y-122.
X59.3Y-126.5
X63.4Y-122.
X63.4Y-126.5
X69.9Y-122.
X69.9Y-126.5
X70.61Y-105.5
X73.8Y-122.
X73.8Y-126.5
X78.23Y-105.5
X80.3Y-122.
X80.3Y-126.5
X112.35Y-103.38
X112.35Y-106.98
X116.9Y-81.55
X116.9Y-89.17
X119.97Y-103.38
X119.97Y-106.98
T5
X53.Y-76.03
X53.Y-96.35
X82.2Y-42.8
X90.4Y-74.8
X90.4Y-95.12
X102.52Y-42.8
X126.8Y-106.1
X129.3Y-111.14
X131.8Y-106.1
T6
X51.78Y-40.38
X51.78Y-45.83
X51.78Y-51.28
T7
X47.7Y-112.65
X47.7Y-117.73
X81.81Y-35.74
X86.89Y-35.74
X92.74Y-35.74
X97.82Y-35.74
X102.75Y-50.45
X107.83Y-50.45
T8
X61.46Y-101.5
X61.46Y-109.
X61.66Y-51.55
X61.66Y-64.25
X63.9Y-38.5
X71.4Y-38.5
X71.81Y-55.04
X81.81Y-55.04
T9
X45.804Y-34.016
X45.804Y-125.456
X137.752Y-34.016
X137.752Y-125.456
T6
X56.26Y-116.35G85X56.26Y-116.85
G05
X59.96Y-116.35G85X59.96Y-116.85
G05
X63.71Y-116.35G85X63.71Y-116.85
G05
X67.66Y-116.35G85X67.66Y-116.85
G05
T0
M30
